<svg width="40" height="40" viewBox="0 0 40 40" fill="none" xmlns="http://www.w3.org/2000/svg">
<g clip-path="url(#clip0)">
<path d="M8.66667 16.6667C6.82585 16.6667 5.33334 18.1592 5.33334 20C5.33334 21.8408 6.82585 23.3334 8.66667 23.3334C10.5075 23.3334 12 21.8408 12 20C11.9977 18.1599 10.5068 16.669 8.66667 16.6667ZM8.66667 22C7.56218 22 6.66667 21.1045 6.66667 20C6.66667 18.8955 7.56218 18 8.66667 18C9.77116 18 10.6667 18.8955 10.6667 20C10.6667 21.1045 9.77116 22 8.66667 22Z" fill="#0E4BC0"/>
<path d="M22 9.33335C23.8408 9.33335 25.3333 7.84084 25.3333 6.00002C25.3333 4.1592 23.8408 2.66669 22 2.66669C20.1592 2.66669 18.6667 4.1592 18.6667 6.00002C18.6689 7.84019 20.1598 9.33107 22 9.33335ZM22 4.00002C23.1045 4.00002 24 4.89553 24 6.00002C24 7.10451 23.1045 8.00002 22 8.00002C20.8955 8.00002 20 7.10451 20 6.00002C20 4.89553 20.8955 4.00002 22 4.00002Z" fill="#036AB4"/>
<path d="M38 20.2826V18C37.9948 16.3249 36.7448 14.915 35.0827 14.7087L27.9639 6.64616C27.9873 6.43132 27.9993 6.21582 28 6C28 2.6862 25.3138 0 22 0C18.6862 0 16 2.6862 16 6C16 6.10612 16.0107 6.20931 16.0159 6.31348L8.3112 14.0179C5.89453 14.1556 3.79883 15.7357 3.00098 18.0212C2.20312 20.3066 2.86068 22.8477 4.66667 24.4593V34.6667H0.666667C0.298503 34.6667 0 34.9652 0 35.3333V39.3333C0 39.7015 0.298503 40 0.666667 40H26C26.3682 40 26.6667 39.7015 26.6667 39.3333V35.3333C26.6667 34.9652 26.3682 34.6667 26 34.6667H12.6667V24.4593C14.1969 23.1123 14.9225 21.07 14.5853 19.0592L21.6602 11.9827C21.7734 11.9893 21.8854 12 22 12C22.3392 11.998 22.6774 11.9671 23.0114 11.9079L31.3333 18.4668V20.2839C30.1204 20.8135 29.3356 22.0101 29.3333 23.3333V30C29.332 30.2318 29.4512 30.4473 29.6478 30.5697C29.8447 30.6921 30.0908 30.7035 30.2978 30.5999L32.9645 29.2666C33.1917 29.1533 33.3346 28.9206 33.3333 28.6667V24H36V28.6667C35.9987 28.9206 36.1416 29.1533 36.3688 29.2666L39.0355 30.5999C39.2425 30.7035 39.4886 30.6921 39.6855 30.5697C39.8822 30.4473 40.0013 30.2318 40 30V23.3333C39.9984 22.0094 39.2132 20.8122 38 20.2826ZM22 1.33333C24.5775 1.33333 26.6667 3.42253 26.6667 6C26.6667 8.57747 24.5775 10.6667 22 10.6667C19.4225 10.6667 17.3333 8.57747 17.3333 6C17.3363 3.42383 19.4238 1.33626 22 1.33333ZM25.3333 38.6667H1.33333V36H25.3333V38.6667ZM11.3333 34.6667H6V25.3665C7.67773 26.2106 9.6556 26.2106 11.3333 25.3665V34.6667ZM8.66667 24.6667C6.08919 24.6667 4 22.5775 4 20C4 17.4225 6.08919 15.3333 8.66667 15.3333C11.2441 15.3333 13.3333 17.4225 13.3333 20C13.3304 22.5762 11.2428 24.6637 8.66667 24.6667ZM14.1608 17.5999C13.402 15.8763 11.8799 14.6071 10.0479 14.1699L16.3148 7.90332C16.9131 9.68001 18.3047 11.0765 20.0794 11.6807L14.1608 17.5999ZM27.5713 8.2155L33.4714 14.8981C32.5576 15.2536 31.8467 15.9935 31.528 16.9206L24.5508 11.4225C25.9261 10.7731 27.0052 9.62728 27.5713 8.2155ZM32.6667 18C32.6667 16.8955 33.5622 16 34.6667 16C35.7712 16 36.6667 16.8955 36.6667 18V20H32.6667V18ZM38.6667 28.9212L37.3333 28.2546V23.3333C37.3333 22.9652 37.0348 22.6667 36.6667 22.6667H32.6667C32.2985 22.6667 32 22.9652 32 23.3333V28.2546L30.6667 28.9212V23.3333C30.6667 22.2288 31.5622 21.3333 32.6667 21.3333H36.6667C37.7712 21.3333 38.6667 22.2288 38.6667 23.3333V28.9212Z" fill="#036AB4"/>
</g>
<defs>
<clipPath id="clip0">
<rect width="40" height="40" fill="white"/>
</clipPath>
</defs>
</svg>
