<svg width="40" height="40" viewBox="0 0 40 40" fill="none" xmlns="http://www.w3.org/2000/svg">
<path d="M0.543557 23.9722C0.812609 24.0393 1.09539 23.9347 1.25615 23.7089C1.84459 23.0473 2.65114 22.6196 3.52876 22.5037C3.54554 22.6162 3.56354 22.7255 3.58275 22.8316C0.869653 25.204 1.90255 29.0317 2.87016 30.7833C3.0053 31.028 3.27862 31.1622 3.55469 31.1195C3.83076 31.0771 4.051 30.8669 4.10652 30.593C4.39998 29.7602 4.97866 29.0583 5.73975 28.6108C5.79893 28.709 5.85781 28.8042 5.91607 28.8963C4.32646 32.1258 6.73207 35.2657 8.28782 36.5118C8.32443 36.5387 8.36378 36.5615 8.40526 36.5798C8.45438 36.6049 8.50654 36.6235 8.56053 36.6347C8.595 36.6445 8.63008 36.6512 8.66547 36.6552C8.6795 36.6561 8.69232 36.6631 8.70635 36.6631C8.73777 36.6591 8.76888 36.653 8.79969 36.6448C8.82776 36.6412 8.85582 36.6357 8.88328 36.6283C8.92781 36.6161 8.97052 36.5994 9.0114 36.5777C9.02085 36.5728 9.03153 36.5716 9.04068 36.5661C9.05959 36.5527 9.07759 36.5377 9.09498 36.5222C9.12426 36.5057 9.15202 36.4871 9.17856 36.4664C9.18619 36.4587 9.18863 36.4481 9.19564 36.4401C9.24171 36.3895 9.27984 36.3321 9.30821 36.2699C9.32193 36.2354 9.33261 36.2001 9.33993 36.1638C9.35152 36.1238 9.35946 36.0823 9.36312 36.0405C9.36525 36.0082 9.36495 35.9755 9.3619 35.9429C9.36068 35.9225 9.36495 35.9023 9.36129 35.8816C9.31156 34.9933 9.58123 34.1163 10.1215 33.4095C10.2081 33.4729 10.296 33.5361 10.3856 33.5992C10.1334 37.3373 13.8318 39.2435 15.4311 39.709L15.4458 39.7133C15.4671 39.7194 15.4921 39.7282 15.5126 39.7337C15.5397 39.7389 15.5672 39.742 15.5946 39.7435C15.6258 39.752 15.6575 39.7584 15.6895 39.7624C15.8045 39.7587 15.9165 39.7249 16.0144 39.6645C16.044 39.6486 16.0723 39.6306 16.0992 39.6102C16.1157 39.5968 16.1355 39.5919 16.1511 39.5769C16.1639 39.5602 16.1761 39.5428 16.1874 39.5245C16.1968 39.5138 16.209 39.5065 16.2179 39.4949C16.2484 39.4397 16.2786 39.3845 16.3091 39.3289C16.3341 39.2637 16.349 39.1947 16.3527 39.1249C16.3521 39.1001 16.3496 39.0757 16.3463 39.0513C16.3323 38.9479 16.3039 38.8467 16.2615 38.7512C15.8774 37.9489 15.7884 37.0374 16.0095 36.176C16.1163 36.2022 16.2249 36.2272 16.3356 36.2516C17.341 39.2289 20.4583 39.9982 22.5577 39.9982C22.8408 39.9991 23.1238 39.9839 23.4054 39.9531C23.6833 39.9219 23.9121 39.7206 23.9786 39.4488C24.0448 39.1773 23.9344 38.8933 23.7022 38.7374C23.0476 38.1472 22.6233 37.3437 22.5055 36.4697C22.6181 36.4526 22.7273 36.4346 22.8334 36.4157C25.2101 39.13 29.036 38.1008 30.7845 37.1353C31.0252 37.0008 31.1576 36.7318 31.1176 36.459C31.0777 36.1845 30.8733 35.9627 30.603 35.9008C29.7648 35.6083 29.0598 35.0241 28.6172 34.2548C28.7081 34.1992 28.8008 34.1416 28.8957 34.0815C32.1252 35.6741 35.2672 33.2673 36.5133 31.7113C36.5499 31.6643 36.5798 31.6124 36.6024 31.5572C36.6201 31.513 36.6329 31.4669 36.6405 31.4199C36.6482 31.3885 36.6534 31.3568 36.6564 31.3248C36.6585 31.2046 36.6308 31.0859 36.5762 30.9788C36.5728 30.9721 36.5719 30.9648 36.5682 30.9584C36.5533 30.9377 36.5374 30.9181 36.5204 30.8992C36.5017 30.8672 36.4801 30.8367 36.4563 30.8083C36.4334 30.7918 36.4093 30.7766 36.3843 30.7632C36.3462 30.7333 36.305 30.7074 36.2611 30.6863C36.1866 30.6592 36.1091 30.6418 36.0304 30.6348C35.9981 30.6326 35.9655 30.6332 35.9331 30.6363C35.917 30.6381 35.9011 30.6344 35.8849 30.6372C34.996 30.6869 34.1187 30.4176 33.4107 29.8776C33.4738 29.791 33.537 29.7031 33.6001 29.6138C37.9239 29.9258 39.5367 25.1341 39.716 24.5503C39.7206 24.5387 39.7228 24.5271 39.7264 24.5152L39.735 24.4874C39.7398 24.46 39.7432 24.4325 39.7447 24.4051C39.7563 24.3276 39.7539 24.2486 39.7374 24.172C39.7328 24.143 39.7261 24.1146 39.7179 24.0866C39.7026 24.0475 39.6834 24.0103 39.6611 23.9749C39.6428 23.9441 39.6224 23.9151 39.5995 23.8877C39.5861 23.8657 39.5711 23.8447 39.5553 23.8249C39.5428 23.813 39.5266 23.8093 39.5135 23.7989C39.5074 23.7937 39.5037 23.7867 39.4973 23.7818C39.4238 23.7367 39.3454 23.7001 39.2633 23.6732C39.213 23.6586 39.1612 23.6501 39.109 23.6476C39.0297 23.6507 38.9513 23.6641 38.8756 23.6876C38.8491 23.6964 38.8232 23.7068 38.7981 23.719C38.7835 23.7263 38.7676 23.7285 38.7536 23.737C37.9507 24.1198 37.0389 24.2092 36.1772 23.989C36.2037 23.8822 36.229 23.7733 36.2531 23.6632C39.6672 22.5107 40.1782 18.5802 39.9549 16.5928C39.9223 16.3185 39.724 16.0931 39.4564 16.0257C39.1874 15.9586 38.9046 16.0632 38.7439 16.2889C38.1554 16.9506 37.3489 17.3783 36.4712 17.4942C36.4545 17.3813 36.4365 17.2718 36.4172 17.1656C39.131 14.7893 38.1023 10.9637 37.1372 9.21456C37.0029 8.97296 36.733 8.83996 36.4596 8.88144C36.1851 8.92171 35.9636 9.1264 35.902 9.39667C35.6116 10.2362 35.029 10.943 34.2606 11.388C34.2005 11.2895 34.1422 11.1946 34.0836 11.1022C35.6824 7.86838 33.2661 4.72607 31.7036 3.47873C31.4852 3.30394 31.1808 3.28442 30.9416 3.42962C30.7025 3.57482 30.5795 3.85394 30.6338 4.12848C30.6817 5.01221 30.4136 5.88404 29.8776 6.5884C29.791 6.52525 29.7028 6.46211 29.6134 6.39896C29.8654 2.66395 26.1734 0.7577 24.5719 0.290366L24.5603 0.2864C24.5368 0.279689 24.5094 0.269928 24.4868 0.263827C24.467 0.258336 24.4465 0.260471 24.4261 0.257421C24.2598 0.225391 24.0878 0.260166 23.9469 0.353816C23.9368 0.360222 23.9264 0.365408 23.917 0.372729C23.892 0.386151 23.8682 0.401099 23.8453 0.417876C23.8264 0.44106 23.809 0.465464 23.7937 0.491088C23.7901 0.495663 23.7849 0.498409 23.7815 0.502985C23.7751 0.511221 23.7727 0.520983 23.7669 0.529829C23.6714 0.666186 23.6324 0.834267 23.6577 0.998993C23.6604 1.02767 23.6653 1.05634 23.672 1.08471C23.6833 1.12101 23.6973 1.15609 23.7147 1.18995C23.7236 1.20887 23.7272 1.229 23.7379 1.2473C24.1217 2.04927 24.211 2.96106 23.9896 3.82222C23.8831 3.79629 23.7742 3.77097 23.6635 3.74687C22.511 0.332768 18.5789 -0.178188 16.5937 0.045107C16.3164 0.0768321 16.0882 0.278164 16.022 0.549047C15.9555 0.820235 16.0653 1.10393 16.2969 1.26011C16.9518 1.85038 17.3761 2.65388 17.4942 3.52784C17.3816 3.54523 17.2721 3.56323 17.1663 3.58184C14.7896 0.868128 10.9637 1.89645 9.21517 2.86253C8.97448 2.99706 8.84209 3.26642 8.88205 3.53913C8.92232 3.81367 9.12701 4.03544 9.39728 4.09737C10.2368 4.38747 10.9439 4.97011 11.3896 5.73853C11.2904 5.79771 11.1952 5.85658 11.1037 5.91515C7.86929 4.31639 4.7276 6.73238 3.47934 8.29453C3.30882 8.51234 3.28991 8.81281 3.43206 9.05014C3.57391 9.28746 3.84784 9.41314 4.12025 9.36556C5.00733 9.31187 5.88404 9.58 6.58931 10.1206C6.52617 10.2072 6.46302 10.295 6.39988 10.3844C2.08131 10.0815 0.463024 14.8677 0.283961 15.4473C0.27908 15.4598 0.276944 15.4723 0.272674 15.4851L0.265048 15.5098C0.261387 15.5318 0.258642 15.5538 0.257421 15.5757C0.236678 15.6825 0.243084 15.7923 0.275419 15.8957L0.276334 15.8994C0.295247 15.9534 0.321482 16.0046 0.354122 16.0516C0.362053 16.0638 0.369984 16.0754 0.378831 16.087C0.397134 16.1187 0.418182 16.1486 0.441671 16.1767C0.565215 16.2947 0.729941 16.3606 0.901073 16.3603C0.934934 16.3563 0.968184 16.3496 1.00113 16.3405C1.03316 16.3365 1.06488 16.3301 1.096 16.3213C1.13261 16.3103 1.1683 16.2959 1.20216 16.2786C1.21649 16.2715 1.23205 16.2694 1.24578 16.2612C2.04928 15.8796 2.96076 15.7905 3.82283 16.0095C3.79629 16.116 3.77066 16.2246 3.74656 16.3353C0.332768 17.4875 -0.178188 21.418 0.0451077 23.4054C0.0777479 23.6796 0.276029 23.9051 0.543557 23.9722ZM4.48478 17.5058C4.73492 17.4414 4.92558 17.2385 4.97408 16.9851C5.054 16.5592 5.15711 16.1382 5.2834 15.7237C5.33556 15.5541 5.31787 15.3707 5.23459 15.2139C5.15101 15.0575 5.00855 14.9406 4.83864 14.8894C3.94363 14.6014 2.99645 14.512 2.06331 14.6276C2.74967 13.2918 4.17638 11.3978 6.63171 11.7489C6.88521 11.7828 7.13626 11.6705 7.27994 11.4588C7.53374 11.0781 7.78541 10.7346 8.04897 10.4094C8.28019 10.1245 8.23779 9.7063 7.9541 9.47385C7.23571 8.86467 6.39255 8.42052 5.48382 8.17282C6.63568 7.20429 8.67645 6.00972 10.7978 7.26438C11.0204 7.39647 11.2996 7.38732 11.5131 7.24089C11.8386 7.01821 12.1937 6.80254 12.6311 6.56155C12.9508 6.38554 13.0691 5.9847 12.8965 5.66288C12.4648 4.82217 11.8529 4.0873 11.104 3.51046C12.5356 3.04739 14.8708 2.71886 16.3682 4.71204C16.5247 4.91856 16.7862 5.01648 17.0397 4.96371C17.4152 4.88378 17.8377 4.81759 18.33 4.76085C18.6921 4.71906 18.9532 4.39449 18.9169 4.03209C18.8388 3.09712 18.5576 2.19021 18.093 1.37481C19.5923 1.50263 21.8826 2.09808 22.493 4.48417C22.5568 4.73401 22.7593 4.92436 23.0125 4.97316C23.4387 5.05278 23.8599 5.15619 24.2745 5.28218C24.4441 5.33465 24.6274 5.31726 24.7842 5.23368C24.9407 5.1504 25.0576 5.00763 25.1088 4.83772C25.3977 3.94302 25.4874 2.99584 25.3717 2.0627C26.7079 2.74814 28.6001 4.17089 28.2493 6.6308C28.2136 6.8846 28.3264 7.13657 28.5397 7.27903C28.9243 7.53588 29.2672 7.78754 29.5881 8.04805C29.873 8.27958 30.2913 8.23688 30.5237 7.95288C31.1359 7.23205 31.5813 6.38462 31.8281 5.47161C32.8036 6.61677 34.0031 8.65022 32.7341 10.7965C32.602 11.0195 32.6112 11.2986 32.7576 11.5128C32.9806 11.8377 33.1959 12.1927 33.4372 12.6296C33.6132 12.9496 34.0141 13.0685 34.3359 12.8959C35.1733 12.4658 35.9057 11.8566 36.4816 11.1123C36.9358 12.5463 37.2567 14.8866 35.2867 16.3673C35.0799 16.5232 34.9817 16.7846 35.0351 17.0381C35.115 17.4149 35.1815 17.8377 35.2385 18.3294C35.2788 18.6924 35.6046 18.9544 35.9676 18.916C36.9026 18.8376 37.8092 18.5564 38.6246 18.0924C38.4971 19.5917 37.9016 21.8811 35.5152 22.4918C35.2651 22.5562 35.0744 22.759 35.0259 23.0125C34.946 23.4384 34.8429 23.8596 34.7169 24.2739C34.6644 24.4435 34.6821 24.6271 34.7654 24.7836C34.849 24.9401 34.9915 25.0569 35.1614 25.1082C36.0564 25.3965 37.0036 25.4858 37.9367 25.3702C37.2503 26.7063 35.8264 28.5989 33.3683 28.2487C33.1145 28.213 32.8628 28.3258 32.7201 28.5388C32.4663 28.9195 32.2146 29.2629 31.951 29.5881C31.7195 29.873 31.7622 30.2916 32.0465 30.5237C32.7683 31.1353 33.6157 31.581 34.5287 31.8287C33.3884 32.8024 31.3574 34.0028 29.2013 32.732C28.9811 32.602 28.7056 32.6096 28.4927 32.7521C28.0873 33.0227 27.7249 33.2426 27.3838 33.4244C27.2277 33.5074 27.1108 33.6492 27.0593 33.8185C27.0077 33.9878 27.0257 34.1709 27.1093 34.3271C27.5403 35.1693 28.152 35.9063 28.9002 36.4856C27.4677 36.9483 25.1295 37.2796 23.6321 35.2852C23.4765 35.0778 23.2144 34.9796 22.9606 35.0335C22.5833 35.1135 22.173 35.1781 21.6694 35.2367C21.3076 35.2785 21.0465 35.6031 21.0831 35.9655C21.1615 36.9044 21.4443 37.8147 21.9122 38.6325C20.4135 38.5141 18.1253 37.9275 17.5073 35.5131C17.4432 35.2629 17.2404 35.0723 16.9866 35.0238C16.5607 34.9445 16.1398 34.8414 15.7255 34.7154C15.5559 34.6629 15.3726 34.6806 15.2158 34.7639C15.0593 34.8475 14.9421 34.9899 14.8912 35.1598C14.6023 36.0548 14.5126 37.002 14.6283 37.9352C13.2921 37.2494 11.3999 35.827 11.7504 33.3671C11.7864 33.113 11.6736 32.861 11.4603 32.7185C11.0757 32.4617 10.7328 32.2103 10.4119 31.9495C10.1273 31.7177 9.70843 31.7604 9.47598 32.0447C8.86406 32.7664 8.41808 33.6135 8.16946 34.5263C7.19575 33.3863 5.9966 31.3559 7.26682 29.1998C7.39799 28.9768 7.38854 28.6983 7.24272 28.4848C7.01943 28.1596 6.80407 27.8048 6.56308 27.3677C6.38676 27.0471 5.98532 26.9284 5.66349 27.1017C4.82491 27.5339 4.09188 28.1462 3.51717 28.8944C3.05258 27.4632 2.71916 25.125 4.71296 23.6305C4.92039 23.475 5.01892 23.2132 4.96523 22.9594C4.88531 22.5827 4.81881 22.1596 4.76146 21.6679C4.71967 21.3061 4.3951 21.0449 4.0327 21.0815C3.09773 21.1599 2.19112 21.4409 1.37573 21.9052C1.50293 20.4059 2.09839 18.1165 4.48478 17.5058Z" fill="#036AB4"/>
<path d="M19.9998 31.3275C26.2564 31.3275 31.3284 26.2555 31.3284 19.9989C31.3284 13.7421 26.2564 8.67035 19.9998 8.67035C13.7433 8.67035 8.67126 13.7421 8.67126 19.9989C8.67828 26.2524 13.746 31.3205 19.9998 31.3275ZM19.9998 10.0031C25.5203 10.0031 29.9957 14.4782 29.9957 19.9989C29.9957 25.5194 25.5203 29.9948 19.9998 29.9948C14.4794 29.9948 10.004 25.5194 10.004 19.9989C10.0101 14.4809 14.4818 10.0092 19.9998 10.0031Z" fill="#036AB4"/>
<path d="M19.9998 23.9972C22.2081 23.9972 23.9981 22.2072 23.9981 19.9989C23.9981 17.7907 22.2081 16.0004 19.9998 16.0004C17.7916 16.0004 16.0016 17.7907 16.0016 19.9989C16.004 22.206 17.7925 23.9948 19.9998 23.9972ZM19.9998 17.3334C21.472 17.3334 22.6654 18.5268 22.6654 19.9989C22.6654 21.4711 21.472 22.6645 19.9998 22.6645C18.5277 22.6645 17.3343 21.4711 17.3343 19.9989C17.3359 18.5274 18.5283 17.335 19.9998 17.3334Z" fill="#036AB4"/>
</svg>
