<svg width="22" height="18" viewBox="0 0 22 18" fill="none" xmlns="http://www.w3.org/2000/svg">
<path fill-rule="evenodd" clip-rule="evenodd" d="M2 0H16C17.1046 0 18 0.89543 18 2V12C18 13.1046 17.1046 14 16 14H2C0.89543 14 0 13.1046 0 12V2C0 0.89543 0.89543 0 2 0ZM2 12H16V5.72998L10.65 9.47998C9.65905 10.1727 8.34095 10.1727 7.35 9.47998L2 5.72998V12ZM16 3.6L9.65 8.05C9.25913 8.32129 8.74087 8.32129 8.35 8.05L2 3.6V2H16V3.6ZM20 14V4C21.1046 4 22 4.89543 22 6V14C22 16.2091 20.2091 18 18 18H6C4.89543 18 4 17.1046 4 16H18C19.1046 16 20 15.1046 20 14Z" fill="#036AB4"/>
</svg>
