<svg width="52" height="53" viewBox="0 0 52 53" fill="none" xmlns="http://www.w3.org/2000/svg">
<circle opacity="0.34" cx="26" cy="26.5737" r="26" fill="white"/>
<ellipse cx="26" cy="26.2022" rx="14.8571" ry="15.2286" fill="white"/>
<path fill-rule="evenodd" clip-rule="evenodd" d="M33.8074 27.22L31.1331 21.4703C30.8853 20.9572 30.3658 20.6311 29.796 20.6309H28.6C28.3949 20.6309 28.2286 20.7972 28.2286 21.0023V21.7452C28.2286 21.9503 28.3949 22.1166 28.6 22.1166H29.796L31.2 25.1697C29.6242 24.8312 28.0119 25.5605 27.2257 26.9674C26.8648 26.7185 26.4384 26.5815 26 26.5737C25.5553 26.578 25.1225 26.718 24.7594 26.9749C23.9755 25.573 22.3724 24.8421 20.8 25.1697L22.204 22.1166H23.4C23.6051 22.1166 23.7714 21.9503 23.7714 21.7452V21.0023C23.7714 20.7972 23.6051 20.6309 23.4 20.6309H22.204C21.6254 20.6281 21.0979 20.9614 20.852 21.4852L18.1777 27.2349C17.9468 27.7251 17.8275 28.2604 17.8286 28.8023C17.8286 30.8536 19.4915 32.5166 21.5428 32.5166C23.5942 32.5166 25.2571 30.8536 25.2571 28.8023C25.2571 28.392 25.5897 28.0594 26 28.0594C26.4103 28.0594 26.7428 28.392 26.7428 28.8023C26.7428 30.8536 28.4058 32.5166 30.4571 32.5166C32.5085 32.5166 34.1714 30.8536 34.1714 28.8023C34.17 28.2543 34.0456 27.7136 33.8074 27.22ZM21.5429 31.0309C20.3121 31.0309 19.3143 30.0331 19.3143 28.8023C19.3143 27.5715 20.3121 26.5737 21.5429 26.5737C22.7737 26.5737 23.7715 27.5715 23.7715 28.8023C23.7715 30.0331 22.7737 31.0309 21.5429 31.0309ZM28.2286 28.8023C28.2286 30.0331 29.2263 31.0309 30.4571 31.0309C31.688 31.0309 32.6857 30.0331 32.6857 28.8023C32.6857 27.5715 31.688 26.5737 30.4571 26.5737C29.2263 26.5737 28.2286 27.5715 28.2286 28.8023Z" fill="#036AB4"/>
</svg>
