<svg width="20" height="18" viewBox="0 0 20 18" fill="none" xmlns="http://www.w3.org/2000/svg">
<path fill-rule="evenodd" clip-rule="evenodd" d="M11.59 0C11.8523 0.00110435 12.1037 0.105255 12.29 0.290001L19.71 7.71C19.8947 7.89626 19.9989 8.14766 20 8.41V9.5C20 9.77614 19.7761 10 19.5 10H18V17C18 17.5523 17.5523 18 17 18H12C11.4477 18 11 17.5523 11 17V12.25C11 12.1119 10.8881 12 10.75 12H9.25C9.11193 12 9 12.1119 9 12.25V17C9 17.5523 8.55229 18 8 18H3C2.44772 18 2 17.5523 2 17V10H0.5C0.223858 10 0 9.77614 0 9.5V8.41C0.00110462 8.14766 0.105256 7.89626 0.29 7.71L7.71 0.290001C7.89626 0.105255 8.14766 0.00110435 8.41 0H11.59ZM13 16H16V6.83L11.17 2H8.83L4 6.83V16H7V11C7 10.4477 7.44772 10 8 10H12C12.5523 10 13 10.4477 13 11V16Z" fill="#036AB4"/>
</svg>
