<svg width="202" height="33" viewBox="0 0 202 33" fill="none" xmlns="http://www.w3.org/2000/svg">
<path d="M50.768 23H49.28V14.68H50.768V23ZM50.016 13.176C49.7493 13.176 49.52 13.0907 49.328 12.92C49.1467 12.7387 49.056 12.4987 49.056 12.2C49.056 11.9013 49.1467 11.6667 49.328 11.496C49.52 11.3147 49.7493 11.224 50.016 11.224C50.2827 11.224 50.5067 11.3147 50.688 11.496C50.88 11.6667 50.976 11.9013 50.976 12.2C50.976 12.4987 50.88 12.7387 50.688 12.92C50.5067 13.0907 50.2827 13.176 50.016 13.176ZM53.3269 14.92C53.6682 14.8347 54.1215 14.744 54.6869 14.648C55.2522 14.552 55.9029 14.504 56.6389 14.504C57.3002 14.504 57.8495 14.6 58.2869 14.792C58.7242 14.9733 59.0709 15.2347 59.3269 15.576C59.5935 15.9067 59.7802 16.3067 59.8869 16.776C59.9935 17.2453 60.0469 17.7627 60.0469 18.328V23H58.5589V18.648C58.5589 18.136 58.5215 17.6987 58.4469 17.336C58.3829 16.9733 58.2709 16.68 58.1109 16.456C57.9509 16.232 57.7375 16.072 57.4709 15.976C57.2042 15.8693 56.8735 15.816 56.4789 15.816C56.3189 15.816 56.1535 15.8213 55.9829 15.832C55.8122 15.8427 55.6469 15.8587 55.4869 15.88C55.3375 15.8907 55.1989 15.9067 55.0709 15.928C54.9535 15.9493 54.8682 15.9653 54.8149 15.976V23H53.3269V14.92ZM65.7624 10.584C66.1997 10.584 66.573 10.616 66.8824 10.68C67.2024 10.744 67.4264 10.8027 67.5544 10.856L67.2824 12.136C67.1544 12.072 66.973 12.0133 66.7384 11.96C66.5037 11.896 66.2157 11.864 65.8744 11.864C65.181 11.864 64.6957 12.056 64.4184 12.44C64.141 12.8133 64.0024 13.32 64.0024 13.96V14.68H67.2024V15.928H64.0024V23H62.5144V13.928C62.5144 12.8613 62.7757 12.04 63.2984 11.464C63.821 10.8773 64.6424 10.584 65.7624 10.584ZM76.0303 18.84C76.0303 19.5013 75.9343 20.0987 75.7423 20.632C75.5503 21.1653 75.2783 21.624 74.9263 22.008C74.5849 22.392 74.1743 22.6907 73.6943 22.904C73.2143 23.1067 72.6916 23.208 72.1263 23.208C71.5609 23.208 71.0383 23.1067 70.5583 22.904C70.0783 22.6907 69.6623 22.392 69.3103 22.008C68.9689 21.624 68.7023 21.1653 68.5103 20.632C68.3183 20.0987 68.2223 19.5013 68.2223 18.84C68.2223 18.1893 68.3183 17.5973 68.5103 17.064C68.7023 16.52 68.9689 16.056 69.3103 15.672C69.6623 15.288 70.0783 14.9947 70.5583 14.792C71.0383 14.5787 71.5609 14.472 72.1263 14.472C72.6916 14.472 73.2143 14.5787 73.6943 14.792C74.1743 14.9947 74.5849 15.288 74.9263 15.672C75.2783 16.056 75.5503 16.52 75.7423 17.064C75.9343 17.5973 76.0303 18.1893 76.0303 18.84ZM74.4783 18.84C74.4783 17.9013 74.2649 17.16 73.8383 16.616C73.4223 16.0613 72.8516 15.784 72.1263 15.784C71.4009 15.784 70.8249 16.0613 70.3983 16.616C69.9823 17.16 69.7743 17.9013 69.7743 18.84C69.7743 19.7787 69.9823 20.5253 70.3983 21.08C70.8249 21.624 71.4009 21.896 72.1263 21.896C72.8516 21.896 73.4223 21.624 73.8383 21.08C74.2649 20.5253 74.4783 19.7787 74.4783 18.84ZM87.8838 22.312C87.5424 22.312 87.2598 22.264 87.0358 22.168C86.8118 22.072 86.6251 21.944 86.4758 21.784C86.2411 21.912 85.9584 22.024 85.6278 22.12C85.2971 22.2053 84.9664 22.248 84.6358 22.248C84.1238 22.248 83.6544 22.168 83.2278 22.008C82.8118 21.848 82.4491 21.6133 82.1398 21.304C81.8304 20.984 81.5904 20.5947 81.4198 20.136C81.2491 19.6773 81.1638 19.144 81.1638 18.536C81.1638 18.024 81.2438 17.544 81.4038 17.096C81.5638 16.6373 81.7984 16.2427 82.1078 15.912C82.4278 15.5707 82.8118 15.304 83.2598 15.112C83.7184 14.92 84.2358 14.824 84.8118 14.824C85.3558 14.824 85.8518 14.8667 86.2998 14.952C86.7584 15.0373 87.1104 15.1227 87.3558 15.208V20.104C87.3558 20.4453 87.4144 20.6853 87.5318 20.824C87.6491 20.9627 87.8038 21.032 87.9958 21.032C88.2731 21.032 88.5131 20.936 88.7158 20.744C88.9291 20.552 89.0998 20.3013 89.2278 19.992C89.3664 19.6827 89.4678 19.336 89.5318 18.952C89.5958 18.5573 89.6278 18.1573 89.6278 17.752C89.6278 17.08 89.5104 16.4507 89.2758 15.864C89.0411 15.2667 88.7051 14.744 88.2678 14.296C87.8304 13.848 87.2971 13.496 86.6678 13.24C86.0491 12.984 85.3504 12.856 84.5718 12.856C83.7931 12.856 83.0784 12.9893 82.4278 13.256C81.7771 13.512 81.2171 13.8853 80.7478 14.376C80.2784 14.856 79.9104 15.448 79.6438 16.152C79.3878 16.856 79.2598 17.656 79.2598 18.552C79.2598 19.4907 79.3984 20.3173 79.6758 21.032C79.9531 21.736 80.3371 22.328 80.8278 22.808C81.3291 23.2773 81.9158 23.6293 82.5878 23.864C83.2704 24.1093 84.0171 24.232 84.8278 24.232C85.4571 24.232 85.9744 24.1947 86.3798 24.12C86.7958 24.0453 87.0624 23.9867 87.1798 23.944L87.3398 25.128C87.1584 25.192 86.8278 25.2613 86.3478 25.336C85.8784 25.4107 85.3718 25.448 84.8278 25.448C83.8784 25.448 82.9824 25.3093 82.1398 25.032C81.2971 24.7653 80.5611 24.3493 79.9318 23.784C79.3024 23.2293 78.8011 22.52 78.4278 21.656C78.0651 20.7813 77.8838 19.7467 77.8838 18.552C77.8838 17.4 78.0651 16.392 78.4278 15.528C78.7904 14.664 79.2758 13.9493 79.8838 13.384C80.5024 12.808 81.2118 12.376 82.0118 12.088C82.8224 11.8 83.6758 11.656 84.5718 11.656C85.4464 11.656 86.2731 11.8 87.0518 12.088C87.8304 12.3653 88.5131 12.776 89.0998 13.32C89.6864 13.8533 90.1504 14.504 90.4918 15.272C90.8331 16.0293 91.0038 16.888 91.0038 17.848C91.0038 18.5733 90.9184 19.2133 90.7478 19.768C90.5878 20.3227 90.3691 20.792 90.0918 21.176C89.8144 21.5493 89.4838 21.832 89.0998 22.024C88.7158 22.216 88.3104 22.312 87.8838 22.312ZM84.6838 21.016C84.9078 21.016 85.1318 20.9947 85.3558 20.952C85.5904 20.8987 85.7984 20.824 85.9798 20.728C85.9478 20.5893 85.9264 20.4507 85.9158 20.312C85.9051 20.1733 85.8998 20.04 85.8998 19.912V16.152C85.8358 16.1307 85.7131 16.1093 85.5318 16.088C85.3504 16.0667 85.1478 16.056 84.9237 16.056C84.1664 16.056 83.6011 16.2907 83.2278 16.76C82.8544 17.2293 82.6678 17.8213 82.6678 18.536C82.6678 19.2933 82.8491 19.896 83.2118 20.344C83.5744 20.792 84.0651 21.016 84.6838 21.016ZM99.1029 18.856C99.1029 17.8853 98.8629 17.1387 98.3829 16.616C97.9029 16.0933 97.2629 15.832 96.4629 15.832C96.0149 15.832 95.6629 15.848 95.4069 15.88C95.1615 15.912 94.9642 15.9493 94.8149 15.992V21.24C94.9962 21.3893 95.2575 21.5333 95.5989 21.672C95.9402 21.8107 96.3135 21.88 96.7189 21.88C97.1455 21.88 97.5082 21.8053 97.8069 21.656C98.1162 21.496 98.3669 21.2827 98.5589 21.016C98.7509 20.7387 98.8895 20.4187 98.9749 20.056C99.0602 19.6827 99.1029 19.2827 99.1029 18.856ZM100.655 18.856C100.655 19.4853 100.57 20.0667 100.399 20.6C100.239 21.1333 99.9989 21.592 99.6789 21.976C99.3589 22.36 98.9642 22.6587 98.4949 22.872C98.0362 23.0853 97.5082 23.192 96.9109 23.192C96.4309 23.192 96.0042 23.128 95.6309 23C95.2682 22.872 94.9962 22.7493 94.8149 22.632V25.96H93.3269V14.936C93.6789 14.8507 94.1162 14.76 94.6389 14.664C95.1722 14.5573 95.7855 14.504 96.4789 14.504C97.1189 14.504 97.6949 14.6053 98.2069 14.808C98.7189 15.0107 99.1562 15.2987 99.5189 15.672C99.8815 16.0453 100.159 16.504 100.351 17.048C100.554 17.5813 100.655 18.184 100.655 18.856ZM105.997 10.584C106.434 10.584 106.807 10.616 107.117 10.68C107.437 10.744 107.661 10.8027 107.789 10.856L107.517 12.136C107.389 12.072 107.207 12.0133 106.973 11.96C106.738 11.896 106.45 11.864 106.109 11.864C105.415 11.864 104.93 12.056 104.653 12.44C104.375 12.8133 104.237 13.32 104.237 13.96V14.68H107.437V15.928H104.237V23H102.749V13.928C102.749 12.8613 103.01 12.04 103.533 11.464C104.055 10.8773 104.877 10.584 105.997 10.584ZM108.457 18.856C108.457 18.12 108.563 17.48 108.777 16.936C108.99 16.3813 109.273 15.9227 109.625 15.56C109.977 15.1973 110.382 14.9253 110.841 14.744C111.299 14.5627 111.769 14.472 112.249 14.472C113.369 14.472 114.227 14.824 114.825 15.528C115.422 16.2213 115.721 17.2827 115.721 18.712C115.721 18.776 115.721 18.8613 115.721 18.968C115.721 19.064 115.715 19.1547 115.705 19.24H110.009C110.073 20.104 110.323 20.76 110.761 21.208C111.198 21.656 111.881 21.88 112.809 21.88C113.331 21.88 113.769 21.8373 114.121 21.752C114.483 21.656 114.755 21.5653 114.937 21.48L115.145 22.728C114.963 22.824 114.643 22.9253 114.185 23.032C113.737 23.1387 113.225 23.192 112.649 23.192C111.923 23.192 111.294 23.0853 110.761 22.872C110.238 22.648 109.806 22.344 109.465 21.96C109.123 21.576 108.867 21.1227 108.697 20.6C108.537 20.0667 108.457 19.4853 108.457 18.856ZM114.169 18.04C114.179 17.368 114.009 16.8187 113.657 16.392C113.315 15.9547 112.841 15.736 112.233 15.736C111.891 15.736 111.587 15.8053 111.321 15.944C111.065 16.072 110.846 16.2427 110.665 16.456C110.483 16.6693 110.339 16.9147 110.233 17.192C110.137 17.4693 110.073 17.752 110.041 18.04H114.169ZM120.93 14.504C121.058 14.504 121.202 14.5147 121.362 14.536C121.533 14.5467 121.698 14.568 121.858 14.6C122.018 14.6213 122.162 14.648 122.29 14.68C122.429 14.7013 122.53 14.7227 122.594 14.744L122.338 16.04C122.221 15.9973 122.023 15.9493 121.746 15.896C121.479 15.832 121.133 15.8 120.706 15.8C120.429 15.8 120.151 15.832 119.874 15.896C119.607 15.9493 119.431 15.9867 119.346 16.008V23H117.858V15.032C118.21 14.904 118.647 14.7867 119.17 14.68C119.693 14.5627 120.279 14.504 120.93 14.504ZM129.406 16.44C129.225 16.2907 128.963 16.1467 128.622 16.008C128.281 15.8693 127.907 15.8 127.502 15.8C127.075 15.8 126.707 15.88 126.398 16.04C126.099 16.1893 125.854 16.4027 125.662 16.68C125.47 16.9467 125.331 17.2667 125.246 17.64C125.161 18.0133 125.118 18.4133 125.118 18.84C125.118 19.8107 125.358 20.5627 125.838 21.096C126.318 21.6187 126.958 21.88 127.758 21.88C128.163 21.88 128.499 21.864 128.766 21.832C129.043 21.7893 129.257 21.7467 129.406 21.704V16.44ZM129.406 10.84L130.894 10.584V22.76C130.553 22.856 130.115 22.952 129.582 23.048C129.049 23.144 128.435 23.192 127.742 23.192C127.102 23.192 126.526 23.0907 126.014 22.888C125.502 22.6853 125.065 22.3973 124.702 22.024C124.339 21.6507 124.057 21.1973 123.854 20.664C123.662 20.12 123.566 19.512 123.566 18.84C123.566 18.2 123.646 17.6133 123.806 17.08C123.977 16.5467 124.222 16.088 124.542 15.704C124.862 15.32 125.251 15.0213 125.71 14.808C126.179 14.5947 126.713 14.488 127.31 14.488C127.79 14.488 128.211 14.552 128.574 14.68C128.947 14.808 129.225 14.9307 129.406 15.048V10.84ZM132.588 17.512H136.54V18.904H132.588V17.512ZM143.609 16.44C143.428 16.2907 143.166 16.1467 142.825 16.008C142.484 15.8693 142.11 15.8 141.705 15.8C141.278 15.8 140.91 15.88 140.601 16.04C140.302 16.1893 140.057 16.4027 139.865 16.68C139.673 16.9467 139.534 17.2667 139.449 17.64C139.364 18.0133 139.321 18.4133 139.321 18.84C139.321 19.8107 139.561 20.5627 140.041 21.096C140.521 21.6187 141.161 21.88 141.961 21.88C142.366 21.88 142.702 21.864 142.969 21.832C143.246 21.7893 143.46 21.7467 143.609 21.704V16.44ZM143.609 10.84L145.097 10.584V22.76C144.756 22.856 144.318 22.952 143.785 23.048C143.252 23.144 142.638 23.192 141.945 23.192C141.305 23.192 140.729 23.0907 140.217 22.888C139.705 22.6853 139.268 22.3973 138.905 22.024C138.542 21.6507 138.26 21.1973 138.057 20.664C137.865 20.12 137.769 19.512 137.769 18.84C137.769 18.2 137.849 17.6133 138.009 17.08C138.18 16.5467 138.425 16.088 138.745 15.704C139.065 15.32 139.454 15.0213 139.913 14.808C140.382 14.5947 140.916 14.488 141.513 14.488C141.993 14.488 142.414 14.552 142.777 14.68C143.15 14.808 143.428 14.9307 143.609 15.048V10.84ZM147.191 18.856C147.191 18.12 147.298 17.48 147.511 16.936C147.724 16.3813 148.007 15.9227 148.359 15.56C148.711 15.1973 149.116 14.9253 149.575 14.744C150.034 14.5627 150.503 14.472 150.983 14.472C152.103 14.472 152.962 14.824 153.559 15.528C154.156 16.2213 154.455 17.2827 154.455 18.712C154.455 18.776 154.455 18.8613 154.455 18.968C154.455 19.064 154.45 19.1547 154.439 19.24H148.743C148.807 20.104 149.058 20.76 149.495 21.208C149.932 21.656 150.615 21.88 151.543 21.88C152.066 21.88 152.503 21.8373 152.855 21.752C153.218 21.656 153.49 21.5653 153.671 21.48L153.879 22.728C153.698 22.824 153.378 22.9253 152.919 23.032C152.471 23.1387 151.959 23.192 151.383 23.192C150.658 23.192 150.028 23.0853 149.495 22.872C148.972 22.648 148.54 22.344 148.199 21.96C147.858 21.576 147.602 21.1227 147.431 20.6C147.271 20.0667 147.191 19.4853 147.191 18.856ZM152.903 18.04C152.914 17.368 152.743 16.8187 152.391 16.392C152.05 15.9547 151.575 15.736 150.967 15.736C150.626 15.736 150.322 15.8053 150.055 15.944C149.799 16.072 149.58 16.2427 149.399 16.456C149.218 16.6693 149.074 16.9147 148.967 17.192C148.871 17.4693 148.807 17.752 148.775 18.04H152.903ZM159.409 21.928C159.761 21.928 160.07 21.9227 160.337 21.912C160.614 21.8907 160.843 21.8587 161.025 21.816V19.336C160.918 19.2827 160.742 19.24 160.497 19.208C160.262 19.1653 159.974 19.144 159.633 19.144C159.409 19.144 159.169 19.16 158.913 19.192C158.667 19.224 158.438 19.2933 158.225 19.4C158.022 19.496 157.851 19.6347 157.713 19.816C157.574 19.9867 157.505 20.216 157.505 20.504C157.505 21.0373 157.675 21.4107 158.017 21.624C158.358 21.8267 158.822 21.928 159.409 21.928ZM159.281 14.472C159.878 14.472 160.379 14.552 160.785 14.712C161.201 14.8613 161.531 15.08 161.777 15.368C162.033 15.6453 162.214 15.9813 162.321 16.376C162.427 16.76 162.481 17.1867 162.481 17.656V22.856C162.353 22.8773 162.171 22.9093 161.937 22.952C161.713 22.984 161.457 23.016 161.169 23.048C160.881 23.08 160.566 23.1067 160.225 23.128C159.894 23.16 159.563 23.176 159.233 23.176C158.763 23.176 158.331 23.128 157.937 23.032C157.542 22.936 157.201 22.7867 156.913 22.584C156.625 22.3707 156.401 22.0933 156.241 21.752C156.081 21.4107 156.001 21 156.001 20.52C156.001 20.0613 156.091 19.6667 156.273 19.336C156.465 19.0053 156.721 18.7387 157.041 18.536C157.361 18.3333 157.734 18.184 158.161 18.088C158.587 17.992 159.035 17.944 159.505 17.944C159.654 17.944 159.809 17.9547 159.969 17.976C160.129 17.9867 160.278 18.008 160.417 18.04C160.566 18.0613 160.694 18.0827 160.801 18.104C160.907 18.1253 160.982 18.1413 161.025 18.152V17.736C161.025 17.4907 160.998 17.2507 160.945 17.016C160.891 16.7707 160.795 16.5573 160.657 16.376C160.518 16.184 160.326 16.0347 160.081 15.928C159.846 15.8107 159.537 15.752 159.153 15.752C158.662 15.752 158.23 15.7893 157.857 15.864C157.494 15.928 157.222 15.9973 157.041 16.072L156.865 14.84C157.057 14.7547 157.377 14.6747 157.825 14.6C158.273 14.5147 158.758 14.472 159.281 14.472ZM167.448 23.16C166.531 23.1387 165.88 22.9413 165.496 22.568C165.112 22.1947 164.92 21.6133 164.92 20.824V10.84L166.408 10.584V20.584C166.408 20.8293 166.429 21.032 166.472 21.192C166.515 21.352 166.584 21.48 166.68 21.576C166.776 21.672 166.904 21.7467 167.064 21.8C167.224 21.8427 167.421 21.88 167.656 21.912L167.448 23.16ZM168.863 18.856C168.863 18.12 168.97 17.48 169.183 16.936C169.396 16.3813 169.679 15.9227 170.031 15.56C170.383 15.1973 170.788 14.9253 171.247 14.744C171.706 14.5627 172.175 14.472 172.655 14.472C173.775 14.472 174.634 14.824 175.231 15.528C175.828 16.2213 176.127 17.2827 176.127 18.712C176.127 18.776 176.127 18.8613 176.127 18.968C176.127 19.064 176.122 19.1547 176.111 19.24H170.415C170.479 20.104 170.73 20.76 171.167 21.208C171.604 21.656 172.287 21.88 173.215 21.88C173.738 21.88 174.175 21.8373 174.527 21.752C174.89 21.656 175.162 21.5653 175.343 21.48L175.551 22.728C175.37 22.824 175.05 22.9253 174.591 23.032C174.143 23.1387 173.631 23.192 173.055 23.192C172.33 23.192 171.7 23.0853 171.167 22.872C170.644 22.648 170.212 22.344 169.871 21.96C169.53 21.576 169.274 21.1227 169.103 20.6C168.943 20.0667 168.863 19.4853 168.863 18.856ZM174.575 18.04C174.586 17.368 174.415 16.8187 174.063 16.392C173.722 15.9547 173.247 15.736 172.639 15.736C172.298 15.736 171.994 15.8053 171.727 15.944C171.471 16.072 171.252 16.2427 171.071 16.456C170.89 16.6693 170.746 16.9147 170.639 17.192C170.543 17.4693 170.479 17.752 170.447 18.04H174.575ZM181.336 14.504C181.464 14.504 181.608 14.5147 181.768 14.536C181.939 14.5467 182.104 14.568 182.264 14.6C182.424 14.6213 182.568 14.648 182.696 14.68C182.835 14.7013 182.936 14.7227 183 14.744L182.744 16.04C182.627 15.9973 182.43 15.9493 182.152 15.896C181.886 15.832 181.539 15.8 181.112 15.8C180.835 15.8 180.558 15.832 180.28 15.896C180.014 15.9493 179.838 15.9867 179.752 16.008V23H178.264V15.032C178.616 14.904 179.054 14.7867 179.576 14.68C180.099 14.5627 180.686 14.504 181.336 14.504ZM185.321 22.136C185.321 22.424 185.225 22.6747 185.033 22.888C184.841 23.1013 184.58 23.208 184.249 23.208C183.919 23.208 183.657 23.1013 183.465 22.888C183.273 22.6747 183.177 22.424 183.177 22.136C183.177 21.848 183.273 21.5973 183.465 21.384C183.657 21.1707 183.919 21.064 184.249 21.064C184.58 21.064 184.841 21.1707 185.033 21.384C185.225 21.5973 185.321 21.848 185.321 22.136ZM190.571 14.504C190.699 14.504 190.843 14.5147 191.003 14.536C191.173 14.5467 191.339 14.568 191.499 14.6C191.659 14.6213 191.803 14.648 191.931 14.68C192.069 14.7013 192.171 14.7227 192.235 14.744L191.979 16.04C191.861 15.9973 191.664 15.9493 191.387 15.896C191.12 15.832 190.773 15.8 190.347 15.8C190.069 15.8 189.792 15.832 189.515 15.896C189.248 15.9493 189.072 15.9867 188.987 16.008V23H187.499V15.032C187.851 14.904 188.288 14.7867 188.811 14.68C189.333 14.5627 189.92 14.504 190.571 14.504ZM200.295 22.76C199.953 22.8453 199.5 22.936 198.935 23.032C198.38 23.128 197.735 23.176 196.999 23.176C196.359 23.176 195.82 23.0853 195.383 22.904C194.945 22.712 194.593 22.4453 194.327 22.104C194.06 21.7627 193.868 21.3627 193.751 20.904C193.633 20.4347 193.575 19.9173 193.575 19.352V14.68H195.063V19.032C195.063 20.0453 195.223 20.7707 195.543 21.208C195.863 21.6453 196.401 21.864 197.159 21.864C197.319 21.864 197.484 21.8587 197.655 21.848C197.825 21.8373 197.985 21.8267 198.135 21.816C198.284 21.7947 198.417 21.7787 198.535 21.768C198.663 21.7467 198.753 21.7253 198.807 21.704V14.68H200.295V22.76Z" fill="black"/>
<circle cx="16.5" cy="16.5" r="16.5" fill="#036AB4"/>
<path fill-rule="evenodd" clip-rule="evenodd" d="M21.8806 11H11.2719C10.5395 11 9.9458 11.5937 9.9458 12.3261V20.2826C9.9458 21.015 10.5395 21.6087 11.2719 21.6087H21.8806C22.613 21.6087 23.2067 21.015 23.2067 20.2826V12.3261C23.2067 11.5937 22.613 11 21.8806 11ZM21.8805 12.3262V14.249L17.0072 17.6637C16.748 17.8435 16.4044 17.8435 16.1452 17.6637L11.2719 14.249V12.3262H21.8805ZM11.2719 15.6411V20.2824H21.8805V15.6411L17.6702 18.585C17.0132 19.0443 16.1392 19.0443 15.4822 18.585L11.2719 15.6411Z" fill="white"/>
</svg>
