<svg width="33" height="33" viewBox="0 0 33 33" fill="none" xmlns="http://www.w3.org/2000/svg">
<circle cx="16.5" cy="16.5" r="16.5" fill="white"/>
<path fill-rule="evenodd" clip-rule="evenodd" d="M21.8805 11H11.2718C10.5394 11 9.94568 11.5937 9.94568 12.3261V20.2826C9.94568 21.015 10.5394 21.6087 11.2718 21.6087H21.8805C22.6128 21.6087 23.2065 21.015 23.2065 20.2826V12.3261C23.2065 11.5937 22.6128 11 21.8805 11ZM21.8804 12.3262V14.249L17.0071 17.6637C16.7479 17.8435 16.4043 17.8435 16.1451 17.6637L11.2717 14.249V12.3262H21.8804ZM11.2717 15.6411V20.2824H21.8804V15.6411L17.6701 18.585C17.0131 19.0443 16.1391 19.0443 15.4821 18.585L11.2717 15.6411Z" fill="#1B78C6"/>
</svg>
