<svg width="33" height="33" viewBox="0 0 33 33" fill="none" xmlns="http://www.w3.org/2000/svg">
<circle cx="16.5" cy="16.5" r="16.5" fill="#036AB4"/>
<path fill-rule="evenodd" clip-rule="evenodd" d="M11.2717 15.3043C11.2717 12.3748 13.6466 10 16.5761 10C19.5056 10 21.8804 12.3748 21.8804 15.3043C21.8804 17.795 20.6713 18.7694 19.544 19.6778C18.8047 20.2735 18.1007 20.8409 17.7961 21.7889L17.4579 22.81C17.3631 23.092 17.092 23.2764 16.7949 23.2609H16.4236C16.1264 23.2764 15.8553 23.092 15.7605 22.81L15.4224 21.7889C15.1056 20.8437 14.3917 20.2769 13.6437 19.6831C12.4977 18.7732 11.2717 17.7998 11.2717 15.3043ZM14.5869 15.3043C14.5869 16.4029 15.4775 17.2934 16.576 17.2934C17.1036 17.2934 17.6095 17.0839 17.9826 16.7108C18.3556 16.3378 18.5652 15.8319 18.5652 15.3043C18.5652 14.2057 17.6746 13.3152 16.576 13.3152C15.4775 13.3152 14.5869 14.2057 14.5869 15.3043Z" fill="white"/>
</svg>
