<svg width="33" height="34" viewBox="0 0 33 34" fill="none" xmlns="http://www.w3.org/2000/svg">
<ellipse cx="16.5" cy="17" rx="16.5" ry="17" fill="#036AB4"/>
<path d="M20.3324 23C19.23 22.999 18.1449 22.7266 17.1727 22.2067L16.8728 22.0401C14.8001 20.9257 13.1009 19.2265 11.9866 17.1539L11.8199 16.8539C11.2865 15.8763 11.0048 14.7813 11 13.6676V13.2209C10.9997 12.8656 11.1413 12.5249 11.3933 12.2744L12.5199 11.1478C12.6293 11.0376 12.7837 10.9844 12.9378 11.004C13.0919 11.0236 13.2281 11.1137 13.3064 11.2478L14.8063 13.8209C14.958 14.0828 14.9142 14.414 14.6996 14.6275L13.4398 15.8874C13.3351 15.9908 13.3108 16.1507 13.3798 16.2806L13.6131 16.7206C14.451 18.2728 15.7257 19.5451 17.2794 20.3803L17.7194 20.6202C17.8493 20.6892 18.0092 20.6649 18.1126 20.5602L19.3725 19.3004C19.586 19.0858 19.9172 19.042 20.1791 19.1937L22.7522 20.6936C22.8863 20.7719 22.9764 20.9081 22.996 21.0622C23.0156 21.2163 22.9624 21.3707 22.8522 21.4801L21.7256 22.6067C21.4751 22.8587 21.1344 23.0003 20.7791 23H20.3324Z" fill="white"/>
</svg>
  
