<svg width="7" height="12" viewBox="0 0 7 12" fill="none" xmlns="http://www.w3.org/2000/svg">
<path d="M6.77771 5.2779C6.91987 5.41842 6.99982 5.60905 7 5.8079V6.1879C6.99767 6.38631 6.91804 6.57618 6.77771 6.7179L1.58422 11.8479C1.48936 11.9426 1.36023 11.9958 1.22552 11.9958C1.09082 11.9958 0.961688 11.9426 0.866828 11.8479L0.149438 11.1379C0.0543954 11.0457 0.000836341 10.9196 0.000836341 10.7879C0.000836341 10.6562 0.0543954 10.5301 0.149438 10.4379L4.64575 5.9979L0.149438 1.5579C0.053797 1.46402 0 1.33622 0 1.2029C0 1.06958 0.053797 0.941782 0.149438 0.847899L0.866828 0.147899C0.961688 0.0532428 1.09082 0 1.22552 0C1.36023 0 1.48936 0.0532428 1.58422 0.147899L6.77771 5.2779Z" fill="#036AB4"/>
</svg>
