<svg width="459" height="370" viewBox="0 0 459 370" fill="none" xmlns="http://www.w3.org/2000/svg"><g opacity=".5"><path stroke="#D4D6D9" stroke-opacity=".5" d="M93.067 368.874L457.848 58.806M60.837 368.874L425.619 58.806M76.953 368.874L441.734 58.806M28.608 368.874L393.39 58.806M44.724 368.874L409.505 58.806M-3.621 368.874L361.161 58.806M12.494 368.874L377.275 58.806M-19.735 368.874L345.046 58.806M-35.849 368.874L328.932 58.806M-68.078 368.874L296.703 58.806M-51.964 368.874L312.817 58.806M-100.307 368.874L264.474 58.806M-84.193 368.874L280.588 58.806M-164.765 368.874L200.016 58.806M-132.536 368.874L232.245 58.806M-196.995 368.874L167.787 58.806M-116.422 368.874L248.359 58.806M-180.879 368.874L183.902 58.806"/><path stroke="#0047FF" d="M-148.651 368.874L282.704 1.337"/><path stroke="#D4D6D9" stroke-opacity=".5" d="M-229.224 368.874L135.558 58.806M-213.109 368.874L151.672 58.806M-261.453 368.874L103.329 58.806M-245.338 368.874L119.443 58.806M-277.567 368.874L87.215 58.806"/><path stroke="#0047FF" d="M-148.651 368.874L282.704 1.337"/></g><path d="M153.578 142.569l-84.766 71.652h23.43l84.006-71.651-22.67-.001z" fill="#EEE"/></svg>