<svg width="440" height="312" viewBox="0 0 440 312" fill="none" xmlns="http://www.w3.org/2000/svg"><path stroke="#D4D6D9" d="M371.249 311.44L736.031 1.373M339.02 311.44L703.801 1.373M355.135 311.44L719.917 1.373M306.791 311.44L671.573 1.373M322.906 311.44L687.687 1.373M274.562 311.44L639.343 1.373M290.677 311.44L655.459 1.373M258.448 311.44L623.229 1.373M242.333 311.44L607.115 1.373M210.105 311.44L574.886 1.373M226.219 311.44L591.001 1.373M177.875 311.44L542.657 1.373M193.99 311.44L558.771 1.373M113.417 311.44L478.199 1.373M145.646 311.44L510.427 1.373M81.188 311.44L445.969 1.373M161.76 311.44L526.542 1.373M97.303 311.44L462.085 1.373M129.532 311.44L494.313 1.373M48.959 311.44L413.741 1.373M65.074 311.44L429.855 1.373M16.73 311.44L381.511 1.373M32.845 311.44L397.627 1.373M.616 311.44L365.397 1.373"/></svg>