<svg width="918" height="491" viewBox="0 0 918 491" fill="none" xmlns="http://www.w3.org/2000/svg"><path d="M547.215 241.921c-4.676 0-8.48-5.367-8.48-11.966 0-6.6 3.804-11.967 8.48-11.967s8.483 5.367 8.483 11.967c0 6.596-3.804 11.966-8.483 11.966zm0-23.081c-4.205 0-7.625 4.987-7.625 11.112 0 6.128 3.42 11.111 7.625 11.111s7.628-4.986 7.628-11.111c0-6.125-3.423-11.112-7.628-11.112z" fill="url(#a)"/><path d="M895.331 288.928l-13.62 7.738c-14.754 10.458-66.869 19.619-69.151 20.011-10.719.957-31.132 1.099-42.348 1.099-4.341 0-7.136-.023-7.173-.023-15.146-.798-99.862-8.627-100.717-8.706a.85.85 0 0 1-.534-.253l-16.916-17.31a.856.856 0 0 1-.165-.954.831.831 0 0 1 .83-.497l117.607 6.96s3.756.269 7.915.536c4.25.273 17.069 8.09 18.52 8.985 5.921 3.697 14.529 4.248 19.132 4.248 1.773 0 2.883-.082 2.92-.085 9.197-.511 18.376-10.081 18.393-10.081.011-.017.023-.031.034-.045l.006-.009c4.71-7.139 14.052-9.345 14.39-9.419 15.631-4.768 51.402-18.361 51.763-18.5a.866.866 0 0 1 .827.125.844.844 0 0 1 .326.769l-1.61 14.761a.86.86 0 0 1-.429.65zM662.79 307.374c2.941.273 25.689 2.369 49.017 4.442l-3.111-7.401a.846.846 0 0 1-.742-.874.888.888 0 0 1 .179-.466l-3.284-7.817-57.207-3.385 15.148 15.501zm108.155-8.135c-4.159-.27-7.918-.54-7.915-.54l-57.229-3.387 3.116 7.414 76.85 3.504c-4.793-2.794-12.214-6.824-14.822-6.991zm37.763 13.235c-4.736 0-13.566-.579-19.833-4.39l-79.228-3.612 3.123 7.429c21.543 1.911 43.354 3.779 50.317 4.146 0 0 2.79.022 7.122.022 11.185 0 31.541-.142 42.124-1.082.48-.082 42.956-7.55 62.457-16.455l1.165-9.553c-5.725 2.508-24.228 10.084-44.806 12.895-1.466 1.494-10.208 10.004-19.41 10.515-.045 0-1.19.085-3.031.085zM832.7 299.92c20.978-3.163 39.419-11.088 43.496-12.923l.651-5.324c-11.018 4.041-24.029 8.689-31.953 11.106-.085.019-7.523 1.794-12.194 7.141zm45.048-18.579l-.64 5.253a.848.848 0 0 1 .674 1.559c-.026.011-.347.165-.915.417l-1.162 9.539c1.991-.949 3.716-1.914 5.088-2.888l13.313-7.568 1.412-12.937a1880.102 1880.102 0 0 1-17.77 6.625z" fill="url(#b)"/><path d="M808.773 307.797c-.801 0-1.62-.051-2.429-.153-12.399-1.565-21.987-13.542-20.942-26.156 1.08-12.988 10.467-17.614 18.893-17.614 10.253 0 22.123 6.88 23.933 19.633.889 6.259-1.06 12.847-5.208 17.623-3.733 4.299-8.793 6.667-14.247 6.667zm17.762-24.051c-1.674-11.796-12.708-18.163-22.237-18.163-7.665 0-16.205 4.214-17.188 16.044-.957 11.529 8.131 22.891 19.45 24.319 5.761.73 11.264-1.44 15.171-5.94 3.826-4.408 5.622-10.484 4.804-16.26z" fill="url(#c)"/><path d="M345.108 360.969l.19.003c1.992.065 3.827 1.127 5.162 2.987 1.313 1.829 1.992 4.217 1.909 6.73-.167 5.185-3.46 9.249-7.494 9.249l-.191-.003c-1.991-.066-3.824-1.128-5.162-2.988-1.312-1.828-1.991-4.219-1.909-6.732.168-5.186 3.46-9.246 7.495-9.246zm-4.89 15.479c1.179 1.644 2.776 2.578 4.495 2.632l.162.003c3.511 0 6.489-3.777 6.639-8.42.074-2.325-.545-4.529-1.75-6.204-1.179-1.642-2.776-2.576-4.494-2.63l-.162-.003c-3.512 0-6.489 3.777-6.64 8.417-.074 2.326.548 4.529 1.75 6.205z" fill="url(#d)"/><path d="M350.077 340.104c-.003.011-.009.02-.012.031l-.258 2.368a.856.856 0 0 1-1.702-.19l.185-1.687a17.708 17.708 0 0 0-2.327-.252 15.827 15.827 0 0 0-1.602.031l.079 1.792a.853.853 0 0 1-.818.891c-.014.003-.026.003-.04.003a.857.857 0 0 1-.855-.818l-.114-2.541c0-.009-.005-.014-.008-.026-.003-.017.006-.034.006-.051l-2.145-48.14a.852.852 0 0 1 .815-.892c.457-.042.872.344.892.815l.585 13.119a40.107 40.107 0 0 1 4.361-.119c1.694.057 3.392.242 5.072.511l1.437-13.142a.866.866 0 0 1 .943-.758c.472.051.81.475.759.943l-5.256 48.01c.003.039.011.071.003.102zm-3.012-33.951a37.479 37.479 0 0 0-4.227.117l1.446 32.462c.577-.034 1.156-.079 1.733-.065.827.028 1.645.128 2.457.261l3.532-32.269a36.987 36.987 0 0 0-4.941-.506z" fill="url(#e)"/><path d="M324.968 354.95a.87.87 0 0 1 .289.202l1.552.957c.403.25.528.775.278 1.178a.86.86 0 0 1-1.179.278l-.83-.511a36.109 36.109 0 0 0-1.531 5.188l1.196.381a.856.856 0 1 1-.52 1.63l-37.817-12.049a.855.855 0 1 1 .52-1.63l9.092 2.897a79.399 79.399 0 0 1 3.639-12.08l-8.844-5.449a.857.857 0 1 1 .898-1.457l9.148 5.637c.068.008.133.011.199.037a.814.814 0 0 1 .369.315l23.481 14.468c.023.005.043.002.06.008zm-27.311-.957l24.259 7.73a37.257 37.257 0 0 1 1.677-5.586l-22.447-13.832a77.831 77.831 0 0 0-3.489 11.688z" fill="url(#f)"/><path d="M336.946 297.406a58.292 58.292 0 0 0-4.495 3.235l.645 6.571c.031.048.071.091.091.147a.842.842 0 0 1-.017.602l3.327 33.823.003.003c.13.222.142.474.065.701l.426 4.331a.856.856 0 0 1-.767.934c-.028.003-.057.003-.085.003a.856.856 0 0 1-.85-.772l-.318-3.221c-1.665 1.145-3.213 2.556-4.625 4.209l2.264 1.979a.855.855 0 1 1-1.125 1.289l-11.926-10.418c-9.978-9.161-5.856-18.668-5.842-18.697.197-.556 4.506-12.366 17.319-22.563.04-.032.074-.068.12-.094a61.096 61.096 0 0 1 4.863-3.504.856.856 0 1 1 .927 1.442zm-16.248 42.146l8.358 7.301c1.725-2.016 3.645-3.697 5.725-5.006l-3.239-32.946c-4.824 1.903-9.398 4.742-13.611 8.471-1.821 3.183-2.597 5.316-2.628 5.395-.037.083-3.665 8.465 5.395 16.785zm.116-26.675c3.347-2.422 6.881-4.345 10.555-5.745l-.512-5.199a58.636 58.636 0 0 0-10.043 10.944z" fill="url(#g)"/><path d="M359.605 352.679a.856.856 0 0 1-.46-1.578l2.366-1.508c-1.261-1.792-2.682-3.357-4.239-4.669l-.73 3.223a.858.858 0 0 1-1.025.645.853.853 0 0 1-.645-1.022l.971-4.285a.851.851 0 0 1 .14-.611l3.008-13.255c1.54-6.267 3.989-10.427 7.279-12.367 2.733-1.613 5.028-1.022 5.014-1.014.191.026 1.978.296 4.776 1.449a.83.83 0 0 1 .358.147c4.065 1.735 10.117 5.33 16.583 12.574.026.031.06.051.082.085.003.006.003.012.006.017a71.855 71.855 0 0 1 3.992 4.887.856.856 0 0 1-1.373 1.02 67.806 67.806 0 0 0-3.522-4.336l-4.393 2.8a.873.873 0 0 1-.272.213c-.034.017-.069.011-.103.022l-27.35 17.43a.864.864 0 0 1-.463.133zm11.35-34.768c-.071-.017-1.765-.423-3.873.846-1.957 1.179-4.665 4.089-6.426 11.251l-2.96 13.054c1.957 1.527 3.721 3.41 5.261 5.608l23.027-14.673c-2.87-5.582-6.37-10.506-10.435-14.632-2.776-1.17-4.512-1.44-4.594-1.454zm8.918 3.672c2.861 3.424 5.381 7.286 7.557 11.497l3.608-2.3c-4.06-4.387-7.921-7.275-11.165-9.197z" fill="url(#h)"/><path d="M388.552 416.4a93.974 93.974 0 0 1-2.491 6.795.855.855 0 0 1-1.119.466.855.855 0 0 1-.466-1.116 91.836 91.836 0 0 0 2.264-6.151l-24.555-33.397a.854.854 0 1 1 1.378-1.011l1.008 1.372a35.402 35.402 0 0 0 1.921-6.199l-1.886.105a.856.856 0 1 1-.097-1.71l2.696-.15a.87.87 0 0 1 .526-.091c.051.009.091.037.139.054l11.12-.622c12.551-.341 13.494 10.595 13.494 10.635.091.59 1.878 13.21-3.932 31.014.003.003.003.003 0 .006zm-1.162-2.014c1.83-5.983 2.793-11.35 3.265-15.785-1.622 4.31-3.588 8.4-5.901 12.199l2.636 3.586zm3.398-28.816c-.028-.384-.789-9.317-11.725-9.115l-10.798.602a37.067 37.067 0 0 1-2.512 7.899l17.893 24.336c3.139-5.279 5.648-11.086 7.424-17.313.059-3.99-.27-6.324-.282-6.409z" fill="url(#i)"/><path d="M318.669 436.56c1.676.367 3.273.597 4.824.764l2.409-5.779a.84.84 0 0 1 .083-.346c.034-.071.088-.125.139-.179l13.273-31.829c.003-.017-.003-.034.003-.051a.817.817 0 0 1 .145-.299l1.102-2.646a.855.855 0 1 1 1.58.659l-.776 1.862c.867.162 1.742.284 2.625.31.677.023 1.364-.011 2.046-.071l-.574-2.101a.856.856 0 0 1 1.651-.452l4.824 17.654c3.818 15.076-3.625 19.625-3.861 19.755-.37.279-7.554 5.529-19.856 5.529-1.358 0-2.79-.076-4.273-.218h-.003c-.003 0-.005-.003-.008-.003a48.741 48.741 0 0 1-5.714-.892.851.851 0 0 1-.653-1.017.85.85 0 0 1 1.014-.65zm31.692-22.069l-3.787-13.861c-.648.066-1.296.114-1.946.114-.205 0-.41-.003-.614-.009-1.091-.034-2.173-.19-3.242-.411l-12.858 30.838c4.756 2.192 9.75 3.405 14.864 3.587 2.813-1.19 4.358-2.309 4.426-2.357.276-.165 6.634-4.177 3.157-17.901zm-11.532 21.638c-3.963-.534-7.838-1.673-11.571-3.388l-1.983 4.756c5.451.372 10.014-.355 13.554-1.368z" fill="url(#j)"/><path d="M288.244 358.561a.861.861 0 0 1 .941.764c.235 2.309.551 4.458.9 6.526l4.535 1.016a.793.793 0 0 1 .443-.111.84.84 0 0 1 .639.355l26.029 5.83c.057-.017.111-.045.174-.051a.878.878 0 0 1 .662.239l2.525.565a.854.854 0 1 1-.375 1.669l-1.73-.389c.102.818.222 1.633.375 2.431.261 1.352.625 2.669 1.034 3.958l1.264-1.289a.86.86 0 0 1 1.211-.014.853.853 0 0 1 .011 1.21l-2.216 2.26a.72.72 0 0 1-.122.125l-9.154 9.34c-3.347 3.259-6.571 4.904-9.602 4.904-.273 0-.543-.015-.81-.04-3.691-.364-5.628-3.129-5.657-3.178-.34-.406-7.551-9.174-10.832-27.919a.592.592 0 0 1-.02-.125 102.65 102.65 0 0 1-.995-7.142.866.866 0 0 1 .77-.934zm5.878 10.254c.003-.102.009-.201.012-.301l-3.736-.838c1.193 6.285 2.838 11.382 4.466 15.346a85.2 85.2 0 0 1-.742-14.207zm6.563 24.833c.017.022 1.6 2.243 4.492 2.516 2.727.247 5.764-1.219 9.009-4.376l8.858-9.039a36.55 36.55 0 0 1-1.361-5.017 40.672 40.672 0 0 1-.466-3.152l-25.387-5.688c-.216 6.761.369 13.445 1.739 19.863v.003c1.747 3.22 3.065 4.824 3.116 4.89z" fill="url(#k)"/><path d="M353.789 393.725a.86.86 0 0 1 1.117.468l.497 1.213a23.704 23.704 0 0 0 3.383-2.965l-.917-1.437a.856.856 0 0 1 .261-1.181.864.864 0 0 1 1.182.261l18.433 28.888c.008.005.017.008.022.014.12.108.188.244.233.386l6.08 9.53a.854.854 0 0 1-.722 1.315.852.852 0 0 1-.721-.395l-5.606-8.783c-2.545 2.732-5.284 5.151-8.17 7.207l4.315 10.527a.856.856 0 1 1-1.585.647l-18.274-44.577a.86.86 0 0 1 .472-1.118zm22.296 25.826l-16.355-25.628a25.295 25.295 0 0 1-3.665 3.104l12.128 29.586a52.4 52.4 0 0 0 7.892-7.062z" fill="url(#l)"/><path d="M327.391 390.539a.844.844 0 0 1 .278-.395c.006-.002.012-.002.017-.008l1.171-1.599a.855.855 0 1 1 1.38 1.011l-.954 1.303a24.2 24.2 0 0 0 3.102 3.311l.605-1.243a.86.86 0 0 1 1.145-.395.853.853 0 0 1 .395 1.144l-1.023 2.096c-.014.054-.048.099-.073.151l-14.663 30.083a.793.793 0 0 1-.173.445c-.02.026-.051.035-.074.057l-5.105 10.476a.86.86 0 0 1-.77.482.848.848 0 0 1-.375-.088.854.854 0 0 1-.395-1.144l4.949-10.152c-2.722-2.288-5.27-4.927-7.603-7.86l-6.21 8.471a.861.861 0 0 1-1.196.184.856.856 0 0 1-.185-1.195l25.757-35.135zm-9.785 33.948l14.007-28.732a25.61 25.61 0 0 1-3.378-3.47l-17.961 24.506a53.396 53.396 0 0 0 7.332 7.696z" fill="url(#m)"/><path d="M345.474 355.501c-1.855-.06-3.307-1.959-3.233-4.234.073-2.252 1.568-4.015 3.494-4.015h.003c.778.026 1.523.378 2.102.994.759.809 1.171 1.99 1.131 3.243-.074 2.252-1.571 4.018-3.409 4.018a.777.777 0 0 0-.088-.006zm1.787-4.072c.025-.789-.225-1.542-.671-2.016-.187-.199-.494-.44-.943-.452-.878 0-1.653 1.082-1.696 2.363-.043 1.309.679 2.439 1.577 2.468l.034.857v-.855c.88-.002 1.659-1.084 1.699-2.365z" fill="url(#n)"/><path d="M357.593 360.535c1.787-.687 3.77.636 4.239 2.82.466 2.158-.534 4.376-2.273 5.046a2.87 2.87 0 0 1-1.025.193c-1.509 0-2.83-1.241-3.213-3.013-.466-2.158.534-4.376 2.272-5.046zm-.599 4.685c.253 1.173 1.116 1.909 1.949 1.582.94-.363 1.497-1.778 1.216-3.087-.21-.979-.844-1.664-1.537-1.664-.137 0-.276.026-.412.08-.941.366-1.497 1.777-1.216 3.089z" fill="url(#o)"/><path d="M354.764 388.126c-.585.519-1.276.792-2 .792-1.154 0-2.205-.701-2.81-1.877-.952-1.843-.557-4.294.895-5.583 1.52-1.346 3.824-.829 4.813 1.082.949 1.846.554 4.299-.898 5.586zm-.625-4.796c-.307-.597-.79-.952-1.29-.952-.298 0-.596.125-.863.364-.864.766-1.097 2.377-.512 3.515.492.949 1.432 1.227 2.154.588.863-.767 1.099-2.377.511-3.515z" fill="url(#p)"/><path d="M338.44 381.06c1.366 1.38 1.602 3.85.534 5.625-.639 1.065-1.665 1.698-2.747 1.698-.779 0-1.532-.329-2.126-.928-1.366-1.381-1.599-3.851-.534-5.626 1.1-1.826 3.455-2.201 4.873-.769zm-3.404 1.652c-.662 1.099-.531 2.721.281 3.541.677.685 1.634.475 2.188-.448.659-1.099.531-2.721-.281-3.541-.273-.273-.585-.421-.909-.421-.483 0-.949.318-1.279.869z" fill="url(#q)"/><path d="M331.778 367.734c-.409 0-.81-.091-1.191-.267-1.693-.781-2.548-3.058-1.943-5.183.611-2.152 2.682-3.345 4.412-2.541 1.693.781 2.546 3.058 1.944 5.182-.478 1.681-1.773 2.809-3.222 2.809zm.559-6.435a1.14 1.14 0 0 0-.474-.108c-.676 0-1.307.628-1.574 1.562-.366 1.289.097 2.737 1.014 3.161.816.377 1.719-.301 2.049-1.454.366-1.29-.097-2.738-1.015-3.161z" fill="url(#r)"/><path d="M306.37 110.723a.854.854 0 0 1-.793.531.875.875 0 0 1-.324-.062l-8.861-3.624a.856.856 0 1 1 .648-1.584l8.861 3.623a.857.857 0 0 1 .469 1.116z" fill="url(#s)"/><path d="M297.018 115.162l8.961 4.006c.431.193.625.699.431 1.13a.853.853 0 0 1-1.13.432l-8.961-4.007a.855.855 0 0 1-.432-1.13c.191-.431.696-.622 1.131-.431z" fill="url(#t)"/><path d="M150.986 170.595c-.27 0-.534-.014-.795-.031-.781 1.499-2.986 4.887-7.02 4.969-.06 0-1.489-.043-2.745-1.414-1.341-1.465-1.952-3.828-1.838-7.017-.713-.213-1.685-.616-3.094-1.303-2.273-1.088-3.614-3.158-3.679-5.68-.088-3.475 2.406-6.275 4.77-7.738.861-.531 3.429-1.7 5.455-1.7 1.83 0 2.483.945 2.716 1.658l4.619-4.558c.134-.093 3.313-2.26 5.68-1.249 1.193.508 1.946 1.701 2.238 3.546a.479.479 0 0 1 0 .131l-.798 5.302c2.395 1.485 4.995 4.438 4.557 7.985-.568 4.662-5.494 7.099-10.066 7.099zm-9.949 2.928c1.003 1.107 2.102 1.155 2.131 1.158 3.483-.071 5.491-3.087 6.23-4.458-4.261-3.57-7.69-5.035-8.923-3.359-.145.198-.43.431-.947.431-.025 0-.065-.011-.093-.014-.077 2.831.468 4.984 1.602 6.242zm13.682-26.199c-1.92-.821-4.787 1.119-4.798 1.116l-4.915 4.859c.173.531.403.695 1.139 1.118 3.299 1.707 6.892 2.107 9.475.986.008-.003.02 0 .028-.006l.79-5.245c-.25-1.496-.829-2.447-1.719-2.828zm1.154 9.822c-2.989 1.116-6.915.656-10.546-1.224-1.432-.817-1.818-1.343-2.171-2.95-.039-.187-.125-.574-1.116-.574-1.58 0-3.867 1.02-4.554 1.443-1.961 1.213-4.029 3.49-3.958 6.239.048 1.882 1.009 3.365 2.844 4.245 1.833.892 2.634 1.153 2.963 1.227.654-.716 1.546-1.091 2.603-1.091 2.662 0 6.062 2.357 8.523 4.41.173.009.346.014.525.014 3.088 0 7.864-1.488 8.37-5.591.321-2.618-1.602-4.887-3.483-6.148z" fill="url(#u)"/><path d="M1.867 250.295c-.023-2.161-.213-21.482-.4-32.605-.194-11.52 2.193-46.346 3.832-52.249.1-.79 2.531-19.46 10.086-29.453.338-.372 8.008-8.732 11.477-12.088-2.224-5.33-2.432-21.715-2.44-22.439a.856.856 0 0 1 1.082-.832l2.946.804v-1.9c0-.338.197-.642.506-.781 3.986-1.792 16.336-2.144 17.745-2.178 5.804-2.215 11.364-4.424 12.094-4.972a.9.9 0 0 1 .168-.1l5.855-2.587a.884.884 0 0 1 .267-.056c.333-4.609 10.274-11.654 20.436-18.48 1.864-1.253 3.474-2.332 4.39-3.022 1.266-.954 2.738-2.175 4.298-3.47 6.034-5.003 13.526-11.208 20.128-11.68.773-.468 4.441-2.683 8.645-5.125l10.359-6.574a807.91 807.91 0 0 0 9.887-6.409c5.915-3.876 12.031-7.882 18.219-11.523C185.539 8.398 214.798.566 243.837.526c3.645.009 7.091.281 10.369.77.02-.003.034-.014.054-.014 25.481-1.645 53.198-1.315 87.225 1.036 67.153 4.637 132.84 16.558 193.823 28.746 7.435 1.485 14.739 4.299 21.901 7.528.023.008.054.02.074.03.006.004.009.01.014.01 3.901 1.76 7.762 3.637 11.575 5.5 2.761 1.349 5.489 2.68 8.179 3.935a511.063 511.063 0 0 1 46.096 24.506c16.543 9.92 32.913 20.8 48.743 31.322 5.301 3.524 10.6 7.045 15.91 10.537 9.537 6.27 17.48 11.507 25.626 17.033.272.184.883.536 1.681.999 5.094 2.953 8.2 4.987 9.083 6.551 4.034-.04 6.563-.091 6.66-.094.096.003.21.018.312.052l27.069 9.913c2.699.809 52.218 21.944 54.281 22.825 3.028 1.101 8.864 3.958 15.282 7.266 1.474.619 32.296 13.554 40.655 17.728 7.719 3.859 12.094 10.916 14.989 15.587.42.679.815 1.315 1.187 1.888 2.415 3.732 1.847 9.624 1.435 13.926-.119 1.244-.224 2.32-.224 3.084 0 2.783 2.108 3.839 2.193 3.881.034.017.059.043.088.063.023.014.048.017.068.034 1.097.843 10.75 8.368 11.563 12.472.33.945 8.094 23.239 9.708 31.857.207 1.951 5.105 47.959 4.835 59.905.006.165.566 16.553 3.418 23.03a.925.925 0 0 1 .068.247c.046.395 1.071 9.709-1.696 15.24a.869.869 0 0 1-.108.165c-.025.034-2.707 3.379-1.952 11.026-.022.542-.613 13.324-5.963 17.543a.911.911 0 0 1-.205.12c-.298.125-30.35 12.468-70.974 20.428-.321.091-32.865 9.206-82.838 14.519-.693.074-69.608 7.261-96.444 8.323-.79.028-79.205 2.945-98.291 1.61-.545.003-54.266.415-60.556.352-1.804.571-18.367 5.671-32.567 5.671-1.233 0-2.449-.04-3.634-.122-.068-.009-1.994-.219-5.17-.662-10.097 17.91-14.623 20.022-15.109 20.204a.891.891 0 0 1-.167.043c-.554.088-42.687 6.633-69.833 10.526-6.261 1.681-12.719 2.593-19.233 2.593l-.12-.003c-.011 0-.022.003-.031.003-.006 0-.011-.003-.017-.003a70.964 70.964 0 0 1-7.912-.452c-28.126-3.194-55.752-22.262-70.378-48.577-7.284-13.108-12.284-28.235-14.85-44.063L90.2 332.252c-1.739 9.53-16.055 18.268-16.685 18.648a.86.86 0 0 1-.44.122h-.038l-42.254-1.76c-.108.002-.207.025-.315.025-.557 0-1.131-.042-1.71-.111l-.092-.002-.011-.003c-.02-.003-.04 0-.06-.003-7.89-1.005-13.25-8.369-15.634-14.928-5.315-14.621-5.545-30.279-5.767-45.423-.023-1.618-.048-3.231-.077-4.841-.94-1.258-5.48-7.551-6.239-12.853-.963-6.667-1.704-15.047.99-20.828zm28.294-150.183v2.439a.862.862 0 0 1-.338.682.844.844 0 0 1-.745.145l-2.926-.801c.108 5.174.622 15.669 2.04 19.98 3.048-3.357 7.051-9.905 7.966-12.463l1.611-4.226a.853.853 0 0 1 .801-.551h1.9l-2.633-4.336a.85.85 0 0 1-.077-.727.858.858 0 0 1 .512-.52c1.011-.371 2.12-.783 3.267-1.212-3.892.244-8.9.713-11.378 1.59zm29.566-7.073c-1.929 1.255-15.764 6.417-19.887 7.942l2.884 4.748a.857.857 0 0 1-.733 1.301h-.15l16.133 6.497c4.188-5.972 12.711-11.109 20.91-15.437-1.429-1.07-3.347-1.508-5.358-1.968-.594-.136-1.182-.27-1.756-.42-2.878-.755-5.685-2.581-6.46-5.128l-5.583 2.465zm64.199 48.549a.432.432 0 0 1-.384.236.41.41 0 0 1-.19-.046c-3.174-1.584-44.263-18.821-44.672-18.991l-19.58-7.883a15.28 15.28 0 0 0-.762 1.252c-.81 1.525-1.122 4.555-1.426 7.488-.256 2.485-.523 5.052-1.111 6.864-2.1 6.465-4.273 13.15-5.91 20.053-11.023 46.51 4.112 98.606 17.467 144.569l1.227 4.222c1.643 5.668 10.609 8.917 16.541 11.066 1.065.386 2.051.741 2.912 1.079a4795.264 4795.264 0 0 0 33.39 12.955c3.478-6.625 3.228-14.491 2.949-22.113a275.666 275.666 0 0 1-.122-3.847l-.017-.804c-.207-9.572-.42-19.471-.531-28.919-.256-21.433-.173-43.261.244-66.737.37-20.749 1.336-39.479 9.444-58.573l.148-.349c5.44-12.901 8.031-18.157 9.437-20.252-.079-.023-.159-.043-.241-.066h-.014c-.006 0-.009-.005-.014-.005-8.012-2.156-16.211-4.478-20.868-6.14-1.295-.462-31.515-11.324-41.504-17.384-5.194 2.709-15.89 8.403-20.725 14.931L79.004 122c1.693.71 41.53 17.421 44.728 19.017a.422.422 0 0 1 .194.571zm124.362 166.294c.685-6.707 1.392-13.641 1.79-20.382l.043-.742c1.386-23.483 2.818-47.765 7.304-71.294.688-3.609 12.685-53.172 20.731-61.115l-113.135-25.806c-.139-.034-6.327-1.565-14.171-3.607h-.009c-.002 0-.005-.003-.008-.003-1.96-.511-4.023-1.053-6.122-1.612-.929 1.113-3.904 6.974-9.589 20.453l-.148.353c-7.989 18.812-8.94 37.366-9.31 57.934-.417 23.458-.497 45.272-.244 66.686.114 9.441.327 19.335.531 28.901l.017.804c.026 1.255.074 2.533.12 3.819.284 7.787.565 15.823-3.029 22.803 10.961 4.208 21.885 8.371 32.626 12.468 28.732 10.95 58.434 22.274 87.498 33.917 1.139-1.153 4.853-5.969 3.549-18.847-1.498-14.794.054-30.012 1.556-44.73zM127.724 46.335c-5.597 3.164-11.543 6.756-12.523 7.35L81.705 98.081c4.126 2.408 11.393 5.574 18.657 8.519 14.901-35.15 31.362-60.42 31.527-60.672a.882.882 0 0 1 .244-.247c16.021-10.555 34.695-17.325 52.755-23.876l3.804-1.38a.85.85 0 0 1 .898.216l6.14-1.573c.335-.315.534-.477.582-.517a.856.856 0 0 1 1.205.148l6.136-.852c.06-.088.1-.15.108-.159a.847.847 0 0 1 .631-.363c.02-.006.037-.018.06-.02 3.105-.412 5.511-.668 7.795-.832 9.464-.685 19.546-.92 29.18 1.933 8.668 2.567 16.541 7.298 22.765 13.679 4.748 4.864 8.418 10.697 11.967 16.34a275.886 275.886 0 0 0 3.554 5.55c.139.21.179.475.105.72l-16.461 54.889c.901 2.525.821 4.757-.273 6.767-.821 1.508-2.593 2.567-4.375 3.357h6.412l16.478-59.451a.855.855 0 0 1 .733-.622.87.87 0 0 1 .85.449c3.991 7.51 9.625 18.065 12.02 22.464l.676-4.089a.848.848 0 0 1 .983-.704c.04.005.071.028.108.04a253.949 253.949 0 0 0-22.617-40.028l-.906-1.3c-5.884-8.4-11.58-14.045-17.93-17.765-8.188-4.796-17.487-6.435-27.146-6.435-7.699 0-15.628 1.042-23.407 2.36-.185.043-18.506 4.296-21.623 5.463l-18.862 7.486c-.315.15-30.668 15.322-36.754 18.758zm22.632 76.702c4.136-19.619 21.151-62.43 21.336-62.895 11.324-25.7 19.486-36.22 22.881-39.892l-4.778 1.224a.847.847 0 0 1-.222.384c-.673.63-1.094 1.43-1.537 2.277-.247.468-.497.943-.79 1.4-8.452 13.235-14.861 24.208-20.165 34.536-4.367 8.499-8.395 17.949-13.069 30.645l-1.56 4.205c-3.19 8.576-6.474 17.439-8.517 26.417 2.188.585 4.352 1.159 6.421 1.699zm100.515 23.33c4.088-5.603 2.253-9.013 1.67-9.836l-22.796-4.956-38.658-5.435c-.46-.062-11.298-1.607-16.762-6.446-1.619-1.437-3.792-3.191-3.795-3.194a.855.855 0 0 1-.131-1.199 1.769 1.769 0 0 1 .065-1.016c.338-.846 1.296-1.4 2.069-1.727-1.898-2.72-2.279-8.825-2.316-9.689.58-6.076 4.174-9.038 8.339-12.468l.338-.279c3.554-2.927 7.58-6.247 12.154-7.43 1.872-.486 3.96-.71 6.577-.71 1.241 0 2.485.045 3.727.093 1.21.045 2.418.094 3.614.094h13.438c.917.014 1.844.022 2.775.028 10.561.088 21.481.179 28.8 8.857 2.196 2.604 4.224 5.281 6.114 7.803.494.659 1.082 1.377 1.707 2.144 1.526 1.868 3.233 3.978 4.478 6.227l15.787-52.646a297.65 297.65 0 0 1-3.352-5.25c-3.503-5.567-7.126-11.32-11.745-16.056-6.02-6.174-13.637-10.748-22.026-13.233-9.37-2.777-19.268-2.541-28.57-1.868-2.176.159-4.48.403-7.406.786-1.597 2.405-11.972 18.245-16.864 30.71-.128.305-12.765 30.66-15.541 40.835-.077.267-7.563 26.093-9.148 35.864 1.227.307 1.96.489 2.006.5l85.452 19.497zm4.27-7.355c4.477-.46 25.2-3.37 27.583-17.591h-27.691a.846.846 0 0 1-.807-.611l-18.478-1.684v5.563a.423.423 0 0 1-.19.355c-2.043 1.358-4.657 3.558-5.191 4.916l22.836 4.96c.174.037.33.128.449.259.094.105 1.267 1.451 1.489 3.833zm35.095-26.536l4.537-27.368c-1.153-1.738-3.926-6.955-12.1-22.326l-15.776 56.927h15.805c7.045-.177 7.506-6.855 7.534-7.233zm-29.277-4.112c-1.176-2.223-2.934-4.379-4.486-6.275a73.352 73.352 0 0 1-1.753-2.201c-1.875-2.502-3.886-5.157-6.054-7.727-6.812-8.076-17.33-8.164-27.507-8.249-.934-.008-1.863-.014-2.772-.028h-13.424c-1.219 0-2.446-.049-3.682-.094-1.219-.045-2.443-.094-3.662-.094-2.5 0-4.398.202-6.148.653-4.208 1.09-8.08 4.28-11.606 7.188l-.227.187c-4.029 3.32-7.21 5.94-7.719 11.185.142 2.698.849 7.349 2.156 8.883l81.251 7.4.065-.023c1.957-.704 5.236-1.883 6.188-3.632 1.082-1.99.878-4.336-.62-7.173zm-89.355 6.804c.022.017 2.227 1.8 3.855 3.246.122.108.259.204.386.309l51.741 5.319c1.15-.474 2.153-1.179 2.131-1.502 0-.003-.04-.338-1.364-.653-3.239-.77-34.243-5.649-48.096-7.815l-6.653-.605a.86.86 0 0 1-.497-.219c-.705.27-1.606.736-1.853 1.355a.861.861 0 0 0-.042.4.88.88 0 0 1 .392.165zm57.914 14.65c.67-2.031 4.205-4.564 5.375-5.356v-5.412l-41.482-3.78c14.708 2.32 32.661 5.194 35.141 5.782.835.198 1.954.562 2.017 1.425.085 1.17-2.094 2.133-2.764 2.4a.429.429 0 0 1-.159.031c-.015 0-.029 0-.043-.003l-50.374-5.179c5.435 3.478 13.992 4.708 14.091 4.722l38.198 5.37zm-67.776-3.862c1.648-9.967 8.856-34.834 9.169-35.907 2.801-10.269 15.085-39.778 15.602-41.01 4.571-11.649 13.85-26.17 16.512-30.237l-5.406.75a.84.84 0 0 1-.25.35c-.094.073-9.466 7.697-24.101 40.904-.173.437-17.182 43.242-21.256 62.665 3.889 1.008 7.313 1.877 9.73 2.485zm-19.463-5.063c2.065-9.064 5.364-17.961 8.565-26.568l1.557-4.2c4.696-12.764 8.753-22.274 13.151-30.835 5.33-10.376 11.765-21.394 20.248-34.675.267-.417.492-.85.716-1.275l.196-.372-1.241.451c-17.91 6.495-36.428 13.208-52.247 23.595-1.369 2.118-17.026 26.624-31.274 60.226 10.384 4.165 20.294 7.723 20.47 7.789 4.446 1.587 12.174 3.788 19.859 5.864zm155.236-41.865l-5.58 33.63c-.003.062-.307 4.56-3.818 7.087l-6.319 33.693 16.637 4.109 11.603-12.966c7.171-6.412 2.543-24.123 2.503-24.279-2.54-8.573-5.608-17.589-9.378-27.567a258.05 258.05 0 0 0-5.648-13.707zm-11.33 41.737a10.05 10.05 0 0 1-2.583.576c-2.318 15.053-23.898 18.06-28.43 18.526-.017 1.826-.625 4.149-2.503 6.912l27.461 6.264 6.055-32.278zM90.942 68.723c-.952.718-2.503 1.76-4.466 3.078-6.796 4.563-19.447 13.06-19.692 17.205-.145 2.462 2.617 4.305 5.418 5.04a57.46 57.46 0 0 0 1.702.407c2.29.522 4.648 1.065 6.426 2.612l32.342-42.87c-5.656 1.31-12.088 6.634-17.372 11.012-1.574 1.307-3.063 2.54-4.358 3.516zm444.025-35.978C474.041 20.565 408.417 8.656 341.36 4.028c-31.191-2.156-57.05-2.602-80.747-1.392 4.068 1.108 7.801 2.632 11.131 4.629 3.537 2.124 7.114 5.077 10.696 8.774 6.745.176 115.402 3.056 146.06 6.16 4.202.431 89.373 9.214 119.124 14.26-4.188-1.568-8.41-2.865-12.657-3.714zm-155.443 97.067c.005 0 .008.003.011.006h.017c7.895 1.314 89.52 1.862 90.37 1.868 7.693.264 75.085 1.863 75.798 1.88 8.543.531 59.281 2.394 59.818 2.414 15.637 1.059 66.295 1.604 66.889 1.613 5.943.641 13.623 1.016 21.447 1.229-32.038-36.895-74.901-61.915-116.388-86.103-7.239-4.22-14.711-8.579-21.998-12.926-14.367-4.265-125.999-15.774-127.159-15.894-29.095-2.944-128.726-5.69-144.227-6.105a99.667 99.667 0 0 1 6.654 8.161c8.804 11.995 16.765 24.901 24.464 37.381l.435.707c4.829 8.295 34.035 50.986 34.308 51.383 8.73 11.558 29.353 14.36 29.561 14.386zm334.717 4.14c-.847-.491-1.494-.869-1.784-1.065-8.137-5.52-16.075-10.751-25.606-17.018-5.313-3.492-10.612-7.016-15.919-10.543-15.813-10.512-32.166-21.383-48.675-31.279a508.17 508.17 0 0 0-45.939-24.423 322.919 322.919 0 0 1-4.026-1.917l6.052 3.535c42.055 24.518 85.534 49.87 117.868 87.64 9.611.221 19.188.213 25.83.162-1.176-1.06-3.778-2.761-7.801-5.092zm97.634 39.36c-17.816-7.604-52.056-22.152-54.192-22.793l-26.967-9.874c-.651.011-3.216.057-6.983.094-.04.006-.074.023-.114.023h-.003c-.042 0-.076-.017-.116-.023-6.736.062-17.203.091-27.663-.156l-.017.002-.017-.002c-8.523-.202-17.029-.585-23.487-1.284-.511-.006-51.218-.548-66.875-1.61-.511-.02-51.269-1.885-59.8-2.414-.682-.017-68.082-1.613-75.759-1.877-3.051-.02-68.4-.457-86.603-1.536l43.315 24.395c13.889 4.339 27.799 9.618 41.251 14.727 6.591 2.501 13.404 5.088 20.109 7.525a7404.18 7404.18 0 0 1 20.307 7.425c33.28 12.211 67.691 24.839 102.644 34.465 3.071.846 6.119 1.823 9.068 2.769 1.398.448 2.793.894 4.193 1.329a7165.797 7165.797 0 0 0 16.203 5.003l24.859 7.656c10.048.579 30.541 1.885 39.703 3.342-34.751-20.735-72.994-38.043-109.317-53.981a1455.6 1455.6 0 0 0-8.389-3.658c-31.493-13.596-66.25-25.375-109.385-37.068a.429.429 0 0 1 .224-.827c43.175 11.705 77.969 23.495 109.499 37.109 2.804 1.209 5.599 2.43 8.395 3.657 37.05 16.263 76.119 33.925 111.447 55.228.662.151 1.197.301 1.557.452 4.955-.796 62.011-9.834 81.285-8.02 1.437.1 34.666 2.391 40.93 3.857-1.292-3.959-2.491-7.523-5.065-12.952-13.859-29.243-33.737-48.617-68.614-66.876a.427.427 0 0 1-.179-.579.433.433 0 0 1 .58-.179c35.055 18.352 55.042 37.843 68.988 67.268 2.6 5.486 3.807 9.075 5.108 13.068 9.228-3.158 19.893-6.563 23.231-6.668 2.958-4.844 9.751-16.714 9.549-19.996 0-.066.043-6.725-10.299-15.059-.326-.185-33.862-18.784-42.601-21.962zm-379.79 6.372l.691.636 44.7 16.195c.787 0 5.168.574 12.623 12.247l38.663 50.719a.427.427 0 0 1-.616.585c-.267-.23-24.791-21.326-39.38-28.283l3.137 2.882.04-.008.326.346c.176.188 17.546 19.02 17.95 41.629l.003.111-1.003 4.123 59.161 22.737-2.971-4.469c-4.347-2.025-24.788-10.473-38.755-16.184a.426.426 0 0 1-.233-.559.426.426 0 0 1 .56-.233 3946.31 3946.31 0 0 1 23.631 9.734l-12.952-20.641-25.731-6.801a.429.429 0 0 1-.304-.522.42.42 0 0 1 .523-.304l35.981 9.507-5.895-8.865c-1.835-2.559-2.858-4.887-3.096-6.98-3.174.332-3.822 2.465-3.85 2.561a.423.423 0 0 1-.335.315.43.43 0 0 1-.426-.167l-28.746-39.741c-2.991-4.799-3.687-8.507-2.071-11.018 2.932-4.546 12.293-3.373 12.717-3.316l38.163 7.255-77.614-28.717c-9.02-3.908-11.833-7.659-12.603-10.118-.389-1.246-.295-2.235-.13-2.891-12.134-4.603-24.592-9.277-37.039-13.21.103 1.684.1 3.394.097 5.061-.014 6.15-.023 11.963 4.784 16.384zm54.764 50.339c11.497 4.583 31.359 20.618 38.87 26.877L489.4 209.254c-7.713-12.08-11.887-11.899-11.935-11.884a.377.377 0 0 1-.199-.023l-42.854-15.527 52.437 48.203zm-66.045 171.973c-.015.003-.029.003-.046.003a.424.424 0 0 1-.423-.383c-3.054-29.987-6.33-52.298-10.952-74.609-5.14-24.807-13.117-48.197-23.692-69.554l-13.151 5.112c.486.718.958 1.459 1.432 2.2.023.029.04.06.06.091 15.094 23.711 23.052 58.724 26.194 75.549.009.04.02.076.023.113 1.091 5.856 1.596 9.482 1.613 9.607 3.864 17.197 5.606 56.111 5.984 65.644a.938.938 0 0 1 .446.037c.318.105.699.238.735 1.859 3.975 1.256 15.26 4.711 36.124 10.314 5.648 1.516 10.594 2.286 14.694 2.286h.003c11.73-.003 12.787-6.148 12.844-6.491l3.256-13.384v-.003l32.561-133.834c-.412-20.227-14.848-37.392-17.174-40.031l-104.797 20.699c10.569 21.379 18.546 44.786 23.691 69.61 4.628 22.343 7.91 44.682 10.964 74.697a.444.444 0 0 1-.389.468zM370.52 262.644l-.622-.891.006-.003a96.68 96.68 0 0 0-6.571-8.388c-2.895-.128-20.953-.486-40.559 8.234 16.526-6.34 33.692-5.96 47.891 1.27a6.927 6.927 0 0 0-.145-.222zm-77.025 17.933c.008-.009.008-.02.017-.029 24.887-27.417 59.442-28.992 68.252-28.93-11.125-12.051-29.901-25.702-51.067-13.028-9.543 5.716-17.947 15.214-24.296 27.473-5.802 11.197-8.415 23.907-10.944 36.2-.128.619-.261 1.229-.386 1.848 5.128-8.865 11.304-16.762 18.424-23.534zm105.259 61.293l-6.372 3.382a80.102 80.102 0 0 1 2.707 12.347l6.157-1.534a101.344 101.344 0 0 0-1.071-5.639c-.017-.134-.469-3.348-1.421-8.556zm-5.332 16.143a78.848 78.848 0 0 0-2.583-11.943l-23.296 12.358a37.58 37.58 0 0 1 1.171 5.739l24.708-6.154zm8.094-.25l-6.614 1.647a.821.821 0 0 1-.401.176c-.037.006-.074.006-.108.006-.045 0-.085-.017-.13-.023l-27.95 6.96a.853.853 0 0 1-1.037-.622.854.854 0 0 1 .622-1.036l1.148-.287c-.219-1.82-.58-3.6-1.06-5.327l-.923.491a.854.854 0 0 1-.801-1.51l34.168-18.126a330.085 330.085 0 0 0-6.162-26.582.796.796 0 0 1-.207-.195c-11.535-16.252-27.297-25.503-44.382-26.054-.535-.02-1.06-.026-1.591-.026-34.399 0-63.284 35.984-64.742 81.151-.718 22.26 5.253 43.393 16.816 59.505 11.512 16.044 27.192 25.179 44.15 25.724 30.708 1.008 54.26-23.242 61.445-63.239a.857.857 0 0 1 .961-.69c-.745-10.824-1.793-22.745-3.202-31.943zm3.435 35.45c-7.719 38.588-30.769 62.163-60.827 62.16-.619 0-1.244-.011-1.869-.031-17.501-.565-33.655-9.953-45.485-26.44-11.781-16.419-17.867-37.923-17.137-60.558 1.509-46.806 32.053-83.857 68.1-82.781 16.443.531 31.668 8.84 43.26 23.495a275.11 275.11 0 0 0-1.759-5.739c-11.486-12.809-26.137-20.13-41.402-20.621-.159-.003-17.009-.168-33.998 10.256-15.683 9.624-34.678 30.501-36.101 75.33-.889 28.019 8.398 54.91 24.842 71.931 11.324 11.722 25.009 17.944 39.575 17.992h.287c33.513 0 54.698-19.114 63.008-56.79-.145-2.564-.31-5.33-.494-8.204zm72.696 17.387c.318 1.903 1.02 3.133 2.105 3.632 2.105.977 5.116-.826 5.142-.826l44.803-40.121c12.171-12.074.449-26.514.003-27.059l-29.362-28.89-22.691 93.264zm93.64-105.711c.062.094.065.208.088.313l13.017 4.83-37.572-41.947 24.467 36.804zm-20.084-12.852c-.045.029-.093.032-.144.043 5.875 2.451 10.764 4.523 13.48 5.75l-15.708-23.628-9.966-2.636 12.475 19.881a.433.433 0 0 1-.137.59zm157.776-48.895a.931.931 0 0 1-.173.014.709.709 0 0 1-.526-.216c-1.917-1.255-26.984-3.135-42.717-4.052-1.139 1.604-5.878 5.455-25.316 7.508 16.827 2.419 68.514 9.711 93.699 11.705l-24.631-15.016c-.179.031-.31.054-.336.057zm-45.337-4.686l-23.77-7.323c-2.458-.755-4.915-1.519-7.373-2.275l-116.215-22.095c-.093-.011-9.222-1.161-11.861 2.936-1.423 2.207-.724 5.606 2.06 10.075l28.291 39.111c.497-.878 1.69-2.221 4.312-2.471-.005-1.053.179-2.047.611-2.962 2.529-5.375 11.637-6.076 12.066-6.105l62.835-1.343c37.501-.417 46.868-5.639 49.044-7.548zM465.044 171.75c-.119.531-.173 1.324.142 2.332.716 2.289 3.401 5.81 12.103 9.581l82.366 30.475 65.514 12.457c-.5-.156-1.003-.309-1.503-.463a466.034 466.034 0 0 1-4.21-1.334c-2.932-.94-5.966-1.911-9.003-2.746-35.021-9.647-69.469-22.286-102.78-34.51-6.756-2.479-13.52-4.961-20.302-7.426-6.716-2.439-13.537-5.029-20.131-7.534-.724-.275-1.466-.553-2.196-.832zm388.216 65.888a.885.885 0 0 1 .006-.383l1.344-5.228c-2.989.395-12.841 3.448-22.075 6.6 1.117 3.416 2.444 7.351 4.813 13.147l15.912-14.136zm31.087-9.683c.369-3.825.926-9.6-1.168-12.832-.378-.582-.775-1.227-1.204-1.914-2.961-4.776-7.018-11.319-14.302-14.959-4.1-2.047-13.674-6.233-22.498-10.021 5.594 3.038 9.747 5.344 10.262 5.637 11.213 9.021 11.068 16.231 11.057 16.447.275 4.373-8.716 19.156-9.992 21.229l-1.29 5.015 30.232-1.449c-.699-.866-1.33-2.135-1.33-3.904.003-.849.108-1.962.233-3.249zm26.393 82.409l-4.1 3.547a4.807 4.807 0 0 0-1.642 3.325l-1.42 23.677c-.029.474.196.906.596 1.159.401.25.89.261 1.299.028l7.114-4.01c-.037-5.73-.875-16.77-1.847-27.726zM559.357 449.955c19.069 1.32 97.385-1.582 98.172-1.61 26.779-1.062 95.64-8.244 96.33-8.315 49.811-5.298 82.23-14.374 82.62-14.479 39.26-7.695 68.559-19.466 70.605-20.3 4.65-3.82 5.218-16.073 5.224-16.076-.77-7.701 1.787-11.452 2.273-12.085 2.33-4.765 1.611-12.977 1.5-14.082-2.938-6.852-3.486-22.856-3.509-23.583.003-.108 0-.238.003-.349l-6.688 3.768c-.329.185-.69.278-1.048.278-.389 0-.775-.11-1.125-.326a2.098 2.098 0 0 1-.997-1.934l1.423-23.677a5.664 5.664 0 0 1 1.938-3.921l4.568-3.95c-1.332-14.911-2.866-29.331-2.889-29.558-1.58-8.425-9.552-31.313-9.665-31.656-.594-2.962-7.719-9.042-10.714-11.373l-33.243 1.593c-.014.003-.028.003-.039.003-.088 0-.171-.031-.256-.057l-16.376 14.55a.421.421 0 0 1-.38.097.42.42 0 0 1-.299-.253 180.062 180.062 0 0 1-5.059-13.755l-.174.06a.88.88 0 0 1-.503.017c-5.227-1.42-40.555-3.857-40.933-3.882-17.731-1.687-69.591 6.23-79.492 7.783l25.291 15.419a.431.431 0 1 1-.224.796c-.012 0-.02 0-.032-.003-26.478-1.923-87.324-10.655-99.006-12.35-6.023.52-13.276.875-22.03.971l-62.783 1.341c-.085.005-8.489.647-10.594 5.125-1.071 2.278-.31 5.273 2.261 8.922l49.153 54.876c.667.855 7.639 9.805 15.665 20.457l34.169 1.533a4.97 4.97 0 0 1 4.168 2.658l14.091 27.059a2.758 2.758 0 0 1-.077 2.703 2.761 2.761 0 0 1-2.341 1.358l-25.089.434c.256.534.461 1.011.566 1.369.011.04.017.077.017.116 0 .486-.284 11.205-21.618 25.48 12.441-6.077 19.442-9.396 20.782-9.859.296-.165 30.118-16.194 63.693-14.862 1.034-.097 103.607-9.709 127.701-14.207 2.168-.46 53.019-11.228 64.008-10.757 1.194-.244 10.379-1.857 15.2 4.575 1.477 1.616 8.835 9.822 8.548 12.679-.011.392-.36 9.66-7.128 13.321-.244.144-24.967 14.689-82.463 24.531-.636.102-63.977 10.223-90.276 11.816-.591.051-59.397 4.839-83.302 4.029-1.957 0-47.99-.02-52.479-1.618-.21-.031-5.148-.787-6.549-3.848-.397-.872-.474-1.817-.233-2.828a9701.65 9701.65 0 0 0-23.097 11.449c-10.85 4.646-50.212 19.719-63.363 24.739 14.56-.037 55.57-.349 56.104-.352zm73.463-76.619l25.501-.443a1.914 1.914 0 0 0 1.62-.94 1.907 1.907 0 0 0 .054-1.868l-14.092-27.059a4.111 4.111 0 0 0-3.449-2.198l-33.461-1.502c9.585 12.741 20.432 27.612 23.827 34.01zm-24.95-34.061l-4.406-.199a1.24 1.24 0 0 0-1.108.664 1.25 1.25 0 0 0 .054 1.292l20.251 30.893a3.402 3.402 0 0 0 2.849 1.536v.429l.06-.429 6.29-.108c-3.563-6.523-14.469-21.434-23.99-34.078zm108.74 64.587l3.017-8.681c-14.918.821-29.964 1.437-45.311 1.94l-3.568 8.547c15.248-.443 30.558-1.017 45.862-1.806zm41.701-2.823l2.301-8.714a1354.125 1354.125 0 0 1-40.061 2.805l-3.015 8.678c13.626-.71 27.232-1.616 40.775-2.769zm6.918-.576a554.909 554.909 0 0 0 29.756-3.561l2.742-8.664a695.826 695.826 0 0 1-33.652 3.791c-.852.077-1.704.145-2.557.216l-2.304 8.715c2.003-.168 4.015-.312 6.015-.497zm63.94-9.649l2.608-8.235c-10.779 2.124-21.782 3.958-33.11 5.534l-2.738 8.65a564.137 564.137 0 0 0 33.24-5.949zm10.642-2.337l3.966-.912c5-1.147 10.035-2.308 15.055-3.549l2.838-7.809c-6.105 1.457-12.177 2.729-18.026 3.944l-4.731.988c-2.048.432-4.116.838-6.179 1.247l-2.608 8.232c3.239-.687 6.469-1.4 9.685-2.141zm44.354-11.944l2.466-7.857c-7.736 3.013-15.87 5.33-23.967 7.289l-2.835 7.801c8.253-2.059 16.441-4.365 24.336-7.233zm-6.716-14.186c-1.335.318-2.645.627-3.921.945a481.655 481.655 0 0 1-10.151 2.4l-2.216 8.874c7.762-1.852 15.563-4.019 23.021-6.799l2.48-7.789c-3.102.912-6.236 1.662-9.213 2.369zm-38.513 8.314c-1.642.295-3.298.585-4.963.869l-3.205 9.504a556.64 556.64 0 0 0 7.796-1.576l4.736-.988c5.497-1.144 11.193-2.334 16.924-3.683l2.221-8.888a556.354 556.354 0 0 1-23.509 4.762zm-38.982 5.767l-2.693 10.152c11.131-1.528 21.947-3.294 32.535-5.347l3.217-9.538c-10.305 1.746-21.123 3.299-33.059 4.733zm-35.879 3.683c-.278.026-.557.046-.838.071l-2.969 10.456c1.219-.105 2.438-.202 3.657-.31a695.994 695.994 0 0 0 32.416-3.623l2.699-10.169c-10.631 1.267-22.14 2.439-34.965 3.575zm-43.49 3.32l-3.102 10.152c14.023-.753 27.932-1.687 41.873-2.866l2.969-10.458a1817.263 1817.263 0 0 1-41.74 3.172zm-4.014 10.197l3.102-10.14a1758.706 1758.706 0 0 1-43.675 2.24l-5.134 9.791c15.495-.488 30.672-1.09 45.707-1.891zm-46.693 1.922l5.134-9.788c-.846.031-1.687.057-2.534.088l-.023.051-.108-.045c-8.105.298-16.182.548-24.205.727-8.796 3.234-14.279 6.173-14.458 6.264-.651.23-2.844 1.21-8.384 3.862 15.248-.341 30.061-.704 44.578-1.159zm2.412-11.404l1.975-4.517c-7.705 1.266-14.768 3.146-20.771 5.1 6.239-.159 12.506-.353 18.796-.583zm2.978-4.682l-2.031 4.648c14.35-.533 28.816-1.252 43.345-2.152l1.858-5.907c-12.736 1.244-21.384 2.054-21.711 2.085-7.438-.298-14.682.27-21.461 1.326zm44.098-3.501l-1.869 5.94a1806.142 1806.142 0 0 0 41.939-3.118l2.773-7.17a5742.072 5742.072 0 0 1-42.843 4.348zm43.8-4.45l-2.781 7.193c1.182-.103 2.361-.193 3.542-.298 12.078-1.068 22.979-2.173 33.084-3.354l2.029-7.559c-10.776 1.3-23.325 2.689-35.874 4.018zm36.786-4.132l-2.029 7.562c11.819-1.394 22.549-2.899 32.726-4.586l2.821-8.266c-5.199 1.056-8.611 1.778-8.75 1.806-5.214.974-14.072 2.184-24.768 3.484zm34.49-5.486l-2.836 8.3c2.367-.397 4.708-.8 7.023-1.218a557.56 557.56 0 0 0 21.62-4.344l2.31-8.108c-10.017 1.767-20.668 3.862-28.117 5.37zm29.055-5.534l-2.299 8.061c4.04-.9 8.035-1.823 11.913-2.788 1.281-.318 2.599-.633 3.937-.949a231.47 231.47 0 0 0 7.134-1.783l1.921-5.693c-4.841.247-13.39 1.542-22.606 3.152zm23.523-3.189l-1.841 5.455c4.353-1.224 8.637-2.76 12.33-4.919-1.863-.67-3.787-.866-5.366-.866-2.012 0-3.461.307-3.498.316a.71.71 0 0 1-.227.017 22.183 22.183 0 0 0-1.398-.003zm12.353 1.42c-3.503 2.22-7.557 3.813-11.716 5.083l-2.455 7.709c6.438-2.456 12.589-5.389 18.205-8.993a74.736 74.736 0 0 0-1.13-1.264c-.833-1.104-1.836-1.914-2.904-2.535zm5.165 5.111c-5.242 3.385-10.932 6.19-16.879 8.564l-2.48 7.897c8.194-3.038 16.046-6.715 23.294-11.398-1.057-1.522-2.449-3.303-3.935-5.063zm4.875 6.494c-7 4.524-14.532 8.124-22.379 11.109l-3.832 12.278c14.202-5.074 20.819-8.95 20.961-9.033 5.926-3.206 6.262-11.801 6.267-11.946.046-.443-.341-1.303-1.017-2.408zm-27.22 23.751l3.827-12.265c-8.097 3.019-16.506 5.418-24.981 7.548l-2.062 11.785c9.224-2.431 16.932-4.856 23.216-7.068zm-24.126 7.303l2.066-11.795c-5.324 1.326-10.668 2.558-15.972 3.776l-3.964.912a573.986 573.986 0 0 1-7.452 1.655l-3.585 11.847c10.907-2.03 20.524-4.211 28.907-6.395zm-29.856 6.571l3.574-11.813a563.431 563.431 0 0 1-33.774 6.165l-2.185 10.74c14.916-2.192 26.178-3.993 26.442-4.033 2.028-.346 4-.701 5.943-1.059zm-33.282 5.225l2.182-10.736a560.82 560.82 0 0 1-31.726 3.859c-1.591.147-3.193.258-4.787.397l-2.958 11.56c12.319-1.508 25.817-3.399 37.289-5.08zm-38.198 5.191l2.966-11.594c-13.012 1.124-26.083 2.01-39.175 2.72l-5.17 12.58c9.807-.693 16.594-1.247 16.802-1.261 6.446-.395 15.134-1.301 24.577-2.445zm-42.334 3.771l5.177-12.594c-15.297.818-30.604 1.426-45.849 1.883l-5.625 13.255c15.162-.485 33.22-1.624 46.297-2.544zm-47.237 2.573l5.625-13.258c-17.22.511-34.354.868-51.281 1.215-7.133.145-14.264.292-21.395.451-.705.347-1.418.696-2.151 1.06l-4.287 2.115-1.619.798c-.77 1.281-.958 2.382-.552 3.271.839 1.84 4.069 2.695 5.401 2.908 3.631 1.281 38.817 1.562 52.099 1.562 4.864.162 11.188.094 18.16-.122zm-45.69-13.753c15.961-.326 32.112-.67 48.34-1.133l3.569-8.541c-16.822.545-34.007.96-51.809 1.354a2935.147 2935.147 0 0 0-17.819 8.698c5.904-.133 11.81-.255 17.719-.378zm-158.773 49.03c14.935 1.056 35.456-5.45 35.661-5.518 1.258-.48 54.681-20.823 67.536-26.329 0 0 11.592-5.77 25.158-12.466.014-.006.025-.014.039-.02.603-.298 1.211-.596 1.819-.897l4.29-2.116c3.102-1.527 5.986-2.944 8.693-4.273a.418.418 0 0 1 .17-.225c25.618-15.212 26.851-27.371 26.905-28.291-.119-.392-.358-.92-.659-1.525l-6.719.117h-.077a4.244 4.244 0 0 1-3.565-1.926l-20.251-30.892a2.08 2.08 0 0 1-.091-2.167c.369-.684 1.08-1.11 1.952-1.11h.005l3.637.165a1733.805 1733.805 0 0 0-15.2-19.858l-6.386-7.13-14.521-5.387a.842.842 0 0 1-.522.205.883.883 0 0 1-.307-.057l-61.463-23.62-7.994 32.854 30.146 29.672c.133.161 13.236 16.245-.088 29.458l-44.957 40.243c-.122.077-2.369 1.457-4.758 1.457-.711 0-1.432-.122-2.117-.437-.906-.415-1.614-1.133-2.151-2.093l-2.528 10.39c-.043.321-1.208 7.886-14.523 7.889h-.003c-4.253 0-9.347-.79-15.14-2.346-20.112-5.398-31.365-8.817-35.743-10.189-.256 3.408-1.315 10.121-4.111 23.515l11.884 3.289c20.89 6.866 45.763 9.595 45.979 9.618zm-20.986 19.619c.565-.313 4.926-3.141 13.844-18.836-7.949-1.158-21.492-3.47-34.396-7.244-9.094 16.28-23.436 28.573-39.877 35.237 25.72-3.768 58.11-8.797 60.429-9.157zm-165.637-35.076c14.367 25.847 41.478 44.574 69.076 47.709 2.585.295 5.174.432 7.756.437 3.861-.426 10.83-1.377 19.225-2.581 19.475-5.313 36.891-18.543 47.354-37.066a143.12 143.12 0 0 1-3.25-1.025l-12.617-3.49a.854.854 0 0 1-.608-.999c1.739-8.295 3.915-19.88 4.321-24.466-.338-.108-.52-.168-.531-.174l-.565-.187-.02-.596c-.006-.159-.193-5.592-.605-13.463-8.844 36.208-30.07 54.566-63.17 54.563h-.29c-14.799-.048-28.697-6.357-40.186-18.253-16.603-17.185-25.981-44.309-25.084-72.552 1.435-45.21 20.649-66.3 36.51-76.031 17.194-10.55 34.314-10.374 34.468-10.382 14.94.483 29.293 7.377 40.737 19.494-4.04-12.307-9.27-24.963-15.89-35.407-16.864-10.007-38.749-9.428-58.593 1.567-17.123 9.487-30.819 24.055-40.249 42.387a.86.86 0 0 1-.147.304c-5.424 10.62-9.433 22.484-11.831 35.373-6.057 32.511-.75 67.964 14.189 94.838zM72.841 349.31c1.819-1.139 14.52-9.388 15.728-17.671l-32.186-12.324a.864.864 0 0 1-.548-.721c-.011-.145-.27-3.013-.699-7.633-.71 4.472-1.693 8.908-3.014 13.244-2.372 7.78-7.18 19.488-15.413 23.6l36.132 1.505zM8.9 288.803c.218 14.999.446 30.512 5.665 44.86 2.21 6.077 7.102 12.89 14.213 13.81l2.088.088c11.225-.46 17.41-16.609 19.62-23.853a96.12 96.12 0 0 0 3.901-20.738c-2.19-23.061-6.327-64.429-8.6-73.237-1.025-4.759-3.346-13.349-6.486-20.721-2.832-2.178-5.605-2.874-8.244-2.056-7.725 2.391-12.632 16.422-13.95 20.664-2.125 6.83-3.602 13.994-4.446 21.38 2.963-18.654 8.938-31.142 15.986-31.142 10.086 0 17.984 25.559 17.984 58.189 0 32.631-7.898 58.19-17.984 58.19-10.085 0-17.983-25.559-17.983-58.19 0-6.014.27-11.784.77-17.202a.825.825 0 0 1-.341.077h-.037a.86.86 0 0 1-.821-.892c.443-10.771 2.202-21.172 5.236-30.915 1.383-4.444 6.557-19.154 15.077-21.792 2.44-.758 4.938-.479 7.45.818-2.853-5.923-6.254-10.484-9.907-10.549-.182 0-15.416.324-19.274 30.6-.025.361-2.383 36.2-.003 57.412 0 .008-.005.017-.005.025 0 .02.011.034.011.054.028 1.698.054 3.408.08 5.12zm13.134-18.855c.088-.98.19-1.94.323-2.865l-4.858-7.026c-.25 2.017-.463 4.081-.616 6.202l5.15 3.689zm-6.77-4.85c.196-2.454.448-4.856.772-7.156l-1.98-2.865c-.364 2.853-.65 5.829-.864 8.891a.837.837 0 0 1 .682.133l1.39.997zm-.128-11.467l1.826 2.644a32.216 32.216 0 0 1 3.174-2.01c-1.318-4.728-.668-8.931-.637-9.116.046-.366 1.054-8.11 4.27-15.055l.009-.017c.4-.867.83-1.721 1.301-2.545a.856.856 0 0 1 1.168-.318c.006.003.008.009.011.012l-.085-2.755a.86.86 0 0 1 .83-.883c.392.023.869.358.883.829l.247 8.133a4.762 4.762 0 0 1 1.205.025l.247-8.155c.014-.471.457-.806.88-.829a.857.857 0 0 1 .83.883l-.96 31.511v.04l-.048 1.616a.856.856 0 0 1-.855.829h-.026a.84.84 0 0 1-.67-.386.847.847 0 0 1-.67.386h-.026a.856.856 0 0 1-.856-.829l-.136-4.515c-.145.045-.284.105-.429.15l.222 4.282a.874.874 0 0 1 .017.353l.147 2.868a.855.855 0 0 1-.81.9c-.014.003-.03.003-.045.003a.851.851 0 0 1-.744-.449c-.048.142-.094.284-.14.432l.626 1.292a.858.858 0 0 1-1.543.746l-3.18-6.57a18.34 18.34 0 0 1-.5-1.207 31.351 31.351 0 0 0-2.735 1.757h-.003l5.96 8.622c.029.034.049.068.075.105l.437.636c.27.386.17.92-.219 1.19-.08.056-.173.056-.264.082-.11.911-.204 1.84-.273 2.794l.049.034v-.045c.193-1.96 1.005-2.252 1.471-2.252.307 0 .6.133.827.378.608.647.759 2.2.645 3.365-.193 1.959-1.006 2.251-1.472 2.251-.304 0-.596-.133-.826-.377-.364-.389-.549-1.105-.628-1.866a.835.835 0 0 1-.45.145.83.83 0 0 1-.496-.162l-9.694-6.94c-.202 3.379-.31 6.858-.31 10.404 0 14.247 1.713 27.411 4.455 37.202.003-.02-.003-.039.003-.059l6.375-23.527c.003-.039.023-.076.031-.116l.336-1.232a.856.856 0 0 1 1.653.448l-.261.966c.082.252.17.485.255.721a.889.889 0 0 1 .458-.063.855.855 0 0 1 .693.992l-3.835 21.612c-.009.068-.012.136-.037.199l-1.18 6.642a.843.843 0 0 1 .98-.199c.132.06.254.094.379.142l.505-3.359c0-.054.012-.103.023-.154l3.196-21.269a.808.808 0 0 1 .012-.071l.281-1.871a.853.853 0 0 1 .974-.718.856.856 0 0 1 .492.272.847.847 0 0 1 .56-.309.852.852 0 0 1 .954.744l1.398 11.446c1.102 9.681-.807 12.838-.844 12.892-.863 1.749-3.065 4.399-6.117 4.399-.207 0-.431-.049-.647-.074-.026.003-.051.014-.077.014-.043 0-.085-.003-.128-.008-.04-.006-.074-.029-.11-.04a6.235 6.235 0 0 1-1.566-.483.84.84 0 0 1-.474-.673.853.853 0 0 1-.836.344.855.855 0 0 1-.693-.991l1.219-6.867c-.46-.914-.9-1.919-1.324-3.004l-.986 3.641a.857.857 0 0 1-1.048.602.836.836 0 0 1-.404-.267c2.898 9.981 6.887 16.265 11.217 16.265 4.287 0 8.241-6.162 11.13-15.976a.839.839 0 0 1-.698.381.852.852 0 0 1-.824-.631l-.983-3.629a32.96 32.96 0 0 1-1.335 2.942l1.227 6.918a.855.855 0 1 1-1.685.298l-5.108-28.786a.855.855 0 0 1 .693-.991.85.85 0 0 1 .472.066c.085-.222.173-.438.256-.676l-.276-1.02a.854.854 0 0 1 .602-1.05.854.854 0 0 1 1.052.602l5.542 20.451c.2-1.352.367-2.664.515-3.945l-6.66-21.39a.855.855 0 1 1 1.634-.509l1.463 4.703c.477-1.023.864-2.082 1.077-3.192a.855.855 0 1 1 1.682.324 15.298 15.298 0 0 1-1.662 4.571c-.103.185-.27.293-.455.364l2.548 8.184a105.43 105.43 0 0 0 1.279-9.059c-.017-2.646-.125-4.188-.128-4.236-.065-1.551-.554-4.331-1.585-5.183-.245-.201-.489-.261-.728-.235l-3.738.834a.858.858 0 0 1-1.023-.647.857.857 0 0 1 .648-1.022l3.798-.847a2.667 2.667 0 0 1 2.13.602c1.95 1.613 2.183 5.941 2.203 6.404.002.04.113 1.653.13 4.416v.017c.02 3.617-.128 9.211-.895 15.899a.855.855 0 0 1-1.551 5.156.825.825 0 0 1-.417-.204l.926 3.422c.02.071.011.139.014.207 2.83-9.842 4.602-23.223 4.602-37.719 0-3.334-.099-6.602-.275-9.785l-2.225 1.593a.82.82 0 0 1-.386.275l-7.06 5.055a.85.85 0 0 1-.497.162.844.844 0 0 1-.571-.25c-.105.565-.282 1.07-.563 1.374a1.13 1.13 0 0 1-.824.375c-.466 0-1.278-.292-1.471-2.252-.117-1.164.037-2.717.645-3.365.227-.244.52-.377.826-.377.466 0 1.276.292 1.472 2.251.02.21.023.441.023.671l6.84-4.899a120.573 120.573 0 0 0-.587-6.23l-5.515 7.974a.85.85 0 0 1-1.19.215.855.855 0 0 1-.219-1.189l9.273-13.412a.845.845 0 0 1 .855-.352c-2.534-18.685-8.12-32.02-14.426-32.02-6.24 0-11.773 13.051-14.347 31.421a.829.829 0 0 1 .84.346zm9.088 5.864c.284-.71.588-1.343.91-1.894l-.194-3.737c-.935.364-1.85.764-2.744 1.215.159.441.329.881.53 1.318l1.498 3.098zm.622-7.411l-.923-17.811c-2.017 5.671-2.713 11.021-2.725 11.115-.008.045-.588 3.808.486 8.03a33.357 33.357 0 0 1 3.162-1.334zm1.728-.608a.878.878 0 0 1 .428-.006l-.687-22.617c-.307.559-.597 1.13-.87 1.709l1.086 20.925c.014 0 .025-.005.043-.011zm2.167.877l.551-18.068a3.265 3.265 0 0 0-1.102-.031l.551 18.099zm-3.966 40.474c-.054-.108-.105-.23-.159-.344l-3.963 14.621c.34 1.037.696 2.014 1.068 2.92l3.054-17.197zm4.995 11.858l-1.04-8.519c-.029 0-.054.009-.082.009-.097 0-.188-.029-.285-.037l-3.005 19.999c.977 1.017 1.966 1.579 2.949 1.687.491-.636.775-1.184.82-1.269.015-.032 1.66-2.945.643-11.87zm-4.722 13.5l-.278 1.854c.812-.063 1.522-.386 2.119-.818a6.566 6.566 0 0 1-1.841-1.036zm18.26-62.523l-1.97 2.848c.316 2.314.554 4.733.739 7.195l1.4-1.005a.85.85 0 0 1 .663-.142c-.202-3.061-.48-6.037-.833-8.896zm-10.794 37.162c-.054.105-.105.221-.159.321l3.06 17.251c.375-.889.739-1.846 1.082-2.869l-3.983-14.703zm-3.866 39.121c-4.197 0-8-4.455-10.992-11.977 2.977 8.363 6.81 13.411 10.991 13.411 4.182 0 8.015-5.048 10.992-13.411-2.991 7.519-6.798 11.977-10.991 11.977zm0-111.802c4.196 0 8 4.456 10.991 11.978-2.977-8.363-6.81-13.412-10.991-13.412-4.182 0-8.018 5.049-10.992 13.412 2.988-7.519 6.795-11.978 10.991-11.978zM2.566 270.891c.466 3.265 2.61 7.099 4.219 9.603-1.844-21.567.298-54.081.327-54.475 4.076-31.983 20.307-32.173 21-32.145 11.62.21 19.038 34.053 19.34 35.461 3.096 11.998 9.38 81.214 10.042 88.571l201.903 77.306c-2.446-16.432-2.256-33.57.795-49.96 2.435-13.094 6.515-25.145 12.035-35.933.531-2.45 1.042-4.921 1.551-7.4 2.551-12.406 5.188-25.236 11.1-36.642 6.497-12.54 15.12-22.277 24.938-28.155 22.984-13.77 43.099 1.922 54.397 14.649a.864.864 0 0 1 .39.438 97.962 97.962 0 0 1 6.94 8.902l13.378-5.188c-9.872-19.284-26.998-35.041-43.856-40.258-11.72-3.623-23.049-2.467-33.681 3.448-21.543 11.98-35.609 38.88-41.802 79.947a48.312 48.312 0 0 0-.39 3.115.421.421 0 0 1-.463.389.427.427 0 0 1-.389-.463c.097-1.099.247-2.172.398-3.169 6.236-41.345 20.444-68.452 42.232-80.569 10.841-6.028 22.398-7.21 34.35-3.515 17.1 5.29 34.456 21.263 44.42 40.791l104.075-20.568-58.892-54.131c-5.361-4.93-5.349-11.396-5.341-17.649.003-1.902-.008-3.859-.162-5.736l-46.286-26.071c-2.133-.298-21.691-3.316-30.566-15.061-.296-.432-29.538-43.174-34.388-51.502l-.426-.688c-7.679-12.451-15.623-25.326-24.387-37.264-6.205-8.454-12.433-14.587-18.507-18.236-7.179-4.31-16.233-6.494-26.918-6.494h-.111c-28.737.04-57.69 7.786-81.52 21.814-6.151 3.62-12.251 7.616-18.149 11.478-.832.545-1.67 1.076-2.503 1.62 10.308-5.244 21.882-11.028 22.109-11.142l18.944-7.52c3.239-1.212 21.097-5.358 21.904-5.542 17.907-3.033 36.573-4.615 51.758 4.276 6.571 3.848 12.438 9.652 18.467 18.262l.912 1.31c11.838 17.1 21.597 35.719 29.009 55.335 3.784 10.018 6.867 19.074 9.427 27.706.204.77 4.943 18.907-2.941 25.952l-11.881 13.283a.856.856 0 0 1-.844.262l-17.915-4.427-.009-.003c-.182-.051-.42.023-.707.204-6.995 4.481-19.646 54.666-20.791 60.672-4.466 23.418-5.895 47.646-7.276 71.073l-.045.741c-.401 6.778-1.108 13.733-1.796 20.457-1.491 14.633-3.034 29.765-1.554 44.381 1.643 16.22-4.338 20.539-4.593 20.718a.865.865 0 0 1-.804.088c-29.206-11.705-59.077-23.092-87.961-34.104-22.203-8.462-45.161-17.214-67.665-26.051-.846-.335-1.818-.685-2.87-1.065-6.633-2.402-15.716-5.696-17.602-12.199l-1.225-4.223c-13.412-46.166-28.614-98.492-17.486-145.44 1.653-6.971 3.932-13.994 5.946-20.187.532-1.638.787-4.117 1.037-6.511.335-3.237.65-6.296 1.617-8.113a15.2 15.2 0 0 1 .65-1.102l-17.932-7.221h-.39l-1.394 3.66c-1.074 3.007-5.97 10.919-9.282 14.028-3.162 2.97-11.747 12.333-11.782 12.364-7.224 9.564-9.676 28.385-9.724 28.694-1.523 5.518-4.006 39.46-3.796 51.886.199 11.742.4 32.605.403 32.815a.881.881 0 0 1-.085.38c-2.622 5.441-1.784 14.042-.926 20.043z" fill="url(#v)"/><path d="M40.28 126.748a.817.817 0 0 0 .082-.184l3.407-10.674a2.599 2.599 0 0 1 3.84-1.429l4.04 2.477a2.586 2.586 0 0 1 1.234 2.442l-.94 10.941c-.04.468-.208.92-.484 1.303l-13.688 18.923a2.608 2.608 0 0 1-3.605.608l-4.023-2.822a2.612 2.612 0 0 1-.739-3.471l10.876-18.114zm-9.151 20.182l4.023 2.82a.908.908 0 0 0 1.236-.208l13.688-18.923a.9.9 0 0 0 .165-.446l.94-10.944a.892.892 0 0 0-.423-.838l-4.043-2.476a.869.869 0 0 0-.463-.133.894.894 0 0 0-.852.622l-3.407 10.68a2.725 2.725 0 0 1-.247.545l-10.873 18.108a.904.904 0 0 0 .256 1.193z" fill="url(#w)"/><path d="M77.632 141.153c-1.594 4.322-5.776 4.788-7.5 4.788-.71 0-1.168-.071-1.21-.077-.208.267-.421.529-.626.801-.827 1.102-1.679 2.241-2.855 3.058-.341.239-1.404.901-2.574.901-.236 0-.48-.029-.722-.091-1.613-.426-1.616-2.295-1.619-3.448-.003-.749-.031-1.499-.06-2.251-.005-.137-.008-.273-.014-.412-.006-.003-.014 0-.02-.006-1.741-.982-2.846-2.306-3.284-3.93-.736-2.74.744-5.31.758-5.31 1.35-3.484 4.816-4.416 6.654-4.416.395 0 1.6 0 1.824.895.134.536-.153.982-.406 1.374a6.014 6.014 0 0 0-.182.293l.026.008c.304.102.863.19 1.554.267.386-.752.5-1.641.602-2.578.12-1.059.241-2.158.801-3.118.668-1.145 1.63-1.832 2.58-1.835h.005c.566 0 1.373.239 2.046 1.372 1.046 1.755.932 3.76.821 5.696-.017.318-.023.625-.037.934 3.301.835 3.739 4.819 3.48 6.887a.702.702 0 0 1-.042.198zm-16.25 5.972c.002 1.272.079 2.346.982 2.584.855.227 1.898-.207 2.588-.687 1.063-.735 1.875-1.82 2.66-2.868.164-.222.338-.432.505-.647-1.375-.71-4.858-2.525-6.39-3.516a9.18 9.18 0 0 0-.022 1.624.857.857 0 0 1-.395.787h-.003l.014.403c.029.761.06 1.522.06 2.32zm11.295-19.241c-.375-.633-.815-.954-1.307-.954h-.006c-.63.002-1.338.542-1.843 1.411-.47.804-.574 1.763-.688 2.78-.097.872-.213 1.758-.554 2.573 1.554.133 3.486.221 5.069.269.01-.289.017-.573.034-.866.099-1.811.207-3.683-.705-5.213zm1.045 7.792c-.687-.014-6.755-.154-8.44-.716-.625-.21-1.029-.554-1.193-1.025-.19-.542-.003-1.048.221-1.451-1.446.079-3.85.849-4.864 3.439-.014.02-1.196 2.087-.639 4.134.199.73.6 1.38 1.196 1.951.066-.653.222-1.278.557-1.638.446-.483 1.16-.523 1.759-.054.914.71 5.224 2.97 6.98 3.87.156.017.452.043.832.043 1.68 0 4.654-.466 5.856-3.57.062-.65.304-4.515-2.264-4.983z" fill="url(#x)"/><path d="M28.647 282.401c-1.466 0-2.23-3.197-2.23-6.358 0-3.16.767-6.357 2.23-6.357 1.466 0 2.23 3.197 2.23 6.357 0 3.161-.767 6.358-2.23 6.358zm0-11.861c-.466 0-1.375 1.943-1.375 5.503 0 3.561.909 5.504 1.375 5.504.466 0 1.375-1.943 1.375-5.504-.003-3.56-.91-5.503-1.375-5.503z" fill="url(#y)"/><path d="M34.067 239.845a1.445 1.445 0 0 1 1.236-.071c.227.08.71.313 1.364.917a.857.857 0 0 1 .264.259c1.159 1.175 2.77 3.49 4.472 8.002.002.011.008.02.01.031.356.943.714 1.965 1.075 3.112a.855.855 0 0 1-.56 1.071.85.85 0 0 1-1.074-.559 70.28 70.28 0 0 0-.454-1.383l-.384.658a.966.966 0 0 1-.08.14l-6.92 11.949a.853.853 0 0 1-1.17.309.858.858 0 0 1-.313-1.17l.608-1.047c-.057-.188-.111-.372-.168-.554a.853.853 0 0 1-.738.44c-.023 0-.046 0-.066-.003a.856.856 0 0 1-.787-.92l.219-2.865a.83.83 0 0 1 .026-.335l.67-8.76c.46-5.481 1.366-8.497 2.77-9.221zm5.438 8.945c.034.131.062.273.093.406l.04-.068c-.042-.116-.088-.224-.133-.338zm-7.168 9.124c.34.63.659 1.357.954 2.169l5.055-8.726c-.79-3.615-1.74-6.775-2.827-9.402-.392-.363-.65-.508-.728-.545-.25.227-1.264 1.519-1.792 7.798l-.662 8.706z" fill="url(#z)"/><path d="M24.15 284.899c0 .002-.004.005-.004.008l-2.338 6.432c-.997 2.618-1.971 3.794-3.15 3.794h-.074c-1.47-.06-2.108-2.014-2.208-2.354-.102-.29-2.534-7.25-3.358-22.718a.857.857 0 0 1 .81-.9c.466-.034.872.338.9.81.077 1.465.177 2.831.279 4.145l.594.287c.025-.003.05-.017.076-.02a.84.84 0 0 1 .694.389l6.375 3.064c.23 0 .44.108.594.284l.502.242a.854.854 0 0 1 .401 1.141c-.12.244-.344.378-.59.435.025.386.045.783.079 1.158.037.404.099.784.145 1.182.096 0 .196.008.292.042a.856.856 0 0 1 .512 1.096l-.532 1.483zm-6.146 7.351c.145.503.492 1.105.628 1.17.006-.003.614-.176 1.568-2.68l2.242-6.159a54.585 54.585 0 0 1-.412-3.331c-.057-.628-.094-1.275-.134-1.926l-5.352-2.572c.02 4.202.213 8.345.602 12.318v.011c.483 2.087.844 3.124.858 3.169z" fill="url(#A)"/><path d="M28.647 266.543c-1.398 0-1.509-2.294-1.509-2.998 0-.705.108-2.996 1.509-2.996 1.4 0 1.508 2.291 1.508 2.996-.003.704-.11 2.998-1.508 2.998z" fill="url(#B)"/><path d="M30.789 282.264c.466 0 1.08.269 1.364 1.553.253 1.139.17 2.646-.19 3.507-.342.812-.882.934-1.174.934-.466 0-1.08-.27-1.364-1.553-.25-1.139-.167-2.647.19-3.504.341-.815.881-.937 1.174-.937z" fill="url(#C)"/><path d="M27.675 283.2c.358.86.44 2.368.19 3.507-.284 1.283-.897 1.553-1.363 1.553-.293 0-.832-.122-1.174-.934-.357-.861-.44-2.368-.19-3.507.284-1.284.898-1.553 1.364-1.553.293-.003.832.119 1.173.934z" fill="url(#D)"/><defs><linearGradient id="a" x1="547.216" y1="217.988" x2="547.216" y2="241.921" gradientUnits="userSpaceOnUse"><stop/><stop offset="1" stop-color="#0047FF"/></linearGradient><linearGradient id="b" x1="771.003" y1="272.569" x2="771.003" y2="317.776" gradientUnits="userSpaceOnUse"><stop/><stop offset="1" stop-color="#0047FF"/></linearGradient><linearGradient id="c" x1="806.882" y1="263.874" x2="806.882" y2="307.797" gradientUnits="userSpaceOnUse"><stop/><stop offset="1" stop-color="#0047FF"/></linearGradient><linearGradient id="d" x1="344.991" y1="360.969" x2="344.991" y2="379.938" gradientUnits="userSpaceOnUse"><stop/><stop offset="1" stop-color="#0047FF"/></linearGradient><linearGradient id="e" x1="347.9" y1="290.62" x2="347.9" y2="343.264" gradientUnits="userSpaceOnUse"><stop/><stop offset="1" stop-color="#0047FF"/></linearGradient><linearGradient id="f" x1="306.513" y1="334.357" x2="306.513" y2="364.293" gradientUnits="userSpaceOnUse"><stop/><stop offset="1" stop-color="#0047FF"/></linearGradient><linearGradient id="g" x1="325.1" y1="295.826" x2="325.1" y2="351.45" gradientUnits="userSpaceOnUse"><stop/><stop offset="1" stop-color="#0047FF"/></linearGradient><linearGradient id="h" x1="376.05" y1="316.126" x2="376.05" y2="352.679" gradientUnits="userSpaceOnUse"><stop/><stop offset="1" stop-color="#0047FF"/></linearGradient><linearGradient id="i" x1="377.416" y1="374.737" x2="377.416" y2="423.726" gradientUnits="userSpaceOnUse"><stop/><stop offset="1" stop-color="#0047FF"/></linearGradient><linearGradient id="j" x1="335.372" y1="395.671" x2="335.372" y2="439.34" gradientUnits="userSpaceOnUse"><stop/><stop offset="1" stop-color="#0047FF"/></linearGradient><linearGradient id="k" x1="307.299" y1="358.558" x2="307.299" y2="397.899" gradientUnits="userSpaceOnUse"><stop/><stop offset="1" stop-color="#0047FF"/></linearGradient><linearGradient id="l" x1="368.735" y1="389.691" x2="368.735" y2="439.951" gradientUnits="userSpaceOnUse"><stop/><stop offset="1" stop-color="#0047FF"/></linearGradient><linearGradient id="m" x1="318.043" y1="388.187" x2="318.043" y2="437.458" gradientUnits="userSpaceOnUse"><stop/><stop offset="1" stop-color="#0047FF"/></linearGradient><linearGradient id="n" x1="345.606" y1="347.252" x2="345.606" y2="355.507" gradientUnits="userSpaceOnUse"><stop/><stop offset="1" stop-color="#0047FF"/></linearGradient><linearGradient id="o" x1="358.576" y1="360.353" x2="358.576" y2="368.594" gradientUnits="userSpaceOnUse"><stop/><stop offset="1" stop-color="#0047FF"/></linearGradient><linearGradient id="p" x1="352.807" y1="380.705" x2="352.807" y2="388.918" gradientUnits="userSpaceOnUse"><stop/><stop offset="1" stop-color="#0047FF"/></linearGradient><linearGradient id="q" x1="336.271" y1="380.186" x2="336.271" y2="388.383" gradientUnits="userSpaceOnUse"><stop/><stop offset="1" stop-color="#0047FF"/></linearGradient><linearGradient id="r" x1="331.821" y1="359.491" x2="331.821" y2="367.734" gradientUnits="userSpaceOnUse"><stop/><stop offset="1" stop-color="#0047FF"/></linearGradient><linearGradient id="s" x1="301.147" y1="105.919" x2="301.147" y2="111.254" gradientUnits="userSpaceOnUse"><stop/><stop offset="1" stop-color="#0047FF"/></linearGradient><linearGradient id="t" x1="301.149" y1="115.088" x2="301.149" y2="120.804" gradientUnits="userSpaceOnUse"><stop/><stop offset="1" stop-color="#0047FF"/></linearGradient><linearGradient id="u" x1="146.457" y1="146.264" x2="146.457" y2="175.533" gradientUnits="userSpaceOnUse"><stop/><stop offset="1" stop-color="#0047FF"/></linearGradient><linearGradient id="v" x1="459" y1=".258" x2="459" y2="490.258" gradientUnits="userSpaceOnUse"><stop/><stop offset="1" stop-color="#0047FF"/></linearGradient><linearGradient id="w" x1="40.965" y1="114.075" x2="40.965" y2="151.626" gradientUnits="userSpaceOnUse"><stop/><stop offset="1" stop-color="#0047FF"/></linearGradient><linearGradient id="x" x1="67.34" y1="126.066" x2="67.34" y2="150.624" gradientUnits="userSpaceOnUse"><stop/><stop offset="1" stop-color="#0047FF"/></linearGradient><linearGradient id="y" x1="28.647" y1="269.686" x2="28.647" y2="282.401" gradientUnits="userSpaceOnUse"><stop/><stop offset="1" stop-color="#0047FF"/></linearGradient><linearGradient id="z" x1="36.453" y1="239.668" x2="36.453" y2="264.397" gradientUnits="userSpaceOnUse"><stop/><stop offset="1" stop-color="#0047FF"/></linearGradient><linearGradient id="A" x1="18.875" y1="269.159" x2="18.875" y2="295.133" gradientUnits="userSpaceOnUse"><stop/><stop offset="1" stop-color="#0047FF"/></linearGradient><linearGradient id="B" x1="28.647" y1="260.549" x2="28.647" y2="266.543" gradientUnits="userSpaceOnUse"><stop/><stop offset="1" stop-color="#0047FF"/></linearGradient><linearGradient id="C" x1="30.79" y1="282.264" x2="30.79" y2="288.258" gradientUnits="userSpaceOnUse"><stop/><stop offset="1" stop-color="#0047FF"/></linearGradient><linearGradient id="D" x1="26.502" y1="282.266" x2="26.502" y2="288.26" gradientUnits="userSpaceOnUse"><stop/><stop offset="1" stop-color="#0047FF"/></linearGradient></defs></svg>