<svg width="731" height="391" viewBox="0 0 731 391" fill="none" xmlns="http://www.w3.org/2000/svg"><path d="M435.772 193.008c-3.724 0-6.753-4.274-6.753-9.528 0-5.255 3.029-9.528 6.753-9.528 3.723 0 6.754 4.273 6.754 9.528 0 5.252-3.029 9.528-6.754 9.528zm0-18.378c-3.348 0-6.072 3.971-6.072 8.848 0 4.879 2.724 8.847 6.072 8.847s6.073-3.97 6.073-8.847c0-4.877-2.725-8.848-6.073-8.848z" fill="url(#a)"/><path d="M712.949 230.435l-10.844 6.162c-11.747 8.327-53.243 15.621-55.06 15.933-8.534.762-24.788.875-33.718.875-3.457 0-5.683-.018-5.712-.018-12.059-.636-79.512-6.869-80.193-6.933a.672.672 0 0 1-.426-.201l-13.468-13.783a.678.678 0 0 1-.131-.759.66.66 0 0 1 .66-.396l93.642 5.542s2.99.214 6.302.427c3.384.217 13.59 6.441 14.746 7.154 4.715 2.943 11.569 3.382 15.233 3.382a33.37 33.37 0 0 0 2.326-.068c7.322-.407 14.631-8.026 14.644-8.026.009-.014.019-.025.028-.036l.004-.007c3.751-5.684 11.188-7.441 11.458-7.5 12.446-3.796 40.928-14.619 41.215-14.73a.689.689 0 0 1 .658.099.676.676 0 0 1 .26.613l-1.282 11.753a.681.681 0 0 1-.342.517zm-185.154 14.688c2.341.217 20.454 1.885 39.028 3.536l-2.477-5.892a.675.675 0 0 1-.591-.697.703.703 0 0 1 .143-.37l-2.615-6.225-45.55-2.695 12.062 12.343zm86.115-6.478c-3.311-.215-6.304-.43-6.302-.43l-45.567-2.697 2.481 5.903 61.19 2.791c-3.817-2.225-9.725-5.434-11.802-5.567zm30.068 10.538c-3.771 0-10.801-.461-15.792-3.495l-63.083-2.876 2.487 5.915c17.153 1.521 34.519 3.009 40.063 3.301 0 0 2.222.018 5.671.018 8.906 0 25.114-.113 33.54-.862.383-.065 34.203-6.012 49.73-13.102l.928-7.606c-4.559 1.997-19.291 8.029-35.676 10.267-1.167 1.19-8.127 7.966-15.454 8.373-.037 0-.948.067-2.414.067zm19.103-9.995c16.704-2.519 31.387-8.829 34.633-10.29l.518-4.239c-8.772 3.217-19.133 6.918-25.442 8.842-.068.016-5.99 1.429-9.709 5.687zm35.868-14.794l-.509 4.183a.676.676 0 0 1 .536 1.241c-.02.009-.276.131-.728.332l-.925 7.595c1.585-.755 2.958-1.524 4.051-2.299l10.6-6.026 1.124-10.301a1457.22 1457.22 0 0 1-14.149 5.275z" fill="url(#b)"/><path d="M644.031 245.459c-.638 0-1.289-.04-1.934-.122-9.872-1.246-17.506-10.782-16.674-20.826.86-10.342 8.334-14.025 15.043-14.025 8.164 0 17.615 5.479 19.056 15.633.708 4.983-.844 10.228-4.146 14.031-2.973 3.424-7.002 5.309-11.345 5.309zm14.143-19.15c-1.333-9.392-10.118-14.462-17.706-14.462-6.103 0-12.902 3.356-13.685 12.775-.762 9.18 6.474 18.226 15.486 19.363 4.588.581 8.969-1.146 12.08-4.73 3.047-3.509 4.476-8.347 3.825-12.946z" fill="url(#c)"/><path d="M274.849 287.796l.151.002c1.586.052 3.047.898 4.11 2.379 1.045 1.456 1.586 3.357 1.52 5.358-.133 4.129-2.755 7.364-5.967 7.364l-.152-.002c-1.585-.052-3.044-.898-4.11-2.379-1.045-1.456-1.585-3.359-1.52-5.36.134-4.129 2.755-7.362 5.968-7.362zm-3.894 12.325c.939 1.309 2.21 2.053 3.579 2.095l.129.003c2.796 0 5.167-3.007 5.287-6.704.058-1.852-.435-3.606-1.394-4.94-.939-1.307-2.21-2.051-3.579-2.094l-.128-.002c-2.796 0-5.167 3.007-5.287 6.701-.059 1.852.437 3.607 1.393 4.941z" fill="url(#d)"/><path d="M278.806 271.182l-.01.025-.205 1.886a.683.683 0 0 1-1.355-.152l.147-1.343a14.15 14.15 0 0 0-1.853-.201 12.608 12.608 0 0 0-1.276.025l.064 1.427a.68.68 0 0 1-.652.71c-.011.002-.02.002-.032.002a.68.68 0 0 1-.68-.651l-.091-2.024c0-.007-.004-.011-.007-.02-.002-.014.005-.027.005-.041l-1.708-38.33a.679.679 0 0 1 .649-.71c.364-.034.695.273.71.649l.466 10.445c1.15-.09 2.312-.131 3.473-.095 1.348.046 2.701.193 4.038.407l1.144-10.463a.68.68 0 1 1 1.355.147l-4.185 38.226c.003.032.009.057.003.081zm-2.398-27.032a29.985 29.985 0 0 0-3.366.093l1.151 25.847c.459-.027.921-.063 1.38-.052.658.023 1.31.102 1.957.208l2.811-25.693a29.551 29.551 0 0 0-3.933-.403z" fill="url(#e)"/><path d="M258.813 283.004a.697.697 0 0 1 .231.16l1.235.762a.681.681 0 1 1-.717 1.16l-.66-.407a28.618 28.618 0 0 0-1.22 4.131l.953.303a.682.682 0 0 1-.206 1.329.76.76 0 0 1-.208-.031l-30.111-9.593a.682.682 0 1 1 .414-1.298l7.239 2.306a63.252 63.252 0 0 1 2.897-9.618l-7.041-4.339a.681.681 0 1 1 .714-1.16l7.284 4.488c.055.007.107.009.159.029a.658.658 0 0 1 .294.251l18.696 11.52c.018.005.034.002.047.007zm-21.745-.762l19.316 6.154c.335-1.533.778-3.02 1.335-4.447l-17.873-11.013a61.968 61.968 0 0 0-2.778 9.306z" fill="url(#f)"/><path d="M268.35 237.186a46.167 46.167 0 0 0-3.578 2.575l.513 5.232c.025.039.057.073.073.118a.674.674 0 0 1-.014.479l2.649 26.931.002.002a.666.666 0 0 1 .052.558l.339 3.448a.68.68 0 0 1-.61.744c-.023.003-.046.002-.068.002a.682.682 0 0 1-.677-.615l-.253-2.563c-1.325.911-2.558 2.034-3.683 3.35l1.803 1.576a.682.682 0 0 1-.895 1.027l-9.497-8.296c-7.944-7.294-4.662-14.864-4.651-14.886.157-.443 3.588-9.847 13.79-17.966.032-.025.059-.054.095-.075a48.937 48.937 0 0 1 3.873-2.79.681.681 0 1 1 .737 1.149zm-12.937 33.558l6.655 5.813c1.374-1.606 2.903-2.944 4.559-3.987l-2.579-26.232c-3.841 1.515-7.483 3.776-10.838 6.745-1.45 2.535-2.067 4.233-2.092 4.296-.03.065-2.918 6.74 4.295 13.365zm.093-21.24c2.665-1.929 5.479-3.459 8.404-4.574l-.407-4.14a46.72 46.72 0 0 0-7.997 8.714z" fill="url(#g)"/><path d="M286.392 281.197a.683.683 0 0 1-.366-1.258l1.884-1.2a19.516 19.516 0 0 0-3.375-3.717l-.581 2.566a.682.682 0 0 1-1.33-.301l.773-3.412a.68.68 0 0 1 .111-.486l2.396-10.554c1.226-4.99 3.176-8.302 5.795-9.846 2.176-1.285 4.004-.814 3.993-.808.151.021 1.574.235 3.802 1.153a.668.668 0 0 1 .286.118c3.237 1.381 8.055 4.244 13.203 10.012.021.025.048.04.066.067l.004.014a56.82 56.82 0 0 1 3.179 3.891.68.68 0 0 1-1.093.812 53.936 53.936 0 0 0-2.805-3.453l-3.497 2.23a.701.701 0 0 1-.217.169c-.027.014-.055.009-.082.018l-21.777 13.878a.683.683 0 0 1-.369.107zm9.038-27.684c-.057-.014-1.405-.337-3.084.674-1.558.938-3.714 3.256-5.117 8.958l-2.357 10.394c1.559 1.216 2.964 2.715 4.19 4.465l18.334-11.682c-2.285-4.446-5.072-8.366-8.309-11.651-2.21-.932-3.592-1.147-3.657-1.158zm7.1 2.924c2.278 2.726 4.285 5.801 6.017 9.154l2.873-1.831c-3.232-3.493-6.306-5.793-8.89-7.323z" fill="url(#h)"/><path d="M309.441 331.93a74.703 74.703 0 0 1-1.984 5.411.679.679 0 0 1-.891.371.683.683 0 0 1-.371-.889 72.942 72.942 0 0 0 1.803-4.897l-19.551-26.592a.68.68 0 1 1 1.097-.804l.803 1.092a28.274 28.274 0 0 0 1.529-4.936l-1.502.084a.683.683 0 0 1-.077-1.362l2.147-.119a.692.692 0 0 1 .418-.073c.041.007.073.03.111.043l8.854-.495c9.994-.271 10.745 8.436 10.745 8.467.072.471 1.495 10.519-3.131 24.695.003.002.003.002 0 .004zm-.925-1.603c1.457-4.764 2.224-9.037 2.599-12.568-1.291 3.432-2.857 6.688-4.698 9.713l2.099 2.855zm2.706-22.944c-.023-.305-.629-7.418-9.336-7.258l-8.598.479a29.58 29.58 0 0 1-2 6.291l14.247 19.376c2.499-4.203 4.497-8.827 5.91-13.785.048-3.177-.214-5.035-.223-5.103z" fill="url(#i)"/><path d="M253.797 347.983c1.335.292 2.606.475 3.841.608l1.919-4.601a.66.66 0 0 1 .065-.276c.027-.056.07-.099.111-.142l10.569-25.344c.002-.013-.003-.027.002-.04a.636.636 0 0 1 .115-.238l.878-2.107a.682.682 0 0 1 1.258.525l-.618 1.483c.69.129 1.387.226 2.09.246.539.018 1.086-.009 1.629-.056l-.457-1.673a.68.68 0 1 1 1.314-.36l3.841 14.057c3.04 12.003-2.886 15.625-3.074 15.729-.294.222-6.015 4.402-15.81 4.402a35.9 35.9 0 0 1-3.402-.174h-.002l-.007-.002a38.84 38.84 0 0 1-4.549-.71.677.677 0 0 1-.52-.809.675.675 0 0 1 .807-.518zm25.234-17.573l-3.015-11.035c-.516.052-1.032.09-1.55.09-.163 0-.326-.002-.489-.007a14.977 14.977 0 0 1-2.581-.328l-10.238 24.555c3.787 1.745 7.764 2.711 11.835 2.855 2.24-.947 3.47-1.838 3.525-1.876.219-.131 5.282-3.326 2.513-14.254zm-9.182 17.229c-3.156-.425-6.241-1.332-9.213-2.697l-1.579 3.787c4.341.296 7.974-.283 10.792-1.09z" fill="url(#j)"/><path d="M229.574 285.878a.683.683 0 0 1 .748.608 79.44 79.44 0 0 0 .717 5.196l3.611.809a.63.63 0 0 1 .353-.088.667.667 0 0 1 .509.283l20.725 4.642c.045-.014.088-.037.138-.041a.695.695 0 0 1 .527.19l2.011.45a.681.681 0 1 1-.299 1.329l-1.377-.31c.081.652.176 1.3.298 1.936a27.98 27.98 0 0 0 .824 3.152l1.006-1.027a.685.685 0 0 1 .964-.011.679.679 0 0 1 .009.963l-1.764 1.8a.573.573 0 0 1-.098.099l-7.288 7.437c-2.665 2.595-5.232 3.904-7.646 3.904-.217 0-.432-.011-.645-.031-2.938-.29-4.481-2.492-4.504-2.53-.271-.324-6.012-7.306-8.625-22.23a.578.578 0 0 1-.016-.1 80.84 80.84 0 0 1-.791-5.686.687.687 0 0 1 .613-.744zm4.68 8.164c.002-.081.007-.16.009-.239l-2.975-.667c.95 5.003 2.26 9.062 3.556 12.218a67.798 67.798 0 0 1-.59-11.312zm5.225 19.773c.014.018 1.274 1.786 3.577 2.003 2.171.197 4.589-.97 7.173-3.484l7.053-7.197a29.193 29.193 0 0 1-1.084-3.995 32.681 32.681 0 0 1-.371-2.51l-20.214-4.529c-.172 5.384.294 10.706 1.385 15.816v.002c1.391 2.564 2.441 3.842 2.481 3.894z" fill="url(#k)"/><path d="M281.762 313.877a.685.685 0 0 1 .889.373l.395.966a18.855 18.855 0 0 0 2.695-2.361l-.731-1.144a.682.682 0 0 1 .208-.94.687.687 0 0 1 .941.208l14.676 23.001.019.011a.68.68 0 0 1 .185.308l4.841 7.587a.681.681 0 1 1-1.149.733l-4.463-6.993a43.147 43.147 0 0 1-6.506 5.738l3.436 8.382a.68.68 0 1 1-1.262.515l-14.55-35.493a.685.685 0 0 1 .376-.891zm17.752 20.564l-13.022-20.405a20.166 20.166 0 0 1-2.919 2.471l9.657 23.557a41.686 41.686 0 0 0 6.284-5.623z" fill="url(#l)"/><path d="M260.742 311.341a.66.66 0 0 1 .222-.314c.004-.003.009-.003.013-.007l.932-1.273a.682.682 0 0 1 1.1.805l-.76 1.038c.76.974 1.586 1.858 2.47 2.636l.482-.99a.68.68 0 1 1 1.226.597l-.814 1.668c-.012.043-.039.079-.059.12l-11.675 23.953a.643.643 0 0 1-.138.355c-.016.02-.041.027-.059.045l-4.065 8.341a.683.683 0 0 1-.911.314.68.68 0 0 1-.315-.911l3.941-8.083c-2.167-1.822-4.196-3.923-6.054-6.259l-4.944 6.745a.686.686 0 0 1-.953.147.682.682 0 0 1-.147-.952l20.508-27.975zm-7.79 27.03l11.152-22.877a20.487 20.487 0 0 1-2.69-2.763l-14.301 19.513a42.462 42.462 0 0 0 5.839 6.127z" fill="url(#m)"/><path d="M275.14 283.441c-1.477-.047-2.633-1.56-2.574-3.371.059-1.793 1.248-3.197 2.782-3.197h.002c.62.02 1.213.301 1.674.791.604.645.932 1.585.901 2.582-.059 1.793-1.251 3.2-2.715 3.2a.49.49 0 0 0-.07-.005zm1.423-3.242c.02-.629-.179-1.228-.534-1.605a1.057 1.057 0 0 0-.751-.36c-.699 0-1.317.862-1.35 1.881-.034 1.043.54 1.942 1.255 1.965l.027.683v-.681c.701-.002 1.321-.863 1.353-1.883z" fill="url(#n)"/><path d="M284.79 287.451c1.423-.547 3.002.506 3.375 2.245.371 1.718-.425 3.484-1.809 4.018a2.272 2.272 0 0 1-.817.154c-1.201 0-2.253-.988-2.558-2.399-.371-1.719.425-3.485 1.809-4.018zm-.477 3.731c.201.933.889 1.519 1.552 1.259.749-.29 1.192-1.415.968-2.458-.167-.78-.672-1.325-1.224-1.325a.894.894 0 0 0-.328.064c-.748.291-1.192 1.415-.968 2.46z" fill="url(#o)"/><path d="M282.537 309.419c-.466.414-1.016.631-1.593.631-.918 0-1.755-.558-2.237-1.494-.758-1.468-.443-3.419.713-4.446 1.21-1.071 3.045-.66 3.832.862.755 1.47.441 3.423-.715 4.447zm-.498-3.819c-.244-.474-.629-.757-1.027-.757-.237 0-.475.099-.687.289-.688.611-.874 1.893-.408 2.799.392.756 1.141.977 1.715.469.688-.611.876-1.893.407-2.8z" fill="url(#p)"/><path d="M269.54 303.793c1.088 1.098 1.276 3.066.425 4.479-.509.848-1.325 1.352-2.187 1.352-.62 0-1.22-.263-1.692-.74-1.088-1.098-1.274-3.065-.426-4.479.876-1.453 2.751-1.752 3.88-.612zm-2.71 1.316c-.527.875-.423 2.166.224 2.819.538.545 1.301.378 1.742-.357.524-.875.423-2.166-.224-2.82-.217-.217-.466-.334-.724-.334-.385 0-.756.253-1.018.692z" fill="url(#q)"/><path d="M264.235 293.182c-.326 0-.645-.072-.948-.212-1.348-.622-2.029-2.436-1.547-4.127.486-1.714 2.135-2.663 3.513-2.023 1.348.621 2.027 2.435 1.547 4.126-.38 1.338-1.412 2.236-2.565 2.236zm.445-5.123a.9.9 0 0 0-.377-.086c-.539 0-1.041.499-1.254 1.243-.291 1.027.077 2.18.808 2.517.649.3 1.369-.24 1.631-1.158.292-1.026-.077-2.179-.808-2.516z" fill="url(#r)"/><path d="M244.005 88.544a.68.68 0 0 1-.889.373l-7.055-2.885a.68.68 0 1 1 .516-1.262l7.055 2.885c.348.143.516.54.373.89z" fill="url(#s)"/><path d="M236.559 92.078l7.134 3.19a.68.68 0 1 1-.556 1.244l-7.135-3.19c-.344-.154-.498-.556-.344-.9.152-.344.554-.495.901-.344z" fill="url(#t)"/><path d="M120.285 136.216a9.38 9.38 0 0 1-.633-.025c-.622 1.194-2.378 3.891-5.59 3.957-.047 0-1.185-.034-2.185-1.126-1.068-1.167-1.554-3.048-1.464-5.587-.567-.17-1.341-.491-2.463-1.038-1.81-.866-2.877-2.514-2.929-4.522-.071-2.767 1.916-4.997 3.798-6.161.685-.423 2.73-1.354 4.343-1.354 1.457 0 1.977.752 2.162 1.32l3.678-3.629c.107-.075 2.638-1.8 4.522-.995.95.405 1.55 1.355 1.783 2.824a.362.362 0 0 1 0 .104l-.636 4.221c1.907 1.183 3.977 3.534 3.629 6.358-.453 3.713-4.375 5.653-8.015 5.653zm-7.922 2.331c.799.882 1.674.92 1.697.922 2.773-.056 4.372-2.457 4.961-3.549-3.394-2.842-6.124-4.009-7.106-2.675-.115.158-.341.344-.753.344-.02 0-.052-.009-.075-.012-.061 2.254.374 3.968 1.276 4.97zm10.895-20.86c-1.53-.653-3.812.891-3.821.889l-3.914 3.868c.138.423.322.554.908.891 2.626 1.359 5.487 1.678 7.544.785.006-.003.015 0 .022-.005l.629-4.176c-.199-1.192-.66-1.949-1.368-2.252zm.918 7.821c-2.38.888-5.506.522-8.397-.975-1.14-.651-1.448-1.069-1.728-2.349-.032-.149-.1-.457-.889-.457-1.258 0-3.079.812-3.626 1.149-1.561.965-3.208 2.779-3.151 4.967.038 1.499.803 2.68 2.264 3.381 1.459.71 2.097.918 2.359.976.521-.569 1.231-.868 2.072-.868 2.12 0 4.828 1.877 6.787 3.511.138.007.276.012.418.012 2.459 0 6.262-1.185 6.664-4.452.256-2.085-1.276-3.891-2.773-4.895z" fill="url(#u)"/><path d="M1.553 199.674c-.019-1.72-.17-17.104-.32-25.96-.153-9.173 1.747-36.902 3.052-41.602.08-.629 2.016-15.495 8.03-23.451.27-.297 6.377-6.953 9.14-9.625-1.772-4.244-1.937-17.29-1.944-17.867a.682.682 0 0 1 .862-.662l2.346.64v-1.513a.68.68 0 0 1 .403-.622c3.173-1.426 13.007-1.707 14.129-1.734 4.621-1.763 9.048-3.522 9.63-3.959a.721.721 0 0 1 .133-.079l4.662-2.06c.07-.03.14-.038.212-.045.265-3.67 8.18-9.279 16.272-14.714 1.484-.998 2.766-1.857 3.495-2.406 1.008-.76 2.18-1.732 3.422-2.763 4.805-3.984 10.77-8.924 16.027-9.3.615-.372 3.536-2.136 6.883-4.08l8.248-5.235a632.024 632.024 0 0 0 7.872-5.103c4.71-3.086 9.58-6.276 14.507-9.175C147.797 7.07 171.094.834 194.215.803c2.902.006 5.646.223 8.256.612.016-.002.027-.01.043-.01 20.289-1.31 42.358-1.048 69.451.824 53.469 3.693 105.77 13.184 154.326 22.888 5.92 1.183 11.736 3.423 17.439 5.994.018.007.043.016.058.025.005.002.007.007.012.007 3.106 1.402 6.18 2.896 9.216 4.38a405.425 405.425 0 0 0 6.512 3.133 406.806 406.806 0 0 1 36.702 19.512c13.173 7.898 26.207 16.562 38.811 24.939 4.221 2.806 8.44 5.61 12.668 8.39 7.594 4.993 13.918 9.162 20.404 13.562.217.147.703.427 1.339.796 4.056 2.351 6.528 3.97 7.232 5.216 3.212-.032 5.225-.072 5.302-.075a.925.925 0 0 1 .249.041l21.553 7.893c2.149.644 41.577 17.473 43.22 18.174 2.411.877 7.057 3.152 12.167 5.786 1.174.493 25.716 10.791 32.371 14.115 6.146 3.073 9.63 8.691 11.935 12.411.334.54.649 1.046.945 1.503 1.923 2.971 1.471 7.663 1.143 11.088-.095.99-.179 1.847-.179 2.455 0 2.216 1.678 3.057 1.746 3.091.027.014.048.034.07.05.018.011.039.014.055.027.873.672 8.559 6.663 9.206 9.93.263.753 6.445 18.504 7.73 25.366.165 1.554 4.065 38.186 3.85 47.698.004.131.45 13.179 2.721 18.337a.795.795 0 0 1 .055.196c.036.315.852 7.731-1.351 12.135a.722.722 0 0 1-.086.131c-.02.027-2.156 2.691-1.554 8.78-.018.431-.489 10.608-4.748 13.968a.756.756 0 0 1-.163.095c-.237.099-24.166 9.928-56.511 16.265-.256.073-26.168 7.331-65.958 11.561-.552.059-55.424 5.781-76.791 6.627-.629.022-63.065 2.344-78.262 1.282-.434.002-43.208.33-48.216.28-1.437.455-14.625 4.515-25.931 4.515-.981 0-1.95-.031-2.893-.097-.054-.007-1.588-.174-4.117-.527-8.039 14.26-11.643 15.943-12.03 16.087a.683.683 0 0 1-.133.034c-.441.07-33.988 5.282-55.602 8.382-4.986 1.338-10.128 2.064-15.315 2.064l-.095-.002-.024.002-.014-.002a56.686 56.686 0 0 1-6.3-.36c-22.395-2.543-44.391-17.726-56.036-38.679-5.8-10.436-9.782-22.481-11.824-35.083L71.885 264.931c-1.384 7.588-12.783 14.545-13.285 14.848a.691.691 0 0 1-.35.097h-.03l-33.644-1.402c-.086.002-.165.021-.251.021-.443 0-.9-.034-1.362-.089l-.072-.002-.01-.002c-.015-.002-.03 0-.047-.002-6.282-.801-10.55-6.664-12.448-11.886-4.232-11.642-4.416-24.109-4.592-36.167-.018-1.289-.039-2.573-.061-3.855-.749-1.002-4.364-6.012-4.968-10.233-.767-5.309-1.357-11.981.788-16.585zM24.08 80.095v1.943a.685.685 0 0 1-.862.657l-2.33-.637c.086 4.12.495 12.476 1.624 15.908 2.427-2.672 5.615-7.886 6.343-9.923l1.282-3.365a.68.68 0 0 1 .638-.438h1.514l-2.097-3.453a.677.677 0 0 1 .346-.992c.805-.296 1.687-.624 2.601-.966-3.099.195-7.087.568-9.06 1.266zm23.541-5.632c-1.536 1-12.552 5.11-15.834 6.324l2.296 3.78a.68.68 0 0 1-.584 1.036h-.12l12.846 5.173c3.335-4.755 10.121-8.845 16.65-12.29-1.138-.853-2.665-1.201-4.267-1.567-.473-.109-.94-.215-1.398-.335-2.291-.601-4.526-2.055-5.144-4.083l-4.445 1.962zM98.74 113.12a.342.342 0 0 1-.457.152c-2.527-1.262-35.244-14.986-35.57-15.122l-15.59-6.276c-.22.33-.427.662-.606.997-.645 1.214-.893 3.627-1.136 5.962-.203 1.979-.416 4.022-.884 5.465-1.672 5.148-3.402 10.471-4.705 15.967-8.777 37.033 3.273 78.513 13.907 115.109l.977 3.362c1.308 4.513 8.447 7.1 13.17 8.811.849.308 1.633.59 2.319.859A3840.731 3840.731 0 0 0 96.75 258.72c2.769-5.275 2.57-11.538 2.348-17.606a208.782 208.782 0 0 1-.097-3.064l-.014-.64c-.165-7.622-.334-15.503-.423-23.026-.203-17.066-.137-34.446.195-53.137.294-16.521 1.063-31.435 7.519-46.638l.118-.278c4.332-10.271 6.395-14.457 7.514-16.125l-.192-.052h-.011c-.005 0-.007-.005-.012-.005-6.379-1.716-12.907-3.565-16.615-4.888-1.031-.368-25.093-9.017-33.046-13.842-4.135 2.157-12.652 6.69-16.502 11.889l15.439 6.215c1.348.565 33.067 13.871 35.614 15.142.17.081.237.285.154.454zm99.02 132.408c.545-5.34 1.109-10.862 1.425-16.229l.034-.59c1.104-18.699 2.244-38.032 5.816-56.767.547-2.874 10.1-42.337 16.507-48.661l-90.081-20.548c-.111-.027-5.038-1.245-11.284-2.871h-.006l-.007-.002a956.387 956.387 0 0 1-4.875-1.285c-.74.887-3.108 5.553-7.634 16.286l-.118.281c-6.361 14.979-7.119 29.752-7.413 46.128-.333 18.678-.396 36.047-.195 53.097.091 7.518.261 15.395.424 23.013l.013.639c.02 1 .059 2.017.095 3.041.226 6.2.45 12.599-2.411 18.156 8.727 3.351 17.425 6.666 25.977 9.928 22.877 8.718 46.527 17.735 69.668 27.005.907-.918 3.864-4.752 2.826-15.006-1.193-11.78.043-23.896 1.239-35.615zm-95.996-208.25a430.756 430.756 0 0 0-9.971 5.851l-26.67 35.35c3.284 1.918 9.07 4.44 14.855 6.784 11.865-27.987 24.971-48.107 25.102-48.309a.701.701 0 0 1 .195-.196c12.756-8.404 27.624-13.794 42.005-19.01l3.028-1.1a.677.677 0 0 1 .715.173l4.889-1.253c.267-.251.425-.38.463-.412a.681.681 0 0 1 .959.118l4.887-.678c.047-.07.079-.12.086-.127a.672.672 0 0 1 .502-.29c.015-.004.029-.013.047-.015 2.473-.328 4.389-.531 6.207-.663 7.535-.545 15.564-.732 23.234 1.54 6.902 2.044 13.17 5.81 18.126 10.891 3.78 3.873 6.703 8.517 9.528 13.01a228.571 228.571 0 0 0 2.83 4.42.68.68 0 0 1 .084.572l-13.107 43.705c.717 2.01.654 3.787-.217 5.388-.654 1.2-2.065 2.044-3.483 2.672h5.105l13.12-47.335a.681.681 0 0 1 1.26-.139c3.178 5.98 7.664 14.385 9.571 17.887l.538-3.256a.676.676 0 0 1 .783-.56c.032.004.057.022.086.031a202.202 202.202 0 0 0-18.008-31.87l-.722-1.036c-4.685-6.688-9.22-11.183-14.276-14.145-6.519-3.819-13.923-5.123-21.614-5.123-6.131 0-12.444.83-18.638 1.879-.147.034-14.735 3.42-17.216 4.35l-15.018 5.96c-.251.12-24.42 12.2-29.265 14.936zm18.02 61.071c3.293-15.62 16.841-49.707 16.988-50.078 9.017-20.462 15.516-28.84 18.219-31.763l-3.805.975a.679.679 0 0 1-.176.305c-.536.502-.871 1.14-1.224 1.814-.197.373-.396.75-.629 1.114-6.73 10.539-11.833 19.275-16.056 27.498-3.477 6.767-6.685 14.292-10.406 24.4l-1.242 3.35c-2.54 6.828-5.155 13.884-6.782 21.033 1.742.466 3.466.923 5.113 1.352zm80.032 18.577c3.256-4.461 1.794-7.177 1.331-7.832l-18.151-3.946-30.781-4.327c-.366-.05-8.996-1.28-13.346-5.133-1.289-1.144-3.02-2.541-3.022-2.543a.68.68 0 0 1-.104-.955c-.07-.33-.027-.61.052-.809.269-.674 1.031-1.115 1.647-1.375-1.511-2.166-1.815-7.027-1.844-7.714.462-4.839 3.323-7.197 6.639-9.928l.269-.222c2.83-2.33 6.036-4.974 9.678-5.917 1.49-.386 3.153-.565 5.236-.565.989 0 1.98.036 2.968.075.964.036 1.925.074 2.878.074h10.699c.731.011 1.468.018 2.21.023 8.409.07 17.104.142 22.931 7.052 1.749 2.073 3.364 4.205 4.868 6.213.394.525.862 1.097 1.36 1.707 1.214 1.488 2.574 3.168 3.565 4.958l12.57-41.918a232.926 232.926 0 0 1-2.669-4.18c-2.789-4.432-5.673-9.013-9.352-12.784-4.793-4.916-10.858-8.558-17.538-10.537-7.46-2.21-15.341-2.023-22.747-1.487-1.733.126-3.567.32-5.897.626-1.272 1.915-9.533 14.527-13.428 24.453-.102.241-10.164 24.411-12.374 32.513-.061.212-6.021 20.776-7.284 28.556l1.597.398 68.039 15.524zm3.4-5.856c3.565-.367 20.065-2.684 21.963-14.007h-22.049a.672.672 0 0 1-.642-.486l-14.713-1.341v4.43a.336.336 0 0 1-.151.282c-1.627 1.081-3.708 2.833-4.133 3.914l18.183 3.95a.67.67 0 0 1 .357.205c.075.084 1.009 1.156 1.185 3.053zm27.944-21.13l3.613-21.79c-.919-1.384-3.127-5.538-9.635-17.776l-12.561 45.325h12.584c5.61-.14 5.976-5.458 5.999-5.758zm-23.311-3.273c-.936-1.77-2.337-3.487-3.572-4.997-.513-.629-.993-1.216-1.395-1.752-1.493-1.992-3.095-4.106-4.821-6.152-5.424-6.43-13.799-6.5-21.901-6.569-.745-.006-1.484-.01-2.208-.022h-10.689c-.97 0-1.947-.039-2.931-.075-.971-.036-1.946-.074-2.916-.074-1.991 0-3.502.16-4.895.52-3.35.868-6.434 3.407-9.241 5.722l-.181.15c-3.207 2.642-5.741 4.73-6.146 8.905.113 2.148.676 5.852 1.717 7.073l64.693 5.892.052-.018c1.559-.56 4.169-1.5 4.927-2.892.862-1.585.699-3.453-.493-5.711zm-71.147 5.417c.018.014 1.773 1.434 3.07 2.584.097.086.206.163.307.247l41.197 4.235c.917-.378 1.715-.939 1.697-1.196 0-.003-.032-.27-1.086-.52-2.579-.613-27.265-4.498-38.295-6.223l-5.297-.481a.682.682 0 0 1-.396-.174c-.561.214-1.278.585-1.475 1.078a.689.689 0 0 0-.034.319c.113.02.219.059.312.131zm46.113 11.665c.533-1.617 3.347-3.634 4.28-4.265v-4.31l-33.029-3.008c11.711 1.847 26.005 4.135 27.98 4.603.665.158 1.556.448 1.606 1.135.067.931-1.668 1.698-2.201 1.91a.344.344 0 0 1-.127.025c-.011 0-.023 0-.034-.002l-40.109-4.124c4.327 2.77 11.141 3.749 11.22 3.76l30.414 4.276zm-53.965-3.075c1.312-7.936 7.051-27.736 7.3-28.59 2.23-8.176 12.012-31.672 12.423-32.654 3.64-9.274 11.028-20.837 13.148-24.075l-4.305.597a.667.667 0 0 1-.199.278c-.075.06-7.537 6.13-19.189 32.57-.138.348-13.682 34.43-16.925 49.895 3.096.803 5.822 1.495 7.747 1.979zm-15.497-4.032c1.644-7.217 4.27-14.3 6.82-21.154l1.239-3.343c3.74-10.164 6.97-17.736 10.472-24.553 4.243-8.261 9.367-17.034 16.122-27.608.212-.333.391-.677.57-1.016l.156-.296-.989.36c-14.26 5.17-29.004 10.516-41.6 18.786-1.09 1.687-13.556 21.2-24.9 47.953 8.267 3.317 16.157 6.15 16.298 6.202 3.54 1.264 9.693 3.017 15.812 4.67zm123.602-33.333l-4.442 26.776c-.003.05-.245 3.632-3.041 5.644l-5.03 26.826 13.246 3.272 9.239-10.324c5.709-5.105 2.024-19.207 1.993-19.331-2.023-6.826-4.466-14.005-7.468-21.95a204.118 204.118 0 0 0-4.497-10.913zm-9.021 33.232a8.027 8.027 0 0 1-2.056.459c-1.846 11.985-19.029 14.379-22.637 14.75-.013 1.454-.497 3.303-1.993 5.503l21.866 4.988 4.82-25.7zM72.476 55.102c-.758.573-1.993 1.402-3.556 2.451-5.411 3.634-15.484 10.399-15.679 13.7-.115 1.96 2.084 3.427 4.314 4.013.443.115.898.22 1.355.323 1.823.416 3.7.848 5.117 2.08l25.751-34.134c-4.503 1.043-9.625 5.282-13.832 8.768-1.253 1.04-2.439 2.022-3.47 2.8zM426.02 26.456C377.509 16.758 325.257 7.276 271.865 3.59c-24.835-1.716-45.425-2.07-64.293-1.107 3.239.881 6.212 2.095 8.863 3.685 2.816 1.691 5.664 4.043 8.517 6.986 5.37.14 91.886 2.433 116.296 4.904 3.346.344 71.161 7.337 94.849 11.355-3.334-1.248-6.695-2.281-10.077-2.957zm-123.768 77.287a.01.01 0 0 1 .009.005h.013c6.287 1.046 71.279 1.483 71.955 1.487 6.126.211 59.785 1.483 60.353 1.497 6.802.423 47.2 1.906 47.628 1.922 12.451.843 52.786 1.277 53.259 1.284 4.732.511 10.846.81 17.076.979-25.509-29.377-59.638-49.298-92.671-68.558-5.764-3.36-11.713-6.83-17.515-10.291-11.44-3.396-100.324-12.56-101.247-12.655-23.166-2.345-102.495-4.531-114.837-4.861a79.304 79.304 0 0 1 5.298 6.498c7.01 9.55 13.348 19.826 19.479 29.763l.346.563c3.845 6.605 27.1 40.596 27.317 40.913 6.951 9.202 23.372 11.434 23.537 11.454zm266.51 3.297c-.674-.392-1.19-.692-1.421-.848-6.478-4.396-12.798-8.56-20.388-13.55-4.23-2.781-8.449-5.587-12.674-8.395-12.591-8.37-25.612-17.026-38.757-24.905a404.671 404.671 0 0 0-36.578-19.447 263.48 263.48 0 0 1-3.205-1.526l4.818 2.815c33.486 19.521 68.105 39.707 93.85 69.781 7.652.176 15.278.169 20.567.128-.937-.843-3.009-2.197-6.212-4.053zm77.739 31.339c-14.186-6.055-41.448-17.638-43.149-18.149l-21.472-7.861c-.518.009-2.561.045-5.56.074-.032.005-.059.018-.091.018h-.002c-.034 0-.061-.013-.093-.018-5.363.05-13.697.073-22.026-.124l-.013.002-.014-.002c-6.786-.161-13.559-.466-18.701-1.022-.407-.005-40.781-.436-53.247-1.282-.407-.016-40.822-1.501-47.615-1.922-.542-.013-54.208-1.284-60.32-1.494-2.43-.016-54.462-.364-68.956-1.224L339.73 124.8c11.059 3.454 22.135 7.658 32.846 11.725 5.248 1.992 10.672 4.052 16.011 5.992a5661.18 5661.18 0 0 1 16.169 5.912c26.498 9.722 53.897 19.777 81.727 27.442 2.445.673 4.873 1.451 7.221 2.204 1.113.357 2.223.712 3.339 1.058 4.3 1.334 8.6 2.661 12.9 3.984l19.793 6.096c8.002.461 24.318 1.501 31.613 2.661-27.67-16.51-58.12-30.29-87.04-42.981-2.224-.977-4.45-1.949-6.68-2.913-25.076-10.825-52.75-20.204-87.095-29.514a.342.342 0 0 1 .178-.658c34.377 9.319 62.081 18.707 87.186 29.546 2.232.963 4.458 1.936 6.684 2.912 29.5 12.949 60.608 27.012 88.737 43.974.528.12.953.24 1.24.36 3.945-.633 49.375-7.83 64.721-6.385 1.144.079 27.602 1.903 32.59 3.07-1.03-3.152-1.984-5.989-4.034-10.312-11.034-23.284-26.862-38.711-54.631-53.249a.34.34 0 0 1-.143-.461.345.345 0 0 1 .462-.142c27.911 14.612 43.825 30.132 54.93 53.56 2.07 4.368 3.031 7.226 4.067 10.405 7.347-2.514 15.839-5.225 18.497-5.309 2.355-3.857 7.764-13.308 7.603-15.921 0-.052.034-5.354-8.2-11.99-.26-.147-26.962-14.957-33.92-17.487zm-302.398 5.074l.549.506 35.592 12.895c.627 0 4.115.456 10.051 9.751l30.784 40.384a.339.339 0 0 1-.269.547.34.34 0 0 1-.222-.082c-.212-.183-19.739-16.98-31.354-22.519l2.497 2.295.032-.007.26.276c.14.149 13.97 15.144 14.292 33.146l.002.088-.799 3.283 47.106 18.104-2.366-3.559c-3.461-1.612-19.737-8.338-30.857-12.885a.342.342 0 1 1 .26-.631 3064.844 3064.844 0 0 1 18.816 7.751l-10.313-16.436-20.488-5.415a.342.342 0 0 1-.242-.416.335.335 0 0 1 .417-.242l28.649 7.57-4.694-7.059c-1.461-2.037-2.275-3.891-2.466-5.557-2.526.264-3.042 1.962-3.065 2.039a.336.336 0 0 1-.267.251.346.346 0 0 1-.339-.133l-22.888-31.643c-2.382-3.821-2.936-6.774-1.649-8.772 2.335-3.62 9.788-2.686 10.125-2.641l30.387 5.777-61.798-22.866c-7.182-3.111-9.422-6.097-10.035-8.055-.31-.993-.235-1.78-.104-2.302-9.661-3.665-19.58-7.387-29.491-10.518.082 1.341.08 2.702.077 4.029-.011 4.897-.018 9.525 3.81 13.046zm43.604 40.08c9.154 3.649 24.969 16.417 30.95 21.4l-28.919-37.937c-6.141-9.618-9.464-9.473-9.503-9.462a.296.296 0 0 1-.158-.018l-34.122-12.363 41.752 38.38zm-52.587 136.93c-.011.002-.023.002-.036.002a.339.339 0 0 1-.337-.305c-2.432-23.876-5.04-41.641-8.721-59.405-4.092-19.752-10.444-38.376-18.863-55.381l-10.471 4.07c.386.572.762 1.162 1.14 1.752.018.023.031.048.047.073 12.019 18.879 18.355 46.757 20.857 60.153.006.032.016.061.018.091.868 4.662 1.271 7.549 1.285 7.649 3.076 13.692 4.463 44.677 4.764 52.267a.746.746 0 0 1 .355.029c.253.084.556.19.586 1.481 3.164.999 12.149 3.751 28.762 8.212 4.497 1.207 8.435 1.82 11.7 1.82h.002c9.34-.002 10.182-4.895 10.227-5.169l2.592-10.656v-.002l25.926-106.562c-.328-16.105-11.822-29.773-13.674-31.873l-83.442 16.48c8.415 17.023 14.767 35.66 18.864 55.426 3.684 17.789 6.297 35.576 8.729 59.475a.354.354 0 0 1-.31.373zm-40.037-110.956l-.495-.71.004-.002a76.956 76.956 0 0 0-5.232-6.679c-2.305-.102-16.683-.386-32.293 6.557 13.158-5.049 26.826-4.746 38.132 1.011-.037-.057-.075-.118-.116-.177zm-61.329 14.279c.006-.007.006-.016.013-.023 19.816-21.83 47.33-23.085 54.345-23.035-8.859-9.596-23.809-20.464-40.661-10.373-7.599 4.551-14.29 12.114-19.346 21.875-4.619 8.915-6.7 19.035-8.713 28.823-.102.493-.209.979-.308 1.472 4.083-7.059 9.001-13.347 14.67-18.739zm83.81 48.803l-5.074 2.693a63.773 63.773 0 0 1 2.156 9.83l4.902-1.22a80.557 80.557 0 0 0-.853-4.491c-.014-.106-.373-2.665-1.131-6.812zm-4.246 12.854a62.93 62.93 0 0 0-2.056-9.51l-18.549 9.84c.427 1.476.735 3.007.932 4.569l19.673-4.899zm6.445-.199l-5.266 1.311a.665.665 0 0 1-.319.14c-.03.005-.059.005-.086.005-.037 0-.068-.014-.104-.018l-22.255 5.541a.679.679 0 0 1-.826-.495.681.681 0 0 1 .496-.825l.914-.229a28.573 28.573 0 0 0-.844-4.241l-.735.391a.68.68 0 0 1-.638-1.203l27.206-14.432a263.274 263.274 0 0 0-4.906-21.165.645.645 0 0 1-.166-.156c-9.184-12.939-21.734-20.306-35.338-20.744a33.53 33.53 0 0 0-1.267-.021c-27.389 0-50.388 28.652-51.548 64.615-.572 17.724 4.182 34.55 13.389 47.379 9.166 12.774 21.651 20.048 35.153 20.482 24.451.803 43.204-18.506 48.924-50.352a.682.682 0 0 1 .765-.55c-.593-8.618-1.427-18.11-2.549-25.433zm2.735 28.226c-6.147 30.724-24.499 49.495-48.432 49.493-.493 0-.991-.009-1.488-.025-13.935-.45-26.797-7.925-36.216-21.052-9.381-13.073-14.227-30.196-13.645-48.218 1.201-37.268 25.521-66.769 54.222-65.912 13.093.423 25.216 7.038 34.445 18.707a220.445 220.445 0 0 0-1.4-4.569c-9.146-10.2-20.812-16.028-32.966-16.42-.126-.002-13.543-.133-27.07 8.167-12.487 7.663-27.611 24.285-28.744 59.98-.709 22.309 6.686 43.72 19.779 57.273 9.017 9.333 19.913 14.287 31.511 14.325h.229c26.683 0 43.552-15.219 50.168-45.217a830.741 830.741 0 0 0-.393-6.532zm57.882 13.844c.253 1.515.812 2.494 1.676 2.892 1.676.777 4.074-.658 4.094-.658l35.674-31.946c9.69-9.614.357-21.111.002-21.545l-23.379-23.003-18.067 74.26zm74.558-84.17c.05.075.052.165.07.249l10.365 3.846-29.916-33.4 19.481 29.305zm-15.99-10.233c-.037.022-.075.025-.116.034 4.678 1.951 8.571 3.602 10.734 4.578l-12.507-18.813-7.936-2.099 9.933 15.83c.097.16.05.37-.108.47zm125.625-38.932a.733.733 0 0 1-.138.011.559.559 0 0 1-.419-.172c-1.527-.999-21.485-2.496-34.013-3.226-.907 1.277-4.68 4.343-20.157 5.978 13.398 1.926 54.552 7.733 74.606 9.32l-19.612-11.956a9.608 9.608 0 0 1-.267.045zm-36.099-3.731l-18.927-5.831c-1.956-.601-3.913-1.209-5.87-1.811l-92.533-17.593c-.074-.009-7.342-.924-9.444 2.338-1.133 1.757-.577 4.463 1.64 8.022l22.526 31.141c.396-.699 1.346-1.768 3.434-1.967-.005-.839.142-1.63.486-2.358 2.013-4.28 9.266-4.839 9.607-4.862l50.031-1.069c29.859-.332 37.318-4.49 39.05-6.01zm-158.129-53.112c-.095.422-.138 1.053.113 1.856.57 1.822 2.708 4.626 9.637 7.628l65.582 24.265 52.164 9.919c-.398-.124-.798-.246-1.197-.368a406.637 406.637 0 0 1-3.352-1.063c-2.334-.748-4.75-1.522-7.169-2.186-27.884-7.681-55.312-17.745-81.835-27.478a5628.885 5628.885 0 0 0-16.165-5.913c-5.348-1.942-10.779-4.004-16.029-5.998l-1.749-.662zm309.108 52.461a.683.683 0 0 1 .004-.305l1.07-4.163c-2.379.315-10.224 2.745-17.576 5.255.889 2.72 1.945 5.854 3.832 10.468l12.67-11.255zm24.752-7.71c.294-3.045.737-7.644-.93-10.217-.301-.464-.618-.977-.959-1.524-2.357-3.803-5.588-9.012-11.388-11.911-3.264-1.63-10.887-4.963-17.913-7.979a810.41 810.41 0 0 1 8.171 4.488c8.928 7.183 8.813 12.924 8.804 13.096.219 3.482-6.941 15.252-7.956 16.903l-1.027 3.993 24.071-1.153c-.557-.69-1.059-1.701-1.059-3.109.002-.676.086-1.563.186-2.587zm21.014 65.616l-3.264 2.824a3.828 3.828 0 0 0-1.307 2.648l-1.131 18.852c-.023.377.156.721.475.922a.999.999 0 0 0 1.033.023l5.665-3.193c-.03-4.562-.697-13.353-1.471-22.076zM445.44 358.649c15.183 1.051 77.54-1.26 78.166-1.282 21.323-.846 76.151-6.564 76.701-6.62 39.661-4.219 65.474-11.446 65.784-11.529 31.259-6.127 54.588-15.499 56.217-16.164 3.703-3.041 4.156-12.797 4.16-12.799-.613-6.132 1.423-9.119 1.81-9.623 1.855-3.794 1.282-10.333 1.194-11.212-2.339-5.456-2.776-18.199-2.794-18.778.003-.086 0-.19.003-.278l-5.325 3c-.263.147-.55.222-.835.222-.31 0-.618-.088-.896-.26a1.67 1.67 0 0 1-.794-1.54l1.134-18.852a4.51 4.51 0 0 1 1.542-3.122l3.638-3.145c-1.061-11.873-2.283-23.354-2.301-23.535-1.258-6.708-7.605-24.932-7.695-25.205-.473-2.359-6.147-7.199-8.531-9.056l-26.468 1.269c-.012.002-.023.002-.032.002-.07 0-.136-.025-.204-.045l-13.038 11.585a.337.337 0 0 1-.304.077.335.335 0 0 1-.237-.201 143.326 143.326 0 0 1-4.029-10.952 7.484 7.484 0 0 0-.138.047.69.69 0 0 1-.4.014c-4.162-1.131-32.292-3.071-32.592-3.091-14.118-1.343-55.41 4.96-63.294 6.197l20.138 12.277a.346.346 0 0 1 .147.396.343.343 0 0 1-.326.237c-.009 0-.016 0-.025-.002-21.083-1.531-69.53-8.483-78.832-9.833-4.795.414-10.57.697-17.54.773l-49.99 1.068c-.068.004-6.759.515-8.435 4.081-.853 1.813-.247 4.198 1.801 7.104l39.136 43.693c.532.681 6.083 7.807 12.473 16.288l27.206 1.221a3.956 3.956 0 0 1 3.319 2.117l11.22 21.544a2.202 2.202 0 0 1-.061 2.153 2.202 2.202 0 0 1-1.864 1.081l-19.977.346c.204.425.367.805.45 1.089a.333.333 0 0 1 .014.093c0 .387-.226 8.922-17.212 20.288 9.905-4.839 15.479-7.482 16.547-7.85.235-.131 23.98-12.895 50.714-11.834.823-.077 82.493-7.731 101.678-11.312 1.726-.366 42.215-8.94 50.965-8.565.95-.194 8.263-1.478 12.102 3.643 1.176 1.286 7.035 7.821 6.807 10.095-.009.312-.287 7.692-5.676 10.606-.194.116-19.879 11.697-65.659 19.533-.507.082-50.94 8.14-71.88 9.408-.471.041-47.294 3.853-66.327 3.208-1.558 0-38.211-.015-41.785-1.288-.168-.025-4.099-.627-5.214-3.064-.317-.694-.378-1.447-.186-2.252-10.064 4.972-18.359 9.101-18.391 9.116-8.638 3.699-39.98 15.701-50.451 19.698 11.593-.029 44.246-.278 44.672-.28zm58.493-61.006l20.304-.353a1.524 1.524 0 0 0 1.29-.748 1.52 1.52 0 0 0 .043-1.488l-11.22-21.545a3.275 3.275 0 0 0-2.746-1.75l-26.643-1.196c7.632 10.145 16.269 21.986 18.972 27.08zm-19.866-27.121l-3.508-.158a.99.99 0 0 0-.883.529.999.999 0 0 0 .043 1.029l16.125 24.597a2.706 2.706 0 0 0 2.269 1.223v.342l.047-.342 5.008-.086c-2.836-5.193-11.521-17.066-19.101-27.134zm86.582 51.426l2.402-6.911c-11.878.653-23.858 1.144-36.078 1.544l-2.841 6.805c12.14-.352 24.331-.809 36.517-1.438zm33.203-2.247l1.832-6.939a1077.095 1077.095 0 0 1-31.898 2.234l-2.4 6.909a989.899 989.899 0 0 0 32.466-2.204zm5.508-.459a442.483 442.483 0 0 0 23.693-2.835l2.183-6.899a554.497 554.497 0 0 1-26.795 3.019c-.678.061-1.357.115-2.036.172l-1.834 6.939c1.595-.134 3.196-.249 4.789-.396zm50.91-7.683l2.077-6.557a473.425 473.425 0 0 1-26.363 4.407l-2.18 6.887a448.46 448.46 0 0 0 26.466-4.737zm8.474-1.861l3.158-.725c3.981-.914 7.99-1.839 11.987-2.827l2.26-6.217c-4.862 1.16-9.696 2.172-14.353 3.14l-3.767.787c-1.631.344-3.278.667-4.92.993l-2.076 6.554c2.578-.547 5.15-1.115 7.711-1.705zm35.316-9.509l1.963-6.256c-6.159 2.398-12.636 4.243-19.083 5.804l-2.257 6.21c6.571-1.639 13.09-3.475 19.377-5.758zm-5.348-11.296c-1.063.253-2.106.5-3.121.753a384.5 384.5 0 0 1-8.083 1.91l-1.764 7.066c6.18-1.474 12.391-3.199 18.329-5.413l1.975-6.202c-2.47.726-4.965 1.323-7.336 1.886zm-30.665 6.62c-1.307.235-2.626.466-3.952.692l-2.551 7.567c2.076-.407 4.149-.82 6.207-1.255l3.771-.786c4.377-.911 8.913-1.859 13.475-2.933l1.769-7.077a441.673 441.673 0 0 1-18.719 3.792zm-31.038 4.592l-2.144 8.083c8.863-1.216 17.474-2.623 25.905-4.257l2.561-7.595c-8.205 1.39-16.819 2.627-26.322 3.769zm-28.568 2.933c-.221.02-.443.036-.667.056l-2.364 8.325c.971-.084 1.941-.161 2.911-.246a555.941 555.941 0 0 0 25.811-2.885l2.149-8.097c-8.465 1.008-17.629 1.942-27.84 2.847zm-34.628 2.643l-2.47 8.083c11.166-.6 22.241-1.343 33.341-2.282l2.364-8.327c-11.091.97-22.182 1.816-33.235 2.526zm-3.196 8.119l2.47-8.074a1406.11 1406.11 0 0 1-34.775 1.784l-4.088 7.796c12.338-.389 24.422-.869 36.393-1.506zm-37.177 1.531l4.087-7.794c-.674.025-1.344.045-2.018.07l-.018.041-.086-.036c-6.453.237-12.885.436-19.273.578-7.003 2.576-11.369 4.916-11.511 4.988-.518.183-2.265.963-6.676 3.075 12.141-.271 23.935-.561 35.495-.922zm1.92-9.081l1.572-3.597c-6.135 1.009-11.758 2.505-16.538 4.061 4.968-.127 9.958-.28 14.966-.464zm2.371-3.728l-1.618 3.701c11.426-.425 22.945-.997 34.513-1.714l1.479-4.702c-10.141.99-17.026 1.634-17.286 1.659-5.923-.237-11.691.215-17.088 1.056zm35.112-2.788l-1.489 4.73c11.1-.694 22.243-1.524 33.393-2.482l2.208-5.709a4598.414 4598.414 0 0 1-34.112 3.461zm34.874-3.543l-2.214 5.727c.941-.081 1.88-.153 2.821-.237 9.616-.85 18.295-1.73 26.342-2.67l1.615-6.019c-8.58 1.035-18.572 2.141-28.564 3.199zm29.29-3.289l-1.615 6.021c9.41-1.111 17.954-2.309 26.057-3.652l2.246-6.582c-4.14.841-6.856 1.416-6.967 1.438-4.151.776-11.204 1.739-19.721 2.775zm27.462-4.369l-2.258 6.609a442.928 442.928 0 0 0 22.807-4.429l1.839-6.455c-7.977 1.406-16.457 3.075-22.388 4.275zm23.134-4.406l-1.83 6.419a395.188 395.188 0 0 0 9.485-2.221c1.02-.253 2.07-.504 3.135-.755 1.842-.436 3.76-.9 5.68-1.42l1.53-4.533c-3.855.197-10.662 1.228-18 2.51zm18.73-2.539l-1.466 4.343c3.466-.975 6.877-2.198 9.818-3.916-1.484-.534-3.016-.69-4.273-.69-1.602 0-2.756.245-2.785.251a.538.538 0 0 1-.181.014 17.752 17.752 0 0 0-1.113-.002zm9.836 1.13c-2.789 1.768-6.017 3.037-9.329 4.047l-1.955 6.139c5.126-1.956 10.024-4.292 14.496-7.161-.299-.341-.6-.678-.9-1.006-.663-.879-1.462-1.524-2.312-2.019zm4.112 4.07c-4.173 2.695-8.704 4.929-13.439 6.819l-1.975 6.288c6.524-2.42 12.777-5.347 18.547-9.076-.841-1.212-1.95-2.629-3.133-4.031zm3.882 5.171c-5.574 3.601-11.571 6.468-17.819 8.845l-3.051 9.776c11.308-4.04 16.577-7.126 16.69-7.192 4.718-2.553 4.985-9.397 4.99-9.512.036-.353-.272-1.038-.81-1.917zM702.49 310.87l3.047-9.766c-6.447 2.404-13.143 4.314-19.891 6.01l-1.642 9.383c7.345-1.935 13.482-3.866 18.486-5.627zm-19.21 5.815l1.645-9.392c-4.239 1.056-8.494 2.037-12.718 3.007l-3.155.726c-1.973.454-3.952.888-5.934 1.318l-2.855 9.433c8.685-1.617 16.342-3.353 23.017-5.092zm-23.772 5.232l2.846-9.406a448.771 448.771 0 0 1-26.892 4.909l-1.74 8.551c11.876-1.746 20.843-3.179 21.054-3.211 1.615-.276 3.185-.558 4.732-.843zm-26.5 4.16l1.737-8.549a446.168 446.168 0 0 1-25.261 3.073c-1.267.117-2.542.206-3.811.316l-2.355 9.205c9.808-1.201 20.555-2.707 29.69-4.045zm-30.414 4.133l2.361-9.232c-10.36.896-20.768 1.601-31.191 2.166l-4.117 10.017c7.808-.552 13.212-.993 13.378-1.004 5.132-.315 12.05-1.036 19.569-1.947zm-33.708 3.003l4.122-10.028a1560.737 1560.737 0 0 1-36.506 1.499l-4.479 10.554c12.073-.386 26.451-1.293 36.863-2.025zm-37.611 2.048l4.479-10.556c-13.711.407-27.354.691-40.831.967-5.68.116-11.358.233-17.036.36-.561.276-1.129.554-1.712.843l-3.414 1.685-1.289.635c-.613 1.02-.762 1.897-.439 2.605.667 1.465 3.239 2.145 4.3 2.315 2.891 1.019 30.907 1.243 41.482 1.243 3.873.129 8.909.075 14.46-.097zm-36.379-10.95c12.708-.26 25.568-.533 38.489-.902l2.841-6.801c-13.393.434-27.077.764-41.251 1.078a2382.393 2382.393 0 0 0-14.188 6.926c4.701-.106 9.404-.204 14.109-.301zm-126.419 39.038c11.892.841 28.231-4.339 28.393-4.393 1.003-.382 43.539-16.58 53.775-20.964 0 0 9.229-4.594 20.031-9.925.011-.005.02-.012.031-.016l1.448-.715 3.416-1.684c2.47-1.217 4.766-2.345 6.922-3.403a.33.33 0 0 1 .136-.179c20.397-12.112 21.379-21.793 21.421-22.526-.095-.312-.285-.732-.524-1.214l-5.35.093h-.061a3.38 3.38 0 0 1-2.839-1.533l-16.124-24.597a1.656 1.656 0 0 1-.073-1.725c.294-.545.86-.885 1.554-.885h.005l2.895.132a1358.55 1358.55 0 0 0-12.102-15.811l-5.085-5.678-11.562-4.289a.672.672 0 0 1-.416.163.716.716 0 0 1-.244-.045l-48.938-18.807-6.366 26.159 24.003 23.625c.107.129 10.539 12.936-.07 23.456l-35.795 32.043c-.097.061-1.887 1.159-3.789 1.159-.566 0-1.14-.097-1.685-.348-.722-.33-1.285-.902-1.713-1.666l-2.013 8.273c-.034.255-.961 6.279-11.564 6.281h-.002c-3.386 0-7.442-.629-12.055-1.868-16.013-4.298-24.973-7.02-28.459-8.112-.204 2.713-1.047 8.058-3.273 18.723l9.462 2.618c16.633 5.467 36.438 7.64 36.61 7.658zm-16.71 15.621c.45-.248 3.922-2.5 11.023-14.997-6.329-.922-17.113-2.763-27.387-5.767-7.241 12.962-18.66 22.75-31.751 28.056 20.479-3 46.269-7.004 48.115-7.292zm-131.885-27.927c11.44 20.579 33.027 35.49 55.001 37.987 2.058.235 4.119.343 6.175.348 3.075-.339 8.623-1.097 15.308-2.055 15.506-4.231 29.373-14.765 37.704-29.513-.868-.265-1.732-.534-2.587-.816l-10.046-2.779a.68.68 0 0 1-.484-.796c1.384-6.604 3.117-15.829 3.44-19.481a11.37 11.37 0 0 1-.423-.138l-.45-.149-.016-.475c-.004-.126-.154-4.451-.482-10.719-7.042 28.83-23.942 43.447-50.297 43.445h-.231c-11.783-.039-22.849-5.062-31.997-14.534-13.22-13.683-20.687-35.28-19.972-57.768 1.142-35.997 16.441-52.789 29.07-60.538 13.69-8.399 27.321-8.259 27.444-8.266 11.896.385 23.324 5.874 32.436 15.522-3.217-9.799-7.381-19.876-12.652-28.192-13.428-7.968-30.853-7.507-46.653 1.248-13.634 7.554-24.54 19.152-32.047 33.749a.691.691 0 0 1-.118.242c-4.318 8.456-7.51 17.903-9.419 28.165-4.823 25.886-.598 54.115 11.296 75.513zm-161.818-72.53c1.448-.907 11.562-7.475 12.523-14.07L44.96 254.63a.688.688 0 0 1-.437-.574c-.009-.116-.215-2.399-.556-6.078-.566 3.561-1.349 7.093-2.4 10.545-1.89 6.195-5.717 15.517-12.272 18.791l28.769 1.199zM7.151 230.336c.174 11.942.355 24.294 4.51 35.719 1.76 4.838 5.656 10.262 11.318 10.995l1.663.07c8.937-.366 13.862-13.225 15.622-18.992a76.55 76.55 0 0 0 3.105-16.512c-1.744-18.362-5.037-51.3-6.847-58.313-.816-3.79-2.665-10.629-5.164-16.499-2.256-1.734-4.463-2.288-6.565-1.637-6.15 1.904-10.057 13.075-11.107 16.453-1.692 5.438-2.868 11.143-3.54 17.023 2.36-14.852 7.117-24.796 12.729-24.796 8.03 0 14.319 20.351 14.319 46.332s-6.289 46.332-14.32 46.332c-8.03 0-14.318-20.351-14.318-46.332 0-4.789.215-9.383.613-13.697a.644.644 0 0 1-.272.061h-.029a.684.684 0 0 1-.654-.71c.353-8.576 1.753-16.858 4.17-24.615 1.101-3.538 5.22-15.25 12.004-17.351 1.943-.604 3.932-.382 5.931.651-2.27-4.716-4.978-8.347-7.887-8.399-.145 0-12.274.257-15.346 24.364-.02.287-1.898 28.823-.003 45.713 0 .006-.004.013-.004.02 0 .016.009.027.009.043.022 1.352.043 2.713.063 4.077zm10.458-15.013c.07-.78.151-1.545.258-2.282l-3.869-5.593a96.65 96.65 0 0 0-.49 4.938l4.1 2.937zm-5.39-3.862c.155-1.954.357-3.866.615-5.698l-1.577-2.281c-.29 2.272-.518 4.642-.688 7.079a.671.671 0 0 1 .543.106l1.106.794zm-.102-9.13l1.454 2.105c.81-.59 1.66-1.112 2.527-1.601-1.05-3.764-.532-7.111-.507-7.258.036-.291.84-6.457 3.4-11.987l.007-.014c.319-.689.66-1.37 1.036-2.026a.682.682 0 0 1 .93-.253c.004.002.006.007.009.009l-.068-2.193a.685.685 0 0 1 .66-.703c.312.018.692.285.704.66l.197 6.475c.32-.033.64-.027.959.021l.196-6.494c.012-.375.365-.642.702-.66a.682.682 0 0 1 .66.703l-.764 25.09v.032l-.039 1.287a.682.682 0 0 1-.68.66h-.021a.666.666 0 0 1-.534-.308.674.674 0 0 1-.534.308h-.02a.682.682 0 0 1-.681-.66l-.109-3.595c-.115.036-.226.083-.341.119l.176 3.41a.69.69 0 0 1 .014.28l.117 2.284a.681.681 0 0 1-.644.717c-.012.002-.025.002-.036.002a.679.679 0 0 1-.593-.357c-.038.113-.075.226-.11.343l.497 1.029a.683.683 0 0 1-1.229.595l-2.53-5.232c-.148-.321-.28-.64-.399-.961-.744.432-1.477.888-2.178 1.399h-.003l4.746 6.865c.023.027.039.054.059.083l.348.507a.68.68 0 0 1-.174.947c-.063.045-.138.045-.21.066a44.856 44.856 0 0 0-.217 2.225l.038.027v-.036c.154-1.56.8-1.793 1.172-1.793.244 0 .477.106.658.3.484.516.604 1.753.514 2.68-.154 1.56-.801 1.793-1.172 1.793a.906.906 0 0 1-.658-.301c-.29-.31-.437-.88-.5-1.486a.665.665 0 0 1-.358.116.664.664 0 0 1-.396-.129l-7.718-5.526c-.16 2.691-.246 5.46-.246 8.284 0 11.344 1.364 21.826 3.546 29.621.003-.015-.002-.031.003-.047l5.076-18.732c.002-.032.018-.061.025-.093l.267-.981a.683.683 0 0 1 1.316.357l-.208.769c.066.201.136.386.204.574a.706.706 0 0 1 .364-.05.68.68 0 0 1 .552.789l-3.054 17.209c-.007.054-.009.108-.03.158l-.938 5.288a.672.672 0 0 1 .78-.158c.104.048.202.075.301.113l.403-2.675c0-.043.009-.081.018-.122l2.545-16.934a.526.526 0 0 1 .009-.057l.224-1.49a.679.679 0 0 1 .776-.572c.158.025.29.109.391.217a.673.673 0 0 1 .446-.246.678.678 0 0 1 .76.592l1.113 9.114c.877 7.708-.643 10.222-.672 10.265-.688 1.393-2.441 3.502-4.87 3.502-.166 0-.344-.038-.516-.059-.02.003-.04.012-.061.012a.874.874 0 0 1-.102-.007c-.032-.005-.059-.023-.088-.032a4.962 4.962 0 0 1-1.247-.384.67.67 0 0 1-.377-.536.679.679 0 0 1-.666.274.681.681 0 0 1-.552-.79l.971-5.467a27.848 27.848 0 0 1-1.054-2.392l-.785 2.899a.682.682 0 0 1-.835.479.658.658 0 0 1-.321-.212c2.307 7.947 5.483 12.951 8.93 12.951 3.414 0 6.563-4.907 8.863-12.721a.667.667 0 0 1-.556.303.678.678 0 0 1-.656-.502l-.783-2.889c-.339.848-.694 1.632-1.063 2.342l.977 5.508a.68.68 0 1 1-1.341.237l-4.067-22.919a.68.68 0 0 1 .552-.789.668.668 0 0 1 .375.052c.068-.177.138-.349.204-.538l-.22-.812a.681.681 0 1 1 1.317-.357l4.413 16.283c.159-1.076.292-2.121.41-3.14l-5.303-17.032a.681.681 0 1 1 1.301-.405l1.165 3.744c.38-.814.688-1.657.857-2.541a.682.682 0 1 1 1.34.258 12.195 12.195 0 0 1-1.324 3.64.66.66 0 0 1-.362.289l2.03 6.516a83.877 83.877 0 0 0 1.017-7.212c-.013-2.107-.1-3.335-.101-3.374-.053-1.234-.442-3.448-1.263-4.126a.756.756 0 0 0-.579-.188l-2.977.665a.684.684 0 0 1-.814-.515.682.682 0 0 1 .516-.814l3.024-.674a2.121 2.121 0 0 1 1.697.479c1.551 1.285 1.737 4.73 1.753 5.099.002.031.09 1.316.104 3.516V230.722a107.483 107.483 0 0 1-.717 12.7 108.305 108.305 0 0 1-.457 3.491.68.68 0 0 1-.774.574.658.658 0 0 1-.332-.162l.737 2.724c.016.057.01.111.011.165 2.253-7.836 3.665-18.49 3.665-30.033 0-2.654-.08-5.256-.22-7.791l-1.77 1.269a.663.663 0 0 1-.308.219l-5.622 4.024a.677.677 0 0 1-.395.129.67.67 0 0 1-.455-.199c-.084.45-.224.853-.448 1.095a.902.902 0 0 1-.656.298c-.371 0-1.018-.233-1.172-1.793-.093-.927.03-2.164.514-2.679a.895.895 0 0 1 .658-.301c.371 0 1.016.233 1.172 1.793.016.167.018.351.018.534l5.447-3.9a95.84 95.84 0 0 0-.468-4.961l-4.391 6.349a.676.676 0 0 1-.948.172.683.683 0 0 1-.174-.948l7.383-10.678a.673.673 0 0 1 .681-.281c-2.017-14.877-6.465-25.495-11.487-25.495-4.967 0-9.374 10.392-11.423 25.018a.66.66 0 0 1 .67.276zM19.352 207c.226-.565.468-1.069.724-1.508l-.154-2.976c-.744.29-1.473.609-2.185.968.126.351.262.701.423 1.049L19.353 207zm.495-5.901l-.735-14.181c-1.606 4.515-2.16 8.775-2.17 8.849-.006.037-.468 3.032.388 6.394.814-.4 1.66-.746 2.517-1.062zm1.376-.484a.706.706 0 0 1 .341-.005l-.547-18.008c-.245.445-.475.9-.692 1.361l.864 16.661c.011 0 .02-.005.034-.009zm1.726.699l.438-14.387a2.588 2.588 0 0 0-.877-.025l.439 14.412zm-3.158 32.225c-.043-.086-.084-.183-.127-.273l-3.155 11.642c.27.825.554 1.603.85 2.324l2.432-13.693zm3.976 9.442l-.827-6.783c-.023 0-.043.007-.066.007-.077 0-.15-.023-.226-.029L20.256 252.1c.778.809 1.565 1.257 2.348 1.343.39-.507.617-.943.653-1.011.012-.025 1.321-2.344.511-9.451zm-3.76 10.749l-.22 1.476c.646-.049 1.212-.307 1.687-.651a5.219 5.219 0 0 1-1.466-.825zm14.54-49.782l-1.568 2.267c.25 1.843.44 3.769.588 5.73l1.115-.801a.676.676 0 0 1 .527-.113c-.16-2.437-.382-4.807-.663-7.083zm-8.594 29.589c-.043.084-.084.176-.127.256l2.436 13.735c.299-.708.588-1.47.862-2.283l-3.171-11.708zm-3.08 31.15c-3.34 0-6.37-3.548-8.751-9.537 2.37 6.659 5.422 10.678 8.752 10.678 3.33 0 6.381-4.019 8.752-10.678-2.382 5.987-5.413 9.537-8.752 9.537zm0-89.02c3.342 0 6.371 3.548 8.753 9.537-2.37-6.659-5.422-10.679-8.752-10.679-3.33 0-6.384 4.02-8.752 10.679 2.38-5.987 5.41-9.537 8.752-9.537zM2.11 216.073c.371 2.6 2.079 5.653 3.36 7.647-1.469-17.172.237-43.061.26-43.375 3.245-25.465 16.169-25.617 16.72-25.594 9.253.167 15.159 27.114 15.399 28.235 2.465 9.553 7.47 64.664 7.996 70.522l160.76 61.553c-1.948-13.084-1.796-26.729.633-39.779 1.939-10.426 5.187-20.021 9.583-28.611.423-1.951.83-3.918 1.235-5.892 2.031-9.878 4.13-20.093 8.838-29.176 5.173-9.984 12.038-17.737 19.856-22.417 18.301-10.964 34.316 1.53 43.312 11.664a.684.684 0 0 1 .31.348 78.293 78.293 0 0 1 5.527 7.088l10.652-4.13c-7.861-15.355-21.497-27.901-34.92-32.054-9.331-2.885-18.352-1.965-26.817 2.744-17.153 9.54-28.353 30.958-33.284 63.656a38.18 38.18 0 0 0-.31 2.481.336.336 0 0 1-.369.309.34.34 0 0 1-.31-.368c.077-.875.197-1.73.317-2.524 4.965-32.919 16.278-54.503 33.626-64.15 8.632-4.8 17.834-5.741 27.351-2.8 13.615 4.213 27.434 16.931 35.367 32.48l82.867-16.377-46.89-43.101c-4.269-3.925-4.26-9.073-4.253-14.052.002-1.515-.007-3.073-.129-4.567l-36.854-20.758c-1.699-.238-17.271-2.641-24.338-11.993-.235-.343-23.519-34.375-27.38-41.007l-.339-.547c-6.115-9.915-12.44-20.166-19.418-29.671-4.941-6.731-9.899-11.615-14.735-14.52-5.717-3.432-12.926-5.171-21.434-5.171h-.088c-22.881.032-45.934 6.2-64.908 17.369-4.898 2.883-9.754 6.064-14.45 9.139-.663.434-1.331.857-1.993 1.29 8.206-4.175 17.422-8.78 17.603-8.871l15.084-5.987c2.579-.966 16.798-4.267 17.44-4.414 14.258-2.415 29.12-3.674 41.211 3.405 5.232 3.064 9.904 7.685 14.704 14.54l.726 1.043c9.426 13.616 17.196 28.44 23.098 44.06 3.013 7.977 5.467 15.187 7.506 22.06.162.613 3.936 15.054-2.342 20.663l-9.46 10.577a.68.68 0 0 1-.672.208l-14.264-3.525-.007-.002c-.145-.041-.335.018-.563.163-5.57 3.568-15.643 43.526-16.554 48.308-3.556 18.646-4.694 37.937-5.793 56.59l-.037.59c-.319 5.397-.882 10.935-1.429 16.289-1.188 11.65-2.416 23.699-1.238 35.336 1.308 12.915-3.454 16.354-3.657 16.497a.689.689 0 0 1-.641.07c-23.254-9.32-47.037-18.387-70.036-27.155-17.678-6.737-35.958-13.706-53.876-20.742-.674-.267-1.448-.545-2.285-.848-5.282-1.913-12.514-4.535-14.016-9.713l-.975-3.362c-10.68-36.759-22.784-78.422-13.923-115.803 1.316-5.551 3.13-11.142 4.735-16.074.423-1.304.626-3.278.825-5.184.267-2.578.518-5.013 1.287-6.46.156-.296.333-.588.518-.877l-14.278-5.75h-.31l-1.11 2.915c-.856 2.394-4.753 8.693-7.39 11.169-2.518 2.365-9.354 9.819-9.382 9.844-5.752 7.615-7.704 22.601-7.743 22.848-1.212 4.393-3.19 31.418-3.022 41.312.158 9.35.319 25.961.321 26.128a.706.706 0 0 1-.068.303c-2.087 4.332-1.42 11.181-.737 15.958z" fill="url(#v)"/><path d="M32.139 101.303a.679.679 0 0 0 .065-.147l2.712-8.5a2.07 2.07 0 0 1 3.059-1.137l3.216 1.972a2.06 2.06 0 0 1 .982 1.944l-.748 8.712a2.083 2.083 0 0 1-.385 1.038l-10.899 15.067a2.077 2.077 0 0 1-2.87.484l-3.203-2.248a2.078 2.078 0 0 1-.589-2.762l8.66-14.423zm-7.287 16.069l3.204 2.245c.312.219.762.14.984-.165l10.898-15.068a.714.714 0 0 0 .132-.355l.748-8.713a.71.71 0 0 0-.337-.667l-3.219-1.972a.692.692 0 0 0-.368-.106.712.712 0 0 0-.679.495l-2.712 8.503c-.05.154-.118.301-.197.435l-8.657 14.418a.72.72 0 0 0 .203.95z" fill="url(#w)"/><path d="M61.878 112.771c-1.27 3.442-4.6 3.812-5.972 3.812-.566 0-.93-.056-.964-.061-.165.213-.335.421-.498.638-.658.877-1.337 1.784-2.273 2.435-.271.19-1.117.717-2.05.717-.187 0-.382-.023-.574-.073-1.285-.339-1.287-1.826-1.29-2.744-.002-.597-.024-1.194-.047-1.793l-.011-.328c-.005-.002-.012 0-.016-.005-1.387-.782-2.267-1.836-2.615-3.129-.586-2.182.593-4.228.604-4.228 1.075-2.774 3.834-3.516 5.298-3.516.314 0 1.273 0 1.452.712.106.428-.122.783-.323 1.095-.043.065-.1.153-.145.233l.02.006c.242.082.688.152 1.238.213.307-.599.398-1.307.479-2.053.095-.843.192-1.718.638-2.483.532-.911 1.298-1.458 2.054-1.46h.005c.45 0 1.092.19 1.628 1.092.833 1.397.742 2.993.654 4.535-.014.254-.018.498-.03.744 2.63.665 2.977 3.837 2.771 5.483a.552.552 0 0 1-.033.158zm-12.94 4.755c.003 1.013.064 1.868.783 2.058.681.181 1.511-.165 2.06-.547.847-.586 1.494-1.45 2.118-2.284.131-.176.27-.344.403-.516-1.095-.565-3.868-2.01-5.087-2.799-.041.344-.053.841-.019 1.294a.683.683 0 0 1-.314.626h-.002l.011.321c.023.606.047 1.212.047 1.847zm8.994-15.32c-.298-.504-.649-.76-1.04-.76h-.005c-.502.002-1.065.432-1.468 1.124-.373.64-.457 1.404-.547 2.213-.077.694-.17 1.4-.441 2.049 1.237.106 2.775.176 4.035.215.01-.231.014-.457.028-.69.079-1.443.165-2.933-.562-4.151zm.833 6.204c-.547-.011-5.38-.122-6.72-.57-.498-.167-.82-.441-.95-.816-.152-.432-.003-.834.176-1.155-1.152.063-3.065.676-3.873 2.738-.011.015-.952 1.661-.509 3.292.158.581.477 1.099.952 1.553.052-.52.177-1.017.444-1.305.355-.384.923-.416 1.4-.043.728.566 4.16 2.365 5.558 3.082.124.014.36.034.663.034 1.337 0 3.705-.371 4.662-2.842.05-.518.242-3.595-1.803-3.968z" fill="url(#x)"/><path d="M22.875 225.239c-1.168 0-1.776-2.546-1.776-5.062 0-2.517.61-5.063 1.776-5.063 1.167 0 1.775 2.546 1.775 5.063 0 2.516-.61 5.062-1.775 5.062zm0-9.444c-.371 0-1.095 1.546-1.095 4.382 0 2.835.724 4.381 1.095 4.381.37 0 1.095-1.546 1.095-4.381-.003-2.836-.724-4.382-1.095-4.382z" fill="url(#y)"/><path d="M27.191 191.354c.378-.197.74-.16.984-.056.181.063.566.248 1.086.73.084.052.154.12.21.206.924.936 2.206 2.778 3.561 6.371.002.009.007.016.01.025.282.751.567 1.564.854 2.478a.68.68 0 0 1-.445.852.676.676 0 0 1-.855-.445 56.635 56.635 0 0 0-.362-1.101l-.306.524a.746.746 0 0 1-.063.111l-5.51 9.514a.678.678 0 0 1-.933.247.683.683 0 0 1-.248-.932l.484-.834-.134-.441a.68.68 0 0 1-.588.351c-.018 0-.036 0-.052-.003a.681.681 0 0 1-.627-.732l.175-2.282a.659.659 0 0 1 .02-.266l.534-6.976c.366-4.363 1.088-6.764 2.205-7.341zm4.33 7.122c.027.104.05.217.075.323l.031-.054c-.034-.092-.07-.178-.106-.269zm-5.707 7.265c.271.502.525 1.08.76 1.727l4.024-6.948c-.629-2.878-1.384-5.395-2.25-7.486-.313-.289-.519-.405-.58-.434-.199.181-1.006 1.209-1.427 6.209l-.527 6.932z" fill="url(#z)"/><path d="M19.294 227.226c0 .003-.003.005-.003.007l-1.861 5.121c-.794 2.085-1.57 3.021-2.51 3.021h-.058c-1.17-.047-1.678-1.603-1.758-1.874-.081-.231-2.017-5.773-2.673-18.088a.682.682 0 0 1 1.361-.073c.062 1.167.14 2.255.222 3.301l.473.229c.02-.002.04-.014.06-.016a.668.668 0 0 1 .553.31l5.076 2.439c.183 0 .35.086.473.226l.4.193a.68.68 0 0 1 .32.909c-.096.194-.275.3-.471.345.02.308.036.625.063.923.03.321.08.624.115.941.077 0 .156.006.233.033.353.129.537.52.407.873l-.422 1.18zM14.4 233.08c.115.4.391.88.5.932.004-.003.488-.141 1.248-2.135l1.785-4.904a43.324 43.324 0 0 1-.328-2.652c-.045-.5-.075-1.015-.106-1.533l-4.262-2.048c.016 3.346.17 6.645.48 9.808v.009c.384 1.662.671 2.487.683 2.523z" fill="url(#A)"/><path d="M22.874 212.614c-1.113 0-1.201-1.828-1.201-2.388 0-.561.086-2.386 1.201-2.386 1.116 0 1.202 1.825 1.202 2.386-.003.56-.089 2.388-1.202 2.388z" fill="url(#B)"/><path d="M24.58 225.13c.371 0 .86.215 1.086 1.237.202.907.136 2.107-.151 2.793-.272.646-.702.744-.935.744-.37 0-.86-.215-1.086-1.237-.199-.907-.133-2.108.152-2.791.271-.649.701-.746.934-.746z" fill="url(#C)"/><path d="M22.102 225.875c.285.685.35 1.886.151 2.793-.226 1.022-.715 1.237-1.086 1.237-.233 0-.663-.098-.934-.744-.285-.686-.35-1.886-.152-2.793.227-1.022.715-1.237 1.086-1.237.233-.002.663.095.935.744z" fill="url(#D)"/><defs><linearGradient id="a" x1="435.773" y1="173.952" x2="435.773" y2="193.008" gradientUnits="userSpaceOnUse"><stop/><stop offset="1" stop-color="#0047FF"/></linearGradient><linearGradient id="b" x1="613.956" y1="217.41" x2="613.956" y2="253.405" gradientUnits="userSpaceOnUse"><stop/><stop offset="1" stop-color="#0047FF"/></linearGradient><linearGradient id="c" x1="642.526" y1="210.486" x2="642.526" y2="245.459" gradientUnits="userSpaceOnUse"><stop/><stop offset="1" stop-color="#0047FF"/></linearGradient><linearGradient id="d" x1="274.756" y1="287.796" x2="274.756" y2="302.899" gradientUnits="userSpaceOnUse"><stop/><stop offset="1" stop-color="#0047FF"/></linearGradient><linearGradient id="e" x1="277.072" y1="231.782" x2="277.072" y2="273.699" gradientUnits="userSpaceOnUse"><stop/><stop offset="1" stop-color="#0047FF"/></linearGradient><linearGradient id="f" x1="244.119" y1="266.607" x2="244.119" y2="290.443" gradientUnits="userSpaceOnUse"><stop/><stop offset="1" stop-color="#0047FF"/></linearGradient><linearGradient id="g" x1="258.918" y1="235.928" x2="258.918" y2="280.217" gradientUnits="userSpaceOnUse"><stop/><stop offset="1" stop-color="#0047FF"/></linearGradient><linearGradient id="h" x1="299.486" y1="252.092" x2="299.486" y2="281.197" gradientUnits="userSpaceOnUse"><stop/><stop offset="1" stop-color="#0047FF"/></linearGradient><linearGradient id="i" x1="300.574" y1="298.758" x2="300.574" y2="337.764" gradientUnits="userSpaceOnUse"><stop/><stop offset="1" stop-color="#0047FF"/></linearGradient><linearGradient id="j" x1="267.097" y1="315.426" x2="267.097" y2="350.196" gradientUnits="userSpaceOnUse"><stop/><stop offset="1" stop-color="#0047FF"/></linearGradient><linearGradient id="k" x1="244.746" y1="285.875" x2="244.746" y2="317.199" gradientUnits="userSpaceOnUse"><stop/><stop offset="1" stop-color="#0047FF"/></linearGradient><linearGradient id="l" x1="293.662" y1="310.666" x2="293.662" y2="350.684" gradientUnits="userSpaceOnUse"><stop/><stop offset="1" stop-color="#0047FF"/></linearGradient><linearGradient id="m" x1="253.299" y1="309.468" x2="253.299" y2="348.699" gradientUnits="userSpaceOnUse"><stop/><stop offset="1" stop-color="#0047FF"/></linearGradient><linearGradient id="n" x1="275.245" y1="276.873" x2="275.245" y2="283.446" gradientUnits="userSpaceOnUse"><stop/><stop offset="1" stop-color="#0047FF"/></linearGradient><linearGradient id="o" x1="285.573" y1="287.306" x2="285.573" y2="293.868" gradientUnits="userSpaceOnUse"><stop/><stop offset="1" stop-color="#0047FF"/></linearGradient><linearGradient id="p" x1="280.979" y1="303.511" x2="280.979" y2="310.05" gradientUnits="userSpaceOnUse"><stop/><stop offset="1" stop-color="#0047FF"/></linearGradient><linearGradient id="q" x1="267.813" y1="303.097" x2="267.813" y2="309.624" gradientUnits="userSpaceOnUse"><stop/><stop offset="1" stop-color="#0047FF"/></linearGradient><linearGradient id="r" x1="264.269" y1="286.619" x2="264.269" y2="293.182" gradientUnits="userSpaceOnUse"><stop/><stop offset="1" stop-color="#0047FF"/></linearGradient><linearGradient id="s" x1="239.846" y1="84.719" x2="239.846" y2="88.967" gradientUnits="userSpaceOnUse"><stop/><stop offset="1" stop-color="#0047FF"/></linearGradient><linearGradient id="t" x1="239.848" y1="92.019" x2="239.848" y2="96.571" gradientUnits="userSpaceOnUse"><stop/><stop offset="1" stop-color="#0047FF"/></linearGradient><linearGradient id="u" x1="116.679" y1="116.843" x2="116.679" y2="140.148" gradientUnits="userSpaceOnUse"><stop/><stop offset="1" stop-color="#0047FF"/></linearGradient><linearGradient id="v" x1="365.533" y1=".589" x2="365.533" y2="390.739" gradientUnits="userSpaceOnUse"><stop/><stop offset="1" stop-color="#0047FF"/></linearGradient><linearGradient id="w" x1="32.684" y1="91.212" x2="32.684" y2="121.111" gradientUnits="userSpaceOnUse"><stop/><stop offset="1" stop-color="#0047FF"/></linearGradient><linearGradient id="x" x1="53.683" y1="100.759" x2="53.683" y2="120.312" gradientUnits="userSpaceOnUse"><stop/><stop offset="1" stop-color="#0047FF"/></linearGradient><linearGradient id="y" x1="22.875" y1="215.114" x2="22.875" y2="225.239" gradientUnits="userSpaceOnUse"><stop/><stop offset="1" stop-color="#0047FF"/></linearGradient><linearGradient id="z" x1="29.091" y1="191.213" x2="29.091" y2="210.903" gradientUnits="userSpaceOnUse"><stop/><stop offset="1" stop-color="#0047FF"/></linearGradient><linearGradient id="A" x1="15.094" y1="214.694" x2="15.094" y2="235.375" gradientUnits="userSpaceOnUse"><stop/><stop offset="1" stop-color="#0047FF"/></linearGradient><linearGradient id="B" x1="22.874" y1="207.84" x2="22.874" y2="212.614" gradientUnits="userSpaceOnUse"><stop/><stop offset="1" stop-color="#0047FF"/></linearGradient><linearGradient id="C" x1="24.581" y1="225.13" x2="24.581" y2="229.904" gradientUnits="userSpaceOnUse"><stop/><stop offset="1" stop-color="#0047FF"/></linearGradient><linearGradient id="D" x1="21.167" y1="225.131" x2="21.167" y2="229.905" gradientUnits="userSpaceOnUse"><stop/><stop offset="1" stop-color="#0047FF"/></linearGradient></defs></svg>