<svg fill="none" xmlns="http://www.w3.org/2000/svg"><path d="M152.14.862L.255 128.57h129.918L281.099.862H152.14z" fill="url(#a)" fill-opacity=".67"/><defs><linearGradient id="a" x1="54.391" y1="230.177" x2="152.208" y2=".862" gradientUnits="userSpaceOnUse"><stop stop-color="#F3F3F3"/><stop offset="1" stop-color="#F3F3F3" stop-opacity="0"/></linearGradient></defs><path d="M85.04.041L.276 71.693h23.43L107.712.04h-22.67z" fill="#0047FF"/><path d="M85.578.57L.812 72.22l23.43.001L108.249.57h-22.67z" fill="#EEE"/><g opacity=".5"><path stroke="#D4D6D9" stroke-opacity=".5" d="M93.067 368.874L457.848 58.806M60.837 368.874L425.619 58.806M76.953 368.874L441.734 58.806M28.608 368.874L393.39 58.806M44.724 368.874L409.505 58.806M-3.621 368.874L361.161 58.806M12.494 368.874L377.275 58.806M-19.735 368.874L345.046 58.806M-35.849 368.874L328.932 58.806M-68.078 368.874L296.703 58.806M-51.964 368.874L312.817 58.806M-100.307 368.874L264.474 58.806M-84.193 368.874L280.588 58.806M-164.765 368.874L200.016 58.806M-132.536 368.874L232.245 58.806M-196.995 368.874L167.787 58.806M-116.422 368.874L248.359 58.806M-180.879 368.874L183.902 58.806"/><path stroke="#0047FF" d="M-148.651 368.874L282.704 1.337"/><path stroke="#D4D6D9" stroke-opacity=".5" d="M-229.224 368.874L135.558 58.806M-213.109 368.874L151.672 58.806M-261.453 368.874L103.329 58.806M-245.338 368.874L119.443 58.806M-277.567 368.874L87.215 58.806"/><path stroke="#0047FF" d="M-148.651 368.874L282.704 1.337"/></g></svg>