<svg width="1920" height="1038" viewBox="0 0 1920 1038" fill="none" xmlns="http://www.w3.org/2000/svg"><path d="M196.482 413.088l-738.843 624.542h897.876l732.215-624.542H196.482z" fill="#F7F7F7"/><path d="M225.659 489.329l-97.638 82.532h47.741l96.762-82.533-46.865.001z" fill="#fff"/><path d="M189.232 254.495l-97.638 82.532h47.741l96.762-82.533-46.865.001z" fill="#F2F2F2"/><path stroke="#0047FF" stroke-opacity=".15" d="M1912.78 488.964l364.78-310.068M1848.32 488.964l364.78-310.068M1880.55 488.964l364.78-310.068M1816.09 488.964l364.78-310.068M1896.67 488.964l364.78-310.068M1832.21 488.964l364.78-310.068M1864.44 488.964l364.78-310.068M1783.86 488.964l364.79-310.068M1799.98 488.964l364.78-310.068M1751.64 488.964l364.78-310.068M1767.75 488.964l364.78-310.068M1735.52 488.964l364.78-310.068M1741.38 799.016l364.78-310.068M1709.15 799.016l364.78-310.068M1725.26 799.016l364.78-310.068M1676.92 799.016l364.78-310.068M1693.03 799.016l364.78-310.068M1644.69 799.016l364.78-310.068M1660.8 799.016l364.78-310.068M1628.57 799.016l364.79-310.068M1612.46 799.016l364.78-310.068M1580.23 799.016l364.78-310.068M1596.35 799.016l364.78-310.068M1548 799.016l364.78-310.068M1564.12 799.016l364.78-310.068M1483.54 799.016l364.78-310.068M1515.77 799.016l364.78-310.068M1451.31 799.016l364.79-310.068M1531.89 799.016l364.78-310.068M1467.43 799.016l364.78-310.068M1499.66 799.016l364.78-310.068M1419.09 799.016l364.78-310.068M1435.2 799.016l364.78-310.068M1386.86 799.016l364.78-310.068M1402.97 799.016l364.78-310.068M1370.74 799.016l364.78-310.068"/><g opacity=".5" stroke="#D4D6D9"><path d="M169.373 310.774L534.155.707M137.144 310.774L501.925.707M153.259 310.774L518.041.707M104.915 310.774L469.697.707M121.03 310.774L485.811.707M72.686 310.774L437.467.707M88.801 310.774L453.583.707M56.572 310.774L421.353.707M40.457 310.774L405.239.707M8.229 310.774L373.01.707M24.343 310.774L389.125.707M-24.001 310.774L340.781.707M-7.886 310.774L356.895.707M-88.459 310.774L276.323.707M-56.23 310.774L308.551.707M-120.688 310.774L244.093.707M-40.116 310.774L324.666.707M-104.573 310.774L260.209.707M-72.344 310.774L292.437.707M-152.917 310.774L211.865.707M-136.802 310.774L227.979.707M-185.146 310.774L179.635.707M-169.031 310.774L195.751.707M-201.26 310.774L163.521.707"/></g></svg>