<svg width="112" height="110" viewBox="0 0 112 110" fill="none" xmlns="http://www.w3.org/2000/svg"><path d="M60.808 58.55l41.157 41.18" stroke="url(#a)" stroke-width="3" stroke-miterlimit="10" stroke-linecap="round" stroke-linejoin="round"/><path d="M103.499 107.818a6.554 6.554 0 0 0 6.553-6.556 6.555 6.555 0 0 0-6.553-6.556 6.555 6.555 0 0 0-6.554 6.556 6.555 6.555 0 0 0 6.554 6.556z" fill="url(#b)" stroke="url(#c)" stroke-width="3" stroke-miterlimit="10" stroke-linecap="round" stroke-linejoin="round"/><path d="M60.238 36.062l25.78-25.79" stroke="url(#d)" stroke-width="3" stroke-miterlimit="10" stroke-linecap="round" stroke-linejoin="round"/><path d="M48.988 63.235c8.787 0 15.91-7.126 15.91-15.917 0-8.79-7.123-15.917-15.91-15.917-8.787 0-15.91 7.127-15.91 15.917s7.123 15.917 15.91 15.917z" fill="url(#e)" stroke="url(#f)" stroke-width="3" stroke-miterlimit="10" stroke-linecap="round" stroke-linejoin="round"/><path d="M83.716 23.168c5.85 0 10.591-4.744 10.591-10.596S89.565 1.976 83.716 1.976c-5.85 0-10.592 4.744-10.592 10.596s4.742 10.596 10.592 10.596z" fill="url(#g)" stroke="url(#h)" stroke-width="3" stroke-miterlimit="10" stroke-linecap="round" stroke-linejoin="round"/><path d="M8.553 94.918a6.555 6.555 0 0 0 6.553-6.556 6.555 6.555 0 0 0-6.553-6.556A6.555 6.555 0 0 0 2 88.362a6.555 6.555 0 0 0 6.553 6.556z" fill="url(#i)" stroke="url(#j)" stroke-width="3" stroke-miterlimit="10" stroke-linecap="round" stroke-linejoin="round"/><path d="M37.757 59.143l-24.5 24.51" stroke="url(#k)" stroke-width="3" stroke-miterlimit="10" stroke-linecap="round" stroke-linejoin="round"/><path d="M60.972 92.253a6.555 6.555 0 0 0 6.553-6.556 6.555 6.555 0 0 0-6.553-6.556 6.555 6.555 0 0 0-6.553 6.556 6.555 6.555 0 0 0 6.553 6.556z" fill="url(#l)" stroke="url(#m)" stroke-width="3" stroke-miterlimit="10" stroke-linecap="round" stroke-linejoin="round"/><path d="M54.187 62.602l4.985 16.808" stroke="url(#n)" stroke-width="3" stroke-miterlimit="10" stroke-linecap="round" stroke-linejoin="round"/><path d="M17.285 28.376a6.555 6.555 0 0 0 6.553-6.557 6.555 6.555 0 0 0-6.553-6.556 6.555 6.555 0 0 0-6.554 6.556 6.555 6.555 0 0 0 6.554 6.557z" fill="url(#o)" stroke="url(#p)" stroke-width="3" stroke-miterlimit="10" stroke-linecap="round" stroke-linejoin="round"/><path d="M35.938 37.026L22.326 25.988" stroke="url(#q)" stroke-width="3" stroke-miterlimit="10" stroke-linecap="round" stroke-linejoin="round"/><defs><linearGradient id="a" x1="81.386" y1="58.551" x2="81.386" y2="99.73" gradientUnits="userSpaceOnUse"><stop/><stop offset="1" stop-color="#0047FF"/></linearGradient><linearGradient id="b" x1="103.499" y1="94.706" x2="103.499" y2="107.818" gradientUnits="userSpaceOnUse"><stop/><stop offset="1" stop-color="#0047FF"/></linearGradient><linearGradient id="c" x1="103.499" y1="94.706" x2="103.499" y2="107.818" gradientUnits="userSpaceOnUse"><stop/><stop offset="1" stop-color="#0047FF"/></linearGradient><linearGradient id="d" x1="73.128" y1="10.272" x2="73.128" y2="36.062" gradientUnits="userSpaceOnUse"><stop/><stop offset="1" stop-color="#0047FF"/></linearGradient><linearGradient id="e" x1="48.988" y1="31.401" x2="48.988" y2="63.235" gradientUnits="userSpaceOnUse"><stop/><stop offset="1" stop-color="#0047FF"/></linearGradient><linearGradient id="f" x1="48.988" y1="31.401" x2="48.988" y2="63.235" gradientUnits="userSpaceOnUse"><stop/><stop offset="1" stop-color="#0047FF"/></linearGradient><linearGradient id="g" x1="83.716" y1="1.976" x2="83.716" y2="23.168" gradientUnits="userSpaceOnUse"><stop/><stop offset="1" stop-color="#0047FF"/></linearGradient><linearGradient id="h" x1="83.716" y1="1.976" x2="83.716" y2="23.168" gradientUnits="userSpaceOnUse"><stop/><stop offset="1" stop-color="#0047FF"/></linearGradient><linearGradient id="i" x1="8.553" y1="81.806" x2="8.553" y2="94.918" gradientUnits="userSpaceOnUse"><stop/><stop offset="1" stop-color="#0047FF"/></linearGradient><linearGradient id="j" x1="8.553" y1="81.806" x2="8.553" y2="94.918" gradientUnits="userSpaceOnUse"><stop/><stop offset="1" stop-color="#0047FF"/></linearGradient><linearGradient id="k" x1="25.507" y1="59.143" x2="25.507" y2="83.653" gradientUnits="userSpaceOnUse"><stop/><stop offset="1" stop-color="#0047FF"/></linearGradient><linearGradient id="l" x1="60.972" y1="79.141" x2="60.972" y2="92.253" gradientUnits="userSpaceOnUse"><stop/><stop offset="1" stop-color="#0047FF"/></linearGradient><linearGradient id="m" x1="60.972" y1="79.141" x2="60.972" y2="92.253" gradientUnits="userSpaceOnUse"><stop/><stop offset="1" stop-color="#0047FF"/></linearGradient><linearGradient id="n" x1="56.679" y1="62.602" x2="56.679" y2="79.41" gradientUnits="userSpaceOnUse"><stop/><stop offset="1" stop-color="#0047FF"/></linearGradient><linearGradient id="o" x1="17.285" y1="15.263" x2="17.285" y2="28.376" gradientUnits="userSpaceOnUse"><stop/><stop offset="1" stop-color="#0047FF"/></linearGradient><linearGradient id="p" x1="17.285" y1="15.263" x2="17.285" y2="28.376" gradientUnits="userSpaceOnUse"><stop/><stop offset="1" stop-color="#0047FF"/></linearGradient><linearGradient id="q" x1="29.132" y1="25.988" x2="29.132" y2="37.026" gradientUnits="userSpaceOnUse"><stop/><stop offset="1" stop-color="#0047FF"/></linearGradient></defs></svg>