<svg width="1920" height="1207" viewBox="0 0 1920 1207" fill="none" xmlns="http://www.w3.org/2000/svg"><path stroke="#D4D6D9" stroke-opacity=".5" d="M185.579 310.897L550.36.829M153.349 310.897L518.13.829M169.464 310.897L534.246.829M121.121 310.897L485.902.829M137.235 310.897L502.016.829M88.891 310.897L453.672.829M105.006 310.897L469.788.829M72.777 310.897L437.558.829M56.663 310.897L421.444.829M24.434 310.897L389.215.829M40.548 310.897L405.33.829M-7.796 310.897L356.986.829M8.319 310.897L373.1.829M-72.254 310.897L292.528.829M-40.025 310.897L324.756.829M-104.483 310.897L260.298.829M-23.911 310.897L340.871.829M-88.368 310.897L276.414.829M-56.139 310.897L308.642.829M-136.712 310.897L228.07.829M-120.597 310.897L244.184.829M-168.941 310.897L195.84.829M-152.826 310.897L211.956.829M-185.055 310.897L179.726.829"/><path stroke="#0047FF" stroke-opacity=".15" d="M1595.96 1018.41l364.78-310.069M1563.73 1018.41l364.78-310.069M1579.85 1018.41l364.78-310.069M1531.5 1018.41l364.79-310.069M1547.62 1018.41l364.78-310.069M1499.27 1018.41l364.79-310.069M1515.39 1018.41l364.78-310.069M1483.16 1018.41l364.78-310.069M1467.05 1018.41l364.78-310.069M1434.82 1018.41l364.78-310.069M1450.93 1018.41l364.78-310.069M1402.59 1018.41l364.78-310.069M1418.7 1018.41l364.78-310.069M1338.13 1018.41l364.78-310.069M1370.36 1018.41l364.78-310.069M1305.9 1018.41l364.78-310.069M1386.47 1018.41l364.78-310.069M1322.02 1018.41l364.78-310.069M1354.24 1018.41l364.79-310.069M1273.67 1018.41l364.78-310.069M1289.79 1018.41l364.78-310.069M1241.44 1018.41l364.78-310.069M1257.56 1018.41l364.78-310.069M1225.33 1018.41l364.78-310.069"/><path d="M1477.59 973.605L1325.7 1101.31h129.92l150.93-127.704-128.96-.001z" fill="#F3F3F3" fill-opacity=".67"/><path d="M1607.23 907.635l-139.86 118.215h38.66l138.6-118.215h-37.4z" fill="#fff"/><path d="M1828.12 813.22l-139.86 118.219h19.44l138.6-118.219h-18.18z" fill="#0047FF" fill-opacity=".05"/><path d="M379.334 62.295l-188.301 159.17 19.208-.001 186.612-159.17-17.519.001zM229.172 151.265l-188.3 159.169h19.207L246.69 151.265h-17.519z" fill="#fff"/><path stroke="#D4D6D9" stroke-opacity=".5" d="M185.438 1205.72l364.781-310.068M153.208 1205.72L517.99 895.652M169.324 1205.72l364.781-310.068M120.98 1205.72l364.781-310.068M137.094 1205.72l364.782-310.068M88.75 1205.72l364.782-310.068M104.866 1205.72l364.781-310.068M72.636 1205.72l364.782-310.068M56.522 1205.72l364.781-310.068M24.293 1205.72l364.782-310.068M40.408 1205.72l364.781-310.068M-7.936 1205.72l364.781-310.068M8.178 1205.72L372.96 895.652M-72.394 1205.72l364.781-310.068M-40.166 1205.72l364.782-310.068M-104.624 1205.72l364.782-310.068M-24.051 1205.72L340.73 895.652M-88.508 1205.72l364.781-310.068M-56.28 1205.72l364.782-310.068M-136.852 1205.72l364.781-310.068M-120.738 1205.72l364.782-310.068M-169.082 1205.72L195.7 895.652M-152.966 1205.72l364.781-310.068M-185.196 1205.72l364.782-310.068"/></svg>