<svg width="99" height="99" viewBox="0 0 99 99" fill="none" xmlns="http://www.w3.org/2000/svg"><path d="M83.71 76.454c-.655 2.588-3.058 4.707-6.277 5.535-2.668.688-6.407.464-8.914-2.225-.195-.21-.408-.441-.637-.696-2.668-2.932-7.635-8.383-13.705-7.57-4.323.58-8.252 4.279-11.688 10.996-1.999 3.909-7.586 6.347-12.99 5.673-5.278-.66-9.005-4.123-10.237-9.507-1.306-5.729 1.366-9.432 3.724-12.7 1.984-2.745 4.035-5.587 2.41-8.84-1.515-3.045-4.828-4.629-8.031-6.16-4.428-2.12-7.122-3.595-6.703-7.032.18-1.471.823-4.032 3.129-4.684a4.438 4.438 0 0 1 1.194-.157c2.863 0 6.594 2.449 9.88 6.582 3.765 4.737 8.398 4.56 11.321 2.284 1.434-1.116 2.467-2.748 2.837-4.474.416-1.936-.011-3.857-1.194-5.414a20.561 20.561 0 0 0-1.134-1.333c-1.852-2.078-3.009-3.606-2.23-5.834.49-1.404 1.306-2.344 2.429-2.797 1.46-.591 3.45-.326 5.602.753 3.006 1.505 5.674 1.64 7.923.408 3.062-1.678 4.948-5.703 5.614-11.97.296-2.797 2.089-4.509 4.795-4.572 2.934-.075 6.37 1.962 6.976 5.874.333 2.131-1.523 4.441-3.488 6.89-2.403 2.992-5.124 6.384-4.469 10.476.243 1.54 1.183 2.902 2.635 3.842 1.699 1.097 3.866 1.438 5.793.91 2.437-.663 3.938-2.134 5.143-3.318.554-.542 1.081-1.055 1.5-1.269 1.883-.943 4.81-.382 6.527 2.509 1.344 2.265 1.389 5.654-2.518 8.376-3.125 2.179-4.97 5.167-5.195 8.413-.183 2.621.61 6.676 5.415 11.124 3.75 3.467 5.322 6.893 4.563 9.907z" fill="url(#a)" stroke="url(#b)" stroke-width="3" stroke-miterlimit="10" stroke-linecap="round" stroke-linejoin="round"/><path d="M16.089 16.846c-.483.719-1.228 1.1-2.287 1.157-2.938.165-7.167-2.22-10.06-5.669C1.612 9.799.965 6.882 2.01 4.538c.775-1.744 2.358-2.83 4.23-2.898.078-.003.157-.003.235-.003 4.233 0 7.002 4.133 8.01 5.934 1.713 3.067 2.765 7.526 1.605 9.275z" fill="url(#c)" stroke="url(#d)" stroke-width="3" stroke-miterlimit="10" stroke-linecap="round" stroke-linejoin="round"/><path d="M39.428 11.473c-.566.441-1.763.329-3.2-.304-1.748-.767-2.822-2.063-2.864-3.463-.033-1.105.607-2.078 1.756-2.677.531-.277 1.014-.277 1.553-.008 1.7.846 3.054 3.767 3.192 4.58.143.83-.026 1.55-.437 1.871z" fill="url(#e)" stroke="url(#f)" stroke-width="3" stroke-miterlimit="10" stroke-linecap="round" stroke-linejoin="round"/><path d="M82.79 22.23c-.517.09-.667-.09-.757-.199-.595-.715-.722-2.83.094-4.998.715-1.891 1.897-3.142 3.162-3.34 2.594-.408 2.755.546 2.815.906.415 2.494-2.863 7.2-5.315 7.63z" fill="url(#g)" stroke="url(#h)" stroke-width="3" stroke-miterlimit="10" stroke-linecap="round" stroke-linejoin="round"/><path d="M97 95.03c-.573 1.225-1.916 3.127-4.529 2.09-2.463-.978-3.694-3.554-3.151-5.201.355-1.075 1.052-1.689 2.126-1.869.213-.033.434-.052.658-.052 1.62 0 3.492.895 4.495 2.217.708.924.839 1.872.4 2.815z" fill="url(#i)" stroke="url(#j)" stroke-width="3" stroke-miterlimit="10" stroke-linecap="round" stroke-linejoin="round"/><defs><linearGradient id="a" x1="47.258" y1="12.718" x2="47.258" y2="88.278" gradientUnits="userSpaceOnUse"><stop/><stop offset="1" stop-color="#0047FF"/></linearGradient><linearGradient id="b" x1="47.258" y1="12.718" x2="47.258" y2="88.278" gradientUnits="userSpaceOnUse"><stop/><stop offset="1" stop-color="#0047FF"/></linearGradient><linearGradient id="c" x1="9.049" y1="1.637" x2="9.049" y2="18.011" gradientUnits="userSpaceOnUse"><stop/><stop offset="1" stop-color="#0047FF"/></linearGradient><linearGradient id="d" x1="9.049" y1="1.637" x2="9.049" y2="18.011" gradientUnits="userSpaceOnUse"><stop/><stop offset="1" stop-color="#0047FF"/></linearGradient><linearGradient id="e" x1="36.639" y1="4.82" x2="36.639" y2="11.739" gradientUnits="userSpaceOnUse"><stop/><stop offset="1" stop-color="#0047FF"/></linearGradient><linearGradient id="f" x1="36.639" y1="4.82" x2="36.639" y2="11.739" gradientUnits="userSpaceOnUse"><stop/><stop offset="1" stop-color="#0047FF"/></linearGradient><linearGradient id="g" x1="84.845" y1="13.593" x2="84.845" y2="22.254" gradientUnits="userSpaceOnUse"><stop/><stop offset="1" stop-color="#0047FF"/></linearGradient><linearGradient id="h" x1="84.845" y1="13.593" x2="84.845" y2="22.254" gradientUnits="userSpaceOnUse"><stop/><stop offset="1" stop-color="#0047FF"/></linearGradient><linearGradient id="i" x1="93.223" y1="89.998" x2="93.223" y2="97.418" gradientUnits="userSpaceOnUse"><stop/><stop offset="1" stop-color="#0047FF"/></linearGradient><linearGradient id="j" x1="93.223" y1="89.998" x2="93.223" y2="97.418" gradientUnits="userSpaceOnUse"><stop/><stop offset="1" stop-color="#0047FF"/></linearGradient></defs></svg>