<svg width="122" height="129" viewBox="0 0 122 129" fill="none" xmlns="http://www.w3.org/2000/svg"><path d="M39.683 85.951c0 10.425-8.447 18.879-18.87 18.879-10.42 0-18.87-8.45-18.87-18.879 0-10.427 18.87-34.166 18.87-34.166s18.87 23.743 18.87 34.166z" fill="url(#a)" stroke="url(#b)" stroke-width="3" stroke-miterlimit="10" stroke-linecap="round" stroke-linejoin="round"/><path d="M74.268 41.895c0 12.24-9.956 22.196-22.186 22.196-12.272 0-22.187-9.96-22.187-22.196 0-5.171 3.915-13.075 8.474-20.526 6.269-10.263 13.716-19.65 13.716-19.65S69.941 24.18 73.628 37.637c.411 1.558.64 3.003.64 4.258z" fill="url(#c)" stroke="url(#d)" stroke-width="3" stroke-miterlimit="10" stroke-linecap="round" stroke-linejoin="round"/><path d="M120.059 97.028c0 16.508-13.376 29.89-29.877 29.89-16.501 0-29.877-13.382-29.877-29.89 0-16.508 29.877-54.1 29.877-54.1s29.877 37.592 29.877 54.1z" fill="url(#e)" stroke="url(#f)" stroke-width="3" stroke-miterlimit="10" stroke-linecap="round" stroke-linejoin="round"/><defs><linearGradient id="a" x1="20.813" y1="51.785" x2="20.813" y2="104.83" gradientUnits="userSpaceOnUse"><stop/><stop offset="1" stop-color="#0047FF"/></linearGradient><linearGradient id="b" x1="20.813" y1="51.785" x2="20.813" y2="104.83" gradientUnits="userSpaceOnUse"><stop/><stop offset="1" stop-color="#0047FF"/></linearGradient><linearGradient id="c" x1="52.082" y1="1.719" x2="52.082" y2="64.091" gradientUnits="userSpaceOnUse"><stop/><stop offset="1" stop-color="#0047FF"/></linearGradient><linearGradient id="d" x1="52.082" y1="1.719" x2="52.082" y2="64.091" gradientUnits="userSpaceOnUse"><stop/><stop offset="1" stop-color="#0047FF"/></linearGradient><linearGradient id="e" x1="90.182" y1="42.927" x2="90.182" y2="126.918" gradientUnits="userSpaceOnUse"><stop/><stop offset="1" stop-color="#0047FF"/></linearGradient><linearGradient id="f" x1="90.182" y1="42.927" x2="90.182" y2="126.918" gradientUnits="userSpaceOnUse"><stop/><stop offset="1" stop-color="#0047FF"/></linearGradient></defs></svg>