<svg width="112" height="112" viewBox="0 0 112 112" fill="none" xmlns="http://www.w3.org/2000/svg"><path d="M56.084 110.949c18.539 0 33.567-15.036 33.567-33.583 0-18.547-15.028-33.582-33.567-33.582S22.517 58.82 22.517 77.366s15.028 33.583 33.567 33.583z" fill="url(#a)" stroke="#fff" stroke-miterlimit="10" stroke-linecap="round" stroke-linejoin="round"/><path d="M111.193 34.54c0 15.014-9.802 27.65-23.335 32.001a33.921 33.921 0 0 1-10.25 1.6c-8.204 0-15.708-2.914-21.532-7.838a33.122 33.122 0 0 1-10.21-14.935c-1.19-3.404-1.803-7.058-1.803-10.833A33.55 33.55 0 0 1 56.08 8.771C61.903 3.93 69.407.976 77.61.976c18.53.003 33.582 15.022 33.582 33.563z" fill="url(#b)" stroke="#fff" stroke-miterlimit="10" stroke-linecap="round" stroke-linejoin="round"/><path d="M68.13 34.539c0 3.774-.613 7.425-1.803 10.832a33.426 33.426 0 0 1-10.251 14.936c-5.824 4.882-13.327 7.837-21.531 7.837-3.567 0-7.014-.532-10.21-1.6C10.802 62.236 1 49.562 1 34.544 1 15.997 16.008.983 34.545.983c8.2 0 15.707 2.954 21.531 7.795 7.38 6.152 12.055 15.423 12.055 25.761z" fill="url(#c)" stroke="#fff" stroke-miterlimit="10" stroke-linecap="round" stroke-linejoin="round"/><path d="M87.858 66.542a33.921 33.921 0 0 1-10.251 1.599c-8.204 0-15.708-2.913-21.531-7.837-5.824 4.882-13.328 7.837-21.531 7.837-3.567 0-7.014-.532-10.21-1.6a33.538 33.538 0 0 1 31.74-22.768 33.9 33.9 0 0 1 10.252 1.599c10.131 3.242 18.129 11.161 21.53 21.17z" fill="url(#d)" stroke="#fff" stroke-miterlimit="10" stroke-linecap="round" stroke-linejoin="round"/><path d="M111.193 34.54c0 15.014-9.802 27.65-23.335 32.001a33.921 33.921 0 0 1-10.25 1.6c-8.204 0-15.708-2.914-21.532-7.838a33.528 33.528 0 0 1-10.25-14.935 33.854 33.854 0 0 1-1.764-10.833A33.55 33.55 0 0 1 56.08 8.771C61.903 3.93 69.407.976 77.61.976c18.53.003 33.582 15.022 33.582 33.563z" fill="url(#e)" stroke="#fff" stroke-miterlimit="10" stroke-linecap="round" stroke-linejoin="round"/><path d="M87.858 66.542a33.921 33.921 0 0 1-10.25 1.599c-8.205 0-15.708-2.913-21.532-7.837a33.528 33.528 0 0 1-10.25-14.936 33.921 33.921 0 0 1 10.25-1.599c14.765.004 27.272 9.522 31.782 22.773z" fill="url(#f)" stroke="#fff" stroke-miterlimit="10" stroke-linecap="round" stroke-linejoin="round"/><path d="M68.131 34.54c0 3.773-.614 7.424-1.804 10.831a33.426 33.426 0 0 1-10.25 14.936 33.528 33.528 0 0 1-10.252-14.936 33.854 33.854 0 0 1-1.763-10.832A33.55 33.55 0 0 1 56.08 8.775C63.457 14.93 68.13 24.2 68.13 34.539z" fill="url(#g)" stroke="#fff" stroke-miterlimit="10" stroke-linecap="round" stroke-linejoin="round"/><path d="M66.327 45.372a33.426 33.426 0 0 1-10.25 14.936 33.528 33.528 0 0 1-10.252-14.936 33.717 33.717 0 0 1 10.251-1.6 33.9 33.9 0 0 1 10.251 1.6z" fill="url(#h)" stroke="#fff" stroke-miterlimit="10" stroke-linecap="round" stroke-linejoin="round"/><defs><linearGradient id="a" x1="56.084" y1="43.784" x2="56.084" y2="110.949" gradientUnits="userSpaceOnUse"><stop/><stop offset="1" stop-color="#0047FF"/></linearGradient><linearGradient id="b" x1="77.628" y1=".976" x2="77.628" y2="68.14" gradientUnits="userSpaceOnUse"><stop/><stop offset="1" stop-color="#0047FF"/></linearGradient><linearGradient id="c" x1="34.565" y1=".983" x2="34.565" y2="68.144" gradientUnits="userSpaceOnUse"><stop/><stop offset="1" stop-color="#0047FF"/></linearGradient><linearGradient id="d" x1="56.096" y1="43.773" x2="56.096" y2="68.141" gradientUnits="userSpaceOnUse"><stop/><stop offset="1" stop-color="#0047FF"/></linearGradient><linearGradient id="e" x1="77.628" y1=".976" x2="77.628" y2="68.14" gradientUnits="userSpaceOnUse"><stop/><stop offset="1" stop-color="#0047FF"/></linearGradient><linearGradient id="f" x1="66.842" y1="43.77" x2="66.842" y2="68.141" gradientUnits="userSpaceOnUse"><stop/><stop offset="1" stop-color="#0047FF"/></linearGradient><linearGradient id="g" x1="56.097" y1="8.775" x2="56.097" y2="60.307" gradientUnits="userSpaceOnUse"><stop/><stop offset="1" stop-color="#0047FF"/></linearGradient><linearGradient id="h" x1="56.076" y1="43.773" x2="56.076" y2="60.308" gradientUnits="userSpaceOnUse"><stop/><stop offset="1" stop-color="#0047FF"/></linearGradient></defs></svg>