<svg width="128" height="28" viewBox="0 0 128 28" fill="none" xmlns="http://www.w3.org/2000/svg"><path fill-rule="evenodd" clip-rule="evenodd" d="M14.193.287h6.669c.515 0 .552.061.312.531-.56 1.096-1.131 2.187-1.683 3.287-.15.3-.34.422-.691.422-3.591 0-7.183.017-10.775.032-2.14.01-3.69 1.6-3.636 3.726.045 1.773 1.547 3.291 3.32 3.307 1.91.017 3.822.018 5.733-.021 1.53-.032 2.918.42 4.187 1.197 3.338 2.046 4.558 5.897 3.219 9.491-.887 2.378-2.649 3.93-5.106 4.682-.988.303-1.98.408-3.004.404-4.012-.016-8.024-.014-12.037-.018-.621 0-.66-.06-.382-.601.606-1.179 1.204-2.362 1.83-3.53.076-.142.299-.292.455-.293 3.605-.02 7.211-.049 10.816-.012 1.808.018 3.262-1.007 3.62-2.707.364-1.723-.594-3.48-2.267-4.067-.438-.154-.928-.21-1.396-.215-1.898-.024-3.796.007-5.693-.015-2.45-.029-4.425-1.078-5.914-2.982C-.008 10.633-.343 8.057.608 5.381c.83-2.337 2.512-3.908 4.886-4.7C6.403.379 7.34.276 8.296.28c1.966.01 3.931.003 5.897.003v.005z" fill="url(#a)"/><path fill-rule="evenodd" clip-rule="evenodd" d="M31.964 22.817c-.495-.968-.934-1.834-1.38-2.698-1.105-2.138-2.214-4.275-3.32-6.413-.62-1.201-1.236-2.405-1.863-3.603a.474.474 0 0 0-.266-.214c-.047-.013-.159.118-.204.204-.737 1.4-1.466 2.804-2.203 4.205-.051.098-.143.176-.216.263-.086-.089-.194-.164-.253-.268-.612-1.075-1.398-1.997-2.414-2.705-.286-.2-.318-.381-.164-.677 1.532-2.939 3.056-5.881 4.58-8.823.267-.515.526-1.035.827-1.627.125.132.242.213.3.325 1.787 3.445 3.57 6.892 5.35 10.341 1.625 3.149 3.24 6.303 4.87 9.449 1.1 2.125 2.221 4.24 3.332 6.359.146.277.063.388-.313.39-1.382.01-2.765.019-4.147.018-3.294-.002-6.587-.01-9.881-.016-.558 0-.597-.077-.336-.579.606-1.164 1.219-2.324 1.797-3.502.14-.287.315-.359.598-.359 1.559.002 3.117-.005 4.676-.013.182-.001.363-.032.63-.057z" fill="url(#b)"/><path fill-rule="evenodd" clip-rule="evenodd" d="M110.498 13.628c0-1.011-.007-2.022.003-3.034.003-.313-.11-.492-.433-.516-.245-.018-.491-.036-.736-.058-.428-.038-.559-.181-.558-.6.001-.278.012-.558-.008-.835-.018-.24.086-.385.299-.435a3.27 3.27 0 0 1 .668-.084c.644-.014.764-.124.764-.751l-.002-1.764c0-.354.106-.484.447-.49.608-.009 1.217-.01 1.826.004.407.008.523.145.523.552v1.826c.001.433.18.612.621.619.268.004.536-.003.805.002.333.006.487.169.486.499 0 .33.001.66.005.99.003.294-.149.464-.445.471-.278.007-.557-.01-.835.003-.47.022-.638.208-.638.673.001 1.64.01 3.28-.005 4.921-.004.453.11.86.344 1.229.076.118.253.213.398.237.262.044.534.023.802.035.426.02.571.173.571.59v.681c0 .699-.426 1.151-1.136 1.18-.433.017-.867.016-1.3-.003-.147-.006-.294-.082-.434-.142-.168-.072-.321-.197-.495-.235-.37-.08-.595-.337-.85-.58-.596-.566-.666-1.298-.678-2.045-.016-.98-.004-1.96-.004-2.94h-.005z" fill="#0B4EC0"/><path fill-rule="evenodd" clip-rule="evenodd" d="M46.75 19.649c-.39-.032-.82.031-1.16-.117-.652-.283-1.37-.364-1.983-.804-.64-.46-.97-1.085-1.288-1.742-.126-.26.04-.488.327-.525.655-.084.83.067 1.093.656.148.331.408.667.707.868 1.152.775 2.422.752 3.706.402.594-.163 1.02-.585 1.383-1.06.27-.352.124-1.299-.123-1.666-.245-.365-.594-.58-.907-.85a.572.572 0 0 0-.21-.126c-.73-.197-1.466-.382-2.197-.583-.345-.095-.676-.245-1.025-.322-.62-.139-1.128-.48-1.623-.848-.103-.077-.181-.191-.257-.298a4.659 4.659 0 0 1-.331-.518c-.084-.16-.177-.334-.194-.509a5.171 5.171 0 0 1-.003-1.019c.023-.214.124-.427.221-.626.094-.192.226-.366.341-.549.023-.034.036-.08.067-.102.402-.28.793-.579 1.214-.827.242-.144.533-.205.803-.304.067-.025.133-.068.202-.074.892-.08 1.786-.202 2.659.131.249.095.528.13.755.26.364.207.74.427 1.029.72.37.377.741.784.807 1.355.028.248.022.489-.246.608-.27.12-.698.018-.84-.201-.216-.336-.363-.736-.636-1.012-.51-.518-1.124-.9-1.894-.906-.709-.006-1.42-.067-2.093.27-.62.31-1.026.766-1.177 1.448-.1.452.047.84.32 1.176.233.287.557.459.88.65.512.305 1.064.355 1.61.481.188.043.364.139.551.19.316.089.635.16.953.24.623.155 1.167.474 1.676.848.21.154.396.358.55.57.15.21.327.453.347.693.049.58.064 1.173-.005 1.75-.064.542-.472.903-.882 1.246-.407.34-.86.542-1.37.661-.295.069-.565.249-.86.303-.288.054-.595.012-.894.012l-.003.05zM84.423 11.33v7.68c0 .195.037.446-.205.492-.229.044-.48-.002-.715-.046-.06-.011-.111-.159-.133-.252-.024-.098-.008-.205-.008-.309l-.001-15.33c0-.406.114-.513.548-.514.422-.002.513.085.514.504v7.774zM57.913 18.621c-.289.003-.58.02-.866-.006-.2-.018-.455-.036-.577-.16-.361-.368-.692-.748-.673-1.348.04-1.237.012-2.476.012-3.715h-.014c0-1.28-.002-2.559.001-3.838 0-.06.003-.113.007-.16v-.35H58.184v-.98H55.803V7.66a2.106 2.106 0 0 1-.006-.163c-.005-.66-.003-1.321.003-1.981.001-.218-.054-.39-.287-.45-.336-.084-.682.007-.782.21a.479.479 0 0 0-.043.207c.004.639.019 1.278.02 1.917 0 .034-.001.067-.003.098v.564h-2.271v.981h2.271v.51c.002.039.004.08.004.127.001 1.186-.01 2.373.003 3.56.015 1.505.04 3.01.081 4.516.006.213.114.432.207.634.192.419.451.774.943.884.085.019.15.11.235.144.15.062.306.142.463.15.422.022.846.016 1.269.009.269-.005.374-.174.37-.565-.002-.243-.1-.394-.367-.392zM69.099 13.59c-.153-1.141-.032-2.344-.722-3.368-.233-.347-.441-.718-.718-1.027-.546-.609-1.374-.733-2.055-1.113-.043-.024-.101-.022-.153-.023-.454-.005-.925-.09-1.358.005-.616.133-1.253.315-1.79.63-.501.294-.93.75-1.304 1.207-.383.466-.787.953-.829 1.614-.009.138-.088.271-.128.409-.095.334-.244.665-.267 1.003-.088 1.3-.101 2.6.537 3.801.072.135.116.287.202.412.45.656.952 1.25 1.638 1.693a5.2 5.2 0 0 0 1.998.742c.296.048.6.084.906.086h.01a3.45 3.45 0 0 0 .68-.058 4.189 4.189 0 0 0 1.454-.537 5.8 5.8 0 0 0 .684-.469s.002 0 .002-.002c.106-.083.213-.173.322-.27l.353-.299c.158-.131.165-.276.037-.429-.079-.095-.155-.195-.245-.279-.172-.164-.337-.163-.5.032-.408.488-.94.813-1.512 1.064-.576.253-1.198.144-1.803.173-.847.04-1.478-.397-2.106-.874-.364-.276-.578-.65-.816-1.026-.367-.577-.599-1.188-.66-1.86-.018-.2-.021-.344.003-.449v-.296h4.064v.001c1.114 0 2.229.005 3.343-.005.18 0 .38-.031.53-.118.107-.064.218-.255.203-.37zm-1.702-.526c-.95.004-1.899.001-2.849.001h-2.695c-.072 0-.144.003-.217-.002-.57-.041-.66-.237-.52-.793.157-.627.451-1.188.745-1.746.158-.3.429-.556.694-.778 1.004-.84 2.692-.978 3.69-.278.53.372.871.84 1.194 1.397.318.549.342 1.104.415 1.678.047.365-.082.52-.457.521zM80.025 14.056c.457 0 .597-.136.573-.595-.027-.514-.122-1.027-.11-1.54.021-.797-.452-1.394-.768-2.05-.132-.275-.373-.521-.617-.715-.413-.33-1.696-1.222-3.817-.973-.6.168-1.216.353-1.743.785-.658.54-1.195 1.162-1.577 1.898-.247.476-.349 1.029-.51 1.548-.031.097-.05.202-.053.303-.038 1.22-.16 2.435.346 3.621a6.897 6.897 0 0 0 .461.9c.02.06.593 1.743 3.12 2.224v.001c.306.058.641.098 1.007.116h.005c.169.01.343.012.524.01l-.014-.007.084.001c.283.003.548-.054.804-.14.331-.09.734-.239 1.151-.482l.052-.02c.295-.114.542-.362.785-.606.056-.053.112-.108.167-.166l.01-.01.048-.046c.109-.102.179-.17.213-.23v-.001c.053-.059.076-.088.076-.088l-.086-.094c-.034-.059-.095-.13-.178-.231-.115-.137-.186-.214-.252-.234h-.001a.117.117 0 0 0-.071 0c-.07.02-.15.097-.283.225a7.373 7.373 0 0 1-.543.481c-.352.24-.804.48-1.331.62h-.002a3.546 3.546 0 0 1-.928.121 4.587 4.587 0 0 1-.893-.09 3.857 3.857 0 0 1-.684-.205c-.517-.286-1.017-.584-1.407-1.025a3.909 3.909 0 0 1-.348-.49 2.72 2.72 0 0 1-.058-.108c-.085-.17-.17-.336-.251-.503-.217-.518-.374-1.135-.454-1.864l.007-.03v-.308h.629c.086-.005.174-.003.261-.003h3.25v.001h3.406zm-3.931-.974v-.002h-2.63c-.083 0-.165.002-.248-.002-.662-.03-.799-.257-.545-.872.093-.226.122-.484.234-.698.234-.45.496-.886.763-1.317.29-.468.796-.667 1.234-.95.026-.016.054-.034.083-.042.966-.25 1.894-.322 2.818.237.757.458 1.16 1.15 1.45 1.908.165.429.163.93.181 1.401.01.293-.252.337-.495.337h-2.845z" fill="#0B4EC0" stroke="#0B4EC0"/><path fill-rule="evenodd" clip-rule="evenodd" d="M96.555 19.073c-.182-.955-.287-1.915-.254-2.89.017-.515.003-1.031.003-1.547 0-.795.031-1.591-.008-2.384l-.016-.301v-.002a4.392 4.392 0 0 0-.054-.605c-.07-.54-.216-1.06-.573-1.517-.503-.768-1.347-1.405-2.672-1.655a6.656 6.656 0 0 0-.948-.107 8.083 8.083 0 0 0-.69.001 5.93 5.93 0 0 0-.854.102 4.839 4.839 0 0 0-1.152.375c-1.8.849-2.295 2.538-2.346 2.729l-.005.017.007.002c.021.158.172.226.438.226h.438c.299-.003.598-.006.897-.005.226 0 .452.003.678.01.263.009.423-.078.552-.295.28-.47.685-.723 1.247-.698.238.01.476 0 .713 0a1.477 1.477 0 0 1 1.463 1.469c.002.379-.095.522-.47.555-.338.03-.676.038-1.015.04-3.063-.131-4.224 1.133-4.67 1.773-.1.136-.18.282-.22.43-.173.67-.333 1.35-.21 2.07.103.598.362 1.1.743 1.533 0 0 .022.029.069.076l.01.011a1.747 1.747 0 0 0 .307.262 4.16 4.16 0 0 0 1.439.66c.388.1.846.17 1.379.181l.033.001c.028 0 .057-.002.087-.004.01 0 .022 0 .033-.002.127-.006.253-.024.377-.057.586-.125 1.321-.439 1.988-.922.102.034.177.153.24.37.107.37.36.572.71.59.648.032 1.3.021 1.95.005.322-.008.42-.165.356-.497zm-6.352-4.084c.542-.406 1.14-.497 1.787-.448.34.018.68.032 1.02.056.258.018.392.179.403.426.012.267 0 .536-.008.804-.02.695-.582.911-1.074 1.14-.56.26-1.184.215-1.768.107-.48-.088-.772-.496-.947-.938-.112-.282.286-.92.587-1.147zM127.102 13.845c-.019-.35-.006-.705-.067-1.048a4.417 4.417 0 0 0-.069-.32h.001a7.985 7.985 0 0 0-.318-1.104 1.754 1.754 0 0 0-.179-.432c-.814-1.781-2.225-2.576-3.883-2.807a2.385 2.385 0 0 0-.282-.06 3.994 3.994 0 0 0-.875-.017 6.106 6.106 0 0 0-.144.013 6.243 6.243 0 0 0-.957.195c-.277.073-.56.148-.816.273-.438.214-.892.423-1.275.718-.341.262-.632.613-.879.97-.26.376-.533.783-.636 1.215a9.178 9.178 0 0 0-.269 2.143c.006 1.184-.013 2.399.69 3.447.259.386.542.763.863 1.096.251.258.567.46.876.654.237.148.505.25.764.36.122.052.27.052.382.117.805.47 1.692.374 2.538.273.622-.075 1.235-.339 1.817-.6.363-.162.657-.477.987-.718.613-.45.965-1.12 1.224-1.775.321-.811.597-1.678.507-2.592zm-3.542 2.417a2.368 2.368 0 0 1-.713.654c-.17.102-.382.15-.581.183-.191.033-.394-.006-.586.025-1.04.165-1.904-.85-2.176-1.676-.223-.68-.345-1.342-.264-2.018.128-1.072.416-2.101 1.42-2.735a.628.628 0 0 1 .285-.104c.462-.023.937-.101 1.385-.024.288.05.531.172.746.34.728.521 1.231 1.631 1.231 2.916 0 .974-.29 1.847-.747 2.44zM107.704 8.007c-.66-.007-1.32-.003-1.98-.001l-.042-.003h-.785l-1.285 5.338a4.38 4.38 0 0 0-.151.625l-.003.015-.114.476-.264 1.096-.141-.487-2.048-7.063h-3.283l.296.86 3.665 10.657a.54.54 0 0 0 .382.123c.64-.004 1.28.005 1.92-.007.218-.005.355-.011.449-.046h.001v-.001a.268.268 0 0 0 .108-.069l3.649-11.381c-.072-.085-.198-.13-.374-.132z" fill="#0B4EC0"/><defs><linearGradient id="a" x1="10.735" y1=".279" x2="10.735" y2="27.345" gradientUnits="userSpaceOnUse"><stop stop-color="#0059D3"/><stop offset="1" stop-color="#1544AD"/></linearGradient><linearGradient id="b" x1="29.299" y1=".461" x2="29.299" y2="27.343" gradientUnits="userSpaceOnUse"><stop stop-color="#0059D3"/><stop offset="1" stop-color="#1544AD"/></linearGradient></defs></svg>