<svg width="1866" height="672" viewBox="0 0 1866 672" fill="none" xmlns="http://www.w3.org/2000/svg"><path stroke="#D4D6D9" stroke-opacity=".5" d="M1500.31 360.694l364.78-310.067M1468.08 360.694l364.78-310.067M1484.2 360.694l364.78-310.067M1435.85 360.694l364.78-310.067M1451.97 360.694l364.78-310.067M1403.62 360.694L1768.4 50.627M1419.74 360.694l364.78-310.067M1387.51 360.694l364.78-310.067M1371.39 360.694l364.79-310.067M1339.17 360.694l364.78-310.067M1355.28 360.694l364.78-310.067M1306.94 360.694l364.78-310.067M1323.05 360.694l364.78-310.067M1242.48 360.694l364.78-310.067M1274.71 360.694l364.78-310.067M1210.25 360.694l364.78-310.067M1290.82 360.694L1655.6 50.627M1226.36 360.694l364.79-310.067"/><path stroke="#0047FF" d="M1258.59 360.695L1682.7.867"/><path stroke="#D4D6D9" stroke-opacity=".5" d="M1178.02 360.694L1542.8 50.627M1194.13 360.694l364.79-310.067M1145.79 360.694l364.78-310.067M1161.91 360.694l364.78-310.067M1129.68 360.694l364.78-310.067"/><path d="M1487.01 231.512l-66.95 56.288h57.26l66.53-56.288h-56.84z" fill="#0047FF"/><g opacity=".5"><path stroke="#D4D6D9" stroke-opacity=".5" d="M244.102 670.765l364.781-310.068M211.872 670.765l364.782-310.068M227.988 670.765l364.781-310.068M179.644 670.765l364.781-310.068M195.758 670.765L560.54 360.697M147.414 670.765l364.782-310.068M163.53 670.765l364.781-310.068M131.3 670.765l364.782-310.068M115.186 670.765l364.781-310.068M82.957 670.765l364.782-310.068M99.072 670.765l364.781-310.068M50.728 670.765l364.781-310.068M66.842 670.765l364.782-310.068M-13.73 670.765l364.781-310.068M18.498 670.765L383.28 360.697M-45.96 670.765l364.782-310.068M34.613 670.765l364.781-310.068M-29.844 670.765l364.781-310.068"/><path stroke="#0047FF" d="M2.384 670.765l431.355-367.538"/><path stroke="#D4D6D9" stroke-opacity=".5" d="M-78.188 670.765l364.781-310.068M-62.074 670.765l364.782-310.068M-110.418 670.765l364.782-310.068M-94.302 670.765l364.781-310.068M-126.532 670.765L238.25 360.697"/><path d="M235.929 530.072l-66.945 56.288h57.263l66.522-56.288h-56.84z" fill="#0047FF"/><path stroke="#0047FF" d="M2.384 670.765l431.355-367.538"/><path d="M235.929 530.072l-66.945 56.288h57.263l66.522-56.288h-56.84z" fill="#0047FF"/></g><path stroke="#0047FF" d="M2.384 670.764l431.355-367.538"/><path d="M235.929 530.072l-66.945 56.288h57.263l66.522-56.288h-56.84z" fill="#0047FF"/></svg>