<svg width="21" height="15" viewBox="0 0 21 15" fill="none" xmlns="http://www.w3.org/2000/svg"><path fill-rule="evenodd" clip-rule="evenodd" d="M19.467.974c-.13.07-.284.114-.384.213-2.688 2.689-5.371 5.383-8.056 8.076-.52.522-.837.523-1.358 0L1.59 1.157c-.09-.091-.174-.188-.325-.351.316-.051.555-.124.795-.124C7.585.674 13.111.674 18.637.68c.24 0 .48.072.72.111l.11.182z" fill="#0047FF"/><path fill-rule="evenodd" clip-rule="evenodd" d="M19.386 14.765c-.269.044-.508.117-.748.117-5.525.007-11.049.007-16.573 0-.24 0-.481-.07-.74-.111l6.13-6.064c.463.467 1.001 1.018 1.547 1.561.507.505 1.126.7 1.806.493.337-.103.665-.317.93-.556.545-.493 1.044-1.037 1.516-1.513l6.132 6.073zM.359 13.808c-.038-.239-.112-.495-.113-.75C.238 9.544.238 6.032.246 2.52c.001-.266.081-.533.123-.792L6.46 7.76l-6.1 6.048zM14.214 7.796l6.113-6.059c.041.25.122.515.122.781.009 3.513.009 7.025 0 10.538 0 .262-.084.524-.131.798l-6.104-6.057z" fill="#0047FF"/></svg>