<svg width="18" height="21" viewBox="0 0 18 21" fill="none" xmlns="http://www.w3.org/2000/svg"><path fill-rule="evenodd" clip-rule="evenodd" d="M15.352.977c.532.242 1.277.818 1.683 1.423.406.606.473 1.24.463 1.83-.01.59-.099 1.136-.756 2.63s-1.883 3.937-3.614 6.134c-1.73 2.197-3.967 4.148-5.379 5.309-1.412 1.16-2.001 1.53-2.626 1.709-.625.178-1.287.166-2.008-.163-.72-.33-1.5-.975-1.765-1.645-.265-.67-.014-1.365.376-2.018.39-.654.92-1.267 1.482-1.69.562-.423 1.156-.655 1.639-.561.482.093.852.513 1.087.796.236.284.338.43.442.529.104.098.21.146.413.064.202-.082.5-.295 1.257-.86.757-.564 1.974-1.48 2.977-2.651 1.003-1.172 1.793-2.6 2.12-3.431.328-.83.194-1.064-.156-1.278-.35-.215-.916-.41-1.23-.697-.315-.287-.377-.664-.361-1.036.016-.372.11-.74.293-1.187.182-.446.45-.972.79-1.478s.752-.992 1.047-1.287c.296-.295.476-.398.725-.495.25-.098.569-.19 1.101.053z" fill="#0047FF" stroke="#0047FF"/></svg>