<svg width="378" height="312" viewBox="0 0 378 312" fill="none" xmlns="http://www.w3.org/2000/svg"><path stroke="#0047FF" stroke-opacity=".15" d="M371.119 310.88L735.901.812M338.89 310.88L703.672.812M355.005 310.88L719.786.812M306.661 310.88L671.442.812M322.776 310.88L687.557.812M274.432 310.88L639.213.812M290.546 310.88L655.328.812M258.317 310.88L623.099.812M242.203 310.88L606.984.812M209.974 310.88L574.755.812M226.088 310.88L590.87.812M177.745 310.88L542.526.812M193.859 310.88L558.641.812M113.287 310.88L478.068.812M145.516 310.88L510.297.812M81.058 310.88L445.839.812M161.63 310.88L526.412.812M97.173 310.88L461.954.812M129.401 310.88L494.182.812M48.828 310.88L413.61.812M64.943 310.88L429.725.812M16.599 310.88L381.381.812M32.714 310.88L397.496.812M.485 310.88L365.267.812"/></svg>