<svg width="32" height="31" viewBox="0 0 32 31" fill="none" xmlns="http://www.w3.org/2000/svg">
<path d="M24.7042 23.2778C22.9602 23.2778 21.5463 24.6707 21.5463 26.3889C21.5463 28.1071 22.9602 29.5 24.7042 29.5C26.4483 29.5 27.8621 28.1071 27.8621 26.3889C27.8621 24.6707 26.4483 23.2778 24.7042 23.2778ZM24.7042 23.2778H9.4947C8.70893 23.2778 8.04274 22.7086 7.93162 21.9422L7.44859 18.6111M1.02002 1.5H4.96739L5.41852 4.61111M5.41852 4.61111H5.75686H31.02L26.2832 18.6111H8.12528H7.44859M5.41852 4.61111L7.44859 18.6111M15.2305 26.3889C15.2305 28.1071 13.8167 29.5 12.0727 29.5C10.3286 29.5 8.91476 28.1071 8.91476 26.3889C8.91476 24.6707 10.3286 23.2778 12.0727 23.2778C13.8167 23.2778 15.2305 24.6707 15.2305 26.3889Z" stroke="#31333A" stroke-width="1.5" stroke-linecap="round" stroke-linejoin="round"/>
</svg>
