<svg width="32" height="30" viewBox="0 0 32 30" fill="none" xmlns="http://www.w3.org/2000/svg">
<path d="M24.6842 22.7778C22.9402 22.7778 21.5263 24.1707 21.5263 25.8889C21.5263 27.6071 22.9402 29 24.6842 29C26.4283 29 27.8421 27.6071 27.8421 25.8889C27.8421 24.1707 26.4283 22.7778 24.6842 22.7778ZM24.6842 22.7778H9.47468C8.68891 22.7778 8.02272 22.2086 7.9116 21.4422L7.42857 18.1111M1 1H4.94737L5.3985 4.11111M5.3985 4.11111H5.73684H31L26.2632 18.1111H8.10526H7.42857M5.3985 4.11111L7.42857 18.1111M15.2105 25.8889C15.2105 27.6071 13.7967 29 12.0526 29C10.3086 29 8.89474 27.6071 8.89474 25.8889C8.89474 24.1707 10.3086 22.7778 12.0526 22.7778C13.7967 22.7778 15.2105 24.1707 15.2105 25.8889Z" stroke="white" stroke-width="1.5" stroke-linecap="round" stroke-linejoin="round"/>
</svg>
