<svg width="126" height="41" viewBox="0 0 126 41" fill="none" xmlns="http://www.w3.org/2000/svg"><path fill="none" d="M.222.527h125.557v40H.222z"/><path fill="none" d="M.222.527h125.557v40H.222z"/><path fill="none" d="M.222.527h48.48v40H.222z"/><path d="M14.538 19.377c-1.517-.31-6.346-2.721-9.15-5.461-1.2-1.173-2.407-2.357-3.078-3.92a10.128 10.128 0 0 1-.806-4.576C1.644 2.786 2.872.9 3.257.527c.014.038 4.115 10.834 17.316 18.433 1.264.728 5.247-.9 7.346-1.873 2.098-.97 5.457-1.873 7.415-.553 3.01 2.358 1.54 4.855 1.259 5.964-.28 1.111-.28 3.192-.28 3.192s-1.08-2.193-2.658-2.428c-2.63-.392-5.369.443-7.415 2.006-3.402 2.928-3.478 6.411-2.51 9.314 1.003 3.007 3.127 5.39 3.838 5.883-2.588.345-3.217-.764-5.805-3.007-.14 2.127-1.82 3.007-1.82 3.007-1.817-2.85-2.61-5.52-2.905-7.76-.386-2.938.089-5.14.246-6.045-.857 1.573-2.252 3.228-4.12 3.6-1.246.25-4.852-.235-6.566-3.807 3.151-.143 6.362-.413 8.208-2.072-2.157.936-6.958 2.002-10.42-.183-1.435-.905-2.1-2.653-2.074-4.188 3.988 1.795 7.871 2.588 11.643 2.103-3.64-.256-11.53-.923-13.493-6.204-.526-1.414-.089-4.457.355-4.977 4.958 5.185 12.252 8.454 13.72 8.445z" fill="url(#a)"/><path d="M48.326 4.455c.424.832.708 3.381-.394 4.578-.788.856-3.267 2.524-6.718 3.774 3.649-1.1 5.04-1.901 7.164-3.514.105.494.03 1.68-1.206 2.68-1.495 1.207-5.53 2.26-5.786 2.331 2.375-.25 6.024-1.794 6.205-1.942 0 .599-.397 1.39-1.05 1.873-1.707 1.268-4.51 1.379-5.613 1.535 1.753.023 3.804-.26 4.486-.537-.086.263-.86.966-1.45 1.319-1.331.792-2.44 1.223-3.811 1.75-.11.041-2.148.717-2.16.659-.001-.005-.684-3.295-3.55-3.642C39.09 13.013 46.28 7.81 48.325 4.455z" fill="url(#b)"/><path fill="none" d="M28.377 32.487h97.402v6.85H28.377z"/><path d="M29.75 37.773c-.435 0-.773-.117-1.013-.35-.24-.235-.36-.569-.36-1.004 0-.456.082-.872.245-1.246.163-.374.393-.666.688-.877a1.69 1.69 0 0 1 1.007-.316c.364 0 .694.067.99.202l-.234.609a1.88 1.88 0 0 0-.737-.175c-.333 0-.61.169-.833.507-.222.34-.333.758-.333 1.257 0 .244.062.433.187.566.124.132.296.198.516.198.165 0 .319-.024.461-.072.144-.049.288-.109.433-.18v.646c-.312.157-.65.235-1.017.235zM33.933 33.98c.489 0 .771.26.847.778h.026c.167-.256.356-.45.569-.581.212-.132.433-.197.661-.197.296 0 .52.084.675.253.155.169.232.407.232.713 0 .141-.025.34-.073.6l-.467 2.16h-.783l.477-2.224c.042-.21.063-.356.063-.44 0-.285-.135-.427-.404-.427-.24 0-.463.137-.671.41-.208.274-.36.637-.455 1.09l-.337 1.591h-.783l.477-2.224c.038-.18.056-.321.056-.42 0-.298-.13-.447-.39-.447-.244 0-.47.14-.678.42-.208.28-.362.653-.462 1.119l-.326 1.552H31.4l.787-3.66h.613l-.07.678h.03c.329-.496.72-.744 1.173-.744zM37.64 34.047h.772l.21 1.757c.02.137.038.33.054.577.015.25.023.449.023.601h.02c.191-.474.341-.82.45-1.036l.976-1.9h.847l-2.293 4.237c-.2.364-.418.63-.653.8-.236.169-.512.253-.83.253a1.75 1.75 0 0 1-.477-.063v-.623c.167.035.305.053.417.053a.742.742 0 0 0 .446-.144c.134-.096.271-.267.414-.514l.17-.305-.547-3.694zM44.386 34.602a4.8 4.8 0 0 1-.272 1.644c-.181.5-.43.88-.745 1.138-.316.26-.68.39-1.093.39-.416 0-.738-.123-.967-.367-.228-.244-.343-.582-.343-1.014 0-.395.07-.76.21-1.093.14-.333.338-.595.592-.786.254-.19.54-.286.858-.286.425 0 .742.197.95.592h.02l.007-.112v-.093c0-.512-.073-.888-.219-1.128-.145-.24-.373-.361-.684-.361-.239 0-.47.05-.694.149l-.18-.6a2.793 2.793 0 0 1 .983-.189c1.05.001 1.576.706 1.576 2.116zm-2.047 2.536c.271 0 .507-.148.708-.444.201-.295.347-.701.438-1.218a.988.988 0 0 0-.276-.47.645.645 0 0 0-.447-.172.752.752 0 0 0-.51.207 1.349 1.349 0 0 0-.363.57c-.087.241-.13.507-.13.796 0 .234.05.414.153.541a.52.52 0 0 0 .427.19zM46.312 34.047l-.43 2.019c-.07.31-.104.524-.104.638 0 .294.142.44.424.44.16 0 .318-.062.476-.188.158-.126.298-.305.42-.538.123-.233.217-.506.284-.819l.33-1.552h.776l-.777 3.66h-.616l.07-.678h-.027c-.182.256-.372.444-.57.564a1.21 1.21 0 0 1-.64.18c-.298 0-.528-.083-.69-.25-.162-.168-.243-.409-.243-.722 0-.14.013-.276.04-.413l.08-.408.41-1.933h.787zM50.678 36.304c-.14 0-.26.036-.358.109a.955.955 0 0 0-.269.347c-.166.323-.297.542-.391.66a.91.91 0 0 1-.317.257.97.97 0 0 1-.418.083 1.03 1.03 0 0 1-.383-.06v-.632c.08.03.15.044.213.044a.37.37 0 0 0 .25-.09c.07-.06.145-.17.227-.33.11-.208.214-.357.31-.447a.83.83 0 0 1 .317-.192c-.387-.13-.58-.399-.58-.805 0-.37.135-.663.405-.879.27-.214.64-.322 1.111-.322h1.467l-.777 3.66h-.78l.31-1.403h-.337zm.063-1.662c-.209 0-.374.053-.495.159a.554.554 0 0 0-.181.44c0 .166.054.287.161.364.108.078.254.116.438.116h.47l.227-1.079h-.62zM55.934 34.047l-.313 1.47h1.473l.317-1.47h.777l-.777 3.66h-.786l.333-1.578H55.49l-.34 1.578h-.787l.794-3.66h.776zM59.68 37.773c-.313 0-.56-.112-.743-.336-.182-.224-.273-.539-.273-.945 0-.445.077-.862.231-1.251.155-.389.368-.696.64-.922.27-.226.568-.34.892-.34.216 0 .401.051.557.151a.99.99 0 0 1 .363.439h.033l.207-.523h.6l-.786 3.66h-.607l.07-.582h-.02c-.351.433-.739.65-1.163.65zm.288-.629c.182 0 .36-.085.536-.256.175-.171.32-.4.433-.687.113-.287.17-.6.17-.94a.682.682 0 0 0-.157-.469.522.522 0 0 0-.41-.177c-.188 0-.366.085-.533.255-.166.17-.3.402-.4.694-.1.292-.15.595-.15.908 0 .225.045.393.136.505.09.112.214.167.374.167zM64.994 33.98c.488 0 .77.26.847.778h.026c.167-.256.356-.45.568-.581.213-.132.433-.197.662-.197.296 0 .52.084.675.253.154.169.232.407.232.713 0 .141-.025.34-.074.6l-.466 2.16h-.783l.476-2.224c.043-.21.064-.356.064-.44 0-.285-.135-.427-.404-.427-.24 0-.464.137-.671.41-.208.274-.36.637-.455 1.09l-.337 1.591h-.783l.476-2.224c.038-.18.057-.321.057-.42 0-.298-.13-.447-.39-.447-.244 0-.47.14-.678.42-.208.28-.362.653-.462 1.119l-.326 1.552h-.787l.787-3.66h.613l-.07.678h.03c.328-.496.72-.744 1.173-.744zM70.393 36.304c-.14 0-.259.036-.358.109a.955.955 0 0 0-.268.347c-.167.323-.298.542-.392.66a.91.91 0 0 1-.317.257.97.97 0 0 1-.418.083 1.03 1.03 0 0 1-.383-.06v-.632c.08.03.15.044.213.044a.37.37 0 0 0 .25-.09c.07-.06.145-.17.227-.33.111-.208.214-.357.31-.447a.83.83 0 0 1 .317-.192c-.387-.13-.58-.399-.58-.805 0-.37.135-.663.405-.879.27-.214.64-.322 1.111-.322h1.467l-.777 3.66h-.78l.31-1.403h-.337zm.064-1.662c-.21 0-.374.053-.495.159a.554.554 0 0 0-.182.44c0 .166.054.287.162.364.107.078.253.116.438.116h.47l.227-1.079h-.62zM74.793 36.155h-.527c-.12.5-.338.895-.653 1.185-.315.289-.692.433-1.13.433-.15 0-.294-.015-.43-.046l.123-.622c.107.026.207.04.3.04.212 0 .4-.079.567-.236a1.57 1.57 0 0 0 .392-.642c.094-.271.141-.56.141-.864 0-.258-.049-.454-.148-.587a.489.489 0 0 0-.418-.2 1.2 1.2 0 0 0-.39.07v-.633c.168-.048.344-.073.526-.073.385 0 .683.123.897.367.213.245.32.593.32 1.043 0 .06-.006.131-.017.215h.56l.337-1.559h.736l-.34 1.56h.53c.122-.506.34-.903.655-1.192a1.6 1.6 0 0 1 1.121-.434c.185 0 .337.016.457.046l-.136.623a1.436 1.436 0 0 0-.314-.033c-.2 0-.381.072-.545.217-.163.144-.294.354-.393.628a2.612 2.612 0 0 0-.149.89c0 .253.047.449.142.587a.474.474 0 0 0 .418.207c.111 0 .241-.026.39-.077v.64a1.892 1.892 0 0 1-.52.066c-.382 0-.68-.12-.893-.36-.213-.239-.32-.586-.32-1.04v-.11l.007-.109h-.567l-.337 1.553h-.73l.338-1.553zM80 34.047l-.314 1.47h1.473l.317-1.47h.776l-.776 3.66h-.787l.334-1.579h-1.467l-.34 1.579h-.787l.794-3.66h.776zM84.109 34.047l-.334 1.545c.278-.055.511-.083.7-.083.338 0 .602.086.794.259.191.172.286.409.286.711 0 .395-.135.71-.405.944-.27.234-.64.35-1.111.35-.418 0-.728-.092-.93-.277-.202-.185-.304-.445-.304-.778 0-.19.025-.4.074-.629l.443-2.042h.787zm.103 2.048c-.16 0-.347.022-.56.066l-.035.167a1.284 1.284 0 0 0-.032.242 1.66 1.66 0 0 0-.003.108c0 .342.174.513.52.513.207 0 .371-.057.493-.17a.596.596 0 0 0 .184-.46c0-.17-.048-.289-.144-.36-.095-.07-.237-.106-.423-.106zm2.456 1.612h-.78l.78-3.66h.783l-.783 3.66zM89.248 36.426l-1.016 1.28h-.9l1.583-1.882-.77-1.778h.817l.48 1.235.957-1.235h.913l-1.537 1.817.827 1.844h-.82l-.534-1.281zM95.171 37.707l.473-2.224c.04-.2.06-.343.06-.434 0-.289-.143-.434-.43-.434a.75.75 0 0 0-.473.19 1.715 1.715 0 0 0-.42.544 3.07 3.07 0 0 0-.28.806l-.327 1.552h-.786l.786-3.66h.614l-.07.678h.03c.184-.26.374-.45.57-.568a1.21 1.21 0 0 1 .636-.177c.298 0 .528.084.692.251.163.168.245.406.245.715 0 .152-.026.352-.077.6l-.457 2.16h-.786zM100.454 35.417c0 .445-.081.851-.243 1.216-.162.365-.385.646-.669.84-.283.196-.61.294-.978.294-.426 0-.765-.127-1.016-.38-.252-.252-.377-.595-.377-1.03 0-.44.08-.842.238-1.208.16-.366.382-.652.669-.856.287-.204.617-.306.993-.306.433 0 .772.128 1.016.384.245.256.367.604.367 1.046zm-.79-.034c0-.236-.054-.42-.163-.554-.109-.134-.265-.2-.467-.2a.777.777 0 0 0-.554.236c-.164.159-.29.372-.38.643-.09.27-.136.559-.136.865 0 .245.055.433.165.563.11.13.273.195.488.195.2 0 .38-.075.54-.224.16-.15.285-.36.374-.631.088-.27.133-.568.133-.893zM103.46 33.98c.489 0 .771.26.847.778h.027c.166-.256.356-.45.568-.581.212-.132.433-.197.662-.197.295 0 .52.084.675.253.154.169.231.407.231.713 0 .141-.024.34-.073.6l-.467 2.16h-.783l.477-2.224c.042-.21.063-.356.063-.44 0-.285-.135-.427-.403-.427-.24 0-.464.137-.672.41-.208.274-.359.637-.455 1.09l-.336 1.591h-.784l.477-2.224a2.2 2.2 0 0 0 .057-.42c0-.298-.13-.447-.39-.447-.245 0-.471.14-.679.42-.207.28-.361.653-.461 1.119l-.327 1.552h-.787l.787-3.66h.613l-.07.678h.03c.329-.496.72-.744 1.173-.744zM110.43 35.417c0 .445-.081.851-.243 1.216-.162.365-.385.646-.669.84a1.677 1.677 0 0 1-.978.294c-.426 0-.765-.127-1.016-.38-.251-.252-.377-.595-.377-1.03 0-.44.08-.842.239-1.208.159-.366.381-.652.668-.856.287-.204.618-.306.993-.306.433 0 .772.128 1.016.384.245.256.367.604.367 1.046zm-.79-.034c0-.236-.055-.42-.163-.554-.109-.134-.265-.2-.467-.2a.777.777 0 0 0-.555.236c-.163.159-.29.372-.38.643-.09.27-.135.559-.135.865 0 .245.055.433.165.563.11.13.273.195.488.195.2 0 .38-.075.54-.224.16-.15.284-.36.373-.631.089-.27.134-.568.134-.893zM113.73 37.707h-.787l.657-3.045a1.118 1.118 0 0 0-.234-.027.689.689 0 0 0-.396.106.982.982 0 0 0-.292.354c-.09.166-.217.489-.381.97-.194.554-.349.929-.467 1.123-.118.196-.253.34-.407.436a1.03 1.03 0 0 1-.553.142c-.142 0-.27-.022-.383-.066v-.652c.08.033.164.05.253.05a.423.423 0 0 0 .287-.108 1.13 1.13 0 0 0 .238-.328c.077-.147.19-.437.342-.869.162-.461.298-.791.408-.991.11-.2.232-.357.365-.47.134-.114.29-.198.47-.251.18-.055.398-.082.653-.082.347 0 .675.048.984.143l-.757 3.565zM117.629 34.047h.927l-1.713 1.823 1.086 1.837h-.899l-1.027-1.803-.38 1.803h-.787l.787-3.66h.776l-.366 1.734 1.596-1.734zM121.873 35.417c0 .445-.082.851-.244 1.216-.162.365-.384.646-.668.84a1.677 1.677 0 0 1-.978.294c-.427 0-.765-.127-1.016-.38-.252-.252-.377-.595-.377-1.03 0-.44.079-.842.238-1.208a2 2 0 0 1 .668-.856 1.67 1.67 0 0 1 .994-.306c.433 0 .772.128 1.016.384.245.256.367.604.367 1.046zm-.79-.034c0-.236-.055-.42-.164-.554-.109-.134-.264-.2-.466-.2a.777.777 0 0 0-.555.236c-.164.159-.29.372-.38.643-.09.27-.135.559-.135.865 0 .245.055.433.164.563.111.13.273.195.489.195.2 0 .38-.075.54-.224.159-.15.284-.36.373-.631.089-.27.134-.568.134-.893zM124.495 33.98c.407 0 .722.083.947.249.224.165.336.4.336.705 0 .485-.288.793-.866.923v.013c.429.115.643.367.643.758 0 .22-.06.417-.182.59a1.206 1.206 0 0 1-.528.406c-.231.1-.509.15-.833.15-.489 0-.863-.13-1.122-.387-.259-.257-.388-.627-.388-1.11 0-.44.082-.835.247-1.187.164-.352.397-.625.7-.819.302-.194.651-.29 1.046-.29zm-1.2 2.155l-.006.09v.092c0 .282.062.498.188.649.125.15.313.224.562.224.233 0 .415-.052.546-.157a.508.508 0 0 0 .197-.418.4.4 0 0 0-.188-.361c-.126-.08-.328-.12-.608-.12h-.691zm1.187-1.56a.967.967 0 0 0-.68.262c-.189.175-.327.418-.413.728h.71c.295 0 .521-.05.676-.152a.473.473 0 0 0 .234-.417.387.387 0 0 0-.132-.303c-.088-.078-.22-.117-.395-.117z" fill="#1E1C1C"/><path fill="none" d="M48.162 14.985h77.617v13.697H48.162z"/><path d="M57.613 28.5h-2.47l-3.384-6.562-1.406 6.562h-2.191l2.857-13.306h2.192l-1.378 6.353 5.761-6.353h2.57l-6.093 6.617 3.542 6.69zM71.587 20.109c0 1.693-.293 3.2-.879 4.523-.586 1.323-1.392 2.328-2.418 3.017-1.027.689-2.218 1.033-3.575 1.033-1.596 0-2.832-.453-3.708-1.36-.876-.907-1.313-2.162-1.313-3.764 0-1.62.303-3.099.91-4.437.608-1.337 1.439-2.361 2.493-3.071 1.054-.71 2.25-1.065 3.588-1.065 1.547 0 2.751.452 3.611 1.356.86.904 1.29 2.16 1.29 3.768zm-5.078-3.258c-.85 0-1.621.291-2.312.874-.69.582-1.231 1.39-1.623 2.425-.391 1.035-.587 2.165-.587 3.39 0 1.05.251 1.86.754 2.43.502.57 1.204.856 2.104.856.85 0 1.617-.29 2.298-.869.681-.58 1.211-1.383 1.59-2.412.38-1.029.57-2.168.57-3.418 0-1.031-.244-1.835-.731-2.412-.487-.576-1.175-.864-2.063-.864zM83.035 18.844c0 1.505-.522 2.66-1.567 3.467-1.045.807-2.502 1.21-4.37 1.21h-1.017l-1.064 4.98h-2.191l2.857-13.307h3.089c1.412 0 2.475.305 3.19.915.716.61 1.073 1.521 1.073 2.735zm-6.557 2.848h.87c1.097 0 1.947-.241 2.548-.723.6-.483.901-1.167.901-2.053 0-.661-.18-1.143-.54-1.447-.361-.303-.915-.455-1.66-.455h-1.101l-1.018 4.678zM83.664 28.5l2.857-13.306h2.257l-2.488 11.44h4.226l2.46-11.44h2.257l-2.46 11.44h4.198l2.47-11.44h2.228L98.812 28.5H83.664zM103.436 28.682c-.678 0-1.261-.09-1.748-.273v-1.975c.505.237 1.07.355 1.692.355.524 0 .991-.148 1.401-.446.41-.297.865-.852 1.365-1.666l-2.747-9.483h2.211l1.535 5.797c.24.971.391 1.642.453 2.012.308-.716.607-1.32.897-1.811l3.459-5.998h2.441l-5.946 9.711c-.66 1.08-1.226 1.869-1.697 2.366-.472.498-.97.857-1.494 1.079-.524.221-1.132.332-1.822.332zM122.921 28.5h-2.201l1.295-5.998h-5.235l-1.285 5.998h-2.192l2.858-13.306h2.191l-1.174 5.443h5.234l1.175-5.443h2.192L122.921 28.5z" fill="#3D2E29"/><defs><linearGradient id="a" x1="18.71" y1=".527" x2="18.71" y2="40.527" gradientUnits="userSpaceOnUse"><stop stop-color="#83B944"/><stop offset="1" stop-color="#007905"/></linearGradient><linearGradient id="b" x1="41.572" y1="4.455" x2="41.572" y2="18.965" gradientUnits="userSpaceOnUse"><stop stop-color="#83B944"/><stop offset="1" stop-color="#007905"/></linearGradient></defs></svg>