<svg width="166" height="53" viewBox="0 0 166 53" fill="none" xmlns="http://www.w3.org/2000/svg"><path fill="none" d="M.889 0h165v52.566h-165z"/><path fill="none" d="M.889 0h165v52.566h-165z"/><path fill="none" d="M.889 0h63.71v52.566H.889z"/><path d="M19.702 24.772c-1.993-.407-8.34-3.577-12.024-7.177-1.578-1.542-3.163-3.098-4.045-5.151A13.31 13.31 0 0 1 2.574 6.43C2.757 2.968 4.372.49 4.878 0c.018.05 5.408 14.238 22.755 24.224 1.661.956 6.896-1.184 9.654-2.462 2.758-1.274 7.17-2.46 9.744-.727 3.955 3.099 2.025 6.38 1.655 7.838-.367 1.46-.367 4.195-.367 4.195s-1.42-2.883-3.494-3.192c-3.456-.514-7.056.583-9.745 2.637-4.47 3.847-4.57 8.425-3.299 12.24 1.319 3.952 4.11 7.083 5.045 7.731-3.4.454-4.228-1.003-7.629-3.951-.185 2.794-2.391 3.951-2.391 3.951-2.389-3.746-3.431-7.255-3.818-10.198-.507-3.86.116-6.754.323-7.944-1.126 2.068-2.96 4.242-5.414 4.732-1.637.327-6.377-.31-8.63-5.004 4.143-.187 8.363-.542 10.787-2.722-2.834 1.23-9.143 2.63-13.694-.24-1.885-1.19-2.758-3.488-2.724-5.504 5.24 2.358 10.343 3.4 15.3 2.764-4.784-.337-15.152-1.213-17.731-8.154-.691-1.858-.117-5.858.466-6.54 6.516 6.813 16.1 11.109 18.031 11.098z" fill="url(#a)"/><path d="M64.105 5.162c.557 1.093.93 4.443-.517 6.016-1.036 1.125-4.294 3.317-8.83 4.96 4.796-1.445 6.623-2.499 9.416-4.618.138.65.038 2.209-1.586 3.52-1.965 1.588-7.266 2.97-7.603 3.065 3.12-.33 7.916-2.357 8.154-2.552 0 .787-.522 1.825-1.379 2.462-2.245 1.666-5.927 1.811-7.378 2.017 2.305.029 5-.342 5.896-.707-.113.346-1.13 1.27-1.906 1.734-1.749 1.04-3.207 1.608-5.008 2.299-.143.055-2.823.943-2.839.867-.001-.006-.898-4.33-4.666-4.786 6.11-3.031 15.557-9.868 18.246-14.277z" fill="url(#b)"/><path fill="none" d="M37.889 42h128v9h-128z"/><path d="M39.694 48.947c-.573 0-1.017-.154-1.332-.462-.316-.307-.473-.746-.473-1.318 0-.6.107-1.146.322-1.637.214-.492.516-.876.904-1.153.389-.277.83-.415 1.323-.415.48 0 .913.088 1.3.265l-.306.8c-.356-.153-.679-.23-.968-.23-.438 0-.803.223-1.095.667-.292.446-.438.996-.438 1.651 0 .322.082.57.245.744.164.174.39.261.68.261.215 0 .418-.032.606-.095.188-.064.377-.142.567-.235v.848a2.93 2.93 0 0 1-1.336.309zM45.19 43.962c.643 0 1.014.341 1.113 1.022h.035c.22-.336.468-.59.747-.764.28-.172.569-.258.87-.258.388 0 .684.11.887.333.202.221.304.534.304.937 0 .185-.032.447-.096.787l-.613 2.84h-1.03l.627-2.923c.055-.276.083-.468.083-.578 0-.375-.177-.562-.53-.562-.316 0-.61.18-.883.54-.273.36-.472.836-.598 1.43l-.442 2.093h-1.03l.627-2.923c.05-.238.075-.422.075-.553 0-.391-.171-.587-.513-.587-.321 0-.619.185-.892.553-.273.368-.475.858-.606 1.47l-.43 2.04h-1.033l1.034-4.81h.806l-.093.89h.04c.432-.65.946-.977 1.541-.977zM50.061 44.05h1.016l.276 2.309c.026.18.05.433.07.759.021.326.031.59.031.79h.026c.251-.624.449-1.078.592-1.362l1.283-2.497h1.112l-3.013 5.568c-.263.479-.55.829-.859 1.05-.309.222-.672.333-1.09.333a2.3 2.3 0 0 1-.627-.083V50.1c.22.047.402.07.548.07a.976.976 0 0 0 .587-.19c.175-.125.356-.35.543-.675l.223-.4-.718-4.855zM58.926 44.78c0 .783-.119 1.502-.356 2.16-.238.656-.565 1.155-.98 1.496-.414.34-.893.51-1.436.51-.546 0-.97-.16-1.27-.48-.3-.32-.45-.765-.45-1.333 0-.52.091-.998.275-1.436a2.44 2.44 0 0 1 .778-1.033c.334-.25.71-.376 1.127-.376.558 0 .975.26 1.25.778h.025l.009-.147v-.122c0-.673-.096-1.168-.287-1.483-.191-.316-.491-.475-.9-.475-.313 0-.616.066-.911.196l-.237-.787a3 3 0 0 1 .629-.183c.235-.043.456-.065.663-.065 1.38 0 2.072.927 2.072 2.78zm-2.689 3.332c.356 0 .667-.194.93-.583.265-.389.457-.922.577-1.6a1.298 1.298 0 0 0-.364-.618.847.847 0 0 0-.587-.226.99.99 0 0 0-.67.272c-.204.18-.364.43-.478.748a3.08 3.08 0 0 0-.17 1.046c0 .307.067.544.2.711.136.166.323.25.562.25zM61.458 44.05l-.565 2.653c-.09.409-.136.688-.136.84 0 .385.186.578.556.578.21 0 .42-.083.627-.248.207-.165.391-.4.552-.707.16-.306.285-.665.372-1.076l.434-2.04h1.02l-1.02 4.81h-.81l.092-.891h-.035c-.24.336-.49.583-.75.741-.26.159-.54.237-.84.237-.392 0-.694-.11-.907-.33-.214-.22-.32-.536-.32-.948 0-.183.017-.363.052-.542l.106-.537.538-2.54h1.034zM67.196 47.016a.771.771 0 0 0-.47.143c-.13.096-.248.248-.353.457-.22.423-.39.712-.515.865a1.196 1.196 0 0 1-.416.34 1.274 1.274 0 0 1-.55.109c-.207 0-.375-.026-.503-.078v-.831a.848.848 0 0 0 .28.056c.129 0 .238-.039.329-.117.09-.078.19-.224.297-.435.147-.273.282-.468.408-.587.125-.12.264-.203.416-.252-.508-.172-.762-.524-.762-1.057 0-.487.178-.872.532-1.155.355-.283.842-.424 1.461-.424h1.928l-1.021 4.81h-1.025l.407-1.844h-.443zm.083-2.184c-.274 0-.491.07-.65.209-.16.14-.24.332-.24.579 0 .217.072.377.213.478.142.102.334.152.576.152h.618l.297-1.418h-.814zM74.104 44.05l-.412 1.93h1.936l.416-1.93h1.02l-1.02 4.81h-1.033l.438-2.075H73.52l-.447 2.075H72.04l1.043-4.81h1.02zM79.027 48.947c-.412 0-.738-.147-.977-.442-.24-.294-.36-.708-.36-1.242 0-.585.102-1.133.305-1.644.203-.51.483-.914.839-1.211.356-.297.747-.446 1.174-.446.283 0 .527.066.731.197.205.132.364.325.478.577h.043l.272-.687h.789l-1.034 4.81h-.797l.092-.765h-.026c-.462.568-.971.853-1.53.853zm.377-.827c.239 0 .474-.112.705-.337.23-.225.42-.526.569-.902.149-.377.223-.789.223-1.236 0-.255-.068-.46-.206-.616a.686.686 0 0 0-.538-.232c-.248 0-.482.111-.701.335-.22.224-.395.527-.526.912a3.664 3.664 0 0 0-.197 1.193c0 .296.06.517.178.663.118.147.282.22.493.22zM86.009 43.962c.642 0 1.013.341 1.112 1.022h.035c.22-.336.468-.59.747-.764.28-.172.57-.258.87-.258.388 0 .684.11.887.333.203.221.304.534.304.937 0 .185-.032.447-.096.787l-.613 2.84h-1.03l.627-2.923c.055-.276.083-.468.083-.578 0-.375-.177-.562-.53-.562-.315 0-.61.18-.882.54-.273.36-.473.836-.599 1.43l-.442 2.093h-1.029l.626-2.923c.05-.238.075-.422.075-.553 0-.391-.171-.587-.513-.587-.321 0-.618.185-.891.553-.273.368-.475.858-.607 1.47l-.43 2.04H82.68l1.034-4.81h.806l-.092.89h.04c.43-.65.945-.977 1.54-.977zM93.105 47.016a.773.773 0 0 0-.471.143c-.13.096-.248.248-.353.457-.219.423-.39.712-.515.865a1.196 1.196 0 0 1-.416.34 1.274 1.274 0 0 1-.55.109c-.207 0-.375-.026-.503-.078v-.831a.847.847 0 0 0 .28.056c.129 0 .239-.039.33-.117.09-.078.19-.224.297-.435.146-.273.282-.468.407-.587a1.09 1.09 0 0 1 .416-.252c-.508-.172-.762-.524-.762-1.057 0-.487.178-.872.532-1.155.356-.283.842-.424 1.461-.424h1.928l-1.02 4.81H93.14l.407-1.844h-.442zm.083-2.184c-.275 0-.492.07-.65.209-.16.14-.24.332-.24.579 0 .217.072.377.213.478.141.102.333.152.576.152h.618l.297-1.418h-.814zM98.886 46.82h-.692c-.158.658-.444 1.177-.858 1.557-.415.38-.91.57-1.485.57-.199 0-.387-.02-.565-.061l.162-.818c.14.035.271.052.394.052.278 0 .525-.102.744-.309.22-.206.391-.487.515-.843.124-.357.186-.735.186-1.136 0-.34-.065-.597-.195-.772a.643.643 0 0 0-.55-.263c-.163 0-.334.03-.512.092v-.831c.222-.064.452-.096.692-.096.505 0 .898.161 1.178.483.28.322.42.779.42 1.37 0 .078-.007.173-.021.283h.735l.443-2.05h.968l-.447 2.05h.696c.161-.664.448-1.186.861-1.566.413-.38.905-.57 1.474-.57.242 0 .442.02.6.061l-.179.818a1.891 1.891 0 0 0-.412-.043 1.06 1.06 0 0 0-.717.284c-.214.19-.386.466-.517.827a3.45 3.45 0 0 0-.195 1.168c0 .333.062.59.186.772.125.181.308.272.55.272.146 0 .317-.034.513-.1v.84a2.485 2.485 0 0 1-.683.086c-.502 0-.894-.157-1.174-.472-.281-.314-.421-.77-.421-1.368v-.143l.009-.143h-.745l-.442 2.04h-.96l.444-2.041zM105.728 44.05l-.412 1.93h1.936l.417-1.93h1.02l-1.02 4.81h-1.034l.438-2.075h-1.927l-.447 2.075h-1.034l1.043-4.811h1.02zM111.129 44.05l-.438 2.03c.365-.072.671-.108.92-.108.444 0 .791.113 1.042.34.252.225.377.537.377.934 0 .52-.178.933-.532 1.24-.355.308-.842.462-1.461.462-.549 0-.957-.122-1.222-.366-.265-.243-.399-.584-.399-1.022 0-.25.032-.525.096-.826l.583-2.684h1.034zm.136 2.692c-.211 0-.456.028-.736.087l-.046.219c-.014.062-.023.12-.029.172-.005.052-.01.1-.013.146a2.122 2.122 0 0 0-.004.141c0 .45.228.674.683.674.272 0 .488-.075.649-.223.16-.15.241-.35.241-.603 0-.224-.063-.381-.189-.474-.125-.093-.311-.14-.556-.14zm3.228 2.118h-1.025l1.025-4.811h1.029l-1.029 4.81zM117.883 47.176l-1.336 1.684h-1.183l2.081-2.475-1.011-2.336h1.073l.631 1.622 1.257-1.622h1.2l-2.02 2.388 1.087 2.422h-1.078l-.701-1.683zM125.666 48.86l.622-2.923c.053-.262.079-.451.079-.57 0-.38-.189-.57-.565-.57-.211 0-.418.083-.622.248-.205.165-.388.404-.552.715a3.998 3.998 0 0 0-.368 1.06l-.429 2.04h-1.034l1.034-4.811h.806l-.093.892h.04c.243-.343.492-.591.749-.747a1.59 1.59 0 0 1 .837-.232c.391 0 .694.11.909.33.214.22.321.533.321.94 0 .2-.033.462-.1.787l-.601 2.84h-1.033zM132.608 45.85c0 .585-.106 1.119-.319 1.598-.213.48-.506.849-.879 1.105-.371.257-.8.385-1.285.385-.56 0-1.006-.166-1.336-.498-.33-.331-.495-.783-.495-1.355 0-.577.105-1.106.314-1.587.209-.481.501-.856.878-1.124a2.192 2.192 0 0 1 1.305-.403c.569 0 1.015.168 1.336.505.321.336.481.794.481 1.374zm-1.037-.044c0-.31-.072-.553-.215-.728-.143-.176-.348-.263-.613-.263a1.02 1.02 0 0 0-.729.31c-.215.208-.382.49-.5.844a3.589 3.589 0 0 0-.177 1.138c0 .322.072.568.216.74.145.17.359.256.642.256.263 0 .499-.098.709-.295.21-.197.374-.474.491-.83.117-.355.176-.745.176-1.172zM136.56 43.962c.642 0 1.013.341 1.112 1.022h.035c.219-.336.468-.59.747-.764.279-.172.569-.258.87-.258.388 0 .684.11.887.333.203.221.304.534.304.937 0 .185-.032.447-.096.787l-.613 2.84h-1.029l.626-2.923c.055-.276.083-.468.083-.578 0-.375-.177-.562-.53-.562-.315 0-.61.18-.882.54-.274.36-.473.836-.599 1.43l-.442 2.093h-1.029l.626-2.923c.05-.238.075-.422.075-.553 0-.391-.171-.587-.513-.587-.321 0-.618.185-.891.553-.273.368-.476.858-.607 1.47l-.429 2.04h-1.034l1.034-4.81h.806l-.092.89h.039c.432-.65.946-.977 1.542-.977zM145.718 45.85c0 .585-.107 1.119-.319 1.598-.213.48-.506.849-.879 1.105a2.206 2.206 0 0 1-1.285.385c-.561 0-1.006-.166-1.336-.498-.33-.331-.495-.783-.495-1.355 0-.577.105-1.106.313-1.587.21-.481.502-.856.879-1.124a2.19 2.19 0 0 1 1.305-.403c.569 0 1.014.168 1.336.505.321.336.481.794.481 1.374zm-1.038-.044c0-.31-.072-.553-.214-.728-.143-.176-.348-.263-.614-.263-.271 0-.515.103-.729.31-.215.208-.381.49-.499.844a3.561 3.561 0 0 0-.178 1.138c0 .322.073.568.217.74.144.17.358.256.641.256.263 0 .5-.098.71-.295.21-.197.374-.474.49-.83.117-.355.176-.745.176-1.172zM150.055 48.86h-1.034l.862-4.002a1.44 1.44 0 0 0-.306-.035.906.906 0 0 0-.521.14c-.138.093-.265.247-.384.465-.117.217-.285.642-.501 1.274-.254.728-.458 1.22-.613 1.476a1.663 1.663 0 0 1-.534.572 1.356 1.356 0 0 1-.727.187c-.187 0-.355-.028-.504-.087v-.857a.865.865 0 0 0 .333.066.552.552 0 0 0 .376-.142c.109-.094.213-.238.314-.43.101-.194.25-.574.449-1.142.213-.606.392-1.04.537-1.303.144-.262.304-.468.479-.617.175-.15.381-.26.618-.33a3 3 0 0 1 .858-.108c.456 0 .887.063 1.292.187l-.994 4.686zM155.179 44.05h1.218l-2.251 2.396 1.428 2.414h-1.183l-1.349-2.37-.5 2.37h-1.033l1.033-4.81h1.021l-.482 2.279 2.098-2.28zM160.755 45.85c0 .585-.106 1.119-.319 1.598-.213.48-.506.849-.879 1.105-.371.257-.8.385-1.285.385-.56 0-1.006-.166-1.336-.498-.33-.331-.495-.783-.495-1.355 0-.577.105-1.106.314-1.587.209-.481.501-.856.878-1.124a2.192 2.192 0 0 1 1.305-.403c.569 0 1.015.168 1.336.505.321.336.481.794.481 1.374zm-1.038-.044c0-.31-.072-.553-.214-.728-.143-.176-.348-.263-.613-.263-.272 0-.515.103-.73.31-.214.208-.381.49-.499.844a3.561 3.561 0 0 0-.178 1.138c0 .322.073.568.217.74.144.17.359.256.641.256.263 0 .5-.098.71-.295.21-.197.374-.474.491-.83.117-.355.175-.745.175-1.172zM164.202 43.962c.535 0 .949.11 1.244.327.296.217.443.526.443.926 0 .638-.38 1.042-1.139 1.214v.017c.563.15.845.483.845.996 0 .29-.079.548-.239.774-.159.227-.39.405-.694.535-.303.13-.668.196-1.095.196-.642 0-1.133-.17-1.473-.507-.341-.338-.511-.824-.511-1.46 0-.576.108-1.096.324-1.56.216-.462.523-.82.92-1.076a2.486 2.486 0 0 1 1.375-.382zm-1.576 2.832l-.009.117v.122c0 .371.082.655.248.852.164.198.411.296.738.296.306 0 .546-.069.718-.206a.668.668 0 0 0 .259-.55.524.524 0 0 0-.248-.475c-.165-.104-.431-.157-.799-.157h-.907zm1.559-2.049c-.348 0-.646.115-.894.344-.247.229-.429.548-.543.957h.933c.388 0 .685-.067.89-.2a.622.622 0 0 0 .306-.549.51.51 0 0 0-.173-.398c-.115-.103-.289-.154-.519-.154z" fill="#1E1C1C"/><path fill="none" d="M63.889 19h102v18h-102z"/><path d="M76.31 36.76h-3.246l-4.448-8.622-1.847 8.623h-2.88l3.755-17.486h2.88l-1.81 8.348 7.57-8.348h3.379l-8.009 8.695 4.655 8.79zM94.672 25.733c0 2.225-.384 4.206-1.154 5.945-.77 1.738-1.83 3.06-3.178 3.964-1.35.905-2.915 1.358-4.697 1.358-2.098 0-3.723-.596-4.874-1.788-1.15-1.192-1.726-2.84-1.726-4.946 0-2.128.4-4.072 1.198-5.83.798-1.759 1.89-3.104 3.275-4.037C84.901 19.466 86.473 19 88.231 19c2.034 0 3.616.594 4.746 1.782 1.13 1.188 1.695 2.838 1.695 4.951zM88 21.451c-1.118 0-2.13.383-3.038 1.149-.908.765-1.619 1.828-2.133 3.187-.514 1.36-.771 2.846-.771 4.456 0 1.38.33 2.444.99 3.194.66.749 1.582 1.124 2.765 1.124 1.118 0 2.125-.381 3.02-1.142.895-.762 1.592-1.818 2.09-3.17.499-1.352.748-2.849.748-4.492 0-1.355-.32-2.412-.96-3.17-.64-.757-1.544-1.136-2.71-1.136zM109.718 24.07c0 1.978-.687 3.497-2.06 4.558-1.373 1.06-3.288 1.59-5.742 1.59h-1.337l-1.398 6.543h-2.88l3.755-17.486h4.059c1.855 0 3.253.4 4.193 1.202.94.8 1.41 2 1.41 3.594zm-8.617 3.744h1.143c1.442 0 2.558-.317 3.348-.95.79-.635 1.185-1.534 1.185-2.698 0-.87-.238-1.503-.711-1.902-.474-.399-1.201-.598-2.182-.598h-1.446l-1.337 6.148zM110.544 36.76l3.755-17.485h2.965l-3.269 15.034h5.554l3.233-15.034h2.965l-3.232 15.034h5.517l3.245-15.034h2.928l-3.754 17.486h-19.907zM136.527 37c-.891 0-1.657-.12-2.297-.359v-2.595c.664.31 1.406.466 2.224.466.689 0 1.302-.195 1.841-.586.539-.39 1.137-1.12 1.793-2.189l-3.609-12.463h2.905l2.017 7.62c.316 1.275.514 2.156.595 2.642.405-.94.798-1.734 1.179-2.38l4.546-7.882h3.208l-7.814 12.762c-.867 1.42-1.611 2.456-2.23 3.11-.62.654-1.274 1.126-1.963 1.417-.689.291-1.487.437-2.395.437zM162.133 36.76h-2.892l1.702-7.881h-6.879l-1.689 7.882h-2.881l3.756-17.486h2.88l-1.544 7.152h6.879l1.544-7.152h2.88l-3.756 17.486z" fill="#3D2E29"/><defs><linearGradient id="a" x1="25.185" x2="25.185" y2="52.566" gradientUnits="userSpaceOnUse"><stop stop-color="#83B944"/><stop offset="1" stop-color="#007905"/></linearGradient><linearGradient id="b" x1="55.229" y1="5.162" x2="55.229" y2="24.23" gradientUnits="userSpaceOnUse"><stop stop-color="#83B944"/><stop offset="1" stop-color="#007905"/></linearGradient></defs></svg>