<svg width="165" height="53" viewBox="0 0 165 53" fill="none" xmlns="http://www.w3.org/2000/svg"><path fill="none" d="M0 0h165v52.566H0z"/><path fill="none" d="M0 0h165v52.566H0z"/><path fill="none" d="M0 0h63.71v52.566H0z"/><path d="M18.814 24.772c-1.994-.407-8.34-3.577-12.025-7.177-1.578-1.542-3.163-3.098-4.044-5.151a13.309 13.309 0 0 1-1.06-6.014C1.87 2.968 3.484.49 3.99 0c.019.05 5.408 14.238 22.755 24.224 1.661.956 6.896-1.184 9.654-2.462 2.758-1.274 7.171-2.46 9.744-.727 3.955 3.099 2.025 6.38 1.655 7.838-.367 1.46-.367 4.195-.367 4.195s-1.42-2.883-3.494-3.192c-3.456-.514-7.055.583-9.745 2.637-4.47 3.847-4.57 8.425-3.298 12.24 1.318 3.952 4.11 7.083 5.044 7.731-3.4.454-4.228-1.003-7.629-3.951-.184 2.794-2.391 3.951-2.391 3.951-2.389-3.746-3.431-7.255-3.817-10.198-.508-3.86.116-6.754.322-7.944-1.126 2.068-2.96 4.242-5.413 4.732-1.638.327-6.377-.31-8.63-5.004 4.142-.187 8.362-.542 10.787-2.722-2.835 1.23-9.144 2.63-13.695-.24-1.885-1.19-2.758-3.488-2.723-5.504 5.24 2.358 10.343 3.4 15.299 2.764-4.784-.337-15.152-1.213-17.731-8.154-.69-1.858-.117-5.858.467-6.54 6.515 6.813 16.1 11.109 18.03 11.098z" fill="url(#a)"/><path d="M63.216 5.162c.557 1.093.93 4.443-.517 6.016-1.036 1.125-4.294 3.317-8.83 4.96 4.796-1.445 6.623-2.499 9.416-4.618.138.65.038 2.209-1.586 3.52-1.964 1.588-7.266 2.97-7.603 3.065 3.121-.33 7.916-2.357 8.155-2.552 0 .787-.523 1.825-1.38 2.462-2.245 1.666-5.926 1.811-7.377 2.017 2.304.029 4.999-.342 5.895-.707-.113.346-1.13 1.27-1.906 1.734-1.748 1.04-3.207 1.608-5.007 2.299-.144.055-2.824.943-2.84.867 0-.006-.898-4.33-4.665-4.786 6.11-3.031 15.556-9.868 18.245-14.277z" fill="url(#b)"/><path fill="none" d="M37 42h128v9H37z"/><path d="M38.805 48.947c-.572 0-1.016-.154-1.332-.462-.316-.307-.473-.746-.473-1.318 0-.6.108-1.146.322-1.637.215-.492.516-.876.905-1.153.388-.277.829-.415 1.322-.415.48 0 .913.088 1.301.265l-.307.8c-.356-.153-.678-.23-.968-.23-.438 0-.803.223-1.095.667-.292.446-.438.996-.438 1.651 0 .322.082.57.246.744.164.174.39.261.679.261.216 0 .418-.032.606-.095.189-.064.377-.142.568-.235v.848a2.93 2.93 0 0 1-1.336.309zM44.302 43.962c.642 0 1.013.341 1.112 1.022h.035c.22-.336.468-.59.747-.764.28-.172.57-.258.87-.258.388 0 .684.11.887.333.203.221.304.534.304.937 0 .185-.032.447-.096.787l-.613 2.84h-1.03l.627-2.923c.055-.276.083-.468.083-.578 0-.375-.177-.562-.53-.562-.315 0-.61.18-.882.54-.274.36-.473.836-.599 1.43l-.442 2.093h-1.03l.627-2.923c.05-.238.075-.422.075-.553 0-.391-.171-.587-.513-.587-.321 0-.618.185-.892.553-.272.368-.474.858-.606 1.47l-.43 2.04h-1.033l1.034-4.81h.806l-.092.89h.04c.431-.65.945-.977 1.54-.977zM49.173 44.05h1.016l.276 2.309c.026.18.05.433.07.759.02.326.03.59.03.79h.027c.25-.624.448-1.078.59-1.362l1.284-2.497h1.113l-3.014 5.568c-.263.479-.55.829-.858 1.05a1.82 1.82 0 0 1-1.091.333 2.3 2.3 0 0 1-.626-.083V50.1c.219.047.4.07.547.07a.976.976 0 0 0 .587-.19c.175-.125.356-.35.543-.675l.224-.4-.718-4.855zM58.038 44.78c0 .783-.12 1.502-.357 2.16-.238.656-.565 1.155-.979 1.496-.415.34-.893.51-1.436.51-.546 0-.97-.16-1.27-.48-.301-.32-.452-.765-.452-1.333 0-.52.093-.998.277-1.436a2.44 2.44 0 0 1 .777-1.033c.334-.25.71-.376 1.128-.376.558 0 .974.26 1.248.778h.027l.008-.147v-.122c0-.673-.095-1.168-.287-1.483-.191-.316-.49-.475-.9-.475-.313 0-.616.066-.91.196l-.237-.787a3 3 0 0 1 .628-.183c.235-.043.456-.065.664-.065 1.38 0 2.07.927 2.07 2.78zm-2.69 3.332c.357 0 .667-.194.931-.583.264-.389.456-.922.576-1.6a1.298 1.298 0 0 0-.364-.618.847.847 0 0 0-.587-.226.99.99 0 0 0-.67.272c-.204.18-.364.43-.477.748-.114.317-.171.666-.171 1.046 0 .307.067.544.201.711.135.166.322.25.561.25zM60.57 44.05l-.566 2.653c-.09.409-.135.688-.135.84 0 .385.185.578.556.578.21 0 .419-.083.626-.248.208-.165.392-.4.552-.707.16-.306.285-.665.372-1.076l.434-2.04h1.02l-1.02 4.81h-.81l.092-.891h-.035c-.24.336-.49.583-.75.741-.26.159-.54.237-.84.237-.392 0-.694-.11-.907-.33-.214-.22-.32-.536-.32-.948 0-.183.018-.363.053-.542l.105-.537.538-2.54h1.035zM66.307 47.016a.772.772 0 0 0-.47.143c-.13.096-.248.248-.353.457-.219.423-.39.712-.514.865a1.196 1.196 0 0 1-.417.34 1.274 1.274 0 0 1-.55.109c-.207 0-.374-.026-.503-.078v-.831a.848.848 0 0 0 .28.056c.129 0 .239-.039.33-.117.09-.078.19-.224.297-.435.146-.273.282-.468.407-.587.126-.12.264-.203.417-.252-.509-.172-.763-.524-.763-1.057 0-.487.178-.872.532-1.155.356-.283.842-.424 1.462-.424h1.927l-1.02 4.81h-1.026l.408-1.844h-.444zm.084-2.184c-.275 0-.492.07-.65.209-.16.14-.24.332-.24.579 0 .217.071.377.213.478.141.102.333.152.575.152h.618l.298-1.418h-.814zM73.215 44.05l-.412 1.93h1.936l.416-1.93h1.021l-1.02 4.81h-1.034l.438-2.075h-1.928l-.447 2.075h-1.033l1.042-4.81h1.021zM78.138 48.947c-.412 0-.738-.147-.977-.442-.24-.294-.36-.708-.36-1.242 0-.585.102-1.133.305-1.644.203-.51.483-.914.84-1.211.356-.297.747-.446 1.173-.446.283 0 .527.066.732.197.204.132.363.325.477.577h.044l.271-.687h.789l-1.034 4.81h-.797l.092-.765h-.026c-.462.568-.971.853-1.529.853zm.377-.827c.24 0 .475-.112.705-.337.23-.225.42-.526.57-.902.148-.377.222-.789.222-1.236 0-.255-.068-.46-.205-.616a.685.685 0 0 0-.539-.232c-.248 0-.482.111-.7.335-.22.224-.395.527-.526.912a3.664 3.664 0 0 0-.198 1.193c0 .296.06.517.178.663.118.147.282.22.493.22zM85.12 43.962c.642 0 1.013.341 1.113 1.022h.035a2.44 2.44 0 0 1 .746-.764c.28-.172.57-.258.87-.258.388 0 .684.11.887.333.203.221.305.534.305.937 0 .185-.033.447-.097.787l-.613 2.84h-1.03l.627-2.923c.056-.276.083-.468.083-.578 0-.375-.177-.562-.53-.562-.315 0-.61.18-.882.54-.273.36-.473.836-.598 1.43l-.443 2.093h-1.029l.627-2.923c.05-.238.074-.422.074-.553 0-.391-.17-.587-.512-.587-.322 0-.619.185-.892.553-.273.368-.475.858-.607 1.47l-.429 2.04h-1.034l1.034-4.81h.806l-.092.89h.04c.431-.65.945-.977 1.541-.977zM92.216 47.016a.773.773 0 0 0-.47.143c-.131.096-.248.248-.354.457-.219.423-.39.712-.514.865a1.196 1.196 0 0 1-.416.34 1.274 1.274 0 0 1-.55.109c-.208 0-.375-.026-.504-.078v-.831a.847.847 0 0 0 .28.056c.13 0 .239-.039.33-.117.09-.078.19-.224.297-.435.146-.273.282-.468.407-.587.126-.12.265-.203.417-.252-.508-.172-.762-.524-.762-1.057 0-.487.177-.872.532-1.155.355-.283.841-.424 1.46-.424h1.928l-1.02 4.81H92.25l.408-1.844h-.443zm.083-2.184c-.274 0-.492.07-.65.209-.16.14-.24.332-.24.579 0 .217.072.377.213.478.142.102.334.152.576.152h.618l.298-1.418h-.815zM97.997 46.82h-.692c-.157.658-.444 1.177-.858 1.557-.414.38-.91.57-1.485.57-.198 0-.387-.02-.565-.061l.162-.818c.14.035.272.052.394.052.278 0 .526-.102.745-.309.219-.206.39-.487.514-.843.125-.357.187-.735.187-1.136 0-.34-.065-.597-.196-.772a.643.643 0 0 0-.55-.263c-.163 0-.334.03-.512.092v-.831c.222-.064.453-.096.692-.096.505 0 .898.161 1.178.483.281.322.42.779.42 1.37 0 .078-.006.173-.021.283h.736l.442-2.05h.968l-.447 2.05h.697c.16-.664.448-1.186.861-1.566.413-.38.904-.57 1.473-.57.243 0 .443.02.6.061l-.179.818a1.885 1.885 0 0 0-.412-.043c-.263 0-.501.094-.716.284-.214.19-.387.466-.517.827-.13.361-.195.75-.195 1.168 0 .333.062.59.186.772.124.181.307.272.55.272.146 0 .317-.034.512-.1v.84a2.485 2.485 0 0 1-.683.086c-.502 0-.893-.157-1.174-.472-.28-.314-.42-.77-.42-1.368v-.143l.008-.143h-.744l-.443 2.04h-.96l.444-2.041zM104.839 44.05l-.411 1.93h1.936l.416-1.93h1.021l-1.021 4.81h-1.034l.438-2.075h-1.927l-.447 2.075h-1.034l1.043-4.811h1.02zM110.24 44.05l-.438 2.03c.365-.072.672-.108.92-.108.444 0 .791.113 1.043.34.251.225.376.537.376.934 0 .52-.177.933-.532 1.24-.355.308-.841.462-1.461.462-.549 0-.956-.122-1.222-.366-.265-.243-.398-.584-.398-1.022 0-.25.032-.525.096-.826l.582-2.684h1.034zm.136 2.692c-.211 0-.456.028-.736.087l-.046.219a2.133 2.133 0 0 0-.046.46c0 .449.228.673.683.673.272 0 .488-.075.649-.223.16-.15.241-.35.241-.603 0-.224-.063-.381-.189-.474-.125-.093-.311-.14-.556-.14zm3.228 2.118h-1.025l1.025-4.811h1.029l-1.029 4.81zM116.994 47.176l-1.336 1.684h-1.182l2.08-2.475-1.011-2.336h1.073l.631 1.622 1.257-1.622h1.2l-2.019 2.388 1.086 2.422h-1.078l-.701-1.683zM124.777 48.86l.622-2.923c.053-.262.079-.451.079-.57 0-.38-.188-.57-.565-.57-.211 0-.418.083-.622.248-.204.165-.388.404-.552.715a4.034 4.034 0 0 0-.368 1.06l-.429 2.04h-1.034l1.034-4.811h.806l-.092.892h.039c.243-.343.492-.591.749-.747a1.59 1.59 0 0 1 .837-.232c.391 0 .694.11.909.33.214.22.322.533.322.94 0 .2-.034.462-.101.787l-.6 2.84h-1.034zM131.72 45.85c0 .585-.107 1.119-.32 1.598-.213.48-.506.849-.878 1.105a2.206 2.206 0 0 1-1.285.385c-.561 0-1.006-.166-1.336-.498-.33-.331-.495-.783-.495-1.355 0-.577.104-1.106.313-1.587.209-.481.501-.856.878-1.124a2.192 2.192 0 0 1 1.305-.403c.57 0 1.015.168 1.336.505.322.336.482.794.482 1.374zm-1.038-.044c0-.31-.072-.553-.214-.728-.144-.176-.348-.263-.614-.263-.271 0-.515.103-.729.31-.215.208-.381.49-.499.844a3.561 3.561 0 0 0-.178 1.138c0 .322.073.568.217.74.144.17.358.256.641.256.263 0 .5-.098.71-.295.21-.197.374-.474.49-.83.117-.355.176-.745.176-1.172zM135.671 43.962c.642 0 1.013.341 1.113 1.022h.035c.219-.336.467-.59.746-.764.28-.172.569-.258.87-.258.388 0 .684.11.887.333.203.221.304.534.304.937 0 .185-.032.447-.096.787l-.613 2.84h-1.029l.626-2.923c.056-.276.083-.468.083-.578 0-.375-.177-.562-.53-.562-.315 0-.609.18-.882.54-.273.36-.473.836-.598 1.43l-.443 2.093h-1.029l.626-2.923c.05-.238.075-.422.075-.553 0-.391-.171-.587-.513-.587-.321 0-.618.185-.891.553-.273.368-.475.858-.607 1.47l-.429 2.04h-1.034l1.034-4.81h.806l-.092.89h.04c.431-.65.945-.977 1.541-.977zM144.83 45.85c0 .585-.107 1.119-.32 1.598-.213.48-.506.849-.878 1.105a2.207 2.207 0 0 1-1.286.385c-.56 0-1.005-.166-1.335-.498-.331-.331-.495-.783-.495-1.355 0-.577.104-1.106.313-1.587.209-.481.501-.856.878-1.124a2.192 2.192 0 0 1 1.305-.403c.57 0 1.015.168 1.336.505.321.336.482.794.482 1.374zm-1.038-.044c0-.31-.072-.553-.215-.728-.143-.176-.348-.263-.613-.263a1.02 1.02 0 0 0-.729.31c-.215.208-.382.49-.5.844a3.589 3.589 0 0 0-.178 1.138c0 .322.073.568.217.74.145.17.359.256.642.256.263 0 .499-.098.709-.295.21-.197.374-.474.491-.83.117-.355.176-.745.176-1.172zM149.166 48.86h-1.034l.863-4.002a1.449 1.449 0 0 0-.307-.035.91.91 0 0 0-.521.14c-.137.093-.265.247-.383.465-.118.217-.285.642-.501 1.274-.254.728-.459 1.22-.614 1.476a1.654 1.654 0 0 1-.534.572 1.356 1.356 0 0 1-.727.187c-.187 0-.355-.028-.504-.087v-.857a.865.865 0 0 0 .333.066.554.554 0 0 0 .377-.142c.108-.094.212-.238.313-.43.101-.194.25-.574.449-1.142.213-.606.392-1.04.537-1.303.144-.262.304-.468.479-.617.176-.15.382-.26.618-.33.237-.072.523-.108.858-.108.456 0 .887.063 1.293.187l-.995 4.686zM154.291 44.05h1.217l-2.251 2.396 1.428 2.414h-1.183l-1.349-2.37-.499 2.37h-1.034l1.034-4.81h1.02l-.482 2.279 2.099-2.28zM159.867 45.85c0 .585-.107 1.119-.32 1.598-.213.48-.506.849-.878 1.105a2.207 2.207 0 0 1-1.286.385c-.56 0-1.006-.166-1.335-.498-.331-.331-.495-.783-.495-1.355 0-.577.104-1.106.313-1.587.209-.481.501-.856.878-1.124a2.192 2.192 0 0 1 1.305-.403c.569 0 1.015.168 1.336.505.321.336.482.794.482 1.374zm-1.039-.044c0-.31-.071-.553-.214-.728-.143-.176-.348-.263-.613-.263a1.02 1.02 0 0 0-.729.31c-.215.208-.382.49-.5.844a3.589 3.589 0 0 0-.178 1.138c0 .322.073.568.217.74.145.17.359.256.642.256.263 0 .499-.098.709-.295.21-.197.374-.474.491-.83.117-.355.175-.745.175-1.172zM163.314 43.962c.534 0 .948.11 1.244.327.295.217.442.526.442.926 0 .638-.38 1.042-1.139 1.214v.017c.564.15.846.483.846.996 0 .29-.08.548-.239.774a1.59 1.59 0 0 1-.694.535c-.304.13-.669.196-1.096.196-.642 0-1.133-.17-1.473-.507-.341-.338-.511-.824-.511-1.46 0-.576.108-1.096.324-1.56.217-.462.523-.82.92-1.076.397-.255.856-.382 1.376-.382zm-1.577 2.832l-.009.117v.122c0 .371.083.655.248.852.165.198.411.296.738.296.306 0 .546-.069.718-.206a.668.668 0 0 0 .259-.55.524.524 0 0 0-.248-.475c-.164-.104-.431-.157-.799-.157h-.907zm1.559-2.049c-.348 0-.645.115-.893.344-.248.229-.43.548-.543.957h.933c.388 0 .685-.067.889-.2a.622.622 0 0 0 .306-.549.51.51 0 0 0-.172-.398c-.116-.103-.29-.154-.52-.154z" fill="#1E1C1C"/><path fill="none" d="M63 19h102v18H63z"/><path d="M75.42 36.76h-3.245l-4.447-8.622-1.848 8.623H63l3.755-17.486h2.88l-1.81 8.348 7.57-8.348h3.38l-8.01 8.695 4.656 8.79zM93.784 25.733c0 2.225-.385 4.206-1.155 5.945-.77 1.738-1.829 3.06-3.178 3.964-1.349.905-2.915 1.358-4.697 1.358-2.098 0-3.723-.596-4.873-1.788-1.15-1.192-1.726-2.84-1.726-4.946 0-2.128.399-4.072 1.197-5.83.798-1.759 1.89-3.104 3.275-4.037C84.013 19.466 85.585 19 87.342 19c2.034 0 3.616.594 4.746 1.782 1.13 1.188 1.696 2.838 1.696 4.951zm-6.672-4.282c-1.119 0-2.131.383-3.039 1.149-.907.765-1.618 1.828-2.133 3.187-.514 1.36-.771 2.846-.771 4.456 0 1.38.33 2.444.99 3.194.66.749 1.582 1.124 2.765 1.124 1.118 0 2.125-.381 3.02-1.142.895-.762 1.592-1.818 2.09-3.17.499-1.352.748-2.849.748-4.492 0-1.355-.32-2.412-.96-3.17-.64-.757-1.544-1.136-2.71-1.136zM108.829 24.07c0 1.978-.687 3.497-2.06 4.558-1.373 1.06-3.288 1.59-5.742 1.59H99.69l-1.398 6.543h-2.88l3.755-17.486h4.06c1.855 0 3.253.4 4.192 1.202.94.8 1.41 2 1.41 3.594zm-8.617 3.744h1.143c1.442 0 2.558-.317 3.348-.95.79-.635 1.185-1.534 1.185-2.698 0-.87-.237-1.503-.711-1.902s-1.201-.598-2.181-.598h-1.447l-1.337 6.148zM109.655 36.76l3.755-17.485h2.966l-3.269 15.034h5.554l3.232-15.034h2.966l-3.233 15.034h5.517l3.245-15.034h2.929l-3.755 17.486h-19.907zM135.638 37c-.891 0-1.656-.12-2.296-.359v-2.595c.664.31 1.405.466 2.224.466.688 0 1.302-.195 1.841-.586.539-.39 1.136-1.12 1.793-2.189l-3.61-12.463h2.905l2.017 7.62c.316 1.275.514 2.156.596 2.642.405-.94.798-1.734 1.178-2.38l4.546-7.882h3.208l-7.814 12.762c-.867 1.42-1.61 2.456-2.23 3.11-.62.654-1.274 1.126-1.963 1.417-.689.291-1.487.437-2.395.437zM161.245 36.76h-2.892l1.701-7.881h-6.879l-1.689 7.882h-2.88l3.755-17.486h2.88l-1.543 7.152h6.878l1.544-7.152H165l-3.755 17.486z" fill="#3D2E29"/><defs><linearGradient id="a" x1="24.297" x2="24.297" y2="52.566" gradientUnits="userSpaceOnUse"><stop stop-color="#83B944"/><stop offset="1" stop-color="#007905"/></linearGradient><linearGradient id="b" x1="54.34" y1="5.162" x2="54.34" y2="24.23" gradientUnits="userSpaceOnUse"><stop stop-color="#83B944"/><stop offset="1" stop-color="#007905"/></linearGradient></defs></svg>