<svg width="34" height="27" viewBox="0 0 34 27" fill="none" xmlns="http://www.w3.org/2000/svg">
<path d="M24.375 10C24.375 8.32031 23.8281 6.75781 22.7344 5.3125C21.6406 3.86719 20.1562 2.73438 18.2812 1.91406C16.4453 1.05469 14.4141 0.625 12.1875 0.625C9.96094 0.625 7.91016 1.05469 6.03516 1.91406C4.19922 2.73438 2.73438 3.86719 1.64062 5.3125C0.546875 6.75781 0 8.32031 0 10C0 11.9922 0.742187 13.7891 2.22656 15.3906C1.91406 16.1328 1.46484 16.875 0.878906 17.6172C0.566406 18.0859 0.332031 18.3984 0.175781 18.5547C0.0195312 18.7109 -0.0195313 18.8867 0.0585938 19.082C0.136719 19.2773 0.273438 19.375 0.46875 19.375C2.26562 19.375 4.00391 18.8867 5.68359 17.9102C7.67578 18.8867 9.84375 19.375 12.1875 19.375C14.4141 19.375 16.4453 18.9648 18.2812 18.1445C20.1562 17.2852 21.6406 16.1328 22.7344 14.6875C23.8281 13.2422 24.375 11.6797 24.375 10ZM31.5234 22.8906C33.0078 21.2891 33.75 19.5117 33.75 17.5586C33.75 15.6055 33.0469 13.8477 31.6406 12.2852C30.2344 10.6836 28.418 9.53125 26.1914 8.82812C26.2305 9.17969 26.25 9.57031 26.25 10C26.25 12.0312 25.6055 13.9062 24.3164 15.625C23.0664 17.3438 21.3672 18.7109 19.2188 19.7266C17.0703 20.7422 14.7266 21.25 12.1875 21.25C11.6406 21.25 11.0156 21.2109 10.3125 21.1328C11.25 22.8516 12.7344 24.2383 14.7656 25.293C16.7969 26.3477 19.0625 26.875 21.5625 26.875C23.9062 26.875 26.0742 26.3867 28.0664 25.4102C29.7461 26.3867 31.4844 26.875 33.2812 26.875C33.4766 26.875 33.6133 26.7773 33.6914 26.582C33.7695 26.3867 33.7305 26.2109 33.5742 26.0547C33.418 25.8984 33.1836 25.6055 32.8711 25.1758C32.2852 24.3945 31.8359 23.6328 31.5234 22.8906Z" fill="#00BAE2"/>
</svg>
