<svg width="17" height="13" viewBox="0 0 17 13" fill="none" xmlns="http://www.w3.org/2000/svg">
<path d="M15.5469 10.3047C16.349 9.52083 16.75 8.6276 16.75 7.625C16.75 6.91406 16.5404 6.2487 16.1211 5.62891C15.7018 5.00911 15.1185 4.4987 14.3711 4.09766C13.6419 3.67839 12.8307 3.41406 11.9375 3.30469C11.5 2.5026 10.8073 1.85547 9.85938 1.36328C8.91146 0.871094 7.85417 0.625 6.6875 0.625C5.64844 0.625 4.69141 0.825521 3.81641 1.22656C2.95964 1.60938 2.27604 2.13802 1.76562 2.8125C1.25521 3.48698 1 4.21615 1 5C1 6.0026 1.40104 6.89583 2.20312 7.67969C2.02083 8.02604 1.80208 8.38151 1.54688 8.74609C1.38281 8.96484 1.25521 9.11979 1.16406 9.21094C1.09115 9.28385 1.03646 9.38411 1 9.51172C0.981771 9.63932 1 9.75781 1.05469 9.86719C1.10938 9.97656 1.18229 10.0677 1.27344 10.1406C1.38281 10.2135 1.5013 10.25 1.62891 10.25C2.83203 10.25 3.97135 9.89453 5.04688 9.18359C5.30208 9.23828 5.56641 9.28385 5.83984 9.32031C6.27734 10.1224 6.96094 10.7695 7.89062 11.2617C8.83854 11.7539 9.89583 12 11.0625 12C11.6094 12 12.1562 11.9362 12.7031 11.8086C13.7969 12.5195 14.9362 12.875 16.1211 12.875C16.2487 12.875 16.3581 12.8385 16.4492 12.7656C16.5586 12.6927 16.6406 12.6016 16.6953 12.4922C16.75 12.3828 16.7682 12.2643 16.75 12.1367C16.7318 12.0091 16.6771 11.8997 16.5859 11.8086C16.5312 11.7721 16.4036 11.6263 16.2031 11.3711C15.9479 11.0065 15.7292 10.651 15.5469 10.3047ZM4.80078 7.78906L4.33594 8.08984C3.95312 8.34505 3.5612 8.53646 3.16016 8.66406L3.37891 8.28125L3.81641 7.40625L3.13281 6.75C2.58594 6.22135 2.3125 5.63802 2.3125 5C2.3125 4.45312 2.51302 3.95182 2.91406 3.49609C3.3151 3.02214 3.84375 2.64844 4.5 2.375C5.17448 2.08333 5.90365 1.9375 6.6875 1.9375C7.47135 1.9375 8.19141 2.08333 8.84766 2.375C9.52214 2.64844 10.0599 3.02214 10.4609 3.49609C10.862 3.95182 11.0625 4.45312 11.0625 5C11.0625 5.54688 10.862 6.05729 10.4609 6.53125C10.0599 6.98698 9.52214 7.36068 8.84766 7.65234C8.19141 7.92578 7.47135 8.0625 6.6875 8.0625C6.23177 8.0625 5.78516 8.00781 5.34766 7.89844L4.80078 7.78906ZM14.6172 9.375L13.9609 10.0312L14.3711 10.8789L14.5898 11.2891C14.1888 11.1615 13.7969 10.9701 13.4141 10.7148L12.9492 10.4141L12.4023 10.5234C11.9648 10.6328 11.5182 10.6875 11.0625 10.6875C10.3333 10.6875 9.64974 10.569 9.01172 10.332C8.39193 10.0768 7.88151 9.73958 7.48047 9.32031C8.39193 9.22917 9.22135 8.98307 9.96875 8.58203C10.7161 8.16276 11.2995 7.64323 11.7188 7.02344C12.1562 6.40365 12.375 5.72917 12.375 5L12.3477 4.72656C13.2409 4.92708 13.9792 5.30078 14.5625 5.84766C15.1458 6.3763 15.4375 6.96875 15.4375 7.625C15.4375 8.26302 15.1641 8.84635 14.6172 9.375Z" fill="#00BAE2"/>
</svg>
