<svg width="18" height="20" viewBox="0 0 18 20" fill="none" xmlns="http://www.w3.org/2000/svg">
<path d="M17.0312 6.25C17.1615 6.25 17.2656 6.21094 17.3438 6.13281C17.4479 6.02865 17.5 5.91146 17.5 5.78125V4.21875C17.5 4.08854 17.4479 3.98438 17.3438 3.90625C17.2656 3.80208 17.1615 3.75 17.0312 3.75H16.25V2.5C16.25 1.82292 16.0026 1.23698 15.5078 0.742188C15.013 0.247396 14.4271 0 13.75 0H2.5C1.82292 0 1.23698 0.247396 0.742188 0.742188C0.247396 1.23698 0 1.82292 0 2.5V17.5C0 18.1771 0.247396 18.763 0.742188 19.2578C1.23698 19.7526 1.82292 20 2.5 20H13.75C14.4271 20 15.013 19.7526 15.5078 19.2578C16.0026 18.763 16.25 18.1771 16.25 17.5V16.25H17.0312C17.1615 16.25 17.2656 16.2109 17.3438 16.1328C17.4479 16.0286 17.5 15.9115 17.5 15.7812V14.2188C17.5 14.0885 17.4479 13.9844 17.3438 13.9062C17.2656 13.8021 17.1615 13.75 17.0312 13.75H16.25V11.25H17.0312C17.1615 11.25 17.2656 11.2109 17.3438 11.1328C17.4479 11.0286 17.5 10.9115 17.5 10.7812V9.21875C17.5 9.08854 17.4479 8.98438 17.3438 8.90625C17.2656 8.80208 17.1615 8.75 17.0312 8.75H16.25V6.25H17.0312ZM15 17.5C15 17.8385 14.8698 18.125 14.6094 18.3594C14.375 18.6198 14.0885 18.75 13.75 18.75H2.5C2.16146 18.75 1.86198 18.6198 1.60156 18.3594C1.36719 18.125 1.25 17.8385 1.25 17.5V2.5C1.25 2.16146 1.36719 1.875 1.60156 1.64062C1.86198 1.38021 2.16146 1.25 2.5 1.25H13.75C14.0885 1.25 14.375 1.38021 14.6094 1.64062C14.8698 1.875 15 2.16146 15 2.5V17.5ZM8.125 10.625C8.98438 10.625 9.71354 10.3255 10.3125 9.72656C10.9375 9.10156 11.25 8.35938 11.25 7.5C11.25 6.64062 10.9375 5.91146 10.3125 5.3125C9.71354 4.6875 8.98438 4.375 8.125 4.375C7.26562 4.375 6.52344 4.6875 5.89844 5.3125C5.29948 5.91146 5 6.64062 5 7.5C5 8.35938 5.29948 9.10156 5.89844 9.72656C6.52344 10.3255 7.26562 10.625 8.125 10.625ZM8.125 5.625C8.64583 5.625 9.08854 5.80729 9.45312 6.17188C9.81771 6.53646 10 6.97917 10 7.5C10 8.02083 9.81771 8.46354 9.45312 8.82812C9.08854 9.19271 8.64583 9.375 8.125 9.375C7.60417 9.375 7.16146 9.19271 6.79688 8.82812C6.43229 8.46354 6.25 8.02083 6.25 7.5C6.25 6.97917 6.43229 6.53646 6.79688 6.17188C7.16146 5.80729 7.60417 5.625 8.125 5.625ZM9.96094 11.25C9.70052 11.25 9.40104 11.3021 9.0625 11.4062C8.75 11.4844 8.4375 11.5234 8.125 11.5234C7.8125 11.5234 7.48698 11.4844 7.14844 11.4062C6.83594 11.3021 6.54948 11.25 6.28906 11.25C5.8724 11.25 5.46875 11.3411 5.07812 11.5234C4.71354 11.7057 4.41406 11.9661 4.17969 12.3047C3.89323 12.7474 3.75 13.2422 3.75 13.7891V15.3125C3.75 15.3906 3.77604 15.4688 3.82812 15.5469C3.90625 15.599 3.98438 15.625 4.0625 15.625H4.6875C4.76562 15.625 4.83073 15.599 4.88281 15.5469C4.96094 15.4688 5 15.3906 5 15.3125V13.7891C5 13.5026 5.07812 13.2422 5.23438 13.0078C5.46875 12.6693 5.82031 12.5 6.28906 12.5C6.41927 12.5 6.61458 12.5391 6.875 12.6172C7.31771 12.7214 7.73438 12.7734 8.125 12.7734C8.51562 12.7734 8.93229 12.7214 9.375 12.6172C9.63542 12.5391 9.83073 12.5 9.96094 12.5C10.4297 12.5 10.7812 12.6693 11.0156 13.0078C11.1719 13.2422 11.25 13.5026 11.25 13.7891V15.3125C11.25 15.3906 11.276 15.4688 11.3281 15.5469C11.4062 15.599 11.4844 15.625 11.5625 15.625H12.1875C12.2917 15.625 12.3698 15.599 12.4219 15.5469C12.474 15.4688 12.5 15.3906 12.5 15.3125V13.7891C12.5 13.2422 12.3568 12.7474 12.0703 12.3047C11.8359 11.9661 11.5234 11.7057 11.1328 11.5234C10.7682 11.3411 10.3776 11.25 9.96094 11.25Z" fill="#FF8B02"/>
</svg>
