<svg width="20" height="20" viewBox="0 0 20 20" fill="none" xmlns="http://www.w3.org/2000/svg">
<path d="M18.9062 0H18.5156C18.3854 0 18.2682 0.0520833 18.1641 0.15625C18.0859 0.234375 18.0469 0.338542 18.0469 0.46875V4.80469C17.1875 3.34635 16.0156 2.1875 14.5312 1.32812C13.0469 0.442708 11.4453 0 9.72656 0C8.00781 0 6.41927 0.416667 4.96094 1.25C3.5026 2.05729 2.33073 3.16406 1.44531 4.57031C0.585938 5.97656 0.104167 7.51302 0 9.17969C0 9.33594 0.0390625 9.46615 0.117188 9.57031C0.221354 9.64844 0.338542 9.6875 0.46875 9.6875H0.859375C0.989583 9.6875 1.09375 9.64844 1.17188 9.57031C1.27604 9.46615 1.32812 9.36198 1.32812 9.25781C1.40625 7.79948 1.82292 6.47135 2.57812 5.27344C3.35938 4.04948 4.375 3.08594 5.625 2.38281C6.875 1.67969 8.22917 1.32812 9.6875 1.32812C11.276 1.32812 12.7344 1.74479 14.0625 2.57812C15.3906 3.38542 16.4062 4.47917 17.1094 5.85938H12.6562C12.526 5.85938 12.4089 5.91146 12.3047 6.01562C12.2266 6.09375 12.1875 6.19792 12.1875 6.32812V6.71875C12.1875 6.84896 12.2266 6.96615 12.3047 7.07031C12.4089 7.14844 12.526 7.1875 12.6562 7.1875H18.9062C19.0365 7.1875 19.1406 7.14844 19.2188 7.07031C19.3229 6.96615 19.375 6.84896 19.375 6.71875V0.46875C19.375 0.338542 19.3229 0.234375 19.2188 0.15625C19.1406 0.0520833 19.0365 0 18.9062 0ZM18.9062 9.6875H18.5156C18.3854 9.6875 18.2682 9.73958 18.1641 9.84375C18.0859 9.92188 18.0469 10.013 18.0469 10.1172C17.9688 11.5755 17.5391 12.9167 16.7578 14.1406C16.0026 15.3385 15 16.2891 13.75 16.9922C12.5 17.6953 11.1458 18.0469 9.6875 18.0469C8.09896 18.0469 6.64062 17.6432 5.3125 16.8359C3.98438 16.0026 2.96875 14.8958 2.26562 13.5156H6.71875C6.84896 13.5156 6.95312 13.4766 7.03125 13.3984C7.13542 13.2943 7.1875 13.1771 7.1875 13.0469V12.6562C7.1875 12.526 7.13542 12.4219 7.03125 12.3438C6.95312 12.2396 6.84896 12.1875 6.71875 12.1875H0.46875C0.338542 12.1875 0.221354 12.2396 0.117188 12.3438C0.0390625 12.4219 0 12.526 0 12.6562V18.9062C0 19.0365 0.0390625 19.1406 0.117188 19.2188C0.221354 19.3229 0.338542 19.375 0.46875 19.375H0.859375C0.989583 19.375 1.09375 19.3229 1.17188 19.2188C1.27604 19.1406 1.32812 19.0365 1.32812 18.9062V14.5703C2.1875 16.0286 3.35938 17.1875 4.84375 18.0469C6.32812 18.9323 7.92969 19.375 9.64844 19.375C11.3672 19.375 12.9557 18.9583 14.4141 18.125C15.8724 17.3177 17.0312 16.2109 17.8906 14.8047C18.776 13.3984 19.2708 11.862 19.375 10.1953C19.375 10.0391 19.3229 9.92188 19.2188 9.84375C19.1406 9.73958 19.0365 9.6875 18.9062 9.6875Z" fill="#FF8B02"/>
</svg>
