<svg width="12" height="16" viewBox="0 0 12 16" fill="none" xmlns="http://www.w3.org/2000/svg">
<path d="M9 7.75V8.625C9 8.72917 8.95833 8.82292 8.875 8.90625C8.8125 8.96875 8.72917 9 8.625 9H3.375C3.27083 9 3.17708 8.96875 3.09375 8.90625C3.03125 8.82292 3 8.72917 3 8.625V7.75C3 7.64583 3.03125 7.5625 3.09375 7.5C3.17708 7.41667 3.27083 7.375 3.375 7.375H8.625C8.72917 7.375 8.8125 7.41667 8.875 7.5C8.95833 7.5625 9 7.64583 9 7.75ZM8.625 10H3.375C3.27083 10 3.17708 10.0417 3.09375 10.125C3.03125 10.1875 3 10.2708 3 10.375V11.25C3 11.3542 3.03125 11.4479 3.09375 11.5312C3.17708 11.5938 3.27083 11.625 3.375 11.625H8.625C8.72917 11.625 8.8125 11.5938 8.875 11.5312C8.95833 11.4479 9 11.3542 9 11.25V10.375C9 10.2708 8.95833 10.1875 8.875 10.125C8.8125 10.0417 8.72917 10 8.625 10ZM12 4.125V14.5C12 14.9167 11.8542 15.2708 11.5625 15.5625C11.2708 15.8542 10.9167 16 10.5 16H1.5C1.08333 16 0.729167 15.8542 0.4375 15.5625C0.145833 15.2708 0 14.9167 0 14.5V1.5C0 1.08333 0.145833 0.729167 0.4375 0.4375C0.729167 0.145833 1.08333 0 1.5 0H7.875C8.29167 0 8.64583 0.145833 8.9375 0.4375L11.5625 3.0625C11.8542 3.35417 12 3.70833 12 4.125ZM8 1.625V4H10.375L8 1.625ZM10.5 14.5V5.5H7.25C7.04167 5.5 6.86458 5.42708 6.71875 5.28125C6.57292 5.13542 6.5 4.95833 6.5 4.75V1.5H1.5V14.5H10.5Z" fill="#FFA800"/>
</svg>
