<svg width="78" height="42" viewBox="0 0 78 42" fill="none" xmlns="http://www.w3.org/2000/svg">
<path d="M4.63625 4.488H10.9723V7.08H7.22825V37.32H10.9723V39.912H4.63625V4.488ZM73.361 39.912H67.057V37.32H70.769V7.08H67.057V4.488H73.361V39.912Z" fill="#FF8B02"/>
<path d="M44.778 9.9C43.5709 10.9932 42.481 12.1424 41.5153 13.2967C39.9332 11.1699 37.9716 9.01244 35.75 7C30.0474 12.1639 26 18.8923 26 22.95C26 30.1575 31.8204 36 39 36C46.1796 36 52 30.1575 52 22.95C52 19.9328 48.9833 13.7096 44.778 9.9ZM39 33.2812C33.3676 33.2812 28.7857 28.6463 28.7857 22.95C28.7857 20.3802 31.3567 15.4049 35.7593 10.8238C37.0558 12.1469 38.2444 13.5267 39.2612 14.894L41.3864 17.751L43.6736 15.0158C44.012 14.6108 44.3613 14.2143 44.7188 13.828C47.4088 17.0798 49.2143 21.1839 49.2143 22.95C49.2143 28.6463 44.6324 33.2812 39 33.2812ZM44.1925 20.7727L41.2152 24.0873C41.2152 24.0873 36.548 18.2704 36.1963 17.875C33.7344 20.7557 32.5 22.4414 32.5 24.3553C32.5 28.1966 35.4813 30.5625 39.1451 30.5625C40.6111 30.5625 41.9668 30.1167 43.0671 29.3657C45.5673 27.6585 46.1535 24.3485 44.7653 21.7622C44.5941 21.4439 44.4031 21.112 44.1925 20.7727Z" fill="#FF8B02"/>
</svg>
