<svg width="20" height="31" viewBox="0 0 20 31" fill="none" xmlns="http://www.w3.org/2000/svg">
<path d="M11.8984 3.5625L9.61328 12H16.9375L8.03125 27.9375L11.2539 15.75H3.8125L4.98438 3.5625H11.8984ZM11.8984 0.75H4.98438C4.24219 0.75 3.59766 1.00391 3.05078 1.51172C2.54297 1.98047 2.25 2.56641 2.17188 3.26953L1 15.457C0.921875 16.3164 1.15625 17.0586 1.70312 17.6836C2.28906 18.2695 2.99219 18.5625 3.8125 18.5625H7.5625L5.33594 27.2344C5.10156 28.1328 5.25781 28.9336 5.80469 29.6367C6.39062 30.3789 7.13281 30.75 8.03125 30.75C8.53906 30.75 9.00781 30.6133 9.4375 30.3398C9.86719 30.1055 10.2188 29.7539 10.4922 29.2852L19.3984 13.3477C19.75 12.7617 19.8477 12.1367 19.6914 11.4727C19.5742 10.8086 19.2617 10.2617 18.7539 9.83203C18.2461 9.40234 17.6406 9.1875 16.9375 9.1875H13.3047L14.5938 4.26562C14.8672 3.40625 14.7109 2.60547 14.125 1.86328C13.5781 1.12109 12.8359 0.75 11.8984 0.75Z" fill="#FFC700"/>
</svg>
