<svg width="12" height="9" viewBox="0 0 12 9" fill="none" xmlns="http://www.w3.org/2000/svg">
<path d="M9.75 9H7.78125C7.70312 9 7.63281 8.97656 7.57031 8.92969C7.52344 8.86719 7.5 8.79688 7.5 8.71875V8.15625C7.5 8.07812 7.52344 8.01562 7.57031 7.96875C7.63281 7.90625 7.70312 7.875 7.78125 7.875H9.75C10.0625 7.875 10.3281 7.76562 10.5469 7.54688C10.7656 7.32812 10.875 7.0625 10.875 6.75V2.25C10.875 1.9375 10.7656 1.67187 10.5469 1.45312C10.3281 1.23438 10.0625 1.125 9.75 1.125H7.78125C7.70312 1.125 7.63281 1.10156 7.57031 1.05469C7.52344 0.992187 7.5 0.921875 7.5 0.84375V0.28125C7.5 0.203125 7.52344 0.140625 7.57031 0.09375C7.63281 0.03125 7.70312 0 7.78125 0H9.75C10.375 0 10.9062 0.21875 11.3438 0.65625C11.7812 1.09375 12 1.625 12 2.25V6.75C12 7.375 11.7812 7.90625 11.3438 8.34375C10.9062 8.78125 10.375 9 9.75 9ZM3.91406 0.445312L3.46875 0.914062C3.40625 0.976563 3.375 1.04688 3.375 1.125C3.375 1.20312 3.40625 1.26562 3.46875 1.3125L6.11719 3.89062H0.28125C0.203125 3.89062 0.132812 3.92188 0.0703125 3.98438C0.0234375 4.03125 0 4.09375 0 4.17188V4.82812C0 4.90625 0.0234375 4.97656 0.0703125 5.03906C0.132812 5.08594 0.203125 5.10938 0.28125 5.10938H6.11719L3.46875 7.6875C3.40625 7.73438 3.375 7.79688 3.375 7.875C3.375 7.95312 3.39844 8.02344 3.44531 8.08594L3.91406 8.53125C3.97656 8.59375 4.04688 8.625 4.125 8.625C4.20312 8.625 4.26562 8.59375 4.3125 8.53125L8.17969 4.6875C8.22656 4.64062 8.25 4.57812 8.25 4.5C8.25 4.42188 8.22656 4.35156 8.17969 4.28906L4.3125 0.445312C4.26562 0.398438 4.20312 0.375 4.125 0.375C4.04688 0.375 3.97656 0.40625 3.91406 0.46875V0.445312Z" fill="white"/>
</svg>
