<svg width="34" height="23" viewBox="0 0 34 23" fill="none" xmlns="http://www.w3.org/2000/svg">
<path d="M32.3438 0.5H6.5625C5.97656 0.5 5.42969 0.675781 4.92188 1.02734C4.45312 1.37891 4.12109 1.82813 3.92578 2.375H1.40625C1.01562 2.375 0.683594 2.51172 0.410156 2.78516C0.136719 3.05859 0 3.39062 0 3.78125V19.7188C0 20.6172 0.3125 21.3984 0.9375 22.0625C1.60156 22.6875 2.38281 23 3.28125 23H32.3438C32.7344 23 33.0664 22.8633 33.3398 22.5898C33.6133 22.3164 33.75 21.9844 33.75 21.5938V1.90625C33.75 1.51562 33.6133 1.18359 33.3398 0.910156C33.0664 0.636719 32.7344 0.5 32.3438 0.5ZM2.8125 19.7188V5.1875H3.75V19.7188C3.75 19.8359 3.69141 19.9531 3.57422 20.0703C3.49609 20.1484 3.39844 20.1875 3.28125 20.1875C3.16406 20.1875 3.04688 20.1484 2.92969 20.0703C2.85156 19.9531 2.8125 19.8359 2.8125 19.7188ZM30.9375 20.1875H6.50391L6.5625 19.7188V3.3125H30.9375V20.1875ZM10.0781 13.1562H18.0469C18.2422 13.1562 18.3984 13.0977 18.5156 12.9805C18.6719 12.8242 18.75 12.6484 18.75 12.4531V6.82812C18.75 6.63281 18.6719 6.47656 18.5156 6.35938C18.3984 6.20312 18.2422 6.125 18.0469 6.125H10.0781C9.88281 6.125 9.70703 6.20312 9.55078 6.35938C9.43359 6.47656 9.375 6.63281 9.375 6.82812V12.4531C9.375 12.6484 9.43359 12.8242 9.55078 12.9805C9.70703 13.0977 9.88281 13.1562 10.0781 13.1562ZM11.7188 8.46875H16.4062V10.8125H11.7188V8.46875ZM9.375 16.6719V15.2656C9.375 15.0703 9.43359 14.9141 9.55078 14.7969C9.70703 14.6406 9.88281 14.5625 10.0781 14.5625H18.0469C18.2422 14.5625 18.3984 14.6406 18.5156 14.7969C18.6719 14.9141 18.75 15.0703 18.75 15.2656V16.6719C18.75 16.8672 18.6719 17.043 18.5156 17.1992C18.3984 17.3164 18.2422 17.375 18.0469 17.375H10.0781C9.88281 17.375 9.70703 17.3164 9.55078 17.1992C9.43359 17.043 9.375 16.8672 9.375 16.6719ZM20.625 16.6719V15.2656C20.625 15.0703 20.6836 14.9141 20.8008 14.7969C20.957 14.6406 21.1328 14.5625 21.3281 14.5625H27.4219C27.6172 14.5625 27.7734 14.6406 27.8906 14.7969C28.0469 14.9141 28.125 15.0703 28.125 15.2656V16.6719C28.125 16.8672 28.0469 17.043 27.8906 17.1992C27.7734 17.3164 27.6172 17.375 27.4219 17.375H21.3281C21.1328 17.375 20.957 17.3164 20.8008 17.1992C20.6836 17.043 20.625 16.8672 20.625 16.6719ZM20.625 8.23438V6.82812C20.625 6.63281 20.6836 6.47656 20.8008 6.35938C20.957 6.20312 21.1328 6.125 21.3281 6.125H27.4219C27.6172 6.125 27.7734 6.20312 27.8906 6.35938C28.0469 6.47656 28.125 6.63281 28.125 6.82812V8.23438C28.125 8.42969 28.0469 8.60547 27.8906 8.76172C27.7734 8.87891 27.6172 8.9375 27.4219 8.9375H21.3281C21.1328 8.9375 20.957 8.87891 20.8008 8.76172C20.6836 8.60547 20.625 8.42969 20.625 8.23438ZM20.625 12.4531V11.0469C20.625 10.8516 20.6836 10.6953 20.8008 10.5781C20.957 10.4219 21.1328 10.3438 21.3281 10.3438H27.4219C27.6172 10.3438 27.7734 10.4219 27.8906 10.5781C28.0469 10.6953 28.125 10.8516 28.125 11.0469V12.4531C28.125 12.6484 28.0469 12.8242 27.8906 12.9805C27.7734 13.0977 27.6172 13.1562 27.4219 13.1562H21.3281C21.1328 13.1562 20.957 13.0977 20.8008 12.9805C20.6836 12.8242 20.625 12.6484 20.625 12.4531Z" fill="#94DA00"/>
</svg>
