<svg width="27" height="31" viewBox="0 0 27 31" fill="none" xmlns="http://www.w3.org/2000/svg">
<path d="M25.5469 10.125C25.7422 10.125 25.8984 10.0664 26.0156 9.94922C26.1719 9.79297 26.25 9.61719 26.25 9.42188V7.07812C26.25 6.88281 26.1719 6.72656 26.0156 6.60938C25.8984 6.45312 25.7422 6.375 25.5469 6.375H24.375V3.5625C24.375 2.78125 24.1016 2.11719 23.5547 1.57031C23.0078 1.02344 22.3438 0.75 21.5625 0.75H2.8125C2.03125 0.75 1.36719 1.02344 0.820312 1.57031C0.273438 2.11719 0 2.78125 0 3.5625V27.9375C0 28.7188 0.273438 29.3828 0.820312 29.9297C1.36719 30.4766 2.03125 30.75 2.8125 30.75H21.5625C22.3438 30.75 23.0078 30.4766 23.5547 29.9297C24.1016 29.3828 24.375 28.7188 24.375 27.9375V25.125H25.5469C25.7422 25.125 25.8984 25.0664 26.0156 24.9492C26.1719 24.793 26.25 24.6172 26.25 24.4219V22.0781C26.25 21.8828 26.1719 21.7266 26.0156 21.6094C25.8984 21.4531 25.7422 21.375 25.5469 21.375H24.375V17.625H25.5469C25.7422 17.625 25.8984 17.5664 26.0156 17.4492C26.1719 17.293 26.25 17.1172 26.25 16.9219V14.5781C26.25 14.3828 26.1719 14.2266 26.0156 14.1094C25.8984 13.9531 25.7422 13.875 25.5469 13.875H24.375V10.125H25.5469ZM12.1875 8.25C13.2031 8.25 14.082 8.62109 14.8242 9.36328C15.5664 10.1055 15.9375 10.9844 15.9375 12C15.9375 13.0156 15.5664 13.8945 14.8242 14.6367C14.082 15.3789 13.2031 15.75 12.1875 15.75C11.1719 15.75 10.293 15.3789 9.55078 14.6367C8.80859 13.8945 8.4375 13.0156 8.4375 12C8.4375 10.9844 8.80859 10.1055 9.55078 9.36328C10.293 8.62109 11.1719 8.25 12.1875 8.25ZM18.75 22.1367C18.75 22.4492 18.6133 22.7227 18.3398 22.957C18.1055 23.1523 17.8125 23.25 17.4609 23.25H6.91406C6.5625 23.25 6.25 23.1523 5.97656 22.957C5.74219 22.7227 5.625 22.4492 5.625 22.1367V21.0234C5.625 20.0859 5.99609 19.2852 6.73828 18.6211C7.51953 17.957 8.45703 17.625 9.55078 17.625H9.84375C10.5859 17.9375 11.3672 18.0938 12.1875 18.0938C13.0078 18.0938 13.7891 17.9375 14.5312 17.625H14.8242C15.918 17.625 16.8359 17.957 17.5781 18.6211C18.3594 19.2852 18.75 20.0859 18.75 21.0234V22.1367Z" fill="#0479ED"/>
</svg>
