<svg width="23" height="20" viewBox="0 0 23 20" fill="none" xmlns="http://www.w3.org/2000/svg">
<path d="M10.0391 5.3125L12.2266 5.9375C12.4089 5.98958 12.5521 6.09375 12.6562 6.25C12.7604 6.38021 12.8125 6.54948 12.8125 6.75781C12.8125 6.9401 12.7344 7.10938 12.5781 7.26562C12.4219 7.42188 12.2266 7.5 11.9922 7.5H10.5859C10.2474 7.5 9.94792 7.40885 9.6875 7.22656C9.63542 7.17448 9.57031 7.16146 9.49219 7.1875C9.41406 7.1875 9.34896 7.21354 9.29688 7.26562L8.86719 7.69531C8.78906 7.77344 8.75 7.86458 8.75 7.96875C8.77604 8.04688 8.82812 8.125 8.90625 8.20312C9.40104 8.56771 9.96094 8.75 10.5859 8.75H10.625V9.6875C10.625 9.76562 10.651 9.84375 10.7031 9.92188C10.7812 9.97396 10.8594 10 10.9375 10H11.5625C11.6406 10 11.7057 9.97396 11.7578 9.92188C11.8359 9.84375 11.875 9.76562 11.875 9.6875V8.75H11.9141C12.3828 8.75 12.7995 8.63281 13.1641 8.39844C13.5547 8.13802 13.8151 7.79948 13.9453 7.38281C14.1536 6.8099 14.1146 6.26302 13.8281 5.74219C13.5417 5.22135 13.125 4.88281 12.5781 4.72656L10.2734 4.0625C10.0911 4.01042 9.94792 3.91927 9.84375 3.78906C9.73958 3.63281 9.6875 3.46354 9.6875 3.28125C9.6875 3.07292 9.76562 2.89062 9.92188 2.73438C10.0781 2.57812 10.2734 2.5 10.5078 2.5H11.9531C12.2656 2.5 12.5521 2.59115 12.8125 2.77344C12.8646 2.82552 12.9297 2.85156 13.0078 2.85156C13.0859 2.82552 13.151 2.78646 13.2031 2.73438L13.6328 2.30469C13.7109 2.22656 13.737 2.14844 13.7109 2.07031C13.7109 1.96615 13.6719 1.875 13.5938 1.79688C13.099 1.43229 12.5391 1.25 11.9141 1.25H11.875V0.3125C11.875 0.234375 11.8359 0.169271 11.7578 0.117188C11.7057 0.0390625 11.6406 0 11.5625 0H10.9375C10.8594 0 10.7812 0.0390625 10.7031 0.117188C10.651 0.169271 10.625 0.234375 10.625 0.3125V1.25H10.5078C9.88281 1.25 9.36198 1.47135 8.94531 1.91406C8.55469 2.35677 8.38542 2.8776 8.4375 3.47656C8.48958 3.91927 8.65885 4.3099 8.94531 4.64844C9.23177 4.96094 9.59635 5.18229 10.0391 5.3125ZM21.7969 13.0469C21.4323 12.6823 20.9896 12.5 20.4688 12.5C19.9479 12.5 19.4792 12.6562 19.0625 12.9688L16.6797 14.9219C16.6016 14.974 16.5104 15 16.4062 15H14.8047C14.987 14.6094 15.0391 14.1927 14.9609 13.75C14.8828 13.2031 14.6224 12.7604 14.1797 12.4219C13.763 12.0573 13.2682 11.875 12.6953 11.875H7.07031C6.23698 11.875 5.49479 12.1224 4.84375 12.6172L3.32031 13.75H0.3125C0.234375 13.75 0.15625 13.7891 0.078125 13.8672C0.0260417 13.9193 0 13.9844 0 14.0625V14.6875C0 14.7656 0.0260417 14.8438 0.078125 14.9219C0.15625 14.974 0.234375 15 0.3125 15H3.75L5.58594 13.6328C6.02865 13.2943 6.52344 13.125 7.07031 13.125H12.8125C13.0729 13.125 13.2943 13.2161 13.4766 13.3984C13.6589 13.5807 13.75 13.8021 13.75 14.0625C13.75 14.3229 13.6589 14.5443 13.4766 14.7266C13.2943 14.9089 13.0729 15 12.8125 15H9.375C9.19271 15 9.03646 15.0651 8.90625 15.1953C8.80208 15.2995 8.75 15.4427 8.75 15.625C8.75 15.8073 8.80208 15.9635 8.90625 16.0938C9.03646 16.1979 9.19271 16.25 9.375 16.25H16.4062C16.7969 16.25 17.1484 16.1328 17.4609 15.8984L19.8828 13.9453C20.0391 13.8411 20.2214 13.7891 20.4297 13.7891C20.638 13.763 20.8203 13.8281 20.9766 13.9844C21.1589 14.1406 21.25 14.349 21.25 14.6094C21.25 14.8698 21.1458 15.0781 20.9375 15.2344L16.9922 18.3984C16.7057 18.6328 16.3542 18.75 15.9375 18.75H0.3125C0.234375 18.75 0.15625 18.776 0.078125 18.8281C0.0260417 18.9062 0 18.9844 0 19.0625V19.6875C0 19.7656 0.0260417 19.8307 0.078125 19.8828C0.15625 19.9609 0.234375 20 0.3125 20H15.9766C16.6536 20 17.2526 19.7917 17.7734 19.375L21.7188 16.2109C22.2135 15.8203 22.474 15.2995 22.5 14.6484C22.526 13.9974 22.2917 13.4635 21.7969 13.0469Z" fill="#FF8B02"/>
</svg>
