<svg width="18" height="13" viewBox="0 0 18 13" fill="none" xmlns="http://www.w3.org/2000/svg">
<path d="M14.9062 9.69342H15.4688C15.6234 9.69342 15.75 9.57225 15.75 9.42416V1.34631C15.75 1.19821 15.6234 1.07705 15.4688 1.07705H14.9062C14.7516 1.07705 14.625 1.19821 14.625 1.34631V9.42416C14.625 9.57225 14.7516 9.69342 14.9062 9.69342ZM11.5312 9.69342H12.0938C12.2484 9.69342 12.375 9.57225 12.375 9.42416V4.57745C12.375 4.42935 12.2484 4.30819 12.0938 4.30819H11.5312C11.3766 4.30819 11.25 4.42935 11.25 4.57745V9.42416C11.25 9.57225 11.3766 9.69342 11.5312 9.69342ZM4.78125 9.69342H5.34375C5.49844 9.69342 5.625 9.57225 5.625 9.42416V6.73154C5.625 6.58345 5.49844 6.46228 5.34375 6.46228H4.78125C4.62656 6.46228 4.5 6.58345 4.5 6.73154V9.42416C4.5 9.57225 4.62656 9.69342 4.78125 9.69342ZM8.15625 9.69342H8.71875C8.87344 9.69342 9 9.57225 9 9.42416V2.42336C9 2.27526 8.87344 2.15409 8.71875 2.15409H8.15625C8.00156 2.15409 7.875 2.27526 7.875 2.42336V9.42416C7.875 9.57225 8.00156 9.69342 8.15625 9.69342ZM17.7188 11.8475H1.125V0.269262C1.125 0.120495 0.999141 0 0.84375 0H0.28125C0.125859 0 0 0.120495 0 0.269262V12.386C0 12.6836 0.251719 12.9246 0.5625 12.9246H17.7188C17.8741 12.9246 18 12.8041 18 12.6553V12.1168C18 11.968 17.8741 11.8475 17.7188 11.8475Z" fill="#FF8B02"/>
</svg>
