<svg width="30" height="31" viewBox="0 0 30 31" fill="none" xmlns="http://www.w3.org/2000/svg">
<path d="M26.25 0.400024H3.75C2.73438 0.400024 1.85547 0.771118 1.11328 1.51331C0.371094 2.25549 0 3.1344 0 4.15002V21.025C0 22.0406 0.371094 22.9196 1.11328 23.6617C1.85547 24.4039 2.73438 24.775 3.75 24.775H9.375V29.6969C9.375 29.9703 9.49219 30.1656 9.72656 30.2828C10 30.4391 10.2539 30.4391 10.4883 30.2828L17.8125 24.775H26.25C27.2656 24.775 28.1445 24.4039 28.8867 23.6617C29.6289 22.9196 30 22.0406 30 21.025V4.15002C30 3.1344 29.6289 2.25549 28.8867 1.51331C28.1445 0.771118 27.2656 0.400024 26.25 0.400024ZM16.875 15.8688C16.875 15.986 16.8164 16.1031 16.6992 16.2203C16.6211 16.2985 16.5234 16.3375 16.4062 16.3375H7.96875C7.85156 16.3375 7.73438 16.2985 7.61719 16.2203C7.53906 16.1031 7.5 15.986 7.5 15.8688V14.9313C7.5 14.8141 7.53906 14.7164 7.61719 14.6383C7.73438 14.5211 7.85156 14.4625 7.96875 14.4625H16.4062C16.5234 14.4625 16.6211 14.5211 16.6992 14.6383C16.8164 14.7164 16.875 14.8141 16.875 14.9313V15.8688ZM22.5 10.2438C22.5 10.361 22.4414 10.4781 22.3242 10.5953C22.2461 10.6735 22.1484 10.7125 22.0312 10.7125H7.96875C7.85156 10.7125 7.73438 10.6735 7.61719 10.5953C7.53906 10.4781 7.5 10.361 7.5 10.2438V9.30627C7.5 9.18909 7.53906 9.09143 7.61719 9.01331C7.73438 8.89612 7.85156 8.83752 7.96875 8.83752H22.0312C22.1484 8.83752 22.2461 8.89612 22.3242 9.01331C22.4414 9.09143 22.5 9.18909 22.5 9.30627V10.2438Z" fill="#13A509"/>
</svg>
