<svg width="14" height="15" viewBox="0 0 14 15" fill="none" xmlns="http://www.w3.org/2000/svg">
<path d="M12.25 0.75H1.75C1.27604 0.75 0.865885 0.923177 0.519531 1.26953C0.173177 1.61589 0 2.02604 0 2.5V10.375C0 10.849 0.173177 11.2591 0.519531 11.6055C0.865885 11.9518 1.27604 12.125 1.75 12.125H4.375V14.4219C4.375 14.513 4.40234 14.5859 4.45703 14.6406C4.52995 14.7135 4.60286 14.75 4.67578 14.75C4.76693 14.75 4.83984 14.7318 4.89453 14.6953L8.3125 12.125H12.25C12.724 12.125 13.1341 11.9518 13.4805 11.6055C13.8268 11.2591 14 10.849 14 10.375V2.5C14 2.02604 13.8268 1.61589 13.4805 1.26953C13.1341 0.923177 12.724 0.75 12.25 0.75ZM12.6875 10.375C12.6875 10.5026 12.6419 10.612 12.5508 10.7031C12.4779 10.776 12.3776 10.8125 12.25 10.8125H7.875L5.6875 12.4531V10.8125H1.75C1.6224 10.8125 1.51302 10.776 1.42188 10.7031C1.34896 10.612 1.3125 10.5026 1.3125 10.375V2.5C1.3125 2.3724 1.34896 2.27214 1.42188 2.19922C1.51302 2.10807 1.6224 2.0625 1.75 2.0625H12.25C12.3776 2.0625 12.4779 2.10807 12.5508 2.19922C12.6419 2.27214 12.6875 2.3724 12.6875 2.5V10.375ZM10.0625 4.46875H3.9375C3.8099 4.46875 3.70052 4.51432 3.60938 4.60547C3.53646 4.67839 3.5 4.77865 3.5 4.90625V5.34375C3.5 5.47135 3.53646 5.58073 3.60938 5.67188C3.70052 5.74479 3.8099 5.78125 3.9375 5.78125H10.0625C10.1901 5.78125 10.2904 5.74479 10.3633 5.67188C10.4544 5.58073 10.5 5.47135 10.5 5.34375V4.90625C10.5 4.77865 10.4544 4.67839 10.3633 4.60547C10.2904 4.51432 10.1901 4.46875 10.0625 4.46875ZM7.4375 7.09375H3.9375C3.8099 7.09375 3.70052 7.13932 3.60938 7.23047C3.53646 7.30339 3.5 7.40365 3.5 7.53125V7.96875C3.5 8.09635 3.53646 8.20573 3.60938 8.29688C3.70052 8.36979 3.8099 8.40625 3.9375 8.40625H7.4375C7.5651 8.40625 7.66536 8.36979 7.73828 8.29688C7.82943 8.20573 7.875 8.09635 7.875 7.96875V7.53125C7.875 7.40365 7.82943 7.30339 7.73828 7.23047C7.66536 7.13932 7.5651 7.09375 7.4375 7.09375Z" fill="#13A509"/>
</svg>
