<svg width="76" height="76" viewBox="0 0 76 76" fill="none" xmlns="http://www.w3.org/2000/svg">
<path d="M0 38C0 17.0132 17.0132 0 38 0H67.8571C72.3543 0 76 3.64568 76 8.14286V38C76 58.9868 58.9868 76 38 76C17.0132 76 0 58.9868 0 38Z" fill="#94DA00" fill-opacity="0.1"/>
<path d="M38 26.375C35.9062 26.375 33.9688 26.9062 32.1875 27.9688C30.4062 29 28.9844 30.4062 27.9219 32.1875C26.8906 33.9688 26.375 35.9062 26.375 38C26.375 40.0938 26.8906 42.0312 27.9219 43.8125C28.9844 45.5938 30.4062 47 32.1875 48.0312C33.9688 49.0938 35.9062 49.625 38 49.625C40.0938 49.625 42.0312 49.0938 43.8125 48.0312C45.5938 47 47 45.5938 48.0312 43.8125C49.0938 42.0312 49.625 40.0938 49.625 38C49.625 35.9062 49.0938 33.9688 48.0312 32.1875C47 30.4062 45.5938 29 43.8125 27.9688C42.0312 26.9062 40.0938 26.375 38 26.375ZM38 48.125C36.1562 48.125 34.4531 47.6719 32.8906 46.7656C31.3594 45.8594 30.1406 44.6406 29.2344 43.1094C28.3281 41.5469 27.875 39.8438 27.875 38C27.875 36.1562 28.3281 34.4688 29.2344 32.9375C30.1406 31.375 31.3594 30.1406 32.8906 29.2344C34.4531 28.3281 36.1562 27.875 38 27.875C39.8438 27.875 41.5312 28.3281 43.0625 29.2344C44.625 30.1406 45.8594 31.375 46.7656 32.9375C47.6719 34.4688 48.125 36.1562 48.125 38C48.125 39.8438 47.6719 41.5469 46.7656 43.1094C45.8594 44.6406 44.625 45.8594 43.0625 46.7656C41.5312 47.6719 39.8438 48.125 38 48.125ZM42.2188 41.2812C41.6875 41.9062 41.0469 42.3906 40.2969 42.7344C39.5781 43.0781 38.8125 43.25 38 43.25C37.1875 43.25 36.4062 43.0781 35.6562 42.7344C34.9375 42.3906 34.3125 41.9062 33.7812 41.2812C33.6562 41.125 33.4844 41.0469 33.2656 41.0469C33.0469 41.0156 32.8594 41.0625 32.7031 41.1875C32.5469 41.3125 32.4531 41.4844 32.4219 41.7031C32.4219 41.8906 32.4844 42.0625 32.6094 42.2188C33.2969 43.0312 34.1094 43.6562 35.0469 44.0938C35.9844 44.5312 36.9688 44.75 38 44.75C39.0312 44.75 40.0156 44.5312 40.9531 44.0938C41.8906 43.6562 42.7031 43.0312 43.3906 42.2188C43.5156 42.0625 43.5625 41.8906 43.5312 41.7031C43.5312 41.4844 43.4531 41.3125 43.2969 41.1875C43.1406 41.0312 42.9531 40.9688 42.7344 41C42.5156 41.0312 42.3438 41.125 42.2188 41.2812ZM34.25 37.25C34.6562 37.25 35 37.1094 35.2812 36.8281C35.5938 36.5156 35.75 36.1562 35.75 35.75C35.75 35.3438 35.5938 35 35.2812 34.7188C35 34.4062 34.6562 34.25 34.25 34.25C33.8438 34.25 33.4844 34.4062 33.1719 34.7188C32.8906 35 32.75 35.3438 32.75 35.75C32.75 36.1562 32.8906 36.5156 33.1719 36.8281C33.4844 37.1094 33.8438 37.25 34.25 37.25ZM41.75 37.25C42.1562 37.25 42.5 37.1094 42.7812 36.8281C43.0938 36.5156 43.25 36.1562 43.25 35.75C43.25 35.3438 43.0938 35 42.7812 34.7188C42.5 34.4062 42.1562 34.25 41.75 34.25C41.3438 34.25 40.9844 34.4062 40.6719 34.7188C40.3906 35 40.25 35.3438 40.25 35.75C40.25 36.1562 40.3906 36.5156 40.6719 36.8281C40.9844 37.1094 41.3438 37.25 41.75 37.25Z" fill="#94DA00"/>
</svg>
