<svg width="38" height="31" viewBox="0 0 38 31" fill="none" xmlns="http://www.w3.org/2000/svg">
<path d="M37.207 13.1133C36.4258 11.5508 35.6445 9.96875 34.8633 8.36719C34.5117 7.70313 33.9648 7.25391 33.2227 7.01953C32.5195 6.74609 31.8164 6.78516 31.1133 7.13672L28.0664 8.66016L23.5547 8.25C22.4219 8.25 21.3867 8.50391 20.4492 9.01172C20.0977 8.54297 19.6289 8.17188 19.043 7.89844C19.2773 7.23438 19.2773 6.57031 19.043 5.90625C18.8477 5.24219 18.457 4.69531 17.8711 4.26562C17.3242 3.83594 16.6797 3.62109 15.9375 3.62109C15.8203 2.83984 15.4492 2.17578 14.8242 1.62891C14.2383 1.04297 13.5352 0.75 12.7148 0.75C11.8945 0.75 11.1914 1.00391 10.6055 1.51172C9.27734 2.60547 8.18359 3.89453 7.32422 5.37891C6.50391 6.82422 5.97656 8.38672 5.74219 10.0664L4.04297 13.2305L1.40625 14.6953C0.742188 15.0859 0.3125 15.6328 0.117188 16.3359C-0.078125 17.0391 -0.0195313 17.7227 0.292969 18.3867L2.63672 23.1328C2.98828 23.7969 3.51562 24.2656 4.21875 24.5391C4.96094 24.7734 5.68359 24.7148 6.38672 24.3633L9.43359 22.8398L14.0625 23.25C15.1172 23.25 16.1133 22.9961 17.0508 22.4883C17.4023 22.957 17.8711 23.3281 18.457 23.6016C18.2227 24.3047 18.2227 24.9883 18.457 25.6523C18.6914 26.3164 19.082 26.8438 19.6289 27.2344C20.2148 27.6641 20.8594 27.8789 21.5625 27.8789C21.6797 28.6992 22.0312 29.3828 22.6172 29.9297C23.2422 30.4766 23.9648 30.75 24.7852 30.75C25.6055 30.75 26.3086 30.4961 26.8945 29.9883C28.2227 28.8945 29.2969 27.625 30.1172 26.1797C30.9766 24.6953 31.5234 23.1133 31.7578 21.4336L33.457 18.2695L36.0938 16.8047C36.7578 16.4141 37.1875 15.8672 37.3828 15.1641C37.5781 14.4609 37.5195 13.7773 37.207 13.1133ZM17.4023 11.8242C16.8164 11.5117 16.1914 11.3359 15.5273 11.2969C14.8633 11.2578 14.2383 11.3555 13.6523 11.5898C13.3789 11.668 13.2617 11.8437 13.3008 12.1172C13.3789 12.3516 13.5352 12.4688 13.7695 12.4688C14.7461 12.4688 15.5859 12.6836 16.2891 13.1133C16.9922 13.5039 17.5195 14.0898 17.8711 14.8711C18.0273 15.2227 17.9883 15.5352 17.7539 15.8086C17.5586 16.082 17.2852 16.2188 16.9336 16.2188C16.582 16.2188 16.3281 16.043 16.1719 15.6914C15.9766 15.2617 15.6836 14.9297 15.293 14.6953C14.9414 14.4609 14.5312 14.3438 14.0625 14.3438C13.3984 14.3438 12.832 14.5781 12.3633 15.0469C11.9336 15.4766 11.7188 16.043 11.7188 16.7461C11.7188 17.4102 11.9531 17.957 12.4219 18.3867C12.9297 18.8164 13.4766 19.0312 14.0625 19.0312C14.5312 19.0312 14.9414 18.9141 15.293 18.6797C15.6836 18.4453 15.9766 18.1133 16.1719 17.6836C16.3281 17.332 16.582 17.1562 16.9336 17.1562C17.2852 17.1562 17.5586 17.293 17.7539 17.5664C17.9883 17.8398 18.0273 18.1523 17.8711 18.5039C17.5195 19.2461 16.9922 19.832 16.2891 20.2617C15.625 20.6914 14.8828 20.9062 14.0625 20.9062L9.14062 20.4375C9.02344 20.4375 8.92578 20.457 8.84766 20.4961L5.39062 22.2539C5.23438 22.332 5.09766 22.3516 4.98047 22.3125C4.86328 22.2344 4.78516 22.1562 4.74609 22.0781L2.40234 17.3906C2.32422 17.2734 2.30469 17.1562 2.34375 17.0391C2.38281 16.9219 2.46094 16.8242 2.57812 16.7461L5.625 14.9883C5.70312 14.9492 5.76172 14.8906 5.80078 14.8125L7.96875 10.8867C8.00781 10.8477 8.02734 10.7891 8.02734 10.7109C8.18359 9.26562 8.61328 7.91797 9.31641 6.66797C10.0195 5.37891 10.9375 4.26562 12.0703 3.32812C12.2656 3.13281 12.4805 3.05469 12.7148 3.09375C12.9883 3.13281 13.2031 3.25 13.3594 3.44531C13.5547 3.64062 13.6328 3.875 13.5938 4.14844C13.5547 4.38281 13.4375 4.57812 13.2422 4.73438C12.5391 5.35938 11.9531 6.02344 11.4844 6.72656C11.3281 6.92187 11.3281 7.11719 11.4844 7.3125C11.6797 7.50781 11.8945 7.52734 12.1289 7.37109C13.2617 6.58984 14.4922 6.12109 15.8203 5.96484C16.0547 5.92578 16.2695 5.98437 16.4648 6.14062C16.6992 6.29688 16.8359 6.51172 16.875 6.78516C16.9141 7.05859 16.8555 7.29297 16.6992 7.48828C16.543 7.68359 16.3281 7.80078 16.0547 7.83984C15.1563 7.95703 14.3164 8.25 13.5352 8.71875C13.3008 8.83594 13.2227 9.03125 13.3008 9.30469C13.418 9.53906 13.6133 9.61719 13.8867 9.53906C14.5898 9.38281 15.3125 9.36328 16.0547 9.48047C16.8359 9.55859 17.5586 9.77344 18.2227 10.125C18.5742 10.2813 18.75 10.5352 18.75 10.8867C18.75 11.2383 18.6133 11.5312 18.3398 11.7656C18.0664 11.9609 17.7539 11.9805 17.4023 11.8242ZM34.9219 14.7539L31.875 16.5117C31.7969 16.5508 31.7383 16.6094 31.6992 16.6875L29.5312 20.6133C29.4922 20.6523 29.4727 20.7109 29.4727 20.7891C29.3164 22.2344 28.8867 23.6016 28.1836 24.8906C27.4805 26.1406 26.5625 27.2344 25.4297 28.1719C25.1172 28.4453 24.8047 28.5039 24.4922 28.3477C24.1797 28.1914 23.9844 27.9375 23.9062 27.5859C23.8281 27.2734 23.9453 27 24.2578 26.7656C24.9609 26.1406 25.5469 25.4766 26.0156 24.7734C26.1719 24.5391 26.1523 24.3438 25.957 24.1875C25.8008 23.9922 25.6055 23.9727 25.3711 24.1289C24.2383 24.9102 23.0078 25.3789 21.6797 25.5352C21.2891 25.5742 20.9961 25.457 20.8008 25.1836C20.6055 24.8711 20.5664 24.5586 20.6836 24.2461C20.8008 23.8945 21.0547 23.6992 21.4453 23.6602C22.3438 23.543 23.1836 23.25 23.9648 22.7812C24.1992 22.6641 24.2578 22.4883 24.1406 22.2539C24.0625 21.9805 23.8867 21.8828 23.6133 21.9609C22.9102 22.1172 22.168 22.1562 21.3867 22.0781C20.6445 21.9609 19.9414 21.7266 19.2773 21.375C18.9258 21.2188 18.75 20.9648 18.75 20.6133C18.75 20.2617 18.8867 19.9883 19.1602 19.793C19.4336 19.5586 19.7461 19.5195 20.0977 19.6758C20.6836 19.9883 21.3086 20.1641 21.9727 20.2031C22.6367 20.2422 23.2617 20.1445 23.8477 19.9102C24.1211 19.832 24.2188 19.6758 24.1406 19.4414C24.1016 19.168 23.9648 19.0312 23.7305 19.0312C22.7539 19.0312 21.9141 18.8359 21.2109 18.4453C20.5078 18.0156 19.9805 17.4102 19.6289 16.6289C19.4727 16.2773 19.4922 15.9648 19.6875 15.6914C19.9219 15.418 20.2148 15.2812 20.5664 15.2812C20.918 15.2812 21.1719 15.457 21.3281 15.8086C21.5234 16.2383 21.7969 16.5703 22.1484 16.8047C22.5391 17.0391 22.9688 17.1562 23.4375 17.1562C24.1016 17.1562 24.6484 16.9414 25.0781 16.5117C25.5469 16.043 25.7812 15.4766 25.7812 14.8125C25.7812 14.1094 25.5273 13.543 25.0195 13.1133C24.5508 12.6836 24.0234 12.4688 23.4375 12.4688C22.9688 12.4688 22.5391 12.5859 22.1484 12.8203C21.7969 13.0547 21.5234 13.3867 21.3281 13.8164C21.1719 14.168 20.918 14.3438 20.5664 14.3438C20.2148 14.3438 19.9219 14.207 19.6875 13.9336C19.4922 13.6602 19.4727 13.3477 19.6289 12.9961C19.9805 12.2539 20.5078 11.668 21.2109 11.2383C21.9141 10.8086 22.6758 10.5938 23.4961 10.5938L28.3594 11.0625C28.4766 11.0625 28.5742 11.043 28.6523 11.0039L32.1094 9.24609C32.2656 9.16797 32.4023 9.16797 32.5195 9.24609C32.6367 9.28516 32.7148 9.34375 32.7539 9.42188L35.0977 14.1094C35.1758 14.2266 35.1953 14.3438 35.1562 14.4609C35.1172 14.5781 35.0391 14.6758 34.9219 14.7539Z" fill="#DA004E"/>
</svg>
