<svg width="168" height="66" viewBox="0 0 168 66" fill="none" xmlns="http://www.w3.org/2000/svg">

<path d="M56.4805 24.8828L54.1953 29.5234L49.0625 30.2617C48.7578 30.3086 48.5117 30.4492 48.3242 30.6836C48.1602 30.918 48.0781 31.1758 48.0781 31.457C48.1016 31.7383 48.2188 31.9844 48.4297 32.1953L52.1562 35.8164L51.2773 40.9492C51.2305 41.2305 51.2773 41.4883 51.418 41.7227C51.582 41.9805 51.8047 42.1445 52.0859 42.2148C52.3672 42.2852 52.6367 42.25 52.8945 42.1094L57.5 39.7188L62.1055 42.1094C62.3633 42.25 62.6328 42.2852 62.9141 42.2148C63.1953 42.1445 63.4062 41.9805 63.5469 41.7227C63.7109 41.4883 63.7695 41.2305 63.7227 40.9492L62.8438 35.8164L66.5703 32.1953C66.7812 31.9844 66.8867 31.7383 66.8867 31.457C66.9102 31.1758 66.8281 30.918 66.6406 30.6836C66.4766 30.4492 66.2422 30.3086 65.9375 30.2617L60.8047 29.5234L58.5195 24.8828C58.3789 24.6016 58.168 24.4141 57.8867 24.3203C57.6289 24.2266 57.3594 24.2266 57.0781 24.3203C56.8203 24.4141 56.6211 24.6016 56.4805 24.8828Z" fill="#FFC700"/>
<path d="M85.4805 24.8828L83.1953 29.5234L78.0625 30.2617C77.7578 30.3086 77.5117 30.4492 77.3242 30.6836C77.1602 30.918 77.0781 31.1758 77.0781 31.457C77.1016 31.7383 77.2188 31.9844 77.4297 32.1953L81.1562 35.8164L80.2773 40.9492C80.2305 41.2305 80.2773 41.4883 80.418 41.7227C80.582 41.9805 80.8047 42.1445 81.0859 42.2148C81.3672 42.2852 81.6367 42.25 81.8945 42.1094L86.5 39.7188L91.1055 42.1094C91.3633 42.25 91.6328 42.2852 91.9141 42.2148C92.1953 42.1445 92.4062 41.9805 92.5469 41.7227C92.7109 41.4883 92.7695 41.2305 92.7227 40.9492L91.8438 35.8164L95.5703 32.1953C95.7812 31.9844 95.8867 31.7383 95.8867 31.457C95.9102 31.1758 95.8281 30.918 95.6406 30.6836C95.4766 30.4492 95.2422 30.3086 94.9375 30.2617L89.8047 29.5234L87.5195 24.8828C87.3789 24.6016 87.168 24.4141 86.8867 24.3203C86.6289 24.2266 86.3594 24.2266 86.0781 24.3203C85.8203 24.4141 85.6211 24.6016 85.4805 24.8828Z" fill="#FFC700"/>
<path d="M123.938 30.2617L118.805 29.5234L116.52 24.8828C116.379 24.6016 116.168 24.4141 115.887 24.3203C115.629 24.2266 115.359 24.2266 115.078 24.3203C114.82 24.4141 114.621 24.6016 114.48 24.8828L112.195 29.5234L107.062 30.2617C106.758 30.3086 106.512 30.4492 106.324 30.6836C106.16 30.918 106.078 31.1758 106.078 31.457C106.102 31.7383 106.219 31.9844 106.43 32.1953L110.156 35.8164L109.277 40.9492C109.23 41.2305 109.277 41.4883 109.418 41.7227C109.582 41.9805 109.805 42.1445 110.086 42.2148C110.367 42.2852 110.637 42.25 110.895 42.1094L115.5 39.7188L120.105 42.1094C120.363 42.25 120.633 42.2852 120.914 42.2148C121.195 42.1445 121.406 41.9805 121.547 41.7227C121.711 41.4883 121.77 41.2305 121.723 40.9492L120.844 35.8164L124.57 32.1953C124.781 31.9844 124.887 31.7383 124.887 31.457C124.91 31.1758 124.828 30.918 124.641 30.6836C124.477 30.4492 124.242 30.3086 123.938 30.2617ZM119.648 35.4297L120.633 41.125L115.5 38.418L110.402 41.125L111.352 35.4297L107.238 31.3867L112.934 30.543L115.5 25.375L118.066 30.543L123.797 31.3867L119.648 35.4297Z" fill="#FFC700"/>
<path d="M152.938 30.2617L147.805 29.5234L145.52 24.8828C145.379 24.6016 145.168 24.4141 144.887 24.3203C144.629 24.2266 144.359 24.2266 144.078 24.3203C143.82 24.4141 143.621 24.6016 143.48 24.8828L141.195 29.5234L136.062 30.2617C135.758 30.3086 135.512 30.4492 135.324 30.6836C135.16 30.918 135.078 31.1758 135.078 31.457C135.102 31.7383 135.219 31.9844 135.43 32.1953L139.156 35.8164L138.277 40.9492C138.23 41.2305 138.277 41.4883 138.418 41.7227C138.582 41.9805 138.805 42.1445 139.086 42.2148C139.367 42.2852 139.637 42.25 139.895 42.1094L144.5 39.7188L149.105 42.1094C149.363 42.25 149.633 42.2852 149.914 42.2148C150.195 42.1445 150.406 41.9805 150.547 41.7227C150.711 41.4883 150.77 41.2305 150.723 40.9492L149.844 35.8164L153.57 32.1953C153.781 31.9844 153.887 31.7383 153.887 31.457C153.91 31.1758 153.828 30.918 153.641 30.6836C153.477 30.4492 153.242 30.3086 152.938 30.2617ZM148.648 35.4297L149.633 41.125L144.5 38.418L139.402 41.125L140.352 35.4297L136.238 31.3867L141.934 30.543L144.5 25.375L147.066 30.543L152.797 31.3867L148.648 35.4297Z" fill="#FFC700"/>
<path d="M27.4805 24.8828L25.1953 29.5234L20.0625 30.2617C19.7578 30.3086 19.5117 30.4492 19.3242 30.6836C19.1602 30.918 19.0781 31.1758 19.0781 31.457C19.1016 31.7383 19.2188 31.9844 19.4297 32.1953L23.1562 35.8164L22.2773 40.9492C22.2305 41.2305 22.2773 41.4883 22.418 41.7227C22.582 41.9805 22.8047 42.1445 23.0859 42.2148C23.3672 42.2852 23.6367 42.25 23.8945 42.1094L28.5 39.7188L33.1055 42.1094C33.3633 42.25 33.6328 42.2852 33.9141 42.2148C34.1953 42.1445 34.4062 41.9805 34.5469 41.7227C34.7109 41.4883 34.7695 41.2305 34.7227 40.9492L33.8438 35.8164L37.5703 32.1953C37.7812 31.9844 37.8867 31.7383 37.8867 31.457C37.9102 31.1758 37.8281 30.918 37.6406 30.6836C37.4766 30.4492 37.2422 30.3086 36.9375 30.2617L31.8047 29.5234L29.5195 24.8828C29.3789 24.6016 29.168 24.4141 28.8867 24.3203C28.6289 24.2266 28.3594 24.2266 28.0781 24.3203C27.8203 24.4141 27.6211 24.6016 27.4805 24.8828Z" fill="#FFC700"/>
<path d="M0 0H156C162.627 0 168 5.37258 168 12V66H12C5.37259 66 0 60.6274 0 54V0Z" fill="#FFC700" fill-opacity="0.1"/>
</svg>
