<svg width="142" height="66" viewBox="0 0 142 66" fill="none" xmlns="http://www.w3.org/2000/svg">
<path d="M0 0H134C138.418 0 142 3.58172 142 8V66H12C5.37258 66 0 60.6274 0 54V0Z" fill="#FFC700" fill-opacity="0.1"/>
<path d="M49.207 28.2422L47.4297 31.8516L43.4375 32.4258C43.2005 32.4622 43.0091 32.5716 42.8633 32.7539C42.7357 32.9362 42.6719 33.1367 42.6719 33.3555C42.6901 33.5742 42.7812 33.7656 42.9453 33.9297L45.8438 36.7461L45.1602 40.7383C45.1237 40.957 45.1602 41.1576 45.2695 41.3398C45.3971 41.5404 45.5703 41.668 45.7891 41.7227C46.0078 41.7773 46.2174 41.75 46.418 41.6406L50 39.7812L53.582 41.6406C53.7826 41.75 53.9922 41.7773 54.2109 41.7227C54.4297 41.668 54.5938 41.5404 54.7031 41.3398C54.8307 41.1576 54.8763 40.957 54.8398 40.7383L54.1562 36.7461L57.0547 33.9297C57.2188 33.7656 57.3008 33.5742 57.3008 33.3555C57.319 33.1367 57.2552 32.9362 57.1094 32.7539C56.9818 32.5716 56.7995 32.4622 56.5625 32.4258L52.5703 31.8516L50.793 28.2422C50.6836 28.0234 50.5195 27.8776 50.3008 27.8047C50.1003 27.7318 49.8906 27.7318 49.6719 27.8047C49.4714 27.8776 49.3164 28.0234 49.207 28.2422Z" fill="#FFC700"/>
<path d="M73.207 28.2422L71.4297 31.8516L67.4375 32.4258C67.2005 32.4622 67.0091 32.5716 66.8633 32.7539C66.7357 32.9362 66.6719 33.1367 66.6719 33.3555C66.6901 33.5742 66.7812 33.7656 66.9453 33.9297L69.8438 36.7461L69.1602 40.7383C69.1237 40.957 69.1602 41.1576 69.2695 41.3398C69.3971 41.5404 69.5703 41.668 69.7891 41.7227C70.0078 41.7773 70.2174 41.75 70.418 41.6406L74 39.7812L77.582 41.6406C77.7826 41.75 77.9922 41.7773 78.2109 41.7227C78.4297 41.668 78.5938 41.5404 78.7031 41.3398C78.8307 41.1576 78.8763 40.957 78.8398 40.7383L78.1562 36.7461L81.0547 33.9297C81.2188 33.7656 81.3008 33.5742 81.3008 33.3555C81.319 33.1367 81.2552 32.9362 81.1094 32.7539C80.9818 32.5716 80.7995 32.4622 80.5625 32.4258L76.5703 31.8516L74.793 28.2422C74.6836 28.0234 74.5195 27.8776 74.3008 27.8047C74.1003 27.7318 73.8906 27.7318 73.6719 27.8047C73.4714 27.8776 73.3164 28.0234 73.207 28.2422Z" fill="#FFC700"/>
<path d="M104.562 32.4258L100.57 31.8516L98.793 28.2422C98.6836 28.0234 98.5195 27.8776 98.3008 27.8047C98.1003 27.7318 97.8906 27.7318 97.6719 27.8047C97.4714 27.8776 97.3164 28.0234 97.207 28.2422L95.4297 31.8516L91.4375 32.4258C91.2005 32.4622 91.0091 32.5716 90.8633 32.7539C90.7357 32.9362 90.6719 33.1367 90.6719 33.3555C90.6901 33.5742 90.7812 33.7656 90.9453 33.9297L93.8438 36.7461L93.1602 40.7383C93.1237 40.957 93.1602 41.1576 93.2695 41.3398C93.3971 41.5404 93.5703 41.668 93.7891 41.7227C94.0078 41.7773 94.2174 41.75 94.418 41.6406L98 39.7812L101.582 41.6406C101.783 41.75 101.992 41.7773 102.211 41.7227C102.43 41.668 102.594 41.5404 102.703 41.3398C102.831 41.1576 102.876 40.957 102.84 40.7383L102.156 36.7461L105.055 33.9297C105.219 33.7656 105.301 33.5742 105.301 33.3555C105.319 33.1367 105.255 32.9362 105.109 32.7539C104.982 32.5716 104.799 32.4622 104.562 32.4258ZM101.227 36.4453L101.992 40.875L98 38.7695L94.0352 40.875L94.7734 36.4453L91.5742 33.3008L96.0039 32.6445L98 28.625L99.9961 32.6445L104.453 33.3008L101.227 36.4453Z" fill="#FFC700"/>
<path d="M128.562 32.4258L124.57 31.8516L122.793 28.2422C122.684 28.0234 122.52 27.8776 122.301 27.8047C122.1 27.7318 121.891 27.7318 121.672 27.8047C121.471 27.8776 121.316 28.0234 121.207 28.2422L119.43 31.8516L115.438 32.4258C115.201 32.4622 115.009 32.5716 114.863 32.7539C114.736 32.9362 114.672 33.1367 114.672 33.3555C114.69 33.5742 114.781 33.7656 114.945 33.9297L117.844 36.7461L117.16 40.7383C117.124 40.957 117.16 41.1576 117.27 41.3398C117.397 41.5404 117.57 41.668 117.789 41.7227C118.008 41.7773 118.217 41.75 118.418 41.6406L122 39.7812L125.582 41.6406C125.783 41.75 125.992 41.7773 126.211 41.7227C126.43 41.668 126.594 41.5404 126.703 41.3398C126.831 41.1576 126.876 40.957 126.84 40.7383L126.156 36.7461L129.055 33.9297C129.219 33.7656 129.301 33.5742 129.301 33.3555C129.319 33.1367 129.255 32.9362 129.109 32.7539C128.982 32.5716 128.799 32.4622 128.562 32.4258ZM125.227 36.4453L125.992 40.875L122 38.7695L118.035 40.875L118.773 36.4453L115.574 33.3008L120.004 32.6445L122 28.625L123.996 32.6445L128.453 33.3008L125.227 36.4453Z" fill="#FFC700"/>
<path d="M25.207 28.2422L23.4297 31.8516L19.4375 32.4258C19.2005 32.4622 19.0091 32.5716 18.8633 32.7539C18.7357 32.9362 18.6719 33.1367 18.6719 33.3555C18.6901 33.5742 18.7812 33.7656 18.9453 33.9297L21.8438 36.7461L21.1602 40.7383C21.1237 40.957 21.1602 41.1576 21.2695 41.3398C21.3971 41.5404 21.5703 41.668 21.7891 41.7227C22.0078 41.7773 22.2174 41.75 22.418 41.6406L26 39.7812L29.582 41.6406C29.7826 41.75 29.9922 41.7773 30.2109 41.7227C30.4297 41.668 30.5938 41.5404 30.7031 41.3398C30.8307 41.1576 30.8763 40.957 30.8398 40.7383L30.1562 36.7461L33.0547 33.9297C33.2188 33.7656 33.3008 33.5742 33.3008 33.3555C33.319 33.1367 33.2552 32.9362 33.1094 32.7539C32.9818 32.5716 32.7995 32.4622 32.5625 32.4258L28.5703 31.8516L26.793 28.2422C26.6836 28.0234 26.5195 27.8776 26.3008 27.8047C26.1003 27.7318 25.8906 27.7318 25.6719 27.8047C25.4714 27.8776 25.3164 28.0234 25.207 28.2422Z" fill="#FFC700"/>
</svg>
