<svg width="16" height="16" viewBox="0 0 16 16" fill="none" xmlns="http://www.w3.org/2000/svg">
<path d="M14 0H2C1.45833 0 0.989583 0.197917 0.59375 0.59375C0.197917 0.989583 0 1.45833 0 2V11C0 11.5417 0.197917 12.0104 0.59375 12.4062C0.989583 12.8021 1.45833 13 2 13H5V15.625C5 15.7292 5.03125 15.8125 5.09375 15.875C5.17708 15.9583 5.26042 16 5.34375 16C5.44792 16 5.53125 15.9792 5.59375 15.9375L9.5 13H14C14.5417 13 15.0104 12.8021 15.4062 12.4062C15.8021 12.0104 16 11.5417 16 11V2C16 1.45833 15.8021 0.989583 15.4062 0.59375C15.0104 0.197917 14.5417 0 14 0ZM14.5 11C14.5 11.1458 14.4479 11.2708 14.3438 11.375C14.2604 11.4583 14.1458 11.5 14 11.5H9L6.5 13.375V11.5H2C1.85417 11.5 1.72917 11.4583 1.625 11.375C1.54167 11.2708 1.5 11.1458 1.5 11V2C1.5 1.85417 1.54167 1.73958 1.625 1.65625C1.72917 1.55208 1.85417 1.5 2 1.5H14C14.1458 1.5 14.2604 1.55208 14.3438 1.65625C14.4479 1.73958 14.5 1.85417 14.5 2V11ZM11.5 4.25H4.5C4.35417 4.25 4.22917 4.30208 4.125 4.40625C4.04167 4.48958 4 4.60417 4 4.75V5.25C4 5.39583 4.04167 5.52083 4.125 5.625C4.22917 5.70833 4.35417 5.75 4.5 5.75H11.5C11.6458 5.75 11.7604 5.70833 11.8438 5.625C11.9479 5.52083 12 5.39583 12 5.25V4.75C12 4.60417 11.9479 4.48958 11.8438 4.40625C11.7604 4.30208 11.6458 4.25 11.5 4.25ZM8.5 7.25H4.5C4.35417 7.25 4.22917 7.30208 4.125 7.40625C4.04167 7.48958 4 7.60417 4 7.75V8.25C4 8.39583 4.04167 8.52083 4.125 8.625C4.22917 8.70833 4.35417 8.75 4.5 8.75H8.5C8.64583 8.75 8.76042 8.70833 8.84375 8.625C8.94792 8.52083 9 8.39583 9 8.25V7.75C9 7.60417 8.94792 7.48958 8.84375 7.40625C8.76042 7.30208 8.64583 7.25 8.5 7.25Z" fill="#FFC700"/>
</svg>
