<svg width="14" height="15" viewBox="0 0 14 15" fill="none" xmlns="http://www.w3.org/2000/svg">
<path d="M12.1406 2.11719C11.8125 1.82552 11.3477 1.5612 10.7461 1.32422C9.76172 0.959635 8.59505 0.768229 7.24609 0.75H6.64453C6.15234 0.75 5.66927 0.786458 5.19531 0.859375C4.52083 0.950521 3.91927 1.08724 3.39062 1.26953C2.71615 1.50651 2.16927 1.81641 1.75 2.19922C1.27604 2.67318 0.929688 3.28385 0.710938 4.03125C0.510417 4.70573 0.401042 5.52604 0.382812 6.49219C0.346354 7.40365 0.373698 8.13281 0.464844 8.67969C0.592448 9.6276 0.856771 10.4115 1.25781 11.0312C1.80469 11.8151 2.57943 12.3438 3.58203 12.6172V14.2031C3.60026 14.3125 3.6276 14.4128 3.66406 14.5039C3.71875 14.6133 3.80078 14.6862 3.91016 14.7227C4.09245 14.7773 4.26562 14.75 4.42969 14.6406C4.52083 14.5677 4.66667 14.4219 4.86719 14.2031L5.08594 13.957C5.25 13.7747 5.52344 13.474 5.90625 13.0547C6.85417 13.1276 7.80208 13.1003 8.75 12.9727C9.35156 12.8997 9.78906 12.8177 10.0625 12.7266L10.2266 12.6992C10.9557 12.5169 11.5482 12.2435 12.0039 11.8789C12.8424 11.1862 13.3438 10.1745 13.5078 8.84375C13.7083 7.16667 13.681 5.73568 13.4258 4.55078C13.1706 3.45703 12.7422 2.64583 12.1406 2.11719ZM12.5234 8.59766C12.3776 9.69141 11.9674 10.5117 11.293 11.0586C10.9284 11.3503 10.4544 11.569 9.87109 11.7148L9.70703 11.7422C9.47005 11.8151 9.08724 11.888 8.55859 11.9609C7.73828 12.0703 6.92708 12.0977 6.125 12.043L5.35938 12.9727C4.8125 13.6107 4.44792 14.0208 4.26562 14.2031C4.17448 14.2943 4.09245 14.3216 4.01953 14.2852C3.96484 14.2669 3.9375 14.194 3.9375 14.0664L3.96484 11.7148C3.14453 11.4779 2.51562 11.0495 2.07812 10.4297C1.75 9.91927 1.53125 9.28125 1.42188 8.51562C1.36719 8.07812 1.34896 7.46745 1.36719 6.68359V6.51953C1.38542 5.71745 1.47656 5.03385 1.64062 4.46875C1.84115 3.83073 2.14193 3.32031 2.54297 2.9375C2.88932 2.60938 3.34505 2.34505 3.91016 2.14453C4.36589 1.9987 4.8763 1.88932 5.44141 1.81641C5.84245 1.76172 6.2526 1.73438 6.67188 1.73438H7.19141C8.33984 1.7526 9.34245 1.90755 10.1992 2.19922C10.7461 2.38151 11.1471 2.59115 11.4023 2.82812C11.9128 3.26562 12.2682 3.96745 12.4688 4.93359C12.6875 5.95443 12.7057 7.17578 12.5234 8.59766ZM8.72266 6.38281C8.72266 6.51042 8.65885 6.57422 8.53125 6.57422C8.42188 6.57422 8.36719 6.51953 8.36719 6.41016C8.33073 5.82682 8.02995 5.51693 7.46484 5.48047C7.35547 5.48047 7.30078 5.42578 7.30078 5.31641C7.31901 5.1888 7.38281 5.125 7.49219 5.125C8.27604 5.16146 8.6862 5.58073 8.72266 6.38281ZM9.26953 6.68359C9.28776 6.10026 9.11458 5.60807 8.75 5.20703C8.38542 4.80599 7.86589 4.57812 7.19141 4.52344C7.08203 4.52344 7.02734 4.46875 7.02734 4.35938C7.04557 4.23177 7.10938 4.16797 7.21875 4.16797C7.98438 4.22266 8.57682 4.48698 8.99609 4.96094C9.43359 5.4349 9.64323 6.01823 9.625 6.71094C9.625 6.82031 9.5612 6.875 9.43359 6.875C9.32422 6.875 9.26953 6.8112 9.26953 6.68359ZM10.5547 7.06641C10.5547 7.17578 10.4909 7.23047 10.3633 7.23047C10.2539 7.23047 10.1992 7.17578 10.1992 7.06641C10.1992 5.99089 9.87109 5.13411 9.21484 4.49609C8.61328 3.91276 7.84766 3.62109 6.91797 3.62109C6.79036 3.62109 6.72656 3.56641 6.72656 3.45703C6.72656 3.32943 6.79036 3.26562 6.91797 3.26562C7.95703 3.26562 8.8138 3.60286 9.48828 4.27734C10.1992 4.97005 10.5547 5.89974 10.5547 7.06641ZM10.2539 9.74609C10.0716 10.056 9.87109 10.293 9.65234 10.457C9.36068 10.6758 9.08724 10.7396 8.83203 10.6484C8.52214 10.5573 8.09375 10.3659 7.54688 10.0742C6.94531 9.74609 6.4349 9.41797 6.01562 9.08984C5.59635 8.76172 5.21354 8.37891 4.86719 7.94141C4.57552 7.55859 4.30208 7.14844 4.04688 6.71094C3.79167 6.25521 3.60026 5.85417 3.47266 5.50781L3.30859 5.15234C3.23568 4.89714 3.29948 4.6237 3.5 4.33203C3.68229 4.11328 3.92839 3.91276 4.23828 3.73047C4.49349 3.60286 4.71224 3.63932 4.89453 3.83984L5.38672 4.44141C5.51432 4.6237 5.65104 4.84245 5.79688 5.09766C5.86979 5.24349 5.88802 5.38932 5.85156 5.53516C5.83333 5.66276 5.77865 5.76302 5.6875 5.83594L5.35938 6.08203C5.28646 6.13672 5.24089 6.21875 5.22266 6.32812V6.46484L5.33203 6.76562C5.42318 7.0026 5.54167 7.23047 5.6875 7.44922C5.88802 7.75911 6.125 8.01432 6.39844 8.21484C6.72656 8.48828 7.10026 8.67969 7.51953 8.78906L7.65625 8.76172C7.76562 8.74349 7.84766 8.69792 7.90234 8.625L8.17578 8.29688C8.2487 8.20573 8.34896 8.15104 8.47656 8.13281C8.6224 8.09635 8.75911 8.1237 8.88672 8.21484C9.39714 8.48828 9.81641 8.77995 10.1445 9.08984C10.3451 9.27214 10.3815 9.49089 10.2539 9.74609Z" fill="#4E109F"/>
</svg>
