<svg width="30" height="31" viewBox="0 0 30 31" fill="none" xmlns="http://www.w3.org/2000/svg">
<path d="M27.4998 6.5C27.4998 10.7113 29.9224 23.4586 25.0899 23.4586C23.3775 23.4586 19.9945 26.5547 16.34 25.6372C13.0587 24.5479 9.41421 30.2089 8.68375 29.9944C6.99979 29.5 9.77749 24.5479 6.49626 24.5479C2.98394 23.1265 2.12133 16.3448 2.12133 14.7446C2.12133 10.5333 1.02753 8.20952 5.40253 3.85196C7.59002 1.67367 27.4998 2.28873 27.4998 6.5Z" fill="#4E109F"/>
<path d="M26.0154 3.67969C25.3123 3.05469 24.3162 2.48828 23.0271 1.98047C20.9178 1.19922 18.4178 0.789062 15.5271 0.75H14.2381C13.1834 0.75 12.1482 0.828125 11.1326 0.984375C9.68729 1.17969 8.39823 1.47266 7.26542 1.86328C5.8201 2.37109 4.64823 3.03516 3.74979 3.85547C2.73417 4.87109 1.99198 6.17969 1.52323 7.78125C1.09354 9.22656 0.859166 10.9844 0.820103 13.0547C0.741978 15.0078 0.800572 16.5703 0.995884 17.7422C1.26932 19.7734 1.83573 21.4531 2.6951 22.7812C3.86698 24.4609 5.52713 25.5938 7.67557 26.1797V29.5781C7.71463 29.8125 7.77323 30.0273 7.85135 30.2227C7.96854 30.457 8.14432 30.6133 8.3787 30.6914C8.76932 30.8086 9.14042 30.75 9.49198 30.5156C9.68729 30.3594 9.99979 30.0469 10.4295 29.5781L10.8982 29.0508C11.2498 28.6602 11.8357 28.0156 12.656 27.1172C14.6873 27.2734 16.7185 27.2148 18.7498 26.9414C20.0389 26.7852 20.9764 26.6094 21.5623 26.4141L21.9139 26.3555C23.4764 25.9648 24.7459 25.3789 25.7224 24.5977C27.5193 23.1133 28.5935 20.9453 28.9451 18.0938C29.3748 14.5 29.3162 11.4336 28.7693 8.89453C28.2224 6.55078 27.3045 4.8125 26.0154 3.67969ZM26.8357 17.5664C26.5232 19.9102 25.6443 21.668 24.199 22.8398C23.4178 23.4648 22.4021 23.9336 21.1521 24.2461L20.8006 24.3047C20.2928 24.4609 19.4724 24.6172 18.3396 24.7734C16.5818 25.0078 14.8435 25.0664 13.1248 24.9492L11.4842 26.9414C10.3123 28.3086 9.53104 29.1875 9.14042 29.5781C8.9451 29.7734 8.76932 29.832 8.61307 29.7539C8.49588 29.7148 8.43729 29.5586 8.43729 29.2852L8.49588 24.2461C6.73807 23.7383 5.39042 22.8203 4.45292 21.4922C3.74979 20.3984 3.28104 19.0312 3.04667 17.3906C2.92948 16.4531 2.89042 15.1445 2.92948 13.4648V13.1133C2.96854 11.3945 3.16385 9.92969 3.51542 8.71875C3.9451 7.35156 4.58963 6.25781 5.44901 5.4375C6.1912 4.73438 7.16776 4.16797 8.3787 3.73828C9.35526 3.42578 10.449 3.19141 11.6599 3.03516C12.5193 2.91797 13.3982 2.85938 14.2967 2.85938H15.4099C17.8709 2.89844 20.0193 3.23047 21.8553 3.85547C23.0271 4.24609 23.8865 4.69531 24.4334 5.20312C25.5271 6.14062 26.2889 7.64453 26.7185 9.71484C27.1873 11.9023 27.2264 14.5195 26.8357 17.5664ZM18.6912 12.8203C18.6912 13.0938 18.5545 13.2305 18.281 13.2305C18.0467 13.2305 17.9295 13.1133 17.9295 12.8789C17.8514 11.6289 17.2068 10.9648 15.9959 10.8867C15.7615 10.8867 15.6443 10.7695 15.6443 10.5352C15.6834 10.2617 15.8201 10.125 16.0545 10.125C17.7342 10.2031 18.6131 11.1016 18.6912 12.8203ZM19.8631 13.4648C19.9021 12.2148 19.531 11.1602 18.7498 10.3008C17.9685 9.44141 16.8553 8.95312 15.4099 8.83594C15.1756 8.83594 15.0584 8.71875 15.0584 8.48438C15.0974 8.21094 15.2342 8.07422 15.4685 8.07422C17.1092 8.19141 18.3787 8.75781 19.2771 9.77344C20.2146 10.7891 20.6639 12.0391 20.6248 13.5234C20.6248 13.7578 20.4881 13.875 20.2146 13.875C19.9803 13.875 19.8631 13.7383 19.8631 13.4648ZM22.617 14.2852C22.617 14.5195 22.4803 14.6367 22.2068 14.6367C21.9724 14.6367 21.8553 14.5195 21.8553 14.2852C21.8553 11.9805 21.1521 10.1445 19.7459 8.77734C18.4568 7.52734 16.8162 6.90234 14.824 6.90234C14.5506 6.90234 14.4139 6.78516 14.4139 6.55078C14.4139 6.27734 14.5506 6.14062 14.824 6.14062C17.0506 6.14062 18.8865 6.86328 20.3318 8.30859C21.8553 9.79297 22.617 11.7852 22.617 14.2852ZM21.9724 20.0273C21.5818 20.6914 21.1521 21.1992 20.6834 21.5508C20.0584 22.0195 19.4724 22.1562 18.9256 21.9609C18.2615 21.7656 17.3435 21.3555 16.1717 20.7305C14.8826 20.0273 13.7889 19.3242 12.8904 18.6211C11.992 17.918 11.1717 17.0977 10.4295 16.1602C9.80448 15.3398 9.21854 14.4609 8.67167 13.5234C8.12479 12.5469 7.71463 11.6875 7.4412 10.9453L7.08963 10.1836C6.93338 9.63672 7.0701 9.05078 7.49979 8.42578C7.89042 7.95703 8.41776 7.52734 9.08182 7.13672C9.6287 6.86328 10.0974 6.94141 10.4881 7.37109L11.5428 8.66016C11.8162 9.05078 12.1092 9.51953 12.4217 10.0664C12.5779 10.3789 12.617 10.6914 12.5389 11.0039C12.4998 11.2773 12.3826 11.4922 12.1873 11.6484L11.4842 12.1758C11.3279 12.293 11.2303 12.4688 11.1912 12.7031V12.9961L11.4256 13.6406C11.6209 14.1484 11.8748 14.6367 12.1873 15.1055C12.617 15.7695 13.1248 16.3164 13.7107 16.7461C14.4139 17.332 15.2146 17.7422 16.1131 17.9766L16.406 17.918C16.6404 17.8789 16.8162 17.7812 16.9334 17.625L17.5193 16.9219C17.6756 16.7266 17.8904 16.6094 18.1639 16.5703C18.4764 16.4922 18.7693 16.5508 19.0428 16.7461C20.1365 17.332 21.0349 17.957 21.7381 18.6211C22.1678 19.0117 22.2459 19.4805 21.9724 20.0273Z" fill="#4E109F"/>
<path d="M20.7754 13.4769C20.8157 11.9721 20.3505 10.702 19.3791 9.67033C18.4465 8.6373 17.1304 8.06368 15.437 7.94513L15.437 7.94501H15.4335C15.3033 7.94501 15.1944 7.98255 15.1129 8.06244C15.0322 8.14147 14.9841 8.25639 14.9631 8.40037L14.9626 8.40029V8.40758C14.9626 8.53342 14.9947 8.63693 15.0678 8.70851C15.1402 8.77953 15.2445 8.81088 15.3714 8.81121C16.8447 8.92863 17.9736 9.41604 18.7644 10.2687C19.5566 11.1228 19.9334 12.1706 19.8937 13.4157L19.8937 13.4157V13.4173C19.8937 13.561 19.9249 13.6782 19.9962 13.7597C20.0686 13.8425 20.1746 13.8799 20.3045 13.8799C20.4506 13.8799 20.5695 13.8494 20.6523 13.7798C20.7367 13.7089 20.7753 13.6047 20.7754 13.4769ZM20.7754 13.4769C20.7754 13.4767 20.7754 13.4765 20.7754 13.4763H20.7254L20.7754 13.4776C20.7754 13.4774 20.7754 13.4772 20.7754 13.4769ZM18.791 12.769H18.791L18.7909 12.7667C18.7504 11.8943 18.5022 11.2226 18.0397 10.7593C17.5771 10.2958 16.9071 10.0476 16.0371 10.0079L16.0371 10.0078H16.0349C15.9046 10.0078 15.7957 10.0454 15.7142 10.1253C15.6336 10.2043 15.5854 10.3192 15.5644 10.4632L15.5639 10.4631V10.4704C15.5639 10.5963 15.5961 10.6998 15.6691 10.7713C15.7417 10.8424 15.8461 10.8738 15.9731 10.874C16.5856 10.913 17.048 11.0966 17.3674 11.4191C17.6869 11.7417 17.8694 12.2096 17.9092 12.8296C17.9095 12.9547 17.9417 13.0576 18.0144 13.1289C18.0873 13.2003 18.1923 13.2316 18.32 13.2316C18.4678 13.2316 18.5878 13.1954 18.6707 13.1141C18.7538 13.0327 18.791 12.9145 18.791 12.769ZM22.1514 20.0441L22.1515 20.0442L22.1531 20.0411C22.2968 19.7593 22.3505 19.4929 22.3082 19.2438C22.2658 18.9946 22.1283 18.769 21.9016 18.5669C21.1766 17.8959 20.2517 17.2654 19.1278 16.6751C18.8373 16.4727 18.5237 16.4109 18.1903 16.4919C17.9001 16.533 17.6686 16.6561 17.4998 16.8627C17.4997 16.8628 17.4996 16.8629 17.4995 16.8631L16.8988 17.5696L16.8988 17.5695L16.8972 17.5716C16.7864 17.7164 16.6186 17.8096 16.3876 17.8473L16.3876 17.8473L16.3861 17.8476L16.0965 17.9043C15.1857 17.6699 14.3741 17.2615 13.6611 16.6791L13.6611 16.6791L13.6586 16.6773C13.0626 16.2489 12.5456 15.7034 12.1077 15.04L12.1073 15.0395C11.7887 14.5711 11.5299 14.0833 11.3309 13.5763L11.0936 12.9368V12.6554C11.1325 12.4318 11.227 12.269 11.3739 12.161L12.0955 11.6305L12.0956 11.6305L12.0968 11.6296C12.3077 11.4642 12.4337 11.237 12.4758 10.9517C12.5584 10.6254 12.5159 10.2995 12.351 9.97619L12.3511 9.97615L12.3497 9.97373C12.0284 9.4227 11.7269 8.94983 11.4451 8.55533L11.4453 8.55525L11.4428 8.55235L10.3604 7.25571L10.3604 7.25567L10.3587 7.25375C10.1523 7.03125 9.92225 6.89674 9.66858 6.85531C9.41525 6.81393 9.14408 6.8663 8.85676 7.0071L8.85671 7.007L8.85379 7.00868C8.16857 7.40373 7.62249 7.83938 7.21702 8.31625L7.21685 8.31611L7.21418 8.31993C6.76764 8.9565 6.62022 9.56153 6.78616 10.1308L6.78557 10.131L6.78893 10.1381L7.14888 10.9025C7.43075 11.6519 7.85279 12.5182 8.4144 13.5011L8.4144 13.5011L8.41485 13.5018C8.97712 14.4465 9.57963 15.3323 10.2224 16.1592L10.2224 16.1592L10.223 16.1599C10.9871 17.1059 11.8318 17.9338 12.7571 18.6436C13.6819 19.3529 14.8068 20.0616 16.1316 20.7698L16.132 20.77C17.3347 21.3987 18.2799 21.813 18.9663 22.011C19.5478 22.214 20.1659 22.0684 20.8152 21.5911C21.3029 21.2325 21.7481 20.7161 22.1514 20.0441ZM22.3491 14.6461C22.4952 14.6461 22.6141 14.6156 22.6969 14.546C22.7815 14.4749 22.82 14.3706 22.82 14.2425C22.82 11.7167 22.0344 9.69889 20.4595 8.19483C18.9659 6.73105 17.0687 6.00005 14.772 6.00005C14.6243 6.00005 14.5042 6.03626 14.4213 6.11748C14.3383 6.19889 14.3011 6.31713 14.3011 6.46262C14.3011 6.59071 14.3396 6.6951 14.4242 6.76612C14.507 6.83574 14.6259 6.86625 14.772 6.86625C16.8055 6.86625 18.4764 7.49107 19.7889 8.73847C21.2206 10.1027 21.9383 11.9355 21.9383 14.2425C21.9383 14.3683 21.9704 14.4718 22.0435 14.5434C22.1163 14.6148 22.2213 14.6461 22.3491 14.6461Z" fill="white" stroke="white" stroke-width="0.1"/>
</svg>
