<svg width="40" height="40" viewBox="0 0 40 40" fill="none" xmlns="http://www.w3.org/2000/svg">
<rect width="40" height="40" rx="4" fill="#4C77A5"/>
<path d="M28.1602 15.3984C28.3008 14.8828 28.0898 14.625 27.5273 14.625H25.4531C25.0312 14.625 24.7383 14.8242 24.5742 15.2227L24.2227 15.9258C23.9414 16.5352 23.6484 17.0977 23.3438 17.6133C22.8984 18.3398 22.4531 18.9492 22.0078 19.4414C21.7734 19.6992 21.5859 19.875 21.4453 19.9688C21.3047 20.0391 21.1758 20.0742 21.0586 20.0742C20.9648 20.0742 20.8828 20.0273 20.8125 19.9336C20.7422 19.8398 20.707 19.6875 20.707 19.4766V15.3984C20.707 15.1172 20.6602 14.918 20.5664 14.8008C20.4961 14.6836 20.3555 14.625 20.1445 14.625H16.875C16.7344 14.625 16.6055 14.6719 16.4883 14.7656C16.3945 14.8594 16.3477 14.9766 16.3477 15.1172C16.3477 15.2344 16.4297 15.3984 16.5938 15.6094C16.7578 15.7969 16.875 15.9727 16.9453 16.1367C17.0859 16.418 17.168 16.7461 17.1914 17.1211V20.1797C17.1914 20.4844 17.1562 20.6953 17.0859 20.8125C17.0391 20.9062 16.9453 20.9531 16.8047 20.9531C16.5703 20.9531 16.2422 20.6953 15.8203 20.1797C15.3984 19.6641 14.9766 18.9961 14.5547 18.1758C14.0859 17.2852 13.6875 16.3711 13.3594 15.4336C13.2656 15.1289 13.1484 14.918 13.0078 14.8008C12.8906 14.6836 12.7031 14.625 12.4453 14.625H10.3711C9.90234 14.625 9.66797 14.8242 9.66797 15.2227C9.66797 15.457 9.75 15.8672 9.91406 16.4531C10.1719 17.1797 10.5117 17.9648 10.9336 18.8086C11.4727 19.9102 12.1406 21 12.9375 22.0781C13.7812 23.2969 14.7656 24.2344 15.8906 24.8906C17.0156 25.5469 18.1289 25.875 19.2305 25.875C19.8633 25.875 20.2852 25.8047 20.4961 25.6641C20.6602 25.5469 20.7305 25.3477 20.707 25.0664V24.1523C20.707 23.5898 20.7188 23.2266 20.7422 23.0625C20.7422 22.8281 20.7773 22.6758 20.8477 22.6055C20.9414 22.5352 21.082 22.5 21.2695 22.5C21.7148 22.5 22.4062 22.9453 23.3438 23.8359C23.625 24.1172 23.9414 24.4688 24.293 24.8906C24.668 25.2891 24.9258 25.5352 25.0664 25.6289C25.2773 25.793 25.5117 25.875 25.7695 25.875H27.8438C28.125 25.875 28.3242 25.8047 28.4414 25.6641C28.582 25.5 28.6172 25.2773 28.5469 24.9961C28.3359 24.3398 27.3867 23.1445 25.6992 21.4102L25.3828 21.0586C25.2422 20.8945 25.1719 20.7539 25.1719 20.6367C25.1719 20.5195 25.2422 20.3555 25.3828 20.1445C25.4062 20.1211 25.6289 19.8047 26.0508 19.1953C26.543 18.4219 26.9648 17.7422 27.3164 17.1562C27.8086 16.3359 28.0898 15.75 28.1602 15.3984Z" fill="white"/>
</svg>
