<svg width="40" height="40" viewBox="0 0 40 40" fill="none" xmlns="http://www.w3.org/2000/svg">
<rect width="40" height="40" rx="4" fill="#C4C4C4"/>
<path d="M28.1602 13.3984C28.3008 12.8828 28.0898 12.625 27.5273 12.625H25.4531C25.0312 12.625 24.7383 12.8242 24.5742 13.2227L24.2227 13.9258C23.9414 14.5352 23.6484 15.0977 23.3438 15.6133C22.8984 16.3398 22.4531 16.9492 22.0078 17.4414C21.7734 17.6992 21.5859 17.875 21.4453 17.9688C21.3047 18.0391 21.1758 18.0742 21.0586 18.0742C20.9648 18.0742 20.8828 18.0273 20.8125 17.9336C20.7422 17.8398 20.707 17.6875 20.707 17.4766V13.3984C20.707 13.1172 20.6602 12.918 20.5664 12.8008C20.4961 12.6836 20.3555 12.625 20.1445 12.625H16.875C16.7344 12.625 16.6055 12.6719 16.4883 12.7656C16.3945 12.8594 16.3477 12.9766 16.3477 13.1172C16.3477 13.2344 16.4297 13.3984 16.5938 13.6094C16.7578 13.7969 16.875 13.9727 16.9453 14.1367C17.0859 14.418 17.168 14.7461 17.1914 15.1211V18.1797C17.1914 18.4844 17.1562 18.6953 17.0859 18.8125C17.0391 18.9062 16.9453 18.9531 16.8047 18.9531C16.5703 18.9531 16.2422 18.6953 15.8203 18.1797C15.3984 17.6641 14.9766 16.9961 14.5547 16.1758C14.0859 15.2852 13.6875 14.3711 13.3594 13.4336C13.2656 13.1289 13.1484 12.918 13.0078 12.8008C12.8906 12.6836 12.7031 12.625 12.4453 12.625H10.3711C9.90234 12.625 9.66797 12.8242 9.66797 13.2227C9.66797 13.457 9.75 13.8672 9.91406 14.4531C10.1719 15.1797 10.5117 15.9648 10.9336 16.8086C11.4727 17.9102 12.1406 19 12.9375 20.0781C13.7812 21.2969 14.7656 22.2344 15.8906 22.8906C17.0156 23.5469 18.1289 23.875 19.2305 23.875C19.8633 23.875 20.2852 23.8047 20.4961 23.6641C20.6602 23.5469 20.7305 23.3477 20.707 23.0664V22.1523C20.707 21.5898 20.7188 21.2266 20.7422 21.0625C20.7422 20.8281 20.7773 20.6758 20.8477 20.6055C20.9414 20.5352 21.082 20.5 21.2695 20.5C21.7148 20.5 22.4062 20.9453 23.3438 21.8359C23.625 22.1172 23.9414 22.4688 24.293 22.8906C24.668 23.2891 24.9258 23.5352 25.0664 23.6289C25.2773 23.793 25.5117 23.875 25.7695 23.875H27.8438C28.125 23.875 28.3242 23.8047 28.4414 23.6641C28.582 23.5 28.6172 23.2773 28.5469 22.9961C28.3359 22.3398 27.3867 21.1445 25.6992 19.4102L25.3828 19.0586C25.2422 18.8945 25.1719 18.7539 25.1719 18.6367C25.1719 18.5195 25.2422 18.3555 25.3828 18.1445C25.4062 18.1211 25.6289 17.8047 26.0508 17.1953C26.543 16.4219 26.9648 15.7422 27.3164 15.1562C27.8086 14.3359 28.0898 13.75 28.1602 13.3984Z" fill="white"/>
</svg>
