<svg width="21" height="31" viewBox="0 0 21 31" fill="none" xmlns="http://www.w3.org/2000/svg">
<path d="M10.3125 21.375C11.875 21.375 13.2031 20.8281 14.2969 19.7344C15.3906 18.6406 15.9375 17.3125 15.9375 15.75V6.375C15.9375 4.8125 15.3906 3.48438 14.2969 2.39062C13.2031 1.29687 11.875 0.75 10.3125 0.75C8.75 0.75 7.42188 1.29687 6.32812 2.39062C5.23438 3.48438 4.6875 4.8125 4.6875 6.375V15.75C4.6875 17.3125 5.23438 18.6406 6.32812 19.7344C7.42188 20.8281 8.75 21.375 10.3125 21.375ZM19.6875 12H18.75C18.4766 12 18.2422 12.0977 18.0469 12.293C17.8906 12.4492 17.8125 12.6641 17.8125 12.9375V15.75C17.8125 17.1953 17.4219 18.5234 16.6406 19.7344C15.8984 20.9062 14.9023 21.8242 13.6523 22.4883C12.4023 23.1133 11.0352 23.3477 9.55078 23.1914C8.30078 23.0742 7.14844 22.6445 6.09375 21.9023C5.07812 21.1602 4.27734 20.2227 3.69141 19.0898C3.10547 17.918 2.8125 16.6875 2.8125 15.3984V12.9375C2.8125 12.6641 2.71484 12.4492 2.51953 12.293C2.36328 12.0977 2.14844 12 1.875 12H0.9375C0.664062 12 0.429688 12.0977 0.234375 12.293C0.078125 12.4492 0 12.6641 0 12.9375V15.2812C0 17.0391 0.371094 18.6992 1.11328 20.2617C1.89453 21.7852 2.96875 23.0547 4.33594 24.0703C5.70312 25.0859 7.22656 25.7109 8.90625 25.9453V27.9375H5.625C5.35156 27.9375 5.11719 28.0156 4.92188 28.1719C4.76562 28.3672 4.6875 28.6016 4.6875 28.875V29.8125C4.6875 30.0859 4.76562 30.3008 4.92188 30.457C5.11719 30.6523 5.35156 30.75 5.625 30.75H15C15.2734 30.75 15.4883 30.6523 15.6445 30.457C15.8398 30.3008 15.9375 30.0859 15.9375 29.8125V28.875C15.9375 28.6016 15.8398 28.3672 15.6445 28.1719C15.4883 28.0156 15.2734 27.9375 15 27.9375H11.7188V25.9453C13.3594 25.7109 14.8633 25.125 16.2305 24.1875C17.5977 23.2109 18.6719 22 19.4531 20.5547C20.2344 19.0703 20.625 17.4688 20.625 15.75V12.9375C20.625 12.6641 20.5273 12.4492 20.332 12.293C20.1758 12.0977 19.9609 12 19.6875 12Z" fill="#FE8C02"/>
</svg>
