<svg width="10" height="15" viewBox="0 0 10 15" fill="none" xmlns="http://www.w3.org/2000/svg">
<path d="M9.1875 6H8.75C8.6224 6 8.51302 6.04557 8.42188 6.13672C8.34896 6.20964 8.3125 6.3099 8.3125 6.4375V7.75C8.3125 8.42448 8.13021 9.04427 7.76562 9.60938C7.41927 10.1562 6.95443 10.5846 6.37109 10.8945C5.78776 11.1862 5.14974 11.2956 4.45703 11.2227C3.8737 11.168 3.33594 10.9674 2.84375 10.6211C2.36979 10.2747 1.99609 9.83724 1.72266 9.30859C1.44922 8.76172 1.3125 8.1875 1.3125 7.58594V6.4375C1.3125 6.3099 1.26693 6.20964 1.17578 6.13672C1.10286 6.04557 1.0026 6 0.875 6H0.4375C0.309896 6 0.200521 6.04557 0.109375 6.13672C0.0364583 6.20964 0 6.3099 0 6.4375V7.53125C0 8.35156 0.173177 9.1263 0.519531 9.85547C0.884115 10.5664 1.38542 11.1589 2.02344 11.6328C2.66146 12.1068 3.3724 12.3984 4.15625 12.5078V13.4375H2.625C2.4974 13.4375 2.38802 13.474 2.29688 13.5469C2.22396 13.638 2.1875 13.7474 2.1875 13.875V14.3125C2.1875 14.4401 2.22396 14.5404 2.29688 14.6133C2.38802 14.7044 2.4974 14.75 2.625 14.75H7C7.1276 14.75 7.22786 14.7044 7.30078 14.6133C7.39193 14.5404 7.4375 14.4401 7.4375 14.3125V13.875C7.4375 13.7474 7.39193 13.638 7.30078 13.5469C7.22786 13.474 7.1276 13.4375 7 13.4375H5.46875V12.5078C6.23438 12.3984 6.9362 12.125 7.57422 11.6875C8.21224 11.2318 8.71354 10.6667 9.07812 9.99219C9.44271 9.29948 9.625 8.55208 9.625 7.75V6.4375C9.625 6.3099 9.57943 6.20964 9.48828 6.13672C9.41536 6.04557 9.3151 6 9.1875 6ZM4.8125 10.375C5.54167 10.375 6.16146 10.1198 6.67188 9.60938C7.18229 9.09896 7.4375 8.47917 7.4375 7.75V3.375C7.4375 2.64583 7.18229 2.02604 6.67188 1.51562C6.16146 1.00521 5.54167 0.75 4.8125 0.75C4.08333 0.75 3.46354 1.00521 2.95312 1.51562C2.44271 2.02604 2.1875 2.64583 2.1875 3.375V7.75C2.1875 8.47917 2.44271 9.09896 2.95312 9.60938C3.46354 10.1198 4.08333 10.375 4.8125 10.375ZM3.5 3.375C3.5 3.01042 3.6276 2.70052 3.88281 2.44531C4.13802 2.1901 4.44792 2.0625 4.8125 2.0625C5.17708 2.0625 5.48698 2.1901 5.74219 2.44531C5.9974 2.70052 6.125 3.01042 6.125 3.375V7.75C6.125 8.11458 5.9974 8.42448 5.74219 8.67969C5.48698 8.9349 5.17708 9.0625 4.8125 9.0625C4.44792 9.0625 4.13802 8.9349 3.88281 8.67969C3.6276 8.42448 3.5 8.11458 3.5 7.75V3.375Z" fill="#FE8C02"/>
</svg>
