<svg width="229" height="48" viewBox="0 0 229 48" fill="none" xmlns="http://www.w3.org/2000/svg">
<path d="M0 0.520482H19.1833V47.3639H13.186V6.59277H5.99736V47.3639H0V0.520482Z" fill="#FAFAFA"/>
<path d="M29.1598 0.520482H35.6501L42.3047 47.3639H36.677L35.3625 36.5494H29.5705L28.215 47.3639H22.5052L29.1598 0.520482ZM34.7053 31.1133L32.446 11.4506L30.1867 31.1133H34.7053Z" fill="#FAFAFA"/>
<path d="M45.6509 0.520482H55.4274C61.0961 0.520482 63.9305 4.95422 63.9305 13.8217C63.9305 22.3036 60.9592 26.5446 55.0166 26.5446H51.6893V47.3639H45.6509V0.520482ZM54.0308 20.5301C55.6739 20.5301 56.783 20.0482 57.3581 19.0843C57.9332 18.0819 58.2207 16.3084 58.2207 13.7639C58.2207 11.9133 58.1249 10.506 57.9332 9.54217C57.7415 8.53976 57.3444 7.78795 56.7419 7.28675C56.1668 6.78554 55.2631 6.53494 54.0308 6.53494H51.6893V20.5301H54.0308Z" fill="#FAFAFA"/>
<path d="M70.6403 6.8241H65.3413V0.520482H81.8956V6.8241H76.7198V47.3639H70.6403V6.8241Z" fill="#FAFAFA"/>
<path d="M85.0057 0.520482H91.0441V20.0675H97.8219V0.520482H103.901V47.3639H97.8219V26.1976H91.0441V47.3639H85.0057V0.520482Z" fill="#FAFAFA"/>
<path d="M108.993 0.520482H122.959V6.53494H115.031V20.0096H121.275V25.9663H115.031V41.5229H123.041V47.3639H108.993V0.520482Z" fill="#FAFAFA"/>
<path d="M126.563 0.520482H136.339C142.008 0.520482 144.843 4.95422 144.843 13.8217C144.843 22.3036 141.871 26.5446 135.929 26.5446H132.601V47.3639H126.563V0.520482ZM134.943 20.5301C136.586 20.5301 137.695 20.0482 138.27 19.0843C138.845 18.0819 139.133 16.3084 139.133 13.7639C139.133 11.9133 139.037 10.506 138.845 9.54217C138.653 8.53976 138.256 7.78795 137.654 7.28675C137.079 6.78554 136.175 6.53494 134.943 6.53494H132.601V20.5301H134.943Z" fill="#FAFAFA"/>
<path d="M157.18 48C153.729 48 151.278 46.6506 149.827 43.9518C148.403 41.2145 147.691 37.359 147.691 32.3855V15.6723C147.691 10.5446 148.403 6.6506 149.827 3.99036C151.251 1.33012 153.702 0 157.18 0C160.439 0 162.753 1.15663 164.122 3.46988C165.491 5.78313 166.176 9.11807 166.176 13.4747V17.4072H160.343V13.359C160.343 11.7012 160.288 10.4096 160.179 9.48434C160.069 8.52049 159.782 7.7494 159.316 7.17108C158.878 6.55422 158.18 6.24579 157.221 6.24579C156.235 6.24579 155.496 6.5735 155.003 7.22892C154.51 7.84579 154.181 8.69398 154.017 9.77349C153.88 10.8145 153.812 12.1831 153.812 13.8795V34.1783C153.812 36.8386 154.058 38.7663 154.551 39.9614C155.044 41.1181 155.934 41.6964 157.221 41.6964C158.152 41.6964 158.837 41.388 159.275 40.7711C159.74 40.1542 160.028 39.3446 160.138 38.3422C160.274 37.3012 160.343 35.9325 160.343 34.2361V30.0145H166.176V33.7735C166.176 38.2843 165.505 41.7928 164.163 44.2988C162.821 46.7663 160.494 48 157.18 48Z" fill="#FAFAFA"/>
<path d="M173.736 6.8241H168.437V0.520482H184.991V6.8241H179.815V47.3639H173.736V6.8241Z" fill="#FAFAFA"/>
<path d="M188.019 0.520482H196.235C199.384 0.520482 201.794 1.42651 203.464 3.23856C205.135 5.05061 205.97 8.15422 205.97 12.5494C205.97 15.4024 205.559 17.6386 204.738 19.2578C203.916 20.8386 202.725 21.8024 201.164 22.1494C204.998 23.1904 206.915 27.0458 206.915 33.7157C206.915 38.2265 206.134 41.6386 204.573 43.9518C203.013 46.2265 200.698 47.3639 197.631 47.3639H188.019V0.520482ZM196.153 19.6627C197.905 19.6627 199.096 19.1229 199.726 18.0434C200.384 16.9253 200.712 15.1325 200.712 12.6651C200.712 10.2747 200.288 8.65542 199.439 7.80723C198.617 6.92048 197.234 6.47711 195.29 6.47711H194.058V19.6627H196.153ZM196.399 41.3494C198.179 41.3494 199.411 40.7518 200.096 39.5566C200.781 38.3614 201.123 36.3952 201.123 33.6578C201.123 30.8434 200.74 28.8 199.973 27.5277C199.233 26.2169 197.974 25.5614 196.194 25.5614H194.058V41.3494H196.399Z" fill="#FAFAFA"/>
<path d="M215.855 0.520482H222.345L229 47.3639H223.372L222.058 36.5494H216.266L214.91 47.3639H209.201L215.855 0.520482ZM221.401 31.1133L219.141 11.4506L216.882 31.1133H221.401Z" fill="#FAFAFA"/>
</svg>
