<svg width="263" height="42" viewBox="0 0 263 42" fill="none" xmlns="http://www.w3.org/2000/svg">
<path d="M0 0.455421H6.53312V17.559H13.8662V0.455421H20.4438V41.4434H13.8662V22.9229H6.53312V41.4434H0V0.455421Z" fill="#FAFAFA"/>
<path d="M31.3295 0.455421H38.3515L45.5513 41.4434H39.4626L38.0404 31.9807H31.774L30.3073 41.4434H24.1298L31.3295 0.455421ZM37.3293 27.2241L34.885 10.0193L32.4406 27.2241H37.3293Z" fill="#FAFAFA"/>
<path d="M49.2605 0.455421H55.5714V36.0795H60.949V0.455421H67.2599V36.0795H72.4153V0.455421H78.7262V41.4434H49.2605V0.455421Z" fill="#FAFAFA"/>
<path d="M84.3288 0.455421H89.7064V26.3133L99.5728 0.455421H103.973V41.4434H98.5061V15.1301L88.6398 41.4434H84.3288V0.455421Z" fill="#FAFAFA"/>
<path d="M120.306 0.455421H130.884C137.017 0.455421 140.084 4.33494 140.084 12.094C140.084 19.5157 136.869 23.2265 130.439 23.2265H126.84V41.4434H120.306V0.455421ZM129.373 17.9639C131.151 17.9639 132.35 17.5422 132.973 16.6988C133.595 15.8217 133.906 14.2699 133.906 12.0434C133.906 10.4241 133.802 9.19277 133.595 8.3494C133.387 7.47229 132.958 6.81446 132.306 6.37591C131.684 5.93735 130.706 5.71807 129.373 5.71807H126.84V17.9639H129.373Z" fill="#FAFAFA"/>
<path d="M148.513 0.455421H155.535L162.735 41.4434H156.646L155.224 31.9807H148.958L147.491 41.4434H141.313L148.513 0.455421ZM154.513 27.2241L152.069 10.0193L149.624 27.2241H154.513Z" fill="#FAFAFA"/>
<path d="M166.444 0.455421H183.155V6.02169H172.977V17.6602H174.399C178.162 17.6602 180.947 18.5711 182.755 20.3928C184.562 22.2145 185.466 25.2675 185.466 29.5518C185.466 33.9374 184.518 37.0241 182.621 38.812C180.725 40.5663 177.91 41.4434 174.177 41.4434H166.444V0.455421ZM174.222 36.3831C176.088 36.3831 177.407 35.9109 178.177 34.9663C178.977 33.988 179.377 32.2169 179.377 29.653C179.377 27.3253 178.992 25.6217 178.222 24.5422C177.451 23.4289 176.073 22.8723 174.088 22.8723H172.977V36.3831H174.222Z" fill="#FAFAFA"/>
<path d="M199.527 42C195.794 42 193.127 40.8699 191.527 38.6096C189.927 36.3157 189.127 32.9759 189.127 28.5904V13.2072C189.127 8.85542 189.927 5.56627 191.527 3.33976C193.127 1.11325 195.794 0 199.527 0C203.231 0 205.882 1.11325 207.482 3.33976C209.082 5.56627 209.882 8.85542 209.882 13.2072V28.5904C209.882 32.9422 209.068 36.2651 207.438 38.559C205.838 40.853 203.201 42 199.527 42ZM199.527 36.4843C200.979 36.4843 201.957 35.9614 202.46 34.9157C202.964 33.8699 203.216 32.3518 203.216 30.3615V11.4867C203.216 9.49639 202.964 7.99518 202.46 6.98313C201.986 5.97109 201.009 5.46506 199.527 5.46506C198.046 5.46506 197.053 5.98795 196.549 7.03374C196.046 8.04578 195.794 9.53012 195.794 11.4867V30.3615C195.794 32.3518 196.046 33.8699 196.549 34.9157C197.053 35.9614 198.046 36.4843 199.527 36.4843Z" fill="#FAFAFA"/>
<path d="M218.348 5.97109H212.615V0.455421H230.525V5.97109H224.925V41.4434H218.348V5.97109Z" fill="#FAFAFA"/>
<path d="M233.89 0.455421H240.423V17.6602H242.023C245.786 17.6602 248.571 18.5711 250.378 20.3928C252.186 22.2145 253.089 25.2675 253.089 29.5518C253.089 33.9374 252.141 37.0241 250.245 38.812C248.349 40.5663 245.519 41.4434 241.756 41.4434H233.89V0.455421ZM256.467 0.455421H263V41.4434H256.467V0.455421ZM241.801 36.3831C243.667 36.3831 245.001 35.894 245.801 34.9157C246.601 33.9374 247.001 32.1663 247.001 29.6024C247.001 27.3084 246.615 25.6217 245.845 24.5422C245.075 23.4289 243.697 22.8723 241.712 22.8723H240.423V36.3831H241.801Z" fill="#FAFAFA"/>
</svg>
