<svg width="122" height="37" viewBox="0 0 122 37" fill="none" xmlns="http://www.w3.org/2000/svg">
<path d="M38.3139 29.8662L37.36 27.9029H38.0755L38.9382 29.8315H38.9943V27.9029H39.6116V29.8315H39.6677L40.5234 27.9029H41.2388L40.2849 29.8662L41.302 31.9128H40.6076L39.6677 29.9425H39.6116V31.9128H38.9943V29.9425H38.9312L37.9913 31.9128H37.2969L38.3139 29.8662ZM42.7266 31.9683C42.4133 31.9683 42.1701 31.9105 41.9971 31.7948C41.8241 31.6746 41.7025 31.4988 41.6323 31.2676C41.5622 31.0363 41.5271 30.7357 41.5271 30.3657V29.45C41.5271 28.895 41.6136 28.4903 41.7867 28.2359C41.9643 27.9769 42.2776 27.8474 42.7266 27.8474C43.0539 27.8474 43.2994 27.9145 43.463 28.0486C43.6314 28.1827 43.7413 28.3723 43.7927 28.6175C43.8488 28.858 43.8769 29.184 43.8769 29.5956V29.9217H42.2776V30.7265C42.2776 30.9716 42.3127 31.1496 42.3829 31.2606C42.4577 31.367 42.5746 31.4202 42.7336 31.4202C42.8926 31.4202 43.0001 31.367 43.0562 31.2606C43.1123 31.1496 43.1404 30.9831 43.1404 30.7611V30.5183H43.8699V30.671C43.8699 31.0918 43.7787 31.4133 43.5963 31.6353C43.4139 31.8573 43.124 31.9683 42.7266 31.9683ZM43.1404 29.5193V29.1586C43.1404 28.8857 43.1123 28.6915 43.0562 28.5758C43.0048 28.4556 42.8926 28.3955 42.7195 28.3955C42.598 28.3955 42.5044 28.4232 42.439 28.4787C42.3782 28.5342 42.3361 28.6267 42.3127 28.7562C42.2893 28.8811 42.2776 29.0638 42.2776 29.3043V29.5193H43.1404ZM44.1918 31.3855C44.3789 31.3855 44.5145 31.337 44.5986 31.2398C44.6875 31.1381 44.7483 30.9739 44.781 30.7473C44.8184 30.5206 44.8512 30.153 44.8792 29.6442L44.9704 27.9029H47.0957V31.9128H46.3452V28.4648H45.6297L45.5666 29.6442C45.5339 30.2871 45.4801 30.7681 45.4053 31.0872C45.3305 31.4017 45.2065 31.6237 45.0335 31.7532C44.8652 31.8827 44.6127 31.9475 44.276 31.9475H44.1918V31.3855ZM48.8726 31.9683C48.5593 31.9683 48.3162 31.9105 48.1431 31.7948C47.9701 31.6746 47.8485 31.4988 47.7784 31.2676C47.7083 31.0363 47.6732 30.7357 47.6732 30.3657V29.45C47.6732 28.895 47.7597 28.4903 47.9327 28.2359C48.1104 27.9769 48.4237 27.8474 48.8726 27.8474C49.1999 27.8474 49.4454 27.9145 49.6091 28.0486C49.7774 28.1827 49.8873 28.3723 49.9388 28.6175C49.9949 28.858 50.0229 29.184 50.0229 29.5956V29.9217H48.4237V30.7265C48.4237 30.9716 48.4588 31.1496 48.5289 31.2606C48.6037 31.367 48.7206 31.4202 48.8796 31.4202C49.0386 31.4202 49.1462 31.367 49.2023 31.2606C49.2584 31.1496 49.2865 30.9831 49.2865 30.7611V30.5183H50.0159V30.671C50.0159 31.0918 49.9247 31.4133 49.7424 31.6353C49.56 31.8573 49.2701 31.9683 48.8726 31.9683ZM49.2865 29.5193V29.1586C49.2865 28.8857 49.2584 28.6915 49.2023 28.5758C49.1508 28.4556 49.0386 28.3955 48.8656 28.3955C48.744 28.3955 48.6505 28.4232 48.585 28.4787C48.5242 28.5342 48.4822 28.6267 48.4588 28.7562C48.4354 28.8811 48.4237 29.0638 48.4237 29.3043V29.5193H49.2865ZM51.5516 31.9821C51.1822 31.9821 50.9086 31.8781 50.7309 31.67C50.5579 31.4572 50.4714 31.1288 50.4714 30.6848H51.1097C51.1097 30.9531 51.1471 31.1496 51.2219 31.2745C51.3014 31.3948 51.416 31.4549 51.5656 31.4549C51.7339 31.4549 51.8415 31.3948 51.8882 31.2745C51.9397 31.1543 51.9654 30.967 51.9654 30.7126C51.9654 30.5368 51.9397 30.4073 51.8882 30.3241C51.8415 30.2408 51.762 30.1853 51.6498 30.1576C51.5375 30.1252 51.3692 30.109 51.1447 30.109V29.5818C51.4627 29.5818 51.6778 29.5355 51.7901 29.443C51.907 29.3505 51.9654 29.1886 51.9654 28.9574C51.9654 28.7678 51.9257 28.6267 51.8462 28.5342C51.7667 28.4417 51.6591 28.3955 51.5235 28.3955C51.3692 28.3955 51.2523 28.444 51.1728 28.5411C51.098 28.6336 51.0606 28.8048 51.0606 29.0545H50.4223C50.4223 28.6244 50.5181 28.3168 50.7099 28.1318C50.9063 27.9422 51.1868 27.8474 51.5516 27.8474C51.9023 27.8474 52.1665 27.9515 52.3442 28.1596C52.5265 28.3677 52.6177 28.6198 52.6177 28.9158C52.6177 29.2303 52.5499 29.4569 52.4143 29.5956C52.2787 29.7344 52.1197 29.813 51.9373 29.8315C52.073 29.8593 52.1875 29.8986 52.281 29.9495C52.3746 29.9957 52.4541 30.0882 52.5195 30.227C52.5897 30.3611 52.6247 30.5576 52.6247 30.8166C52.6247 31.2005 52.5359 31.4919 52.3582 31.6908C52.1805 31.885 51.9116 31.9821 51.5516 31.9821ZM54.238 31.9683C53.8078 31.9683 53.5015 31.8434 53.3191 31.5936C53.1414 31.3393 53.0526 30.9716 53.0526 30.4906V29.3251C53.0526 28.8441 53.1414 28.4787 53.3191 28.229C53.5015 27.9746 53.8078 27.8474 54.238 27.8474C54.6635 27.8474 54.9651 27.9746 55.1428 28.229C55.3252 28.4787 55.4164 28.8441 55.4164 29.3251V30.4906C55.4164 30.9716 55.3252 31.3393 55.1428 31.5936C54.9651 31.8434 54.6635 31.9683 54.238 31.9683ZM54.238 31.4202C54.3736 31.4202 54.4718 31.3809 54.5326 31.3023C54.5934 31.2236 54.6308 31.1265 54.6448 31.0109C54.6588 30.8953 54.6659 30.738 54.6659 30.5391V29.2835C54.6659 29.0846 54.6588 28.9273 54.6448 28.8117C54.6308 28.6915 54.5934 28.592 54.5326 28.5134C54.4718 28.4348 54.3736 28.3955 54.238 28.3955C54.1024 28.3955 54.0019 28.4348 53.9364 28.5134C53.8756 28.592 53.8382 28.6915 53.8242 28.8117C53.8101 28.9273 53.8031 29.0846 53.8031 29.2835V30.5391C53.8031 30.738 53.8101 30.8953 53.8242 31.0109C53.8382 31.1265 53.8756 31.2236 53.9364 31.3023C54.0019 31.3809 54.1024 31.4202 54.238 31.4202ZM57.1124 31.9683C56.757 31.9683 56.4788 31.8503 56.2777 31.6145C56.0813 31.374 55.9831 31.0294 55.9831 30.5808V28.222C55.9831 27.8705 56.0088 27.5861 56.0603 27.3687C56.1164 27.1467 56.2006 26.971 56.3128 26.8415C56.4297 26.712 56.584 26.6079 56.7757 26.5293C56.916 26.4738 57.1335 26.409 57.4281 26.335C57.5964 26.2934 57.7343 26.2564 57.8419 26.224C57.9541 26.187 58.0687 26.1338 58.1856 26.0645L58.3399 26.6819C58.237 26.742 58.1271 26.7906 58.0102 26.8276C57.8933 26.8646 57.753 26.9016 57.5894 26.9386C57.566 26.9432 57.4888 26.9617 57.3579 26.9941C57.227 27.0265 57.1101 27.0658 57.0072 27.112C56.8669 27.1814 56.7594 27.2831 56.6845 27.4173C56.6144 27.5514 56.5793 27.7295 56.5793 27.9515V28.5966C56.6775 28.5041 56.8108 28.4209 56.9791 28.3469C57.1522 28.2729 57.3135 28.2359 57.4631 28.2359C57.739 28.2359 57.9611 28.3492 58.1295 28.5758C58.3025 28.8025 58.389 29.1678 58.389 29.672V30.4351C58.389 30.8375 58.3352 31.152 58.2277 31.3786C58.1248 31.6006 57.9798 31.7555 57.7928 31.8434C57.6104 31.9266 57.3836 31.9683 57.1124 31.9683ZM57.1966 31.4202C57.3509 31.4202 57.4608 31.3624 57.5262 31.2468C57.5964 31.1311 57.6315 30.9369 57.6315 30.664V29.45C57.6315 29.1956 57.6034 29.0152 57.5473 28.9088C57.4959 28.7978 57.4047 28.7423 57.2737 28.7423C57.1194 28.7423 56.9394 28.8117 56.7336 28.9505V30.6016C56.7336 30.8976 56.7687 31.108 56.8389 31.2329C56.909 31.3578 57.0282 31.4202 57.1966 31.4202ZM60.0897 31.9683C59.7764 31.9683 59.5332 31.9105 59.3602 31.7948C59.1872 31.6746 59.0656 31.4988 58.9955 31.2676C58.9253 31.0363 58.8903 30.7357 58.8903 30.3657V29.45C58.8903 28.895 58.9768 28.4903 59.1498 28.2359C59.3275 27.9769 59.6408 27.8474 60.0897 27.8474C60.417 27.8474 60.6625 27.9145 60.8262 28.0486C60.9945 28.1827 61.1044 28.3723 61.1559 28.6175C61.212 28.858 61.24 29.184 61.24 29.5956V29.9217H59.6408V30.7265C59.6408 30.9716 59.6759 31.1496 59.746 31.2606C59.8208 31.367 59.9377 31.4202 60.0967 31.4202C60.2557 31.4202 60.3633 31.367 60.4194 31.2606C60.4755 31.1496 60.5035 30.9831 60.5035 30.7611V30.5183H61.233V30.671C61.233 31.0918 61.1418 31.4133 60.9595 31.6353C60.7771 31.8573 60.4872 31.9683 60.0897 31.9683ZM60.5035 29.5193V29.1586C60.5035 28.8857 60.4755 28.6915 60.4194 28.5758C60.3679 28.4556 60.2557 28.3955 60.0827 28.3955C59.9611 28.3955 59.8676 28.4232 59.8021 28.4787C59.7413 28.5342 59.6992 28.6267 59.6759 28.7562C59.6525 28.8811 59.6408 29.0638 59.6408 29.3043V29.5193H60.5035ZM62.2431 28.4579H61.4855V27.9029H63.7581V28.4579H62.9936V31.9128H62.2431V28.4579ZM65.1811 31.9683C64.7509 31.9683 64.4446 31.8434 64.2622 31.5936C64.0845 31.3393 63.9957 30.9716 63.9957 30.4906V29.3251C63.9957 28.8441 64.0845 28.4787 64.2622 28.229C64.4446 27.9746 64.7509 27.8474 65.1811 27.8474C65.6066 27.8474 65.9082 27.9746 66.0859 28.229C66.2683 28.4787 66.3594 28.8441 66.3594 29.3251V30.4906C66.3594 30.9716 66.2683 31.3393 66.0859 31.5936C65.9082 31.8434 65.6066 31.9683 65.1811 31.9683ZM65.1811 31.4202C65.3167 31.4202 65.4149 31.3809 65.4757 31.3023C65.5364 31.2236 65.5739 31.1265 65.5879 31.0109C65.6019 30.8953 65.6089 30.738 65.6089 30.5391V29.2835C65.6089 29.0846 65.6019 28.9273 65.5879 28.8117C65.5739 28.6915 65.5364 28.592 65.4757 28.5134C65.4149 28.4348 65.3167 28.3955 65.1811 28.3955C65.0455 28.3955 64.9449 28.4348 64.8795 28.5134C64.8187 28.592 64.7813 28.6915 64.7672 28.8117C64.7532 28.9273 64.7462 29.0846 64.7462 29.2835V30.5391C64.7462 30.738 64.7532 30.8953 64.7672 31.0109C64.7813 31.1265 64.8187 31.2236 64.8795 31.3023C64.9449 31.3809 65.0455 31.4202 65.1811 31.4202ZM66.9402 27.9029H67.6907V29.5887H68.6517V27.9029H69.4022V31.9128H68.6517V30.1298H67.6907V31.9128H66.9402V27.9029ZM70.0541 27.9029H70.8046V29.5887H71.7655V27.9029H72.516V31.9128H71.7655V30.1298H70.8046V31.9128H70.0541V27.9029ZM73.1683 27.9029H73.9189V29.561H74.0381C74.4262 29.5656 74.7278 29.6026 74.9429 29.672C75.158 29.7367 75.3147 29.8523 75.4129 30.0188C75.5158 30.1853 75.5672 30.4235 75.5672 30.7334C75.5672 31.0294 75.5158 31.263 75.4129 31.4341C75.31 31.6006 75.1417 31.7231 74.9079 31.8018C74.6787 31.8758 74.3631 31.9128 73.961 31.9128H73.1683V27.9029ZM76.0301 27.9029H76.7807V31.9128H76.0301V27.9029ZM73.961 31.4757C74.2041 31.4757 74.3912 31.4549 74.5221 31.4133C74.6577 31.3716 74.7536 31.2976 74.8097 31.1913C74.8658 31.0849 74.8938 30.93 74.8938 30.7265C74.8938 30.5415 74.8681 30.3981 74.8167 30.2963C74.7652 30.1946 74.6764 30.1206 74.5501 30.0743C74.4239 30.0281 74.2392 30.0026 73.996 29.998H73.9189V31.4757H73.961ZM78.5557 31.9683C78.2424 31.9683 77.9992 31.9105 77.8262 31.7948C77.6532 31.6746 77.5316 31.4988 77.4615 31.2676C77.3914 31.0363 77.3563 30.7357 77.3563 30.3657V29.45C77.3563 28.895 77.4428 28.4903 77.6158 28.2359C77.7935 27.9769 78.1068 27.8474 78.5557 27.8474C78.883 27.8474 79.1285 27.9145 79.2922 28.0486C79.4605 28.1827 79.5704 28.3723 79.6219 28.6175C79.678 28.858 79.706 29.184 79.706 29.5956V29.9217H78.1068V30.7265C78.1068 30.9716 78.1419 31.1496 78.212 31.2606C78.2868 31.367 78.4037 31.4202 78.5627 31.4202C78.7217 31.4202 78.8293 31.367 78.8854 31.2606C78.9415 31.1496 78.9695 30.9831 78.9695 30.7611V30.5183H79.699V30.671C79.699 31.0918 79.6078 31.4133 79.4255 31.6353C79.2431 31.8573 78.9532 31.9683 78.5557 31.9683ZM78.9695 29.5193V29.1586C78.9695 28.8857 78.9415 28.6915 78.8854 28.5758C78.8339 28.4556 78.7217 28.3955 78.5487 28.3955C78.4271 28.3955 78.3336 28.4232 78.2681 28.4787C78.2073 28.5342 78.1652 28.6267 78.1419 28.7562C78.1185 28.8811 78.1068 29.0638 78.1068 29.3043V29.5193H78.9695ZM82.8863 31.9683C82.5683 31.9683 82.3228 31.9058 82.1498 31.781C81.9768 31.6515 81.8575 31.4734 81.7921 31.2468C81.7313 31.0155 81.7009 30.7241 81.7009 30.3726V29.45C81.7009 29.0892 81.7313 28.7932 81.7921 28.562C81.8575 28.3307 81.9768 28.155 82.1498 28.0347C82.3228 27.9098 82.5683 27.8474 82.8863 27.8474C83.1762 27.8474 83.4006 27.8936 83.5596 27.9861C83.7233 28.0786 83.8355 28.2174 83.8963 28.4024C83.9618 28.5828 83.9945 28.8186 83.9945 29.11V29.3459H83.3141V29.1031C83.3141 28.8395 83.2837 28.6568 83.2229 28.555C83.1668 28.4486 83.0569 28.3955 82.8933 28.3955C82.767 28.3955 82.6735 28.4232 82.6127 28.4787C82.5519 28.5342 82.5098 28.6244 82.4865 28.7493C82.4631 28.8741 82.4514 29.0568 82.4514 29.2973V30.56C82.4514 30.7912 82.4654 30.9693 82.4935 31.0941C82.5215 31.2144 82.566 31.3 82.6267 31.3508C82.6922 31.3971 82.7834 31.4202 82.9003 31.4202C83.0733 31.4202 83.1855 31.3647 83.237 31.2537C83.2884 31.1381 83.3141 30.9623 83.3141 30.7265V30.4004H83.9945V30.6779C83.9945 31.1126 83.9127 31.4364 83.749 31.6491C83.59 31.8619 83.3024 31.9683 82.8863 31.9683ZM84.5566 27.9029H85.6929C86.081 27.9029 86.3592 27.9954 86.5276 28.1804C86.7006 28.3654 86.7871 28.6036 86.7871 28.895C86.7871 29.1077 86.7473 29.2858 86.6678 29.4291C86.5884 29.5679 86.4504 29.6673 86.254 29.7275C86.4831 29.7737 86.6445 29.8893 86.738 30.0743C86.8362 30.2593 86.8853 30.4836 86.8853 30.7473C86.8853 31.1265 86.7988 31.4156 86.6258 31.6145C86.4527 31.8133 86.1535 31.9128 85.7279 31.9128H84.5566V27.9029ZM85.6578 29.5193C85.8121 29.5193 85.929 29.4754 86.0085 29.3875C86.088 29.2996 86.1278 29.154 86.1278 28.9505C86.1278 28.7701 86.081 28.6406 85.9875 28.562C85.8939 28.4833 85.7583 28.444 85.5807 28.444H85.2931V29.5193H85.6578ZM85.5596 31.3508C85.7466 31.3508 85.8916 31.3069 85.9945 31.219C86.0974 31.1311 86.1488 30.9646 86.1488 30.7195C86.1488 30.5206 86.1254 30.375 86.0787 30.2825C86.0319 30.1853 85.9711 30.1229 85.8963 30.0951C85.8215 30.0674 85.7209 30.0535 85.5947 30.0535H85.2931V31.3508H85.5596ZM88.0922 31.9683C87.9379 31.9683 87.7976 31.9243 87.6713 31.8365C87.5498 31.7486 87.4539 31.633 87.3838 31.4896C87.3136 31.3462 87.2785 31.1959 87.2785 31.0386C87.2785 30.7241 87.3463 30.4698 87.482 30.2755C87.6176 30.0766 87.7906 29.9194 88.001 29.8038C88.2114 29.6881 88.5037 29.5563 88.8778 29.4083V29.1239C88.8778 28.8603 88.8497 28.6753 88.7936 28.5689C88.7422 28.4579 88.6346 28.4024 88.471 28.4024C88.1857 28.4024 88.0431 28.592 88.0431 28.9713V29.1725L87.2996 29.1447C87.3089 28.7007 87.4118 28.3746 87.6082 28.1665C87.8046 27.9538 88.1086 27.8474 88.5201 27.8474C88.9082 27.8474 89.1887 27.9538 89.3618 28.1665C89.5395 28.3746 89.6283 28.6915 89.6283 29.117V30.9485C89.6283 31.2491 89.6517 31.5705 89.6984 31.9128H89.0111C88.9596 31.6491 88.9269 31.4526 88.9129 31.3231C88.8567 31.5035 88.7585 31.6561 88.6183 31.781C88.4827 31.9058 88.3073 31.9683 88.0922 31.9683ZM88.3868 31.33C88.485 31.33 88.5808 31.293 88.6744 31.219C88.7679 31.1404 88.8357 31.0664 88.8778 30.997V29.8593C88.6767 29.9703 88.5201 30.0674 88.4078 30.1506C88.3003 30.2293 88.2091 30.3218 88.1343 30.4281C88.0641 30.5345 88.0291 30.6617 88.0291 30.8097C88.0291 30.9762 88.0595 31.1057 88.1202 31.1982C88.181 31.2861 88.2699 31.33 88.3868 31.33ZM90.2437 27.9029H90.875V30.6016L92.0954 27.9029H92.6846V31.9128H92.0674V29.1933L90.8539 31.9128H90.2437V27.9029ZM94.4774 31.4202C94.6832 31.2676 94.8562 31.078 94.9965 30.8513C95.1368 30.6247 95.249 30.3148 95.3332 29.9217C95.4173 29.5286 95.4618 29.0314 95.4664 28.4301L95.4805 27.9029H97.3112V31.3855H97.8022V32.9326H97.2551L97.1919 31.9128H95.0877L95.0245 32.9326H94.4774V31.4202ZM96.5887 31.3855V28.4371H96.0626L96.0486 28.5828C96.0439 29.2025 96.0042 29.702 95.9294 30.0813C95.8546 30.4559 95.7587 30.738 95.6418 30.9276C95.5249 31.1173 95.3799 31.2699 95.2069 31.3855H96.5887ZM97.9569 31.3855C98.144 31.3855 98.2796 31.337 98.3638 31.2398C98.4526 31.1381 98.5134 30.9739 98.5461 30.7473C98.5835 30.5206 98.6163 30.153 98.6443 29.6442L98.7355 27.9029H100.861V31.9128H100.11V28.4648H99.3949L99.3317 29.6442C99.299 30.2871 99.2452 30.7681 99.1704 31.0872C99.0956 31.4017 98.9717 31.6237 98.7986 31.7532C98.6303 31.8827 98.3778 31.9475 98.0411 31.9475H97.9569V31.3855ZM101.971 30.2131C101.602 30.0743 101.417 29.7066 101.417 29.11C101.417 28.8233 101.466 28.592 101.565 28.4163C101.667 28.2405 101.833 28.111 102.063 28.0278C102.296 27.9445 102.607 27.9029 102.995 27.9029H103.781V31.9128H103.038V30.331C102.958 30.331 102.839 30.3264 102.68 30.3171L102.013 31.9128H101.207L101.971 30.2131ZM103.038 29.9009V28.3261H102.96C102.633 28.3307 102.406 28.3908 102.28 28.5065C102.154 28.6221 102.091 28.8233 102.091 29.11C102.091 29.3829 102.151 29.5818 102.273 29.7066C102.399 29.8315 102.626 29.8963 102.953 29.9009H103.038ZM105.999 26.2934H106.7V30.1853L108.363 26.2934H108.931V31.9128H108.236V27.9584L106.588 31.9128H105.999V26.2934ZM110.62 29.0406L109.435 26.2934H110.199L111.266 29.006H111.308V26.2934H111.981V29.006H112.03L113.089 26.2934H113.861L112.668 29.0406L113.994 31.9128H113.216L112.037 29.1031H111.981V31.9128H111.308V29.1031H111.259L110.073 31.9128H109.302L110.62 29.0406ZM115.774 31.9752C115.213 31.9752 114.818 31.811 114.589 31.4826C114.36 31.1496 114.245 30.6918 114.245 30.109V28.1249C114.245 27.5098 114.358 27.0426 114.582 26.7235C114.806 26.4044 115.204 26.2448 115.774 26.2448C116.284 26.2448 116.649 26.3813 116.869 26.6541C117.093 26.927 117.205 27.3294 117.205 27.8613V28.3053H116.455V27.9098C116.455 27.6508 116.443 27.452 116.42 27.3132C116.396 27.1745 116.336 27.0635 116.237 26.9802C116.144 26.897 115.992 26.8553 115.781 26.8553C115.566 26.8553 115.405 26.9016 115.297 26.9941C115.195 27.082 115.127 27.2068 115.094 27.3687C115.061 27.526 115.045 27.7387 115.045 28.007V30.2339C115.045 30.5206 115.068 30.745 115.115 30.9068C115.162 31.0687 115.237 31.1843 115.339 31.2537C115.447 31.3231 115.594 31.3578 115.781 31.3578C115.982 31.3578 116.132 31.3138 116.23 31.226C116.328 31.1381 116.389 31.0178 116.413 30.8652C116.441 30.7126 116.455 30.5045 116.455 30.2408V29.8246H117.205V30.2408C117.205 30.8005 117.098 31.2306 116.883 31.5312C116.672 31.8272 116.303 31.9752 115.774 31.9752Z" fill="#0B2141"/>
<path d="M37.5475 5.12416H41.2678L44.0641 18.6162L46.9577 5.12416H50.5807L50.9455 24.6047H48.2707L47.9789 11.0645L45.1826 24.6047H43.0185L40.1736 11.0164L39.9061 24.6047H37.207L37.5475 5.12416ZM53.465 5.12416H57.0151V24.6047H53.465V5.12416ZM59.5776 5.12416H62.0821L66.8723 16.2353V5.12416H69.8389V24.6047H67.4559L62.6414 12.9645V24.6047H59.5776V5.12416ZM72.4388 5.12416H75.9889V24.6047H72.4388V5.12416ZM83.5123 24.8692C81.7289 24.8692 80.3915 24.3722 79.5002 23.3781C78.6248 22.3841 78.1465 20.901 78.0656 18.9289L81.1537 18.3276C81.2023 19.5622 81.3968 20.5082 81.7373 21.1655C82.0936 21.8069 82.6449 22.1275 83.3907 22.1275C83.9416 22.1275 84.347 21.9672 84.6065 21.6465C84.882 21.3098 85.0199 20.8609 85.0199 20.2997C85.0199 19.5301 84.8413 18.8808 84.485 18.3517C84.1445 17.8065 83.6012 17.2133 82.8558 16.572L80.3756 14.4315C79.6134 13.7902 79.0382 13.1008 78.6492 12.3632C78.276 11.6257 78.0899 10.7439 78.0899 9.71771C78.0899 8.19456 78.5355 7.01611 79.4273 6.18236C80.3349 5.33261 81.583 4.90771 83.1719 4.90771C84.874 4.90771 86.0898 5.38872 86.8193 6.35072C87.5647 7.29667 87.9944 8.57936 88.108 10.1987L85.0199 10.7278C84.9713 9.66962 84.817 8.87596 84.5579 8.34686C84.3147 7.80172 83.8284 7.52917 83.099 7.52917C82.5799 7.52917 82.175 7.70552 81.8832 8.05827C81.5914 8.39497 81.4455 8.82787 81.4455 9.35697C81.4455 9.98227 81.5671 10.5114 81.8102 10.9443C82.0693 11.3611 82.4826 11.8101 83.0503 12.2911L85.5062 14.4315C86.4302 15.2172 87.1513 16.0589 87.6703 16.9568C88.1889 17.8546 88.4484 18.8968 88.4484 20.0833C88.4484 21.0132 88.2375 21.8389 87.8162 22.5604C87.4108 23.2819 86.8352 23.8511 86.0898 24.268C85.344 24.6688 84.485 24.8692 83.5123 24.8692ZM89.0619 5.12416H92.223L94.8248 18.9048L97.2807 5.12416H100.515L96.5512 24.6047H93.0254L89.0619 5.12416ZM104.243 5.12416H108.085L112.025 24.6047H108.693L107.915 20.1073H104.487L103.684 24.6047H100.304L104.243 5.12416ZM107.526 17.8466L106.189 9.66962L104.851 17.8466H107.526ZM113.616 5.12416H117.166V24.6047H113.616V5.12416Z" fill="#0B2141"/>
<path d="M32.7325 4.625H4.67578V32.375H32.7325V4.625Z" fill="white"/>
<path d="M32.7325 4.625H4.67578V18.5H32.7325V4.625Z" fill="white"/>
<path d="M32.7325 4.625H4.67578V18.5H32.7325V4.625Z" fill="#FAAE00"/>
<path d="M32.7325 18.5H4.67578V32.375H32.7325V18.5Z" fill="#0B2141"/>
<path fill-rule="evenodd" clip-rule="evenodd" d="M17.1621 23.8975L18.6819 26.1312L20.2016 23.8975V10.8687H17.1621V23.8975Z" fill="white"/>
<path fill-rule="evenodd" clip-rule="evenodd" d="M12.25 26.9038L13.7698 29.1375L15.2895 26.9038V13.875H12.25V26.9038Z" fill="white"/>
<path fill-rule="evenodd" clip-rule="evenodd" d="M22.0703 20.8447L23.5901 23.0784L25.1098 20.8447V7.81592H22.0703V20.8447Z" fill="white"/>
</svg>
