<svg width="41" height="57" viewBox="0 0 41 57" fill="none" xmlns="http://www.w3.org/2000/svg">
<path fill-rule="evenodd" clip-rule="evenodd" d="M39.023 26.625C40.2335 24.2306 40.9091 21.5626 40.9091 18.75C40.9091 8.39466 31.7513 0 20.4545 0C9.15781 0 0 8.39466 0 18.75C0 21.5626 0.675591 24.2306 1.88613 26.625C2.32732 27.4976 2.83955 28.3339 3.41604 29.1277L20.4545 57L37.4931 29.1277C38.0695 28.3339 38.5818 27.4976 39.023 26.625ZM20.4549 28.4996C24.5217 28.4996 27.8185 25.4775 27.8185 21.7496C27.8185 18.0217 24.5217 14.9996 20.4549 14.9996C16.3881 14.9996 13.0913 18.0217 13.0913 21.7496C13.0913 25.4775 16.3881 28.4996 20.4549 28.4996Z" fill="#1C4076"/>
</svg>
