<svg width="246" height="63" viewBox="0 0 246 63" fill="none" xmlns="http://www.w3.org/2000/svg">
<path d="M0 0H26.9335V63H18.5132V8.16667H8.42032V63H0V0Z" fill="#FAFAFA" fill-opacity="0.07"/>
<path d="M40.9405 0H50.0528L59.3959 63H51.4947L49.6491 48.4556H41.5172L39.614 63H31.5974L40.9405 0ZM48.7264 41.1444L45.5543 14.7L42.3823 41.1444H48.7264Z" fill="#FAFAFA" fill-opacity="0.07"/>
<path d="M64.0941 0H77.8203C85.7793 0 89.7587 5.96296 89.7587 17.8889C89.7587 29.2963 85.587 35 77.2436 35H72.5721V63H64.0941V0ZM75.8594 26.9111C78.1664 26.9111 79.7236 26.263 80.531 24.9667C81.3384 23.6185 81.7421 21.2333 81.7421 17.8111C81.7421 15.3222 81.6076 13.4296 81.3384 12.1333C81.0693 10.7852 80.5118 9.77408 79.6659 9.1C78.8585 8.42593 77.5896 8.08889 75.8594 8.08889H72.5721V26.9111H75.8594Z" fill="#FAFAFA" fill-opacity="0.07"/>
<path d="M99.1793 8.47778H91.7394V0H114.982V8.47778H107.715V63H99.1793V8.47778Z" fill="#FAFAFA" fill-opacity="0.07"/>
<path d="M119.348 0H127.826V26.2889H137.342V0H145.878V63H137.342V34.5333H127.826V63H119.348V0Z" fill="#FAFAFA" fill-opacity="0.07"/>
<path d="M153.026 0H172.635V8.08889H161.504V26.2111H170.27V34.2222H161.504V55.1444H172.75V63H153.026V0Z" fill="#FAFAFA" fill-opacity="0.07"/>
<path d="M177.695 0H191.421C199.38 0 203.36 5.96296 203.36 17.8889C203.36 29.2963 199.188 35 190.844 35H186.173V63H177.695V0ZM189.46 26.9111C191.767 26.9111 193.324 26.263 194.132 24.9667C194.939 23.6185 195.343 21.2333 195.343 17.8111C195.343 15.3222 195.208 13.4296 194.939 12.1333C194.67 10.7852 194.113 9.77408 193.267 9.1C192.459 8.42593 191.19 8.08889 189.46 8.08889H186.173V26.9111H189.46Z" fill="#FAFAFA" fill-opacity="0.07"/>
<path d="M208.224 0H216.702V26.4444H218.778C223.661 26.4444 227.275 27.8444 229.621 30.6444C231.966 33.4444 233.139 38.137 233.139 44.7222C233.139 51.463 231.908 56.2074 229.448 58.9556C226.987 61.6519 223.315 63 218.432 63H208.224V0ZM237.522 0H246V63H237.522V0ZM218.49 55.2222C220.912 55.2222 222.642 54.4704 223.68 52.9667C224.719 51.463 225.238 48.7407 225.238 44.8C225.238 41.2741 224.738 38.6815 223.738 37.0222C222.738 35.3111 220.951 34.4556 218.374 34.4556H216.702V55.2222H218.49Z" fill="#FAFAFA" fill-opacity="0.07"/>
</svg>
