<svg width="24" height="24" viewBox="0 0 24 24" fill="none" xmlns="http://www.w3.org/2000/svg">
    <path fill-rule="evenodd" clip-rule="evenodd" d="M21 5.89532C20.3367 6.21561 19.6251 6.43306 18.8786 6.53003C19.6412 6.03049 20.2266 5.2371 20.5005 4.29385C19.7862 4.75813 18.9967 5.09311 18.1562 5.2753C17.4822 4.49073 16.5235 4 15.4601 4C13.4219 4 11.7677 5.8101 11.7677 8.0404C11.7677 8.35776 11.7999 8.6663 11.8644 8.96015C8.79502 8.79265 6.07474 7.18237 4.25407 4.73756C3.93719 5.33407 3.75459 6.02755 3.75459 6.76804C3.75459 8.1697 4.40713 9.4068 5.39803 10.1297C4.79382 10.1091 4.22453 9.92691 3.72505 9.62424C3.72505 9.64187 3.72505 9.65657 3.72505 9.6742C3.72505 11.6312 4.99791 13.265 6.68701 13.6353C6.37819 13.7264 6.05057 13.7763 5.7149 13.7763C5.47591 13.7763 5.24497 13.7499 5.01939 13.7028C5.48933 15.3073 6.8535 16.4768 8.4674 16.5091C7.2026 17.5934 5.61286 18.2399 3.8808 18.2399C3.58272 18.2399 3.29002 18.2193 3 18.184C4.6327 19.33 6.57422 20 8.66075 20C15.452 20 19.1659 13.8439 19.1659 8.50468C19.1659 8.32838 19.1632 8.155 19.1552 7.98163C19.8775 7.41157 20.5032 6.70046 20.9973 5.88944L21 5.89532Z" fill="currentColor"/>
</svg>
