<svg width="18" height="18" viewBox="0 0 18 18" fill="none" xmlns="http://www.w3.org/2000/svg">
<g clip-path="url(#clip0)">
<path fill-rule="evenodd" clip-rule="evenodd" d="M14.9298 10.7807L8.50121 17.4664C8.20445 17.7373 7.8352 17.9158 7.4386 17.9802C7.042 18.0445 6.63524 17.9919 6.26807 17.8288C5.90089 17.6656 5.5892 17.3991 5.37111 17.0616C5.15302 16.7242 5.03799 16.3305 5.04007 15.9287V2.07128C5.04013 1.67117 5.15628 1.27968 5.37444 0.944285C5.59261 0.608891 5.9034 0.344006 6.26914 0.18176C6.63487 0.0195147 7.03983 -0.0331209 7.43488 0.0302381C7.82994 0.0935971 8.19813 0.270228 8.49478 0.538707L14.9298 7.22442C15.1774 7.44975 15.3752 7.72431 15.5105 8.0305C15.6459 8.3367 15.7158 8.66779 15.7158 9.00256C15.7158 9.33734 15.6459 9.66843 15.5105 9.97462C15.3752 10.2808 15.1774 10.5554 14.9298 10.7807Z" fill="white"/>
</g>
<defs>
<clipPath id="clip0">
<rect width="18" height="18" fill="white"/>
</clipPath>
</defs>
</svg>
