<svg width="34" height="34" viewBox="0 0 34 34" fill="none" xmlns="http://www.w3.org/2000/svg">
<path d="M14.5714 20.2391V31.5716C14.5714 32.2157 14.3156 32.8333 13.8601 33.2887C13.4047 33.7441 12.787 34 12.1429 34H6.47619C5.4027 34 4.37317 33.5736 3.61409 32.8146C2.85502 32.0555 2.42857 31.0261 2.42857 29.9527V20.2391C2.42857 19.5951 2.68444 18.9774 3.13988 18.522C3.59533 18.0666 4.21305 17.8107 4.85714 17.8107H12.1429C12.787 17.8107 13.4047 18.0666 13.8601 18.522C14.3156 18.9774 14.5714 19.5951 14.5714 20.2391ZM19.4286 20.2391V31.5716C19.4286 32.2157 19.6844 32.8333 20.1399 33.2887C20.5953 33.7441 21.213 34 21.8571 34H27.5238C28.5973 34 29.6268 33.5736 30.3859 32.8146C31.145 32.0555 31.5714 31.0261 31.5714 29.9527V20.2391C31.5714 19.5951 31.3156 18.9774 30.8601 18.522C30.4047 18.0666 29.787 17.8107 29.1429 17.8107H21.8571C21.213 17.8107 20.5953 18.0666 20.1399 18.522C19.6844 18.9774 19.4286 19.5951 19.4286 20.2391ZM31.5714 5.6688H21.0476L23.2252 3.47515C23.6074 3.09731 23.8238 2.58314 23.8268 2.04576C23.8299 1.50837 23.6193 0.991789 23.2414 0.609653C22.8636 0.227518 22.3493 0.0111307 21.8119 0.0080946C21.2745 0.00505852 20.7579 0.215622 20.3757 0.593464L17 4.0013L13.6243 0.593464C13.2443 0.213475 12.7289 -5.66227e-09 12.1914 0C11.654 5.66227e-09 11.1386 0.213475 10.7586 0.593464C10.3786 0.973453 10.1651 1.48883 10.1651 2.02621C10.1651 2.5636 10.3786 3.07897 10.7586 3.45896L12.9524 5.6688H2.42857C1.78447 5.6688 1.16676 5.92464 0.711312 6.38006C0.255867 6.83547 0 7.45314 0 8.09719L0 12.1445C0 12.7885 0.255867 13.4062 0.711312 13.8616C1.16676 14.317 1.78447 14.5729 2.42857 14.5729H31.5714C32.2155 14.5729 32.8332 14.317 33.2887 13.8616C33.7441 13.4062 34 12.7885 34 12.1445V8.09719C34 7.45314 33.7441 6.83547 33.2887 6.38006C32.8332 5.92464 32.2155 5.6688 31.5714 5.6688Z" fill="white"/>
</svg>
