<svg width="610" height="370" viewBox="0 0 610 370" fill="none" xmlns="http://www.w3.org/2000/svg"><g opacity=".5"><path stroke="#D4D6D9" stroke-opacity=".5" d="M244.102 368.765L608.883 58.697M211.872 368.765L576.654 58.697M227.988 368.765L592.769 58.697M179.644 368.765L544.425 58.697M195.758 368.765L560.54 58.697M147.414 368.765L512.196 58.697M163.53 368.765L528.311 58.697M131.3 368.765L496.082 58.697M115.186 368.765L479.967 58.697M82.957 368.765L447.739 58.697M99.072 368.765L463.853 58.697M50.728 368.765L415.509 58.697M66.842 368.765L431.624 58.697M-13.73 368.765L351.051 58.697M18.498 368.765L383.28 58.697M-45.96 368.765L318.822 58.697M34.613 368.765L399.394 58.697M-29.844 368.765L334.937 58.697"/><path stroke="#0047FF" d="M2.384 368.765L433.739 1.227"/><path stroke="#D4D6D9" stroke-opacity=".5" d="M-78.188 368.765L286.593 58.697M-62.074 368.765L302.708 58.697M-110.418 368.765L254.364 58.697M-94.302 368.765L270.479 58.697M-126.532 368.765L238.25 58.697"/><path d="M235.929 228.072l-66.945 56.288h57.263l66.522-56.288h-56.84z" fill="#0047FF"/><path stroke="#0047FF" d="M2.384 368.765L433.739 1.227"/><path d="M235.929 228.072l-66.945 56.288h57.263l66.522-56.288h-56.84z" fill="#0047FF"/></g><path stroke="#0047FF" d="M2.384 368.764L433.739 1.226"/><path d="M235.929 228.072l-66.945 56.288h57.263l66.522-56.288h-56.84z" fill="#0047FF"/></svg>