<svg width="299" height="160" viewBox="0 0 299 160" fill="none" xmlns="http://www.w3.org/2000/svg"><path stroke="#0047FF" stroke-opacity=".15" d="M7.07 311.164L371.852 1.096M-25.159 311.164L339.623 1.096M-9.044 311.164L355.737 1.096M-57.388 311.164L307.393 1.096M-41.273 311.164L323.508 1.096M-89.617 311.164L275.164 1.096M-73.502 311.164L291.279 1.096M-105.732 311.164L259.05 1.096M-121.846 311.164L242.936 1.096M-154.075 311.164L210.707 1.096M-137.961 311.164L226.821 1.096M-186.304 311.164L178.478 1.096M-170.19 311.164L194.592 1.096M-250.762 311.164L114.02 1.096M-218.533 311.164L146.249 1.096M-282.991 311.164L81.79 1.096M-202.419 311.164L162.363 1.096M-266.876 311.164L97.905 1.096M-234.648 311.164L130.133 1.096M-315.22 311.164L49.561 1.096M-299.106 311.164L65.676 1.096M-347.449 311.164L17.332 1.096M-331.335 311.164L33.447 1.096M-363.564 311.164L1.218 1.096"/></svg>