<svg width="111" height="115" viewBox="0 0 111 115" fill="none" xmlns="http://www.w3.org/2000/svg"><path d="M1.769 31.828c13.633 0 24.677 11.08 24.677 24.712 0-13.633 11.079-24.712 24.712-24.712-13.633 0-24.712-11.044-24.712-24.677.003 13.63-11.044 24.677-24.677 24.677z" fill="url(#a)" stroke="url(#b)" stroke-width="3" stroke-miterlimit="10" stroke-linejoin="round"/><path d="M51.158 84.21c16.056 0 29.064 13.049 29.064 29.105 0-16.056 13.052-29.105 29.108-29.105-16.056 0-29.108-13.008-29.108-29.067 0 16.059-13.01 29.067-29.064 29.067z" fill="url(#c)" stroke="url(#d)" stroke-width="3" stroke-miterlimit="10" stroke-linejoin="round"/><path d="M82.812 29.736c7.703 0 13.948-6.245 13.948-13.948S90.515 1.84 82.812 1.84 68.864 8.085 68.864 15.788s6.245 13.948 13.948 13.948z" fill="url(#e)" stroke="url(#f)" stroke-width="3" stroke-miterlimit="10" stroke-linejoin="round"/><path d="M24.891 97.43a9.078 9.078 0 1 0 0-18.157 9.078 9.078 0 0 0 0 18.157z" fill="url(#g)" stroke="url(#h)" stroke-width="3" stroke-miterlimit="10" stroke-linejoin="round"/><path d="M51.158 60.986a5.842 5.842 0 1 0 0-11.685 5.842 5.842 0 0 0 0 11.685z" fill="url(#i)" stroke="url(#j)" stroke-width="3" stroke-miterlimit="10" stroke-linejoin="round"/><defs><linearGradient id="a" x1="26.463" y1="7.151" x2="26.463" y2="56.54" gradientUnits="userSpaceOnUse"><stop/><stop offset="1" stop-color="#0047FF"/></linearGradient><linearGradient id="b" x1="26.463" y1="7.151" x2="26.463" y2="56.54" gradientUnits="userSpaceOnUse"><stop/><stop offset="1" stop-color="#0047FF"/></linearGradient><linearGradient id="c" x1="80.244" y1="55.143" x2="80.244" y2="113.315" gradientUnits="userSpaceOnUse"><stop/><stop offset="1" stop-color="#0047FF"/></linearGradient><linearGradient id="d" x1="80.244" y1="55.143" x2="80.244" y2="113.315" gradientUnits="userSpaceOnUse"><stop/><stop offset="1" stop-color="#0047FF"/></linearGradient><linearGradient id="e" x1="82.812" y1="1.84" x2="82.812" y2="29.736" gradientUnits="userSpaceOnUse"><stop/><stop offset="1" stop-color="#0047FF"/></linearGradient><linearGradient id="f" x1="82.812" y1="1.84" x2="82.812" y2="29.736" gradientUnits="userSpaceOnUse"><stop/><stop offset="1" stop-color="#0047FF"/></linearGradient><linearGradient id="g" x1="24.891" y1="79.273" x2="24.891" y2="97.43" gradientUnits="userSpaceOnUse"><stop/><stop offset="1" stop-color="#0047FF"/></linearGradient><linearGradient id="h" x1="24.891" y1="79.273" x2="24.891" y2="97.43" gradientUnits="userSpaceOnUse"><stop/><stop offset="1" stop-color="#0047FF"/></linearGradient><linearGradient id="i" x1="51.158" y1="49.301" x2="51.158" y2="60.986" gradientUnits="userSpaceOnUse"><stop/><stop offset="1" stop-color="#0047FF"/></linearGradient><linearGradient id="j" x1="51.158" y1="49.301" x2="51.158" y2="60.986" gradientUnits="userSpaceOnUse"><stop/><stop offset="1" stop-color="#0047FF"/></linearGradient></defs></svg>