<svg width="82" height="108" viewBox="0 0 82 108" fill="none" xmlns="http://www.w3.org/2000/svg"><path d="M18.744 104.408H3.37a.868.868 0 0 1-.852-.854V63.356c0-.459.392-.854.852-.854h15.374c.46 0 .856.395.856.854v40.198a.854.854 0 0 1-.856.854z" fill="#fff" stroke="url(#a)" stroke-miterlimit="10" stroke-linecap="round" stroke-linejoin="round"/><path d="M41.504 2.626v17.301a2 2 0 0 0 1.994 1.99c1.094 0 1.99-.895 1.99-1.99V2.626a2 2 0 0 0-1.99-1.99c-1.12 0-1.994.9-1.994 1.99zM79.525 39.522H62.18c-1.093 0-1.99.894-1.99 1.989 0 1.094.897 1.989 1.99 1.989h17.346a2 2 0 0 0 1.995-1.99c0-1.094-.898-1.988-1.995-1.988zM5.451 41.51a2 2 0 0 0 1.995 1.99h17.346a2 2 0 0 0 1.994-1.99c0-1.094-.897-1.988-1.994-1.988H7.445a2 2 0 0 0-1.994 1.989zM16.226 13.941a1.98 1.98 0 0 0 .592-1.399 1.98 1.98 0 0 0-.592-1.398 1.99 1.99 0 0 0-1.403-.59c-.524 0-1.029.217-1.402.59a1.98 1.98 0 0 0-.592 1.398c0 .523.219 1.027.592 1.4.373.371.875.59 1.402.59.528 0 1.034-.219 1.403-.59zM21.595 19.295a1.992 1.992 0 0 0 1.402 3.388c.505 0 1.03-.195 1.402-.59a1.992 1.992 0 0 0 0-2.798 2.004 2.004 0 0 0-2.805 0zM20.323 18.027a1.992 1.992 0 0 0 0-2.797 2.004 2.004 0 0 0-2.805 0 1.992 1.992 0 0 0 0 2.797 1.95 1.95 0 0 0 1.403.568 1.868 1.868 0 0 0 1.402-.567zM25.688 23.38c-.373.372-.569.872-.569 1.398 0 .527.219 1.027.592 1.4.373.371.875.59 1.403.59.524 0 1.029-.219 1.402-.59a1.98 1.98 0 0 0 .592-1.4c0-.522-.219-1.026-.592-1.399a1.99 1.99 0 0 0-2.828 0zM68.882 12.413a1.98 1.98 0 0 0-.592 1.399c0 .526.219 1.027.592 1.399.373.372.875.59 1.402.59.524 0 1.03-.218 1.403-.59s.57-.873.57-1.399c0-.523-.22-1.027-.57-1.399a1.975 1.975 0 0 0-1.403-.568c-.505-.022-1.033.196-1.402.568zM62.114 23.928c.506 0 1.007-.195 1.403-.567a1.987 1.987 0 0 0 0-2.794 2 2 0 0 0-2.801 0 1.987 1.987 0 0 0 0 2.794c.388.39.893.567 1.398.567zM64.806 16.474a1.987 1.987 0 0 0 1.403 3.385 1.987 1.987 0 0 0 1.402-3.384 2.004 2.004 0 0 0-2.805 0zM56.045 26.045c0 .526.219 1.026.592 1.399.373.372.875.59 1.402.59a1.99 1.99 0 0 0 1.403-.59 1.98 1.98 0 0 0 .592-1.4c0-.522-.219-1.026-.592-1.398a1.969 1.969 0 0 0-1.403-.568c-.524 0-1.029.218-1.402.568s-.592.876-.592 1.399z" fill="#000"/><path d="M81.169 67.093c0-6.16-5.014-11.165-11.194-11.165h-17.39V43.41c0-5.265-1.535-9.066-4.6-11.296-4.819-3.539-11.454-1.508-11.718-1.422a1.967 1.967 0 0 0-1.38 1.88V46.6c0 11.055-12.855 14.834-13.406 14.985-.26.067-.483.199-.679.35a3.698 3.698 0 0 0-2.891-1.4H4.22c-2.035 0-3.701 1.663-3.701 3.693V102.7a3.706 3.706 0 0 0 3.702 3.693h13.644a3.683 3.683 0 0 0 3.197-1.858 11.155 11.155 0 0 0 7.732 3.103h34.387c7.6 0 12.441-3.975 13.297-10.901L81.1 67.397a.66.66 0 0 0 .068-.304z" fill="url(#b)"/><path d="M20.803 61.937v43.03" stroke="url(#c)" stroke-width="3" stroke-miterlimit="10" stroke-linecap="round" stroke-linejoin="round"/><defs><linearGradient id="a" x1="11.059" y1="62.502" x2="11.059" y2="104.408" gradientUnits="userSpaceOnUse"><stop/><stop offset="1" stop-color="#0047FF"/></linearGradient><linearGradient id="b" x1="40.844" y1="30.035" x2="40.844" y2="107.637" gradientUnits="userSpaceOnUse"><stop/><stop offset="1" stop-color="#0047FF"/></linearGradient><linearGradient id="c" x1="21.303" y1="61.937" x2="21.303" y2="111.22" gradientUnits="userSpaceOnUse"><stop stop-color="#fff"/><stop offset="1" stop-color="#fff"/></linearGradient></defs></svg>