<svg width="320" height="573" viewBox="0 0 320 573" fill="none" xmlns="http://www.w3.org/2000/svg"><path stroke="#0047FF" stroke-opacity=".09" d="M319.098 517.256l242.963-206.521M297.631 517.256l242.963-206.521M308.365 517.256l242.963-206.521M276.165 517.256l242.963-206.521M286.898 517.256l242.963-206.521M254.699 517.256l242.963-206.521M265.432 517.256l242.963-206.521M243.966 517.256l242.963-206.521M233.233 517.256l242.963-206.521M211.767 517.256L454.73 310.735M222.5 517.256l242.963-206.521M190.301 517.256l242.963-206.521M201.034 517.256l242.963-206.521M147.368 517.256l242.963-206.521M168.834 517.256l242.963-206.521M125.902 517.256l242.963-206.521M179.568 517.256l242.963-206.521M136.635 517.256l242.963-206.521M158.101 517.256l242.963-206.521M104.436 517.256l242.963-206.521M115.169 517.256l242.963-206.521M82.97 517.256l242.963-206.521M93.703 517.256l242.963-206.521M72.237 517.256L315.2 310.735"/><path d="M240.363 487.542L139.2 572.601h86.532l100.524-85.059h-85.893z" fill="#F3F3F3" fill-opacity=".67"/><path d="M326.708 443.602l-93.151 78.74h25.748l92.316-78.74h-24.913z" fill="#fff"/><path stroke="#969BA7" stroke-opacity=".09" d="M-92.01 206.915L150.953.395M-113.477 206.915L129.486.395M-102.743 206.915L140.22.395M-134.943 206.915L108.02.395M-124.209 206.915L118.754.395M-156.409 206.915L86.554.395M-145.676 206.915L97.287.395M-167.142 206.915L75.821.395M-177.875 206.915L65.088.395M-199.341 206.915L43.622.395M-188.608 206.915L54.355.395M-220.807 206.915L22.156.395M-210.074 206.915L32.889.395M-242.273 206.915L.69.395M-231.541 206.915L11.422.395"/><path d="M62.727 70.376l-93.152 78.74h12.947l92.316-78.74H62.727z" fill="#0047FF" fill-opacity=".05"/></svg>