<svg width="768" height="1003" viewBox="0 0 768 1003" fill="none" xmlns="http://www.w3.org/2000/svg"><path stroke="#0047FF" stroke-opacity=".15" d="M653.805 310.529L1018.59.462M621.576 310.529L986.357.462M637.69 310.529L1002.47.462M589.346 310.529L954.128.462M605.461 310.529L970.243.462M557.117 310.529L921.899.462M573.232 310.529L938.013.462M541.003 310.529L905.784.462M524.889 310.529L889.67.462M492.66 310.529L857.441.462M508.774 310.529L873.555.462M460.431 310.529L825.212.462M476.545 310.529L841.326.462M395.973 310.529L760.754.462M428.202 310.529L792.983.462M363.743 310.529L728.525.462M444.316 310.529L809.097.462M379.858 310.529L744.64.462M412.086 310.529L776.868.462M331.514 310.529L696.296.462M347.629 310.529L712.41.462M299.285 310.529L664.067.462M315.4 310.529L680.181.462M283.171 310.529L647.952.462"/><path d="M665.068 199.756L525.212 317.975h38.658l138.602-118.219h-37.404z" fill="#fff"/><path stroke="#D4D6D9" stroke-opacity=".5" d="M47.305 1001.75l364.782-310.073M15.076 1001.75l364.781-310.073M31.191 1001.75l364.781-310.073M-17.153 1001.75l364.781-310.073M-1.038 1001.75l364.781-310.073M-49.382 1001.75l364.781-310.073M-33.268 1001.75l364.782-310.073M-65.497 1001.75l364.782-310.073M-81.611 1001.75l364.782-310.073M-113.84 1001.75l364.782-310.073M-97.726 1001.75l364.782-310.073M-146.069 1001.75l364.782-310.073M-129.955 1001.75l364.782-310.073M-210.527 1001.75l364.782-310.073M-178.298 1001.75l364.782-310.073M-242.756 1001.75l364.781-310.073M-162.184 1001.75l364.782-310.073M-226.641 1001.75L138.14 691.677M-194.413 1001.75l364.781-310.073M-274.985 1001.75L89.796 691.677M-258.871 1001.75l364.782-310.073M-307.214 1001.75L57.567 691.677M-291.1 1001.75L73.682 691.677M-323.329 1001.75L41.453 691.677"/><path d="M241.061 753.144L52.76 912.313h19.207L258.58 753.144h-17.519zM90.899 842.114L-97.402 1001.28h19.207l186.613-159.167-17.52.001z" fill="#fff"/></svg>