<svg width="102" height="121" viewBox="0 0 102 121" fill="none" xmlns="http://www.w3.org/2000/svg"><path d="M25.506 6.994c3.128-2.697 6.123-3.884 9.71-3.884 3.83 0 8.147 1.295 13.89 3.425 1.187.432 2.455.648 3.75.648 3.154 0 6.176-1.24 9.063-2.454 2.779-1.16 5.423-2.265 7.988-2.265 1.24 0 2.992.216 5.206 1.781L62.163 34.48h-22.55L25.507 6.994zm56.105 112.321h-61.23c-10.277 0-18.64-8.364-18.64-18.641 0-17.288 6.339-33.693 18.802-48.741 7.877-9.52 15.889-15.43 18.316-17.157h24.222c2.455 1.7 10.437 7.634 18.314 17.157 12.49 15.048 18.802 31.426 18.802 48.741.057 10.28-8.306 18.641-18.586 18.641z" fill="url(#a)" stroke="url(#b)" stroke-width="3" stroke-miterlimit="10" stroke-linejoin="round"/><path d="M55.367 77.476h-7.42a4.884 4.884 0 1 1 0-9.77h13.056a3.243 3.243 0 0 0 3.238-3.232 3.248 3.248 0 0 0-3.238-3.238H54.88V56.73a3.245 3.245 0 0 0-3.238-3.236 3.246 3.246 0 0 0-3.236 3.236v4.506h-.456c-6.258 0-11.359 5.098-11.359 11.355 0 6.26 5.098 11.356 11.359 11.356h7.42a4.882 4.882 0 0 1 4.881 4.884 4.882 4.882 0 0 1-4.881 4.885h-13.3a3.245 3.245 0 0 0-3.235 3.235 3.246 3.246 0 0 0 3.236 3.236h6.365v4.614a3.247 3.247 0 0 0 3.239 3.236 3.247 3.247 0 0 0 3.238-3.236v-4.614h.618c6.204-.078 11.197-5.152 11.197-11.356-.005-6.255-5.103-11.355-11.361-11.355z" fill="#fff"/><defs><linearGradient id="a" x1="50.969" y1="2.464" x2="50.969" y2="152.983" gradientUnits="userSpaceOnUse"><stop/><stop offset=".887" stop-color="#0047FF"/><stop offset="1" stop-color="#0047FF"/><stop offset="1" stop-color="#fff" stop-opacity="0"/></linearGradient><linearGradient id="b" x1="50.969" y1="2.464" x2="50.969" y2="119.315" gradientUnits="userSpaceOnUse"><stop/><stop offset="1" stop-color="#0047FF"/></linearGradient></defs></svg>