<svg width="1920" height="624" viewBox="0 0 1920 624" fill="none" xmlns="http://www.w3.org/2000/svg"><path d="M1273.9 623.605L535.408-17.066l-17.094-24.205L2324.91-51.45l-41.08 640.029-1009.93 35.025z" fill="#F9F9F9"/><path stroke="#D4D6D9" stroke-opacity=".5" d="M185.928 309.687L550.71-.381M153.699 309.687L518.48-.381M169.814 309.687L534.595-.381M121.47 309.687L486.252-.381M137.584 309.687L502.366-.381M89.241 309.687L454.022-.381M105.356 309.687L470.137-.381M73.126 309.687L437.908-.381M57.012 309.687L421.794-.381M24.784 309.687L389.565-.381M40.898 309.687L405.679-.381M-7.446 309.687L357.336-.381M8.668 309.687L373.45-.381M-71.904 309.687L292.878-.381M-39.675 309.687L325.106-.381m-429.239 310.068L260.648-.381M-23.561 309.687L341.22-.381M-88.018 309.687L276.763-.381M-55.79 309.687L308.992-.381m-445.354 310.068L228.42-.381m-348.668 310.068L244.534-.381m-413.125 310.068L196.19-.381m-348.666 310.068L212.305-.381m-397.011 310.068L180.076-.381"/></svg>