<svg width="320" height="241" viewBox="0 0 320 241" fill="none" xmlns="http://www.w3.org/2000/svg"><path d="M188.762 128L51.41 241h429.82l134.18-113H188.762z" fill="#373E4B"/><path d="M63.907 142.048L-43 232.415l129.918.001 105.947-90.368H63.906z" fill="#50535A"/><path transform="matrix(.7621 -.64753 .64784 .76173 76.1 185.809)" stroke="#757575" stroke-opacity=".15" d="M0-.5h285.73"/><path transform="matrix(.7621 -.64753 .64784 .76173 56.862 185.809)" stroke="#757575" stroke-opacity=".15" d="M0-.5h285.73"/><path transform="matrix(.7621 -.64753 .64784 .76173 66.481 185.809)" stroke="#757575" stroke-opacity=".15" d="M0-.5h285.73"/><path transform="scale(1.00024 .99976) rotate(-40.367 271.6 41.766)" stroke="#757575" stroke-opacity=".15" d="M0-.5h285.73"/><path transform="matrix(.7621 -.64753 .64784 .76173 47.242 185.809)" stroke="#757575" stroke-opacity=".15" d="M0-.5h285.73"/><path transform="matrix(.7621 -.64753 .64784 .76173 18.384 185.809)" stroke="#757575" stroke-opacity=".15" d="M0-.5h285.73"/><path transform="matrix(.7621 -.64753 .64784 .76173 28.003 185.809)" stroke="#757575" stroke-opacity=".15" d="M0-.5h285.73"/><path transform="matrix(.7621 -.64753 .64784 .76173 8.765 185.809)" stroke="#757575" stroke-opacity=".15" d="M0-.5h285.73"/><path transform="matrix(.7621 -.64753 .64784 .76173 -.855 185.809)" stroke="#757575" stroke-opacity=".15" d="M0-.5h285.73"/><path transform="matrix(.7621 -.64753 .64784 .76173 -20.094 185.809)" stroke="#757575" stroke-opacity=".15" d="M0-.5h285.73"/><path transform="matrix(.7621 -.64753 .64784 .76173 -10.474 185.809)" stroke="#757575" stroke-opacity=".15" d="M0-.5h285.73"/><path transform="matrix(.7621 -.64753 .64784 .76173 -39.332 185.809)" stroke="#757575" stroke-opacity=".15" d="M0-.5h285.73"/><path transform="matrix(.7621 -.64753 .64784 .76173 -29.713 185.809)" stroke="#757575" stroke-opacity=".15" d="M0-.5h285.73"/><path transform="matrix(.7621 -.64753 .64784 .76173 -77.81 185.809)" stroke="#757575" stroke-opacity=".15" d="M0-.5h285.73"/><path transform="matrix(.7621 -.64753 .64784 .76173 -58.571 185.809)" stroke="#757575" stroke-opacity=".15" d="M0-.5h285.73"/><path transform="matrix(.7621 -.64753 .64784 .76173 -97.05 185.809)" stroke="#757575" stroke-opacity=".15" d="M0-.5h285.73"/><path transform="matrix(.7621 -.64753 .64784 .76173 -48.952 185.809)" stroke="#757575" stroke-opacity=".15" d="M0-.5h285.73"/><path transform="matrix(.7621 -.64753 .64784 .76173 -87.43 185.809)" stroke="#757575" stroke-opacity=".15" d="M0-.5h285.73"/><path transform="matrix(.7621 -.64753 .64784 .76173 -68.19 185.809)" stroke="#757575" stroke-opacity=".15" d="M0-.5h285.73"/><path transform="scale(1.00024 .99976) rotate(-40.367 194.662 251.06)" stroke="#757575" stroke-opacity=".15" d="M0-.5h285.73"/><path transform="matrix(.7621 -.64753 .64784 .76173 -106.668 185.809)" stroke="#757575" stroke-opacity=".15" d="M0-.5h285.73"/><path transform="matrix(.7621 -.64753 .64784 .76173 -135.527 185.809)" stroke="#757575" stroke-opacity=".15" d="M0-.5h285.73"/><path transform="scale(1.00024 .99976) rotate(-40.367 189.854 264.14)" stroke="#757575" stroke-opacity=".15" d="M0-.5h285.73"/><path transform="matrix(.7621 -.64753 .64784 .76173 -145.146 185.809)" stroke="#757575" stroke-opacity=".15" d="M0-.5h285.73"/></svg>