<svg width="768" height="993" viewBox="0 0 768 993" fill="none" xmlns="http://www.w3.org/2000/svg"><path d="M-52.845 737.57L-348.45 977.073H55.37L347.994 737.57h-400.84z" fill="#373E4B"/><path d="M231.547 654.757l-366.588 318.119h532.21l362.659-318.118-528.281-.001z" fill="#373E4B" filter="url(#a)"/><path d="M625.482 654.201L255.344 972.876h597.44l365.726-318.675H625.482z" fill="#373E4B" filter="url(#b)"/><path d="M530.523 178.861l-232.726 195.68h199.066l231.257-195.68H530.523z" fill="#F3F3F3"/><path stroke="#C4C4C4" stroke-opacity=".5" d="M595.852 310.858L960.633.791M563.622 310.858L928.404.791M579.738 310.858L944.519.791M531.393 310.858L896.175.791M547.509 310.858L912.29.791M499.164 310.858L863.946.791M515.279 310.858L880.061.791M483.05 310.858L847.832.791M466.936 310.858L831.717.791M434.707 310.858L799.488.791M450.821 310.858L815.603.791M402.478 310.858L767.259.791M418.592 310.858L783.374.791M338.02 310.858L702.801.791M370.249 310.858L735.03.791M305.79 310.858L670.572.791M386.363 310.858L751.145.791M321.906 310.858L686.687.791M354.134 310.858L718.915.791M273.561 310.858L638.343.791M289.676 310.858L654.458.791M241.332 310.858L606.114.791M257.447 310.858L622.229.791M225.218 310.858L590 .791"/><path stroke="#C4C4C4" d="M726.03 310.858L1090.81.791M758.259 310.858L1123.04.791M693.801 310.858L1058.58.791M709.916 310.858L1074.7.791M742.144 310.858L1106.93.791M661.572 310.858L1026.35.791M677.686 310.858L1042.47.791M629.343 310.858L994.124.791M645.457 310.858L1010.24.791M613.228 310.858L978.01.791"/><path stroke="#0047FF" d="M-200.449 926.98l364.782-310.067M-232.678 926.98l364.781-310.067M-216.563 926.98l364.781-310.067M-264.907 926.98L99.874 616.913M-248.792 926.98l364.781-310.067M-297.136 926.98L67.645 616.913M-281.022 926.98L83.76 616.913M-313.251 926.98L51.531 616.913M-329.365 926.98L35.417 616.913M-361.594 926.98L3.188 616.913M-345.48 926.98L19.302 616.913"/><path d="M709.23 100.743L578.004 211.667h21.1l130.049-110.924H709.23z" fill="#0047FF"/><defs><filter id="a" x="-155.041" y="634.757" width="934.869" height="358.119" filterUnits="userSpaceOnUse" color-interpolation-filters="sRGB"><feFlood flood-opacity="0" result="BackgroundImageFix"/><feColorMatrix in="SourceAlpha" values="0 0 0 0 0 0 0 0 0 0 0 0 0 0 0 0 0 0 127 0"/><feOffset/><feGaussianBlur stdDeviation="10"/><feColorMatrix values="0 0 0 0 0 0 0 0 0 0 0 0 0 0 0 0 0 0 0.2 0"/><feBlend in2="BackgroundImageFix" result="effect1_dropShadow"/><feBlend in="SourceGraphic" in2="effect1_dropShadow" result="shape"/></filter><filter id="b" x="235.344" y="634.201" width="1003.17" height="358.675" filterUnits="userSpaceOnUse" color-interpolation-filters="sRGB"><feFlood flood-opacity="0" result="BackgroundImageFix"/><feColorMatrix in="SourceAlpha" values="0 0 0 0 0 0 0 0 0 0 0 0 0 0 0 0 0 0 127 0"/><feOffset/><feGaussianBlur stdDeviation="10"/><feColorMatrix values="0 0 0 0 0 0 0 0 0 0 0 0 0 0 0 0 0 0 0.2 0"/><feBlend in2="BackgroundImageFix" result="effect1_dropShadow"/><feBlend in="SourceGraphic" in2="effect1_dropShadow" result="shape"/></filter></defs></svg>