<svg width="320" height="208" viewBox="0 0 320 208" fill="none" xmlns="http://www.w3.org/2000/svg"><path stroke="#0047FF" stroke-opacity=".09" d="M130.378 206.983L373.341.462M108.912 206.983L351.875.462M119.645 206.983L362.608.462M87.446 206.983L330.409.462M98.179 206.983L341.142.462M65.98 206.983L308.943.462M76.713 206.983L319.676.462M55.247 206.983L298.21.462M44.514 206.983L287.477.462M23.048 206.983L266.011.462M33.781 206.983L276.744.462M1.581 206.983L244.544.462M12.314 206.983L255.277.462M-41.351 206.983L201.612.462M-19.885 206.983L223.078.462M-62.817 206.983L180.146.462M-9.152 206.983L233.811.462M-52.084 206.983L190.879.462M-30.618 206.983L212.345.462M-84.283 206.983L158.68.462M-73.55 206.983L169.413.462M-105.75 206.983L137.213.462M-95.016 206.983L147.947.462M-116.483 206.983L126.48.462"/><path d="M241.529 94.371l-110.827 95.117h57.263l110.403-95.117h-56.839z" fill="#C4C4C4" fill-opacity=".38"/></svg>