<svg width="62" height="51" viewBox="0 0 62 51" fill="none" xmlns="http://www.w3.org/2000/svg">
  <path d="M11.3936 32.4171H1M1 32.4171V1H19.8975V39.6217H1V32.4171Z" stroke="white" stroke-width="1.01575" stroke-linecap="round"/>
  <path d="M10.5664 8.08594V24.6212" stroke="white" stroke-width="1.01575" stroke-linecap="round"/>
  <path d="M18.1256 28.7559V30.4094M18.9524 29.5826H17.2988" stroke="white" stroke-width="0.507873" stroke-linecap="round"/>
  <path d="M18.1263 31.9453V37.7327H12.457" stroke="white" stroke-width="0.507873" stroke-linecap="round"/>
  <path d="M10.8021 2.77148H3.125V29.1099" stroke="white" stroke-width="0.507873" stroke-linecap="round"/>
  <path d="M21.551 16.3542V32.4171V39.6217H40.4485V24.5038M21.551 16.3542V1H40.4485V24.5038M21.551 16.3542H31.354V8.20467M40.4485 24.5038H31.354V32.4171" stroke="white" stroke-width="1.01575" stroke-linecap="round"/>
  <path d="M27.9285 14.4643H23.6766V3.59825M23.6766 3.59825L22.8498 4.42501M23.6766 3.59825L24.5033 2.77148" stroke="white" stroke-width="0.507873" stroke-linecap="round"/>
  <path d="M58.5204 24.8574V37.7313H50.3709M50.3709 37.7313L51.4339 36.6684M50.3709 37.7313L49.8984 38.2038" stroke="white" stroke-width="1.01575" stroke-linecap="round"/>
  <path d="M42.1035 24.5038V32.4171V39.6217H61.001V16.3542M42.1035 24.5038V1H61.001V16.3542M42.1035 24.5038H50.8436V32.4171M50.8436 8.08656V16.3542H61.001" stroke="white" stroke-width="1.01575" stroke-linecap="round"/>
  <path d="M43.875 22.3787V2.89062H54.9773" stroke="white" stroke-width="0.507873" stroke-linecap="round"/>
  <path d="M55.5664 14.5816V13.991V13.6367" stroke="white" stroke-width="0.253936" stroke-linecap="round"/>
  <path d="M55.5667 8.91362V8.32308V7.96875" stroke="white" stroke-width="0.253936" stroke-linecap="round"/>
  <path d="M55.5684 11.9837V11.0979V10.5664" stroke="white" stroke-width="0.253936" stroke-linecap="round"/>
  <path d="M56.2767 11.2754H55.3909H54.8594" stroke="white" stroke-width="0.253936" stroke-linecap="round"/>
  <path d="M58.8726 11.2754H58.2821H57.9277" stroke="white" stroke-width="0.253936" stroke-linecap="round"/>
  <path d="M53.2046 11.2773H52.6141H52.2598" stroke="white" stroke-width="0.253936" stroke-linecap="round"/>
  <path d="M0.679443 50.0001V43.0116H1.19873L4.0621 49.1945L6.89635 43.0116H7.43505V49.9904H6.88664V44.2976L4.28534 50.0001H3.82915L1.223 44.2976V50.0001H0.679443Z" fill="white"/>
  <path d="M8.30801 50.0001L10.7831 43.0116H11.4771L13.9522 50.0001H13.3602L10.9821 43.3028H11.2636L8.90009 50.0001H8.30801ZM9.33203 48.2433V47.7143H12.9234V48.2433H9.33203Z" fill="white"/>
  <path d="M17.4229 50.1457C16.7272 50.1457 16.1432 49.992 15.6709 49.6847C15.1985 49.3741 14.8426 48.9454 14.6032 48.3986C14.3637 47.8518 14.244 47.2209 14.244 46.5058C14.244 45.7908 14.3637 45.1599 14.6032 44.6131C14.8426 44.0663 15.1985 43.6392 15.6709 43.3319C16.1432 43.0213 16.7272 42.866 17.4229 42.866C18.235 42.866 18.8934 43.0763 19.3981 43.4969C19.9061 43.9175 20.2506 44.4805 20.4318 45.1858L19.8543 45.3265C19.7055 44.7409 19.4272 44.2766 19.0195 43.9337C18.6151 43.5875 18.0829 43.4144 17.4229 43.4144C16.8502 43.4144 16.373 43.5454 15.9912 43.8075C15.6126 44.0696 15.3263 44.4335 15.1322 44.8994C14.9413 45.3653 14.8442 45.9008 14.841 46.5058C14.8345 47.1109 14.9267 47.6463 15.1176 48.1122C15.3117 48.5749 15.6013 48.9389 15.9863 49.2042C16.3713 49.4663 16.8502 49.5973 17.4229 49.5973C18.0829 49.5973 18.6151 49.4242 19.0195 49.078C19.4272 48.7318 19.7055 48.2675 19.8543 47.6852L20.4318 47.8259C20.2506 48.5312 19.9061 49.0942 19.3981 49.5148C18.8934 49.9354 18.235 50.1457 17.4229 50.1457Z" fill="white"/>
  <path d="M23.4168 50.0001V43.5551H20.9126V43.0116H26.4792V43.5551H23.9749V50.0001H23.4168Z" fill="white"/>
  <path d="M27.2581 50.0001V43.0116H31.5774V43.5551H27.8162V46.2098H30.995V46.7534H27.8162V49.4566H31.5774V50.0001H27.2581Z" fill="white"/>
  <path d="M32.7463 50.0001V43.0116H35.3816C35.4496 43.0116 35.5223 43.0148 35.6 43.0213C35.6809 43.0245 35.765 43.0342 35.8524 43.0504C36.2018 43.1054 36.5011 43.2316 36.7502 43.4289C37.0026 43.6231 37.1951 43.869 37.3277 44.1666C37.4604 44.461 37.5267 44.7862 37.5267 45.1421C37.5267 45.5012 37.4604 45.8296 37.3277 46.1273C37.1951 46.4217 37.0026 46.6676 36.7502 46.865C36.5011 47.0591 36.2018 47.1837 35.8524 47.2387C35.765 47.2516 35.6809 47.2613 35.6 47.2678C35.5223 47.2743 35.4496 47.2775 35.3816 47.2775H33.3045V50.0001H32.7463ZM33.3045 46.7291H35.3719C35.4301 46.7291 35.4965 46.7258 35.5709 46.7194C35.6485 46.7129 35.7262 46.7032 35.8038 46.6903C36.0562 46.6385 36.2665 46.5366 36.4347 46.3845C36.603 46.2292 36.7292 46.0432 36.8133 45.8264C36.8974 45.6096 36.9395 45.3815 36.9395 45.1421C36.9395 44.9027 36.8974 44.6762 36.8133 44.4627C36.7292 44.2459 36.603 44.0615 36.4347 43.9094C36.2665 43.7541 36.0562 43.6506 35.8038 43.5988C35.7262 43.5826 35.6485 43.5713 35.5709 43.5648C35.4965 43.5584 35.4301 43.5551 35.3719 43.5551H33.3045V46.7291Z" fill="white"/>
  <path d="M41.2906 50.1457C40.5949 50.1457 40.0109 49.992 39.5386 49.6847C39.0662 49.3741 38.7103 48.9454 38.4709 48.3986C38.2315 47.8518 38.1117 47.2209 38.1117 46.5058C38.1117 45.7908 38.2315 45.1599 38.4709 44.6131C38.7103 44.0663 39.0662 43.6392 39.5386 43.3319C40.0109 43.0213 40.5949 42.866 41.2906 42.866C42.1027 42.866 42.7611 43.0763 43.2658 43.4969C43.7738 43.9175 44.1183 44.4805 44.2995 45.1858L43.722 45.3265C43.5732 44.7409 43.2949 44.2766 42.8873 43.9337C42.4828 43.5875 41.9506 43.4144 41.2906 43.4144C40.7179 43.4144 40.2407 43.5454 39.8589 43.8075C39.4803 44.0696 39.194 44.4335 38.9999 44.8994C38.809 45.3653 38.7119 45.9008 38.7087 46.5058C38.7022 47.1109 38.7944 47.6463 38.9853 48.1122C39.1794 48.5749 39.469 48.9389 39.854 49.2042C40.239 49.4663 40.7179 49.5973 41.2906 49.5973C41.9506 49.5973 42.4828 49.4242 42.8873 49.078C43.2949 48.7318 43.5732 48.2675 43.722 47.6852L44.2995 47.8259C44.1183 48.5312 43.7738 49.0942 43.2658 49.5148C42.7611 49.9354 42.1027 50.1457 41.2906 50.1457Z" fill="white"/>
  <path d="M45.3627 50.0001V43.0116H45.9208V46.3311L49.2452 43.0116H49.9829L46.639 46.37L50.2741 50.0001H49.5267L45.9208 46.4282V50.0001H45.3627Z" fill="white"/>
  <path d="M50.4699 50.0001L52.945 43.0116H53.639L56.1141 50.0001H55.522L53.144 43.3028H53.4254L51.062 50.0001H50.4699ZM51.4939 48.2433V47.7143H55.0852V48.2433H51.4939Z" fill="white"/>
  <path d="M61.6525 50.0001H61.0895V47.2775H58.595L58.4348 47.2144C57.943 47.1109 57.5596 46.8682 57.2846 46.4864C57.0096 46.1046 56.8721 45.6565 56.8721 45.1421C56.8721 44.7862 56.9384 44.461 57.0711 44.1666C57.2037 43.869 57.3946 43.6231 57.6437 43.4289C57.8961 43.2316 58.197 43.1054 58.5464 43.0504C58.6338 43.0342 58.7163 43.0245 58.7939 43.0213C58.8748 43.0148 58.9492 43.0116 59.0172 43.0116H61.6525V50.0001ZM57.3477 50.0001H56.6925L58.2067 46.8941L58.726 47.1562L57.3477 50.0001ZM61.0895 46.7291V43.5551H59.0269C58.9719 43.5551 58.9056 43.5584 58.8279 43.5648C58.7503 43.5713 58.6726 43.5826 58.595 43.5988C58.3426 43.6506 58.1323 43.7541 57.9641 43.9094C57.7958 44.0615 57.668 44.2459 57.5807 44.4627C57.4965 44.6762 57.4545 44.9027 57.4545 45.1421C57.4545 45.3815 57.4965 45.6096 57.5807 45.8264C57.668 46.0432 57.7958 46.2292 57.9641 46.3845C58.1323 46.5366 58.3426 46.6385 58.595 46.6903C58.6726 46.7032 58.7503 46.7129 58.8279 46.7194C58.9056 46.7258 58.9719 46.7291 59.0269 46.7291H61.0895Z" fill="white"/>
</svg>
