<svg xmlns="http://www.w3.org/2000/svg"><defs>
    <clipPath id="clip0_306_2308">
      <rect width="24" height="24" fill="white" transform="translate(14 15)"/>
    </clipPath>
  </defs><symbol id="arrow-up" viewBox="0 0 80 80">
  <circle cx="40" cy="40" r="39.5" stroke="white"/>
  <path d="M39.5 17.5V63M39.5 17.5L51 29M39.5 17.5L28 29" stroke="white" stroke-width="2" stroke-linecap="round"/>
</symbol><symbol id="banner-order-btn" viewBox="0 0 48 37">
<path d="M32.4096 29.9247C30.0514 32.7958 26.8625 34.8668 23.2806 35.8536C19.6986 36.8403 15.899 36.6945 12.4032 35.436C8.90742 34.1776 5.8867 31.8682 3.75554 28.8248C1.62439 25.7813 0.487231 22.153 0.500108 18.4376C0.512985 14.7222 1.67526 11.1019 3.82746 8.07327C5.97966 5.04469 9.01632 2.7563 12.5207 1.52212C16.0252 0.287929 19.8257 0.168419 23.4007 1.17999C26.9758 2.19155 30.1502 4.28463 32.4884 7.172" stroke="black"/>
<path d="M18 18.5H47M47 18.5L42.8571 15M47 18.5L42.8571 22" stroke="black"/>
</symbol><symbol id="btn-arrow" viewBox="0 0 9 17">
<path d="M8 16L1.63683 9.18232C1.27824 8.79811 1.27824 8.20189 1.63683 7.81768L8 1" stroke="currentColor" stroke-width="1.5" stroke-linecap="round"/>
</symbol><symbol id="burger" viewBox="0 0 48 48">
  <circle cx="24" cy="24" r="23.5" fill="#414141" stroke="white"/>
  <path d="M13 18H36" stroke="white"/>
  <path d="M13 24H36" stroke="white"/>
  <path d="M13 30H36" stroke="white"/>
</symbol><symbol id="close" viewBox="0 0 12 12">
<path d="M1 1L11 11M1 11L11 1" stroke="black"/>
</symbol><symbol id="columns" viewBox="0 0 53 53">
<circle cx="26.5" cy="26.5" r="26" stroke="white"/>
<path d="M19.375 24.75H16.5417V34.6667H19.375V24.75ZM27.875 24.75H25.0417V34.6667H27.875V24.75ZM39.9167 37.5H13V40.3333H39.9167V37.5ZM36.375 24.75H33.5417V34.6667H36.375V24.75ZM26.4583 15.2017L33.8392 19.0833H19.0775L26.4583 15.2017ZM26.4583 12L13 19.0833V21.9167H39.9167V19.0833L26.4583 12Z" fill="white"/>
</symbol><symbol id="complection" viewBox="0 0 53 53">
<circle cx="26.5" cy="26.5" r="26" stroke="white"/>
<path d="M39.375 15.625H14.625C14.0283 15.625 13.456 15.8621 13.034 16.284C12.6121 16.706 12.375 17.2783 12.375 17.875V38.125C12.375 38.7217 12.6121 39.294 13.034 39.716C13.456 40.1379 14.0283 40.375 14.625 40.375H39.375C39.9717 40.375 40.544 40.1379 40.966 39.716C41.3879 39.294 41.625 38.7217 41.625 38.125V17.875C41.625 17.2783 41.3879 16.706 40.966 16.284C40.544 15.8621 39.9717 15.625 39.375 15.625ZM39.375 38.125H14.625V17.875H39.375V38.125ZM33.75 22.375C33.75 24.1652 33.0388 25.8821 31.773 27.148C30.5071 28.4138 28.7902 29.125 27 29.125C25.2098 29.125 23.4929 28.4138 22.227 27.148C20.9612 25.8821 20.25 24.1652 20.25 22.375C20.25 22.0766 20.3685 21.7905 20.5795 21.5795C20.7905 21.3685 21.0766 21.25 21.375 21.25C21.6734 21.25 21.9595 21.3685 22.1705 21.5795C22.3815 21.7905 22.5 22.0766 22.5 22.375C22.5 23.5685 22.9741 24.7131 23.818 25.557C24.6619 26.4009 25.8065 26.875 27 26.875C28.1935 26.875 29.3381 26.4009 30.182 25.557C31.0259 24.7131 31.5 23.5685 31.5 22.375C31.5 22.0766 31.6185 21.7905 31.8295 21.5795C32.0405 21.3685 32.3266 21.25 32.625 21.25C32.9234 21.25 33.2095 21.3685 33.4205 21.5795C33.6315 21.7905 33.75 22.0766 33.75 22.375Z" fill="white"/>
</symbol><symbol id="constructions" viewBox="0 0 53 53">
<circle cx="26.5" cy="26.5" r="26" stroke="white"/>
<path d="M27.612 12.2135C27.4346 12.0751 27.216 12 26.991 12C26.766 12 26.5474 12.0751 26.37 12.2135L12 23.4185L13.243 24.9905L15 23.6205V35.9995C15.0011 36.5296 15.2121 37.0377 15.587 37.4125C15.9618 37.7874 16.4699 37.9984 17 37.9995H37C37.5301 37.9984 38.0382 37.7874 38.413 37.4125C38.7879 37.0377 38.9989 36.5296 39 35.9995V23.6295L40.757 24.9995L42 23.4275L27.612 12.2135ZM29 35.9995H25V27.9995H29V35.9995ZM31 35.9995V27.9995C30.9995 27.4692 30.7886 26.9608 30.4136 26.5858C30.0387 26.2109 29.5303 26 29 25.9995H25C24.4697 26 23.9613 26.2109 23.5864 26.5858C23.2114 26.9608 23.0005 27.4692 23 27.9995V35.9995H17V22.0615L27 14.2715L37 22.0715V35.9995H31Z" fill="white"/>
</symbol><symbol id="design" viewBox="0 0 53 53">
  <circle cx="26.5" cy="26.5" r="26" stroke="white"/>
  <g clip-path="url(#clip0_306_2308)">
    <path d="M24.5069 35.6743C21.884 38.3143 17.4269 39.1886 14.8555 36.5486C18.284 33.0001 14.8555 31.2858 17.4269 28.7143C17.8784 28.2114 18.4278 27.8058 19.0413 27.5223C19.6549 27.2388 20.3199 27.0835 20.9955 27.0657C21.6712 27.0479 22.3434 27.1681 22.971 27.4189C23.5987 27.6697 24.1686 28.0458 24.6459 28.5244C25.1233 29.0029 25.4981 29.5737 25.7473 30.202C25.9966 30.8302 26.1151 31.5027 26.0957 32.1783C26.0763 32.8539 25.9193 33.5185 25.6343 34.1314C25.3493 34.7443 24.9424 35.2926 24.4383 35.7429L24.5069 35.6743Z" stroke="white" stroke-width="1.5" stroke-linecap="round" stroke-linejoin="round"/>
    <path d="M36.1465 16.8509C35.8141 16.5206 35.4174 16.2619 34.981 16.0909C34.5446 15.9199 34.0778 15.8401 33.6094 15.8566C33.1413 15.8693 32.6808 15.9778 32.2562 16.1754C31.8316 16.3729 31.4521 16.6553 31.1408 17.0052L21.918 27.2909C22.907 27.4867 23.8112 27.9837 24.5065 28.7138C25.132 29.3366 25.5866 30.11 25.8265 30.9595L35.9923 21.8566C36.3401 21.5474 36.6213 21.1705 36.8187 20.7491C37.0162 20.3276 37.1258 19.8704 37.1408 19.4052C37.1597 18.9339 37.0811 18.4639 36.91 18.0244C36.739 17.5849 36.479 17.1854 36.1465 16.8509Z" stroke="white" stroke-width="1.5" stroke-linecap="round" stroke-linejoin="round"/>
  </g>
  
</symbol><symbol id="key" viewBox="0 0 53 53">
<circle cx="26.5" cy="26.5" r="26" stroke="white"/>
<path d="M31.5 11.5312C29.7542 11.5324 28.0338 11.9499 26.4818 12.7492C24.9297 13.5485 23.5907 14.7065 22.5759 16.1271C21.5611 17.5476 20.8998 19.1898 20.6469 20.9172C20.394 22.6446 20.5569 24.4074 21.1219 26.0592L12.9038 34.2787C12.7455 34.4368 12.6564 34.6513 12.6562 34.875V40.5C12.6562 40.7238 12.7451 40.9384 12.9034 41.0966C13.0616 41.2549 13.2762 41.3438 13.5 41.3438H19.125C19.3488 41.3438 19.5634 41.2549 19.7216 41.0966C19.8799 40.9384 19.9688 40.7238 19.9688 40.5V37.9688H22.5C22.7238 37.9688 22.9384 37.8799 23.0966 37.7216C23.2549 37.5634 23.3438 37.3488 23.3438 37.125V34.5938H25.875C26.0987 34.5936 26.3132 34.5045 26.4712 34.3463L27.9408 32.8781C29.4474 33.3936 31.0482 33.5749 32.6319 33.4093C34.2157 33.2438 35.7444 32.7354 37.1118 31.9194C38.4793 31.1035 39.6527 29.9997 40.5505 28.6846C41.4483 27.3695 42.0491 25.8746 42.3109 24.3039C42.5728 22.7333 42.4896 21.1244 42.067 19.5891C41.6444 18.0539 40.8926 16.629 39.8639 15.4136C38.8351 14.1981 37.5541 13.2213 36.1097 12.5508C34.6654 11.8804 33.0924 11.5325 31.5 11.5312ZM31.5 31.7812C30.3235 31.7833 29.1574 31.5604 28.0645 31.1245C27.9091 31.0568 27.7369 31.0375 27.5703 31.0691C27.4038 31.1008 27.2506 31.1818 27.1308 31.3017L25.5248 32.9062H22.5C22.2762 32.9062 22.0616 32.9951 21.9034 33.1534C21.7451 33.3116 21.6562 33.5262 21.6562 33.75V36.2812H19.125C18.9012 36.2812 18.6866 36.3701 18.5284 36.5284C18.3701 36.6866 18.2812 36.9012 18.2812 37.125V39.6562H14.3438V35.2252L22.6983 26.8692C22.8182 26.7494 22.8992 26.5962 22.9309 26.4297C22.9625 26.2631 22.9432 26.0909 22.8755 25.9355C22.1405 24.0908 22.0164 22.0591 22.5216 20.1387C23.0268 18.2184 24.1346 16.5107 25.6821 15.2665C27.2297 14.0224 29.1355 13.3073 31.1195 13.2264C33.1036 13.1456 35.0612 13.7032 36.7049 14.8173C38.3486 15.9314 39.5916 17.5433 40.2514 19.4161C40.9112 21.289 40.9529 23.3241 40.3705 25.2224C39.788 27.1208 38.6121 28.7823 37.0155 29.9628C35.4188 31.1433 33.4857 31.7807 31.5 31.7812ZM35.7188 19.6875C35.7188 19.9656 35.6363 20.2375 35.4818 20.4688C35.3272 20.7 35.1076 20.8803 34.8506 20.9867C34.5937 21.0931 34.3109 21.121 34.0382 21.0667C33.7654 21.0125 33.5148 20.8785 33.3181 20.6819C33.1215 20.4852 32.9875 20.2346 32.9333 19.9618C32.879 19.6891 32.9069 19.4063 33.0133 19.1494C33.1197 18.8924 33.3 18.6728 33.5312 18.5182C33.7625 18.3637 34.0344 18.2812 34.3125 18.2812C34.6855 18.2812 35.0431 18.4294 35.3069 18.6931C35.5706 18.9569 35.7188 19.3145 35.7188 19.6875Z" fill="white"/>
</symbol><symbol id="logo" viewBox="0 0 62 51">
  <path d="M11.3936 32.4171H1M1 32.4171V1H19.8975V39.6217H1V32.4171Z" stroke="white" stroke-width="1.01575" stroke-linecap="round"/>
  <path d="M10.5664 8.08594V24.6212" stroke="white" stroke-width="1.01575" stroke-linecap="round"/>
  <path d="M18.1256 28.7559V30.4094M18.9524 29.5826H17.2988" stroke="white" stroke-width="0.507873" stroke-linecap="round"/>
  <path d="M18.1263 31.9453V37.7327H12.457" stroke="white" stroke-width="0.507873" stroke-linecap="round"/>
  <path d="M10.8021 2.77148H3.125V29.1099" stroke="white" stroke-width="0.507873" stroke-linecap="round"/>
  <path d="M21.551 16.3542V32.4171V39.6217H40.4485V24.5038M21.551 16.3542V1H40.4485V24.5038M21.551 16.3542H31.354V8.20467M40.4485 24.5038H31.354V32.4171" stroke="white" stroke-width="1.01575" stroke-linecap="round"/>
  <path d="M27.9285 14.4643H23.6766V3.59825M23.6766 3.59825L22.8498 4.42501M23.6766 3.59825L24.5033 2.77148" stroke="white" stroke-width="0.507873" stroke-linecap="round"/>
  <path d="M58.5204 24.8574V37.7313H50.3709M50.3709 37.7313L51.4339 36.6684M50.3709 37.7313L49.8984 38.2038" stroke="white" stroke-width="1.01575" stroke-linecap="round"/>
  <path d="M42.1035 24.5038V32.4171V39.6217H61.001V16.3542M42.1035 24.5038V1H61.001V16.3542M42.1035 24.5038H50.8436V32.4171M50.8436 8.08656V16.3542H61.001" stroke="white" stroke-width="1.01575" stroke-linecap="round"/>
  <path d="M43.875 22.3787V2.89062H54.9773" stroke="white" stroke-width="0.507873" stroke-linecap="round"/>
  <path d="M55.5664 14.5816V13.991V13.6367" stroke="white" stroke-width="0.253936" stroke-linecap="round"/>
  <path d="M55.5667 8.91362V8.32308V7.96875" stroke="white" stroke-width="0.253936" stroke-linecap="round"/>
  <path d="M55.5684 11.9837V11.0979V10.5664" stroke="white" stroke-width="0.253936" stroke-linecap="round"/>
  <path d="M56.2767 11.2754H55.3909H54.8594" stroke="white" stroke-width="0.253936" stroke-linecap="round"/>
  <path d="M58.8726 11.2754H58.2821H57.9277" stroke="white" stroke-width="0.253936" stroke-linecap="round"/>
  <path d="M53.2046 11.2773H52.6141H52.2598" stroke="white" stroke-width="0.253936" stroke-linecap="round"/>
  <path d="M0.679443 50.0001V43.0116H1.19873L4.0621 49.1945L6.89635 43.0116H7.43505V49.9904H6.88664V44.2976L4.28534 50.0001H3.82915L1.223 44.2976V50.0001H0.679443Z" fill="white"/>
  <path d="M8.30801 50.0001L10.7831 43.0116H11.4771L13.9522 50.0001H13.3602L10.9821 43.3028H11.2636L8.90009 50.0001H8.30801ZM9.33203 48.2433V47.7143H12.9234V48.2433H9.33203Z" fill="white"/>
  <path d="M17.4229 50.1457C16.7272 50.1457 16.1432 49.992 15.6709 49.6847C15.1985 49.3741 14.8426 48.9454 14.6032 48.3986C14.3637 47.8518 14.244 47.2209 14.244 46.5058C14.244 45.7908 14.3637 45.1599 14.6032 44.6131C14.8426 44.0663 15.1985 43.6392 15.6709 43.3319C16.1432 43.0213 16.7272 42.866 17.4229 42.866C18.235 42.866 18.8934 43.0763 19.3981 43.4969C19.9061 43.9175 20.2506 44.4805 20.4318 45.1858L19.8543 45.3265C19.7055 44.7409 19.4272 44.2766 19.0195 43.9337C18.6151 43.5875 18.0829 43.4144 17.4229 43.4144C16.8502 43.4144 16.373 43.5454 15.9912 43.8075C15.6126 44.0696 15.3263 44.4335 15.1322 44.8994C14.9413 45.3653 14.8442 45.9008 14.841 46.5058C14.8345 47.1109 14.9267 47.6463 15.1176 48.1122C15.3117 48.5749 15.6013 48.9389 15.9863 49.2042C16.3713 49.4663 16.8502 49.5973 17.4229 49.5973C18.0829 49.5973 18.6151 49.4242 19.0195 49.078C19.4272 48.7318 19.7055 48.2675 19.8543 47.6852L20.4318 47.8259C20.2506 48.5312 19.9061 49.0942 19.3981 49.5148C18.8934 49.9354 18.235 50.1457 17.4229 50.1457Z" fill="white"/>
  <path d="M23.4168 50.0001V43.5551H20.9126V43.0116H26.4792V43.5551H23.9749V50.0001H23.4168Z" fill="white"/>
  <path d="M27.2581 50.0001V43.0116H31.5774V43.5551H27.8162V46.2098H30.995V46.7534H27.8162V49.4566H31.5774V50.0001H27.2581Z" fill="white"/>
  <path d="M32.7463 50.0001V43.0116H35.3816C35.4496 43.0116 35.5223 43.0148 35.6 43.0213C35.6809 43.0245 35.765 43.0342 35.8524 43.0504C36.2018 43.1054 36.5011 43.2316 36.7502 43.4289C37.0026 43.6231 37.1951 43.869 37.3277 44.1666C37.4604 44.461 37.5267 44.7862 37.5267 45.1421C37.5267 45.5012 37.4604 45.8296 37.3277 46.1273C37.1951 46.4217 37.0026 46.6676 36.7502 46.865C36.5011 47.0591 36.2018 47.1837 35.8524 47.2387C35.765 47.2516 35.6809 47.2613 35.6 47.2678C35.5223 47.2743 35.4496 47.2775 35.3816 47.2775H33.3045V50.0001H32.7463ZM33.3045 46.7291H35.3719C35.4301 46.7291 35.4965 46.7258 35.5709 46.7194C35.6485 46.7129 35.7262 46.7032 35.8038 46.6903C36.0562 46.6385 36.2665 46.5366 36.4347 46.3845C36.603 46.2292 36.7292 46.0432 36.8133 45.8264C36.8974 45.6096 36.9395 45.3815 36.9395 45.1421C36.9395 44.9027 36.8974 44.6762 36.8133 44.4627C36.7292 44.2459 36.603 44.0615 36.4347 43.9094C36.2665 43.7541 36.0562 43.6506 35.8038 43.5988C35.7262 43.5826 35.6485 43.5713 35.5709 43.5648C35.4965 43.5584 35.4301 43.5551 35.3719 43.5551H33.3045V46.7291Z" fill="white"/>
  <path d="M41.2906 50.1457C40.5949 50.1457 40.0109 49.992 39.5386 49.6847C39.0662 49.3741 38.7103 48.9454 38.4709 48.3986C38.2315 47.8518 38.1117 47.2209 38.1117 46.5058C38.1117 45.7908 38.2315 45.1599 38.4709 44.6131C38.7103 44.0663 39.0662 43.6392 39.5386 43.3319C40.0109 43.0213 40.5949 42.866 41.2906 42.866C42.1027 42.866 42.7611 43.0763 43.2658 43.4969C43.7738 43.9175 44.1183 44.4805 44.2995 45.1858L43.722 45.3265C43.5732 44.7409 43.2949 44.2766 42.8873 43.9337C42.4828 43.5875 41.9506 43.4144 41.2906 43.4144C40.7179 43.4144 40.2407 43.5454 39.8589 43.8075C39.4803 44.0696 39.194 44.4335 38.9999 44.8994C38.809 45.3653 38.7119 45.9008 38.7087 46.5058C38.7022 47.1109 38.7944 47.6463 38.9853 48.1122C39.1794 48.5749 39.469 48.9389 39.854 49.2042C40.239 49.4663 40.7179 49.5973 41.2906 49.5973C41.9506 49.5973 42.4828 49.4242 42.8873 49.078C43.2949 48.7318 43.5732 48.2675 43.722 47.6852L44.2995 47.8259C44.1183 48.5312 43.7738 49.0942 43.2658 49.5148C42.7611 49.9354 42.1027 50.1457 41.2906 50.1457Z" fill="white"/>
  <path d="M45.3627 50.0001V43.0116H45.9208V46.3311L49.2452 43.0116H49.9829L46.639 46.37L50.2741 50.0001H49.5267L45.9208 46.4282V50.0001H45.3627Z" fill="white"/>
  <path d="M50.4699 50.0001L52.945 43.0116H53.639L56.1141 50.0001H55.522L53.144 43.3028H53.4254L51.062 50.0001H50.4699ZM51.4939 48.2433V47.7143H55.0852V48.2433H51.4939Z" fill="white"/>
  <path d="M61.6525 50.0001H61.0895V47.2775H58.595L58.4348 47.2144C57.943 47.1109 57.5596 46.8682 57.2846 46.4864C57.0096 46.1046 56.8721 45.6565 56.8721 45.1421C56.8721 44.7862 56.9384 44.461 57.0711 44.1666C57.2037 43.869 57.3946 43.6231 57.6437 43.4289C57.8961 43.2316 58.197 43.1054 58.5464 43.0504C58.6338 43.0342 58.7163 43.0245 58.7939 43.0213C58.8748 43.0148 58.9492 43.0116 59.0172 43.0116H61.6525V50.0001ZM57.3477 50.0001H56.6925L58.2067 46.8941L58.726 47.1562L57.3477 50.0001ZM61.0895 46.7291V43.5551H59.0269C58.9719 43.5551 58.9056 43.5584 58.8279 43.5648C58.7503 43.5713 58.6726 43.5826 58.595 43.5988C58.3426 43.6506 58.1323 43.7541 57.9641 43.9094C57.7958 44.0615 57.668 44.2459 57.5807 44.4627C57.4965 44.6762 57.4545 44.9027 57.4545 45.1421C57.4545 45.3815 57.4965 45.6096 57.5807 45.8264C57.668 46.0432 57.7958 46.2292 57.9641 46.3845C58.1323 46.5366 58.3426 46.6385 58.595 46.6903C58.6726 46.7032 58.7503 46.7129 58.8279 46.7194C58.9056 46.7258 58.9719 46.7291 59.0269 46.7291H61.0895Z" fill="white"/>
</symbol><symbol id="main-logo-desktop" viewBox="0 0 63 53">
<path d="M11.3936 32.4171H1M1 32.4171V1H19.8975V39.6217H1V32.4171Z" stroke="black" stroke-width="1.01575" stroke-linecap="round"/>
<path d="M10.5664 8.08594V24.6212" stroke="black" stroke-width="1.01575" stroke-linecap="round"/>
<path d="M18.1256 28.7559V30.4094M18.9524 29.5826H17.2988" stroke="black" stroke-width="0.507873" stroke-linecap="round"/>
<path d="M18.1263 31.9453V37.7327H12.457" stroke="black" stroke-width="0.507873" stroke-linecap="round"/>
<path d="M10.8021 2.77148H3.125V29.1099" stroke="black" stroke-width="0.507873" stroke-linecap="round"/>
<path d="M21.551 16.3542V32.4171V39.6217H40.4485V24.5038M21.551 16.3542V1H40.4485V24.5038M21.551 16.3542H31.354V8.20467M40.4485 24.5038H31.354V32.4171" stroke="black" stroke-width="1.01575" stroke-linecap="round"/>
<path d="M27.9285 14.4643H23.6766V3.59825M23.6766 3.59825L22.8498 4.42501M23.6766 3.59825L24.5033 2.77148" stroke="black" stroke-width="0.507873" stroke-linecap="round"/>
<path d="M58.5204 24.8574V37.7313H50.3709M50.3709 37.7313L51.4339 36.6684M50.3709 37.7313L49.8984 38.2038" stroke="black" stroke-width="1.01575" stroke-linecap="round"/>
<path d="M42.1035 24.5038V32.4171V39.6217H61.001V16.3542M42.1035 24.5038V1H61.001V16.3542M42.1035 24.5038H50.8436V32.4171M50.8436 8.08656V16.3542H61.001" stroke="black" stroke-width="1.01575" stroke-linecap="round"/>
<path d="M43.875 22.3787V2.89062H54.9773" stroke="black" stroke-width="0.507873" stroke-linecap="round"/>
<path d="M55.5664 14.5816V13.991V13.6367" stroke="black" stroke-width="0.253936" stroke-linecap="round"/>
<path d="M55.5667 8.91362V8.32308V7.96875" stroke="black" stroke-width="0.253936" stroke-linecap="round"/>
<path d="M55.5684 11.9837V11.0979V10.5664" stroke="black" stroke-width="0.253936" stroke-linecap="round"/>
<path d="M56.2767 11.2754H55.3909H54.8594" stroke="black" stroke-width="0.253936" stroke-linecap="round"/>
<path d="M58.8726 11.2754H58.2821H57.9277" stroke="black" stroke-width="0.253936" stroke-linecap="round"/>
<path d="M53.2046 11.2773H52.6141H52.2598" stroke="black" stroke-width="0.253936" stroke-linecap="round"/>
<path d="M0.679443 50V43.0114H1.19873L4.0621 49.1944L6.89635 43.0114H7.43505V49.9903H6.88664V44.2975L4.28534 50H3.82915L1.223 44.2975V50H0.679443ZM8.30801 50L10.7831 43.0114H11.4771L13.9522 50H13.3602L10.9821 43.3026H11.2636L8.90009 50H8.30801ZM9.33203 48.2432V47.7142H12.9234V48.2432H9.33203ZM17.4229 50.1456C16.7272 50.1456 16.1432 49.9919 15.6709 49.6845C15.1985 49.3739 14.8426 48.9452 14.6032 48.3985C14.3637 47.8517 14.244 47.2208 14.244 46.5057C14.244 45.7907 14.3637 45.1598 14.6032 44.613C14.8426 44.0662 15.1985 43.6391 15.6709 43.3318C16.1432 43.0212 16.7272 42.8658 17.4229 42.8658C18.235 42.8658 18.8934 43.0762 19.3981 43.4968C19.9061 43.9174 20.2506 44.4803 20.4318 45.1857L19.8543 45.3264C19.7055 44.7408 19.4272 44.2765 19.0195 43.9335C18.6151 43.5874 18.0829 43.4143 17.4229 43.4143C16.8502 43.4143 16.373 43.5453 15.9912 43.8074C15.6126 44.0694 15.3263 44.4334 15.1322 44.8993C14.9413 45.3652 14.8442 45.9007 14.841 46.5057C14.8345 47.1107 14.9267 47.6462 15.1176 48.1121C15.3117 48.5748 15.6013 48.9388 15.9863 49.2041C16.3713 49.4662 16.8502 49.5972 17.4229 49.5972C18.0829 49.5972 18.6151 49.4241 19.0195 49.0779C19.4272 48.7317 19.7055 48.2674 19.8543 47.685L20.4318 47.8258C20.2506 48.5311 19.9061 49.0941 19.3981 49.5147C18.8934 49.9353 18.235 50.1456 17.4229 50.1456ZM23.4168 50V43.555H20.9126V43.0114H26.4792V43.555H23.9749V50H23.4168ZM27.2581 50V43.0114H31.5774V43.555H27.8162V46.2097H30.995V46.7532H27.8162V49.4564H31.5774V50H27.2581ZM32.7463 50V43.0114H35.3816C35.4495 43.0114 35.5223 43.0147 35.6 43.0212C35.6809 43.0244 35.765 43.0341 35.8524 43.0503C36.2018 43.1053 36.5011 43.2315 36.7502 43.4288C37.0026 43.6229 37.1951 43.8688 37.3277 44.1665C37.4604 44.4609 37.5267 44.7861 37.5267 45.142C37.5267 45.5011 37.4604 45.8295 37.3277 46.1272C37.1951 46.4216 37.0026 46.6675 36.7502 46.8649C36.5011 47.059 36.2018 47.1835 35.8524 47.2386C35.765 47.2515 35.6809 47.2612 35.6 47.2677C35.5223 47.2741 35.4495 47.2774 35.3816 47.2774H33.3045V50H32.7463ZM33.3045 46.729H35.3719C35.4301 46.729 35.4965 46.7257 35.5709 46.7193C35.6485 46.7128 35.7262 46.7031 35.8038 46.6901C36.0562 46.6384 36.2665 46.5365 36.4347 46.3844C36.603 46.2291 36.7292 46.0431 36.8133 45.8263C36.8974 45.6095 36.9395 45.3814 36.9395 45.142C36.9395 44.9026 36.8974 44.6761 36.8133 44.4625C36.7292 44.2458 36.603 44.0613 36.4347 43.9093C36.2665 43.754 36.0562 43.6504 35.8038 43.5987C35.7262 43.5825 35.6485 43.5712 35.5709 43.5647C35.4965 43.5582 35.4301 43.555 35.3719 43.555H33.3045V46.729ZM41.2906 50.1456C40.5949 50.1456 40.0109 49.9919 39.5386 49.6845C39.0662 49.3739 38.7103 48.9452 38.4709 48.3985C38.2315 47.8517 38.1117 47.2208 38.1117 46.5057C38.1117 45.7907 38.2315 45.1598 38.4709 44.613C38.7103 44.0662 39.0662 43.6391 39.5386 43.3318C40.0109 43.0212 40.5949 42.8658 41.2906 42.8658C42.1027 42.8658 42.7611 43.0762 43.2658 43.4968C43.7738 43.9174 44.1183 44.4803 44.2995 45.1857L43.722 45.3264C43.5732 44.7408 43.2949 44.2765 42.8873 43.9335C42.4828 43.5874 41.9506 43.4143 41.2906 43.4143C40.7179 43.4143 40.2407 43.5453 39.8589 43.8074C39.4803 44.0694 39.194 44.4334 38.9999 44.8993C38.809 45.3652 38.7119 45.9007 38.7087 46.5057C38.7022 47.1107 38.7944 47.6462 38.9853 48.1121C39.1794 48.5748 39.469 48.9388 39.854 49.2041C40.239 49.4662 40.7179 49.5972 41.2906 49.5972C41.9506 49.5972 42.4828 49.4241 42.8873 49.0779C43.2949 48.7317 43.5732 48.2674 43.722 47.685L44.2995 47.8258C44.1183 48.5311 43.7738 49.0941 43.2658 49.5147C42.7611 49.9353 42.1027 50.1456 41.2906 50.1456ZM45.3627 50V43.0114H45.9208V46.331L49.2452 43.0114H49.9829L46.639 46.3698L50.2741 50H49.5267L45.9208 46.4281V50H45.3627ZM50.4699 50L52.945 43.0114H53.639L56.1141 50H55.522L53.144 43.3026H53.4254L51.062 50H50.4699ZM51.4939 48.2432V47.7142H55.0852V48.2432H51.4939ZM61.6525 50H61.0895V47.2774H58.595L58.4348 47.2143C57.943 47.1108 57.5596 46.8681 57.2846 46.4863C57.0096 46.1045 56.8721 45.6564 56.8721 45.142C56.8721 44.7861 56.9384 44.4609 57.0711 44.1665C57.2037 43.8688 57.3946 43.6229 57.6437 43.4288C57.8961 43.2315 58.197 43.1053 58.5464 43.0503C58.6338 43.0341 58.7163 43.0244 58.7939 43.0212C58.8748 43.0147 58.9492 43.0114 59.0172 43.0114H61.6525V50ZM57.3477 50H56.6925L58.2067 46.894L58.726 47.156L57.3477 50ZM61.0895 46.729V43.555H59.0269C58.9719 43.555 58.9056 43.5582 58.8279 43.5647C58.7503 43.5712 58.6726 43.5825 58.595 43.5987C58.3426 43.6504 58.1323 43.754 57.9641 43.9093C57.7958 44.0613 57.668 44.2458 57.5807 44.4625C57.4965 44.6761 57.4545 44.9026 57.4545 45.142C57.4545 45.3814 57.4965 45.6095 57.5807 45.8263C57.668 46.0431 57.7958 46.2291 57.9641 46.3844C58.1323 46.5365 58.3426 46.6384 58.595 46.6901C58.6726 46.7031 58.7503 46.7128 58.8279 46.7193C58.9056 46.7257 58.9719 46.729 59.0269 46.729H61.0895Z" fill="black"/>
</symbol><symbol id="main-logo_mobile" viewBox="0 0 51 33">
<path d="M9.48708 26.6541H1M1 26.6541V1H16.4311V32.5372H1V26.6541Z" stroke="black" stroke-width="0.642804" stroke-linecap="round"/>
<path d="M8.80853 6.78613V20.2883" stroke="black" stroke-width="0.642804" stroke-linecap="round"/>
<path d="M14.9798 23.6646V25.0148M15.6549 24.3397H14.3047" stroke="black" stroke-width="0.321402" stroke-linecap="round"/>
<path d="M14.9848 26.2683V30.9941H10.3555" stroke="black" stroke-width="0.321402" stroke-linecap="round"/>
<path d="M9.00715 2.44678H2.73828V23.9538" stroke="black" stroke-width="0.321402" stroke-linecap="round"/>
<path d="M3.41272 24.5325C3.41272 24.9054 3.11046 25.2076 2.73761 25.2076C2.36476 25.2076 2.0625 24.9054 2.0625 24.5325C2.0625 24.1597 2.36476 23.8574 2.73761 23.8574C3.11046 23.8574 3.41272 24.1597 3.41272 24.5325ZM2.43205 24.5325C2.43205 24.7013 2.56886 24.8381 2.73761 24.8381C2.90636 24.8381 3.04316 24.7013 3.04316 24.5325C3.04316 24.3638 2.90636 24.227 2.73761 24.227C2.56886 24.227 2.43205 24.3638 2.43205 24.5325Z" fill="black"/>
<path d="M17.7773 13.5377V26.6541V32.5372H33.2084V20.1924M17.7773 13.5377V1H33.2084V20.1924M17.7773 13.5377H25.7822V6.88309M33.2084 20.1924H25.7822V26.6541" stroke="black" stroke-width="0.642804" stroke-linecap="round"/>
<path d="M22.9869 11.9947H19.515V3.12189M19.515 3.12189L18.8398 3.79699M19.515 3.12189L20.1901 2.44678" stroke="black" stroke-width="0.321402" stroke-linecap="round"/>
<path d="M24.3385 11.9947C24.3385 12.3675 24.0362 12.6698 23.6634 12.6698C23.2905 12.6698 22.9883 12.3675 22.9883 11.9947C22.9883 11.6218 23.2905 11.3196 23.6634 11.3196C24.0362 11.3196 24.3385 11.6218 24.3385 11.9947ZM23.3578 11.9947C23.3578 12.1634 23.4946 12.3002 23.6634 12.3002C23.8321 12.3002 23.9689 12.1634 23.9689 11.9947C23.9689 11.8259 23.8321 11.6891 23.6634 11.6891C23.4946 11.6891 23.3578 11.8259 23.3578 11.9947Z" fill="black"/>
<path d="M47.9701 20.4814V30.9939H41.3155M41.3155 30.9939L42.1835 30.1259M41.3155 30.9939L40.9297 31.3796" stroke="black" stroke-width="0.642804" stroke-linecap="round"/>
<path d="M34.5664 20.1924V26.6541V32.5372H49.9975V13.5377M34.5664 20.1924V1H49.9975V13.5377M34.5664 20.1924H41.7033V26.6541M41.7033 6.78665V13.5377H49.9975" stroke="black" stroke-width="0.642804" stroke-linecap="round"/>
<path d="M36.0156 18.4562V2.54297H45.0814" stroke="black" stroke-width="0.321402" stroke-linecap="round"/>
<path d="M46.1432 2.54352C46.1432 2.91637 45.8409 3.21863 45.4681 3.21863C45.0952 3.21863 44.793 2.91637 44.793 2.54352C44.793 2.17066 45.0952 1.86841 45.4681 1.86841C45.8409 1.86841 46.1432 2.17066 46.1432 2.54352ZM45.1625 2.54352C45.1625 2.71227 45.2993 2.84907 45.4681 2.84907C45.6368 2.84907 45.7736 2.71227 45.7736 2.54352C45.7736 2.37476 45.6368 2.23796 45.4681 2.23796C45.2993 2.23796 45.1625 2.37476 45.1625 2.54352Z" fill="black"/>
<path d="M45.5586 12.0911V11.6089V11.3196" stroke="black" stroke-width="0.160701" stroke-linecap="round"/>
<path d="M45.5627 7.46198V6.97976V6.69043" stroke="black" stroke-width="0.160701" stroke-linecap="round"/>
<path d="M45.5625 9.96959V9.24625V8.81226" stroke="black" stroke-width="0.160701" stroke-linecap="round"/>
<path d="M46.1417 9.39111H45.4184H44.9844" stroke="black" stroke-width="0.160701" stroke-linecap="round"/>
<path d="M48.2637 9.39062H47.7815H47.4922" stroke="black" stroke-width="0.160701" stroke-linecap="round"/>
<path d="M43.6309 9.39111H43.1487H42.8594" stroke="black" stroke-width="0.160701" stroke-linecap="round"/>
<path d="M47.1096 9.39125C47.1096 10.2435 46.4188 10.9344 45.5665 10.9344C44.7143 10.9344 44.0234 10.2435 44.0234 9.39125C44.0234 8.53902 44.7143 7.84814 45.5665 7.84814C46.4188 7.84814 47.1096 8.53902 47.1096 9.39125ZM44.3883 9.39125C44.3883 10.042 44.9158 10.5695 45.5665 10.5695C46.2173 10.5695 46.7448 10.042 46.7448 9.39125C46.7448 8.74053 46.2173 8.21302 45.5665 8.21302C44.9158 8.21302 44.3883 8.74053 44.3883 9.39125Z" fill="black"/>
</symbol><symbol id="nav-arrow" viewBox="0 0 9 17">
<path d="M8 16L1.63683 9.18232C1.27824 8.79811 1.27824 8.20189 1.63683 7.81768L8 1" stroke="currentColor" stroke-width="2" stroke-linecap="round"/>
</symbol><symbol id="popup-close-icon" viewBox="0 0 19 19">
<path d="M1 1L18 18" stroke="white" stroke-opacity="0.6"/>
<path d="M1 18L18 1" stroke="white" stroke-opacity="0.6"/>
</symbol><symbol id="success-tick-icon" viewBox="0 0 112 76">
<path d="M4 34.3702L40.7606 71L108 4" stroke="white" stroke-width="7" stroke-linecap="round"/>
</symbol><symbol id="supervision" viewBox="0 0 53 53">
<circle cx="26.5" cy="26.5" r="26" stroke="white"/>
<path d="M26.9788 18C22.1076 18 17.1107 20.8194 13.1769 26.4581C13.0647 26.6208 13.0031 26.8132 13.0001 27.0109C12.9971 27.2086 13.0528 27.4027 13.1601 27.5688C16.1826 32.3 21.1126 36 26.9788 36C32.7813 36 37.8126 32.2888 40.8407 27.5469C40.9455 27.3841 41.0012 27.1945 41.0012 27.0009C41.0012 26.8073 40.9455 26.6178 40.8407 26.455C37.8057 21.7675 32.7376 18 26.9788 18Z" stroke="white" stroke-width="2" stroke-linecap="round" stroke-linejoin="round"/>
<path d="M27 32C29.7614 32 32 29.7614 32 27C32 24.2386 29.7614 22 27 22C24.2386 22 22 24.2386 22 27C22 29.7614 24.2386 32 27 32Z" stroke="white" stroke-width="2" stroke-miterlimit="10"/>
</symbol></svg>