<svg width="195" height="91" viewBox="0 0 195 91" fill="none" xmlns="http://www.w3.org/2000/svg">
<path d="M41.9809 45.4913C42.0347 45.2205 41.8588 44.9573 41.5879 44.9034C41.3171 44.8496 41.0539 45.0255 41 45.2963L41.9809 45.4913ZM2.68866 90.0395C2.84211 90.2691 3.15262 90.3308 3.3822 90.1774L7.12346 87.6768C7.35304 87.5233 7.41476 87.2128 7.26131 86.9833C7.10786 86.7537 6.79735 86.692 6.56777 86.8454L3.24221 89.0682L1.01946 85.7426C0.866007 85.513 0.555499 85.4513 0.325916 85.6047C0.096334 85.7582 0.0346159 86.0687 0.188065 86.2983L2.68866 90.0395ZM41 45.2963C38.7431 56.6513 35.4777 63.8177 31.8224 68.5009C28.1754 73.1734 24.1135 75.4087 20.1872 76.8554C18.214 77.5825 16.2837 78.1077 14.4329 78.6486C12.5932 79.1862 10.8307 79.7396 9.2511 80.5188C7.66451 81.3014 6.24992 82.3172 5.10673 83.7869C3.96397 85.256 3.11336 87.1516 2.61395 89.6642L3.59476 89.8592C4.0701 87.4677 4.86684 85.724 5.89605 84.4009C6.92483 83.0783 8.20683 82.1489 9.69347 81.4156C11.1871 80.6789 12.8745 80.1458 14.7134 79.6084C16.5412 79.0743 18.5181 78.5362 20.5329 77.7938C24.5826 76.3015 28.8196 73.9734 32.6107 69.1162C36.3934 64.2697 39.7052 56.9402 41.9809 45.4913L41 45.2963Z" fill="#C6C6C6"/>
<path d="M32.9518 8.40045L32.9169 11.3637C33.2605 11.1601 33.7976 10.7598 34.5283 10.1628C35.2596 9.55515 35.7077 8.86093 35.8724 8.08011C35.9027 7.57969 35.6623 7.31403 35.1512 7.28314C34.4485 7.24065 33.7153 7.61309 32.9518 8.40045ZM31.2586 13.0748C30.681 12.73 30.3961 12.4937 30.4038 12.3659C30.416 12.1636 30.5333 11.9036 30.7555 11.5857L31.0405 1.56866C30.8782 1.24895 30.8025 0.998594 30.8135 0.817591C30.845 0.295877 31.2494 0.0585143 32.0266 0.105503C32.4099 0.128676 32.7061 0.178641 32.9152 0.255398C33.1349 0.332799 33.2874 0.374074 33.3726 0.379224C33.4164 0.360504 33.6662 0.295454 34.1217 0.184075C34.5886 0.0626924 35.1148 0.0197024 35.7004 0.0551052C37.0313 0.135566 37.8223 0.573432 38.0734 1.3687C38.1719 1.68455 38.2114 2.00219 38.1921 2.3216C38.1155 3.58862 37.3401 4.74928 35.8658 5.80356C36.2104 5.76028 36.4944 5.74539 36.718 5.75891C37.5805 5.81105 38.0276 6.45788 38.0594 7.69939C38.0269 8.76605 37.2757 10.0564 35.8057 11.5704C34.3463 13.0851 33.258 13.8529 32.5407 13.8736C31.9803 13.7756 31.5529 13.5093 31.2586 13.0748ZM33.0627 2.58855L33.025 6.12873C34.8983 4.66043 35.8569 3.56428 35.9007 2.84027C35.9309 2.33985 35.6639 2.07258 35.0996 2.03847C34.7695 2.01851 34.4472 2.04711 34.1326 2.12427C33.8287 2.20207 33.4721 2.35683 33.0627 2.58855ZM43.0212 9.45802C42.6327 9.52003 42.1956 9.6806 41.7097 9.93976C41.2126 10.2089 40.9221 10.5066 40.8382 10.8328C40.777 11.139 40.8044 11.3918 40.9206 11.5911C41.0662 11.835 41.2241 11.9621 41.3945 11.9724C41.8342 11.9456 42.2338 11.6118 42.5931 10.9709C42.7988 10.3956 42.9415 9.89134 43.0212 9.45802ZM42.9895 4.6794C44.5227 4.77209 45.231 5.78201 45.1145 7.70916L44.9224 10.8874C44.9037 11.1961 44.946 11.5567 45.0493 11.969C45.2859 12.1222 45.4735 12.2885 45.6123 12.4679C45.6584 12.5882 45.6783 12.7016 45.6718 12.8081C45.6506 13.1594 45.435 13.4563 45.0249 13.6987C44.6255 13.9417 44.2342 14.0516 43.8509 14.0284C43.4802 13.9739 43.2493 13.8157 43.1583 13.5538C43.1366 13.3815 43.1369 13.1998 43.1591 13.0088C43.1449 12.8904 43.1151 12.7657 43.0696 12.6347C42.7583 13.0113 42.4358 13.307 42.1022 13.522C41.7693 13.7263 41.3207 13.8113 40.7564 13.7772C40.0963 13.7373 39.5469 13.3675 39.1083 12.6677C38.8111 12.1048 38.6795 11.5412 38.7137 10.9768C38.8297 10.1183 39.441 9.37515 40.5475 8.74745C41.1902 8.36954 42.018 7.93337 43.031 7.43894C43.0488 7.32246 43.0608 7.21099 43.0673 7.10451C43.093 6.67862 42.8397 6.44959 42.3074 6.4174C42.137 6.4071 41.7103 6.65915 41.0274 7.17354C40.6816 7.59077 40.3677 7.8336 40.0857 7.90204C39.7663 7.88273 39.5017 7.6637 39.2919 7.24494C39.0821 6.82619 38.9843 6.49969 38.9985 6.26545C39.0178 5.94603 39.3872 5.66915 40.1066 5.43481C41.0884 4.92779 42.0493 4.67599 42.9895 4.6794ZM46.5851 5.28147C46.7473 4.89589 47.0733 4.71791 47.5631 4.74752C48.2871 4.79129 48.7853 5.03513 49.0577 5.47904C49.1445 5.6339 49.1689 6.02542 49.1309 6.65361C49.118 6.86655 49.0982 7.10579 49.0715 7.37133C49.0454 7.62622 49.0124 7.9074 48.9724 8.21489L48.9212 9.06134C48.8958 9.30558 48.8732 9.50191 48.8536 9.65033C48.8446 9.79939 48.8371 9.92183 48.8314 10.0177C48.8256 10.1135 48.8201 10.204 48.8149 10.2892C48.8104 10.3637 48.805 10.4542 48.7985 10.5607C48.7406 11.5189 48.8205 12.0527 49.0383 12.1621C49.5729 11.628 50.109 10.2712 50.6469 8.09171C50.6975 7.78487 50.7428 7.47771 50.7827 7.17023C50.834 6.85274 50.889 6.5622 50.9476 6.29859C51.0063 6.03498 51.0731 5.81461 51.1479 5.63747C51.2234 5.44968 51.3163 5.32706 51.4266 5.26962C51.6547 5.20861 51.8646 5.18389 52.0562 5.19548C52.4502 5.21929 52.7432 5.3225 52.9351 5.50508C53.1278 5.67702 53.2116 5.97061 53.1865 6.38585C53.1523 6.95016 53.0606 7.49495 52.9113 8.02023C52.7992 8.81491 52.7247 9.51569 52.6881 10.1226C52.6629 10.5378 52.6461 10.9055 52.6374 11.2255C52.64 11.5356 52.7194 11.8129 52.8756 12.0574C53.1973 11.8632 53.5032 11.4863 53.7935 10.9268C54.0838 10.3673 54.3125 9.59031 54.4794 8.59591C54.6196 7.51439 54.6915 6.8562 54.695 6.62131C54.7098 6.37643 54.723 6.15816 54.7346 5.96651C54.743 5.8281 54.7923 5.71888 54.8826 5.63885C54.9842 5.54882 55.0952 5.48072 55.2156 5.43457C55.3465 5.38905 55.4819 5.35983 55.6216 5.34691C55.7613 5.33398 55.8791 5.33041 55.9749 5.33621C56.2304 5.35166 56.4548 5.44003 56.6481 5.60132C56.8527 5.75261 57.0081 5.92229 57.1142 6.11037C57.1627 6.36977 57.1788 6.63256 57.1628 6.89874C57.1531 7.05845 57.1328 7.21751 57.1018 7.37593C57.0709 7.53435 57.029 7.69746 56.9761 7.86524L56.6546 13.1835C56.652 13.2261 56.6694 13.2913 56.7069 13.379C56.7443 13.4668 56.7817 13.5545 56.8192 13.6423C56.8673 13.7307 56.91 13.8188 56.9475 13.9065C56.9856 13.9836 57.0033 14.0435 57.0007 14.0861C56.9769 14.48 56.587 14.6541 55.8311 14.6084C55.533 14.5904 55.2703 14.5158 55.0432 14.3845C54.8273 14.2432 54.7268 14.0501 54.7416 13.8052C54.7474 13.7094 54.777 13.5723 54.8306 13.3938C54.8947 13.2161 54.9304 13.0686 54.9374 12.9515L55.0581 10.9551C54.703 11.7031 54.4434 12.2858 54.2792 12.7033C54.1157 13.1102 53.8567 13.5059 53.5022 13.8906C53.3696 14.139 53.172 14.3141 52.9094 14.4158C52.6574 14.5181 52.4356 14.5634 52.244 14.5519C51.9458 14.5338 51.6895 14.4435 51.4749 14.281C51.271 14.119 51.0925 13.7128 50.9395 13.0624C50.8713 12.5988 50.8317 12.2812 50.8207 12.1095C50.8104 11.9272 50.7997 11.7503 50.7887 11.5786C50.6078 11.9203 50.4115 12.2504 50.1999 12.5689C49.9989 12.888 49.8212 13.1765 49.6667 13.4343C49.5228 13.6928 49.297 13.8928 48.9892 14.0345C48.6815 14.1762 48.3359 14.2354 47.9526 14.2123C47.1692 14.0901 46.7341 13.599 46.6472 12.7388C46.6423 12.2897 46.6536 11.8362 46.6813 11.3784C46.7096 10.9099 46.8116 9.84212 46.9872 8.17501L47.0847 6.56196C47.0879 6.50872 47.0542 6.44791 46.9835 6.37952C46.9242 6.30113 46.8545 6.21677 46.7744 6.12644C46.705 6.03676 46.641 5.9474 46.5823 5.85836C46.5242 5.75867 46.4977 5.66624 46.5028 5.58106C46.5093 5.47459 46.5367 5.37472 46.5851 5.28147ZM62.4076 10.63C62.0192 10.6921 61.582 10.8526 61.0962 11.1118C60.599 11.3809 60.3085 11.6786 60.2247 12.0048C60.1634 12.311 60.1909 12.5638 60.3071 12.7632C60.4526 13.0071 60.6106 13.1342 60.7809 13.1445C61.2207 13.1176 61.6202 12.7838 61.9796 12.143C62.1853 11.5677 62.328 11.0634 62.4076 10.63ZM62.376 5.85142C63.9092 5.94412 64.6175 6.95403 64.501 8.88118L64.3089 12.0594C64.2902 12.3681 64.3325 12.7287 64.4358 13.141C64.6723 13.2942 64.86 13.4605 64.9987 13.6399C65.0449 13.7602 65.0647 13.8736 65.0583 13.9801C65.0371 14.3315 64.8214 14.6283 64.4114 14.8707C64.012 15.1137 63.6207 15.2236 63.2374 15.2004C62.8666 15.146 62.6358 14.9878 62.5447 14.7258C62.5231 14.5535 62.5234 14.3718 62.5456 14.1808C62.5314 14.0624 62.5015 13.9377 62.456 13.8068C62.1447 14.1833 61.8223 14.4791 61.4887 14.694C61.1558 14.8983 60.7072 14.9834 60.1429 14.9492C59.4827 14.9093 58.9334 14.5395 58.4948 13.8398C58.1976 13.2768 58.066 12.7132 58.1001 12.1489C58.2162 11.2903 58.8275 10.5472 59.934 9.91948C60.5767 9.54157 61.4045 9.1054 62.4175 8.61096C62.4352 8.49448 62.4473 8.38301 62.4538 8.27654C62.4795 7.85065 62.2262 7.62161 61.6938 7.58943C61.5235 7.57913 61.0968 7.83118 60.4139 8.34557C60.0681 8.76279 59.7542 9.00563 59.4722 9.07407C59.1528 9.05476 58.8882 8.83572 58.6784 8.41697C58.4686 7.99821 58.3708 7.67172 58.385 7.43748C58.4043 7.11806 58.7737 6.84118 59.4931 6.60683C60.4748 6.09982 61.4358 5.84802 62.376 5.85142ZM73.9959 11.3306C73.6074 11.3926 73.1703 11.5532 72.6844 11.8124C72.1873 12.0815 71.8968 12.3792 71.8129 12.7054C71.7517 13.0116 71.7791 13.2644 71.8953 13.4637C72.0409 13.7076 72.1988 13.8347 72.3692 13.845C72.8089 13.8182 73.2085 13.4844 73.5678 12.8435C73.7735 12.2682 73.9162 11.7639 73.9959 11.3306ZM73.9642 6.552C75.4974 6.64469 76.2057 7.65461 76.0892 9.58176L75.8971 12.76C75.8784 13.0687 75.9207 13.4293 76.024 13.8416C76.2605 13.9948 76.4482 14.1611 76.587 14.3405C76.6331 14.4608 76.653 14.5742 76.6465 14.6807C76.6253 15.032 76.4096 15.3289 75.9996 15.5713C75.6002 15.8143 75.2089 15.9242 74.8256 15.901C74.4548 15.8465 74.224 15.6883 74.1329 15.4264C74.1113 15.2541 74.1116 15.0724 74.1338 14.8814C74.1196 14.763 74.0898 14.6383 74.0442 14.5073C73.733 14.8839 73.4105 15.1796 73.0769 15.3946C72.744 15.5989 72.2954 15.6839 71.7311 15.6498C71.071 15.6099 70.5216 15.2401 70.083 14.5403C69.7858 13.9774 69.6542 13.4138 69.6884 12.8494C69.8044 11.9909 70.4157 11.2478 71.5222 10.6201C72.1649 10.2421 72.9927 9.80597 74.0057 9.31154C74.0234 9.19506 74.0355 9.08359 74.042 8.97711C74.0677 8.55122 73.8144 8.32219 73.282 8.29C73.1117 8.2797 72.685 8.53175 72.0021 9.04614C71.6563 9.46337 71.3424 9.7062 71.0604 9.77464C70.741 9.75533 70.4764 9.5363 70.2666 9.11754C70.0568 8.69879 69.959 8.37229 69.9732 8.13805C69.9925 7.81863 70.3619 7.54175 71.0813 7.30741C72.063 6.80039 73.024 6.54859 73.9642 6.552ZM84.6863 8.32226C84.7053 8.53713 84.6383 8.76283 84.485 8.99935C84.2157 9.38914 84.0747 9.59968 84.0621 9.63098C83.5506 10.6687 82.7549 12.341 81.675 14.6481C81.1809 15.7509 80.8533 16.7516 80.6921 17.6502C80.6656 17.7341 80.649 17.9201 80.6423 18.2082C80.6388 18.4431 80.5909 18.6165 80.4987 18.7285C80.3148 18.9418 80.0525 19.0382 79.7118 19.0176C79.1049 18.9809 78.7248 18.7281 78.5715 18.2594C78.5359 18.1397 78.5208 18.0372 78.5259 17.9521C78.5324 17.8456 78.5823 17.7257 78.6759 17.5925C78.7688 17.4698 78.8285 17.3666 78.8549 17.2827L79.3589 15.3095L77.4588 8.55854C77.432 8.47143 77.3575 8.29061 77.2352 8.01606C77.1509 7.81861 77.113 7.65069 77.1214 7.51227C77.1259 7.43774 77.141 7.36385 77.1668 7.29061C77.2965 6.91375 77.67 6.74398 78.2876 6.78132C78.6709 6.80449 78.9705 6.88672 79.1863 7.028C79.4429 7.2038 79.5802 7.49529 79.5983 7.90246C79.6116 8.5658 79.6267 8.93539 79.6435 9.0112L80.4967 12.3969L82.3749 8.37487C82.3874 8.34357 82.4495 8.11223 82.5611 7.68084C82.6304 7.41788 82.7532 7.24364 82.9293 7.15811C83.0396 7.10066 83.164 7.07612 83.3024 7.08449C83.6112 7.10316 83.9129 7.23895 84.2075 7.49185C84.5028 7.73411 84.6623 8.01091 84.6863 8.32226ZM91.8004 14.3946L91.9761 14.4053C92.1784 14.4175 92.3521 14.46 92.4973 14.5329C92.6432 14.5952 92.7561 14.6715 92.8361 14.7618C92.9275 14.8421 92.9915 14.9315 93.0283 15.0299C93.0658 15.1176 93.0822 15.1988 93.0777 15.2733C93.0745 15.3265 92.9695 15.5606 92.7628 15.9756L92.5433 17.4851C92.6556 17.7483 92.7056 17.9811 92.6934 18.1834C92.6696 18.5774 92.3542 18.756 91.7473 18.7193C91.6835 18.7154 91.5679 18.6817 91.4008 18.6182C91.2337 18.5547 91.0622 18.4749 90.8863 18.3787C90.7205 18.2939 90.5712 18.1994 90.4386 18.0952C90.3053 18.0017 90.2413 17.9123 90.2464 17.8271C90.2555 17.6781 90.3419 17.4856 90.5058 17.2497L90.6972 16.2034L86.8053 16.4169L86.7531 17.2793C86.8654 17.5426 86.9155 17.7753 86.9033 17.9776C86.8794 18.3716 86.5641 18.5502 85.9572 18.5135C85.8081 18.5045 85.6447 18.4679 85.4669 18.4037C85.2891 18.3396 85.123 18.2601 84.9684 18.1652C84.8239 18.0817 84.7012 17.9888 84.6006 17.8865C84.5099 17.7955 84.4671 17.7075 84.4723 17.6223C84.4819 17.4626 84.563 17.2698 84.7156 17.0439L84.8025 15.6065C84.6883 15.3752 84.6357 15.185 84.6447 15.036C84.6524 14.9082 84.6961 14.804 84.7758 14.7233C84.8555 14.6427 84.9501 14.5789 85.0598 14.5321C85.1702 14.4747 85.2792 14.4385 85.387 14.4237C85.506 14.3988 85.6081 14.3889 85.6933 14.3941L85.7732 14.3989C86.2679 13.2854 86.9005 11.3948 87.6709 8.7271C87.5573 8.48514 87.5047 8.29495 87.513 8.15654C87.5439 7.64547 87.9107 7.41118 88.6135 7.45366C88.7199 7.4601 88.8311 7.47751 88.9469 7.50588C89.074 7.52425 89.1999 7.56392 89.3244 7.62488L89.8229 7.8634C90.1185 7.92401 90.399 7.96768 90.6646 7.99442C90.9307 8.01052 91.1584 8.04565 91.3474 8.09983C91.5372 8.14335 91.682 8.22157 91.7821 8.33448C91.8934 8.43739 91.942 8.60596 91.9278 8.8402C91.9259 8.87214 91.8209 9.10623 91.6129 9.54247L91.8004 14.3946ZM89.3789 9.37536C89.3724 9.48183 89.3184 9.7564 89.2169 10.1991C89.116 10.6311 88.9012 11.3555 88.5726 12.3722C88.244 13.3888 87.9966 14.1219 87.8305 14.5714L89.7436 14.4787L89.6296 9.47066L89.3789 9.37536ZM101.027 9.55061L100.644 15.891C100.756 16.1543 100.807 16.3817 100.795 16.5734C100.771 16.9673 100.456 17.146 99.849 17.1093C99.5296 17.09 99.1997 16.9792 98.8593 16.7769C98.5195 16.5641 98.3541 16.3831 98.3631 16.234C98.3728 16.0743 98.4539 15.8815 98.6065 15.6556L98.8392 11.8067C97.9541 13.3668 97.1193 14.978 96.3349 16.6404C96.1562 17.1211 95.7954 17.3451 95.2524 17.3123C94.9223 17.2923 94.6187 17.1885 94.3415 17.0007C94.075 16.8136 93.9478 16.6189 93.9601 16.4166C93.9691 16.2676 94.0502 16.0748 94.2034 15.8383L94.4502 9.10489C94.3366 8.86293 94.284 8.67274 94.2923 8.53433C94.3226 8.03391 94.6891 7.80494 95.3918 7.84742C95.7751 7.8706 96.1047 7.9867 96.3806 8.19573C96.6671 8.4054 96.803 8.63268 96.7882 8.87757C96.7811 8.99469 96.6764 9.22345 96.4742 9.56387L96.2309 13.5885C97.1291 11.6338 98.0074 10.0092 98.8658 8.71465C98.849 8.63883 98.8425 8.56898 98.8464 8.50509C98.8767 8.00467 99.2378 7.77538 99.9299 7.81722C100.303 7.83975 100.632 7.95053 100.92 8.14956C101.218 8.33858 101.359 8.5715 101.342 8.84833C101.332 9.01869 101.227 9.25278 101.027 9.55061ZM112.587 17.9915C112.424 18.3771 112.098 18.5551 111.609 18.5255C110.991 18.4882 110.546 18.2475 110.274 17.8036C110.128 17.5597 110.097 16.751 110.18 15.3775C110.192 15.1753 110.209 14.8931 110.231 14.5311C110.264 14.1591 110.285 13.8985 110.294 13.7495C110.339 13.0042 110.325 12.6186 110.252 12.5928C110.096 12.5193 109.473 13.8174 108.382 16.4871C108.381 16.4977 108.344 16.7519 108.272 17.2498C108.232 17.5573 108.113 17.7585 107.914 17.8533C107.772 17.9195 107.615 17.9474 107.445 17.9371C107.136 17.9185 106.844 17.7993 106.568 17.5796C106.293 17.3599 106.127 17.1094 106.069 16.8281C105.986 16.4277 105.976 15.8073 106.037 14.9668C106.154 13.3923 106.214 12.5784 106.217 12.5252C106.233 12.0774 106.215 11.8465 106.163 11.8327C105.893 12.2224 105.657 12.5982 105.453 12.9599C104.963 13.8279 104.648 14.8775 104.51 16.1087C104.449 16.2332 104.428 16.4831 104.448 16.8584C104.471 17.1803 104.41 17.3957 104.265 17.5045C104.119 17.6132 103.929 17.6605 103.695 17.6464C103.44 17.6309 103.183 17.5459 102.925 17.3914C102.679 17.2269 102.502 17.0506 102.396 16.8625C102.242 16.5861 102.212 15.4836 102.308 13.5552C102.384 12.2988 102.459 11.0424 102.535 9.78605C102.531 9.67893 102.498 9.52729 102.435 9.33114C102.372 9.13498 102.343 8.98899 102.349 8.89317C102.355 8.79734 102.387 8.70845 102.445 8.62649C102.597 8.42191 102.954 8.33668 103.519 8.3708C104.211 8.41264 104.616 8.6081 104.733 8.95718C104.761 9.03364 104.772 9.10913 104.768 9.18366C104.762 9.27949 104.7 9.41468 104.583 9.58925C104.476 9.76446 104.419 9.91063 104.412 10.0277L104.302 11.8484C104.662 11.197 105.134 10.3706 105.718 9.36936C105.791 9.23481 105.858 9.09994 105.919 8.96474C105.991 8.83019 106.089 8.71322 106.213 8.61383C106.336 8.51443 106.537 8.47311 106.813 8.48984C107.239 8.51559 107.659 8.63716 108.074 8.85456C108.499 9.0726 108.708 9.31503 108.703 9.58186C108.697 9.85933 108.641 10.0697 108.537 10.213C108.443 10.3462 108.393 10.4608 108.388 10.5566L108.147 14.0044C108.341 13.6314 108.704 12.745 109.238 11.3453C109.655 10.2806 109.957 9.68976 110.146 9.57293C110.391 9.41674 110.742 9.35248 111.2 9.38016C112.052 9.43165 112.479 9.70325 112.481 10.195C112.392 11.4933 112.26 13.6653 112.087 16.7111C112.08 16.8282 112.178 16.9784 112.38 17.1616C112.584 17.3342 112.68 17.511 112.669 17.692C112.664 17.7771 112.636 17.877 112.587 17.9915ZM116.099 18.4123C115.253 18.265 114.594 17.6854 114.121 16.6737C113.665 15.7271 113.475 14.6204 113.552 13.3533C113.608 12.427 113.863 11.4754 114.318 10.4983C114.783 9.51132 115.229 9.03068 115.655 9.05642C115.74 9.06157 115.851 9.08963 115.987 9.14058C116.134 9.18154 116.25 9.20459 116.335 9.20974C116.441 9.21617 116.602 9.20454 116.818 9.17482C117.044 9.14575 117.21 9.13443 117.317 9.14087C117.455 9.14924 117.582 9.17825 117.696 9.22792C118.341 9.52337 118.822 10.0494 119.14 10.8059C119.477 11.5957 119.61 12.5655 119.541 13.7154C119.455 15.1315 119.127 16.3192 118.556 17.2785C118.011 18.1645 117.44 18.5895 116.844 18.5535C116.748 18.5477 116.653 18.5313 116.559 18.5042C116.464 18.4771 116.311 18.4465 116.099 18.4123ZM116.682 10.6253C116.331 10.604 116.05 11.0038 115.84 11.8247C115.714 12.3299 115.632 12.8807 115.596 13.4769C115.562 14.0412 115.593 14.6736 115.69 15.374C115.815 16.3113 116.026 16.7889 116.325 16.807C116.655 16.8269 116.943 16.3795 117.191 15.4648C117.397 14.7079 117.499 14.0889 117.496 13.6078C117.486 11.6516 117.215 10.6575 116.682 10.6253ZM123.814 19.0069C123.462 18.9857 123.074 18.7003 122.647 18.151L122.547 19.8119C122.539 19.9503 122.595 20.1675 122.716 20.4633C122.837 20.7591 122.894 20.971 122.886 21.0987C122.867 21.4181 122.679 21.6847 122.325 21.8983C121.98 22.1126 121.611 22.2078 121.217 22.184C120.472 22.139 120.121 21.7544 120.165 21.0304C120.173 20.892 120.216 20.7129 120.294 20.4932C120.381 20.2848 120.427 20.1433 120.432 20.0687L120.982 10.9654C120.987 10.8802 120.952 10.7498 120.877 10.5743C120.803 10.3882 120.769 10.2419 120.776 10.1354C120.792 9.85857 120.95 9.64367 121.247 9.49069C121.501 9.36708 121.808 9.31622 122.17 9.3381C122.468 9.35613 122.72 9.43014 122.926 9.56013C123.133 9.67948 123.23 9.8403 123.218 10.0426C123.216 10.0639 123.208 10.1115 123.193 10.1854C123.687 9.79845 124.178 9.61979 124.668 9.6494C125.488 9.69896 126.106 10.1744 126.521 11.0758C126.88 11.8669 127.023 12.8534 126.952 14.0352C126.87 15.3767 126.555 16.5331 126.004 17.5044C125.396 18.5576 124.666 19.0584 123.814 19.0069ZM124.08 11.4251C123.505 11.3904 123.17 12.1502 123.076 13.7047C123.029 14.4926 123.071 15.2112 123.203 15.8603C123.332 16.5414 123.514 16.889 123.749 16.9031C123.983 16.9173 124.205 16.5941 124.416 15.9337C124.625 15.3158 124.753 14.6129 124.8 13.825C124.895 12.2599 124.655 11.4599 124.08 11.4251ZM134.856 11.5958L134.473 17.9362C134.585 18.1994 134.636 18.4269 134.624 18.6185C134.6 19.0125 134.285 19.1911 133.678 19.1544C133.358 19.1351 133.029 19.0243 132.688 18.8221C132.348 18.6092 132.183 18.4282 132.192 18.2792C132.202 18.1195 132.283 17.9267 132.435 17.7008L132.668 13.8518C131.783 15.4119 130.948 17.0232 130.164 18.6855C129.985 19.1663 129.624 19.3902 129.081 19.3574C128.751 19.3375 128.448 19.2336 128.17 19.0459C127.904 18.8588 127.777 18.6641 127.789 18.4618C127.798 18.3127 127.879 18.1199 128.032 17.8834L128.279 11.15C128.165 10.9081 128.113 10.7179 128.121 10.5795C128.151 10.0791 128.518 9.85009 129.221 9.89258C129.604 9.91575 129.934 10.0318 130.209 10.2409C130.496 10.4506 130.632 10.6778 130.617 10.9227C130.61 11.0398 130.505 11.2686 130.303 11.609L130.06 15.6337C130.958 13.679 131.836 12.0544 132.695 10.7598C132.678 10.684 132.671 10.6141 132.675 10.5502C132.706 10.0498 133.067 9.82053 133.759 9.86237C134.131 9.8849 134.461 9.99568 134.749 10.1947C135.047 10.3837 135.188 10.6167 135.171 10.8935C135.161 11.0638 135.056 11.2979 134.856 11.5958ZM141.881 12.325L141.497 18.6654C141.61 18.9287 141.66 19.1614 141.647 19.3637C141.624 19.7577 141.308 19.9363 140.701 19.8996C140.542 19.89 140.373 19.853 140.195 19.7889C140.028 19.7253 139.867 19.6515 139.712 19.5673C139.568 19.4731 139.445 19.3802 139.344 19.2886C139.254 19.187 139.211 19.0936 139.216 19.0084C139.226 18.8487 139.307 18.6559 139.46 18.43L139.585 16.3538L137.726 18.9984C137.631 19.3453 137.526 19.5634 137.414 19.6528C137.313 19.7428 137.145 19.7808 136.91 19.7666C136.719 19.755 136.534 19.7171 136.356 19.653C136.178 19.5994 136.017 19.5203 135.874 19.4154C135.74 19.3219 135.63 19.2083 135.542 19.0748C135.465 18.9312 135.432 18.7742 135.442 18.6039C135.453 18.4229 135.521 18.2667 135.647 18.1354C135.783 17.994 135.993 17.8785 136.277 17.7888C136.606 17.4667 136.891 17.1687 137.132 16.8948C137.384 16.6108 137.582 16.3556 137.723 16.129C137.534 16.0855 137.341 16.0044 137.145 15.8857C136.95 15.7564 136.772 15.6067 136.611 15.4367C136.451 15.256 136.319 15.0557 136.215 14.8356C136.121 14.6163 136.082 14.3841 136.097 14.1392C136.14 13.4259 136.341 12.829 136.702 12.3485C137.062 11.868 137.486 11.4876 137.973 11.2071C138.461 10.916 138.959 10.7164 139.468 10.6082C139.977 10.5001 140.407 10.4566 140.758 10.4779C140.96 10.4901 141.15 10.5336 141.327 10.6085C141.515 10.6839 141.669 10.7788 141.791 10.893C141.923 10.9971 142.023 11.1154 142.09 11.2477C142.167 11.3806 142.202 11.5109 142.195 11.6387C142.19 11.7132 142.085 11.942 141.881 12.325ZM139.814 12.5687C139.641 12.6117 139.454 12.6859 139.256 12.7914C139.068 12.887 138.89 13.0097 138.72 13.1598C138.562 13.2998 138.425 13.4518 138.308 13.6158C138.202 13.7803 138.144 13.9478 138.134 14.1181C138.124 14.2778 138.189 14.4367 138.329 14.5948C138.469 14.7529 138.624 14.8371 138.795 14.8474C138.854 14.7441 138.961 14.6544 139.116 14.5782C139.27 14.5021 139.464 14.4711 139.698 14.4852L139.814 12.5687ZM156.705 13.2533L156.641 19.613C156.754 19.8763 156.804 20.1037 156.793 20.2954C156.769 20.6893 156.453 20.868 155.846 20.8313C155.687 20.8216 155.518 20.7847 155.34 20.7205C155.173 20.657 155.012 20.5831 154.857 20.4989C154.713 20.4047 154.59 20.3118 154.489 20.2202C154.399 20.1186 154.356 20.0305 154.361 19.956C154.37 19.7963 154.451 19.6035 154.604 19.3776L154.476 16.1961L152.974 19.0226L152.962 19.2303C152.941 19.571 152.841 19.8107 152.662 19.9495C152.482 20.0882 152.164 20.1438 151.706 20.1161C151.206 20.0859 150.87 19.9854 150.698 19.8147C150.538 19.6447 150.468 19.3894 150.488 19.0487C150.49 19.0274 150.491 19.0008 150.493 18.9688C150.506 18.9375 150.513 18.9059 150.515 18.874L149.311 15.7236L149.103 19.1573C149.216 19.4205 149.266 19.648 149.254 19.8396C149.23 20.2336 148.915 20.4122 148.308 20.3755C148.149 20.3659 147.98 20.329 147.802 20.2648C147.635 20.2012 147.474 20.1274 147.318 20.0432C147.175 19.949 147.052 19.8561 146.951 19.7645C146.861 19.6629 146.818 19.5748 146.822 19.5003C146.832 19.3406 146.913 19.1478 147.066 18.9219L147.463 12.3579C147.348 12.1266 147.296 11.9364 147.305 11.7873C147.312 11.6596 147.335 11.554 147.372 11.4708C147.42 11.3882 147.493 11.3285 147.591 11.2917C147.701 11.2449 147.847 11.2163 148.029 11.206C148.211 11.1956 148.452 11.1941 148.751 11.2015L149.582 11.2357C149.698 11.2641 149.822 11.3357 149.954 11.4506C150.097 11.5554 150.164 11.6824 150.155 11.8314C150.151 11.8953 150.136 11.9745 150.109 12.069C150.092 12.1642 150.053 12.2847 149.991 12.4306L151.842 17.3352L154.255 12.6884C154.188 12.3745 154.158 12.1643 154.165 12.0578C154.177 11.8555 154.298 11.7079 154.528 11.6149C154.769 11.5226 155.06 11.4867 155.4 11.5073C155.613 11.5202 155.819 11.5594 156.018 11.6249C156.218 11.6797 156.39 11.7542 156.534 11.8484C156.689 11.9326 156.811 12.0414 156.899 12.175C156.987 12.2979 157.028 12.4286 157.019 12.567C157.008 12.7586 156.903 12.9874 156.705 13.2533ZM160.456 21.0939C159.61 20.9466 158.95 20.367 158.477 19.3553C158.021 18.4088 157.832 17.302 157.908 16.0349C157.964 15.1086 158.22 14.157 158.674 13.18C159.14 12.1929 159.586 11.7123 160.012 11.738C160.097 11.7432 160.207 11.7712 160.343 11.8222C160.49 11.8631 160.606 11.8862 160.692 11.8913C160.798 11.8978 160.959 11.8861 161.175 11.8564C161.401 11.8274 161.567 11.816 161.673 11.8225C161.812 11.8308 161.938 11.8599 162.053 11.9095C162.698 12.205 163.179 12.731 163.496 13.4875C163.833 14.2773 163.967 15.2471 163.897 16.397C163.812 17.8131 163.484 19.0008 162.913 19.9601C162.368 20.8461 161.797 21.2711 161.201 21.2351C161.105 21.2293 161.01 21.2129 160.915 21.1858C160.821 21.1587 160.667 21.1281 160.456 21.0939ZM161.039 13.3069C160.687 13.2856 160.407 13.6854 160.197 14.5063C160.07 15.0115 159.989 15.5623 159.953 16.1585C159.919 16.7228 159.95 17.3552 160.046 18.0556C160.171 18.9929 160.383 19.4705 160.681 19.4886C161.011 19.5085 161.3 19.0611 161.548 18.1464C161.754 17.3895 161.855 16.7705 161.852 16.2894C161.842 14.3332 161.571 13.3391 161.039 13.3069ZM175.433 21.4062C175.068 21.7796 174.673 21.9534 174.247 21.9276C174.055 21.9161 173.898 21.8585 173.777 21.7549C173.706 21.6866 173.649 21.5603 173.607 21.376C173.565 21.1918 173.534 21.0831 173.515 21.0499C172.777 20.1717 172.171 19.3176 171.698 18.4876L171.155 18.4547L171.032 20.483C171.145 20.7463 171.195 20.9737 171.183 21.1654C171.16 21.5593 170.844 21.738 170.237 21.7013C169.918 21.682 169.588 21.5712 169.248 21.3689C168.908 21.156 168.742 20.9751 168.751 20.826C168.761 20.6663 168.842 20.4735 168.995 20.2476L169.111 18.3311L168.552 18.2973C168.104 18.9863 167.512 19.7679 166.775 20.6424C166.722 20.8102 166.602 21.0327 166.414 21.3098C166.28 21.3979 166.123 21.4365 165.942 21.4256C165.601 21.405 165.28 21.2466 164.977 20.9505C164.675 20.6437 164.533 20.3359 164.552 20.0271C164.564 19.8248 164.66 19.6596 164.838 19.5315C164.969 19.4967 165.116 19.4468 165.28 19.3819C166.175 18.549 166.776 17.7893 167.085 17.1027C166.21 15.5002 165.657 14.4677 165.429 14.0051C164.971 13.8064 164.751 13.5527 164.77 13.2439C164.787 12.9564 164.969 12.6949 165.314 12.4593C165.66 12.2238 165.987 12.1153 166.295 12.134C166.657 12.1558 166.895 12.3786 167.008 12.8022L167.02 12.883C167.296 13.4447 167.944 14.6487 168.965 16.495L169.221 16.5105L169.392 13.6836C169.278 13.4417 169.225 13.2515 169.234 13.1131C169.264 12.6126 169.63 12.3837 170.333 12.4262C170.716 12.4493 171.046 12.5654 171.322 12.7745C171.609 12.9841 171.744 13.2114 171.73 13.4563C171.722 13.5734 171.618 13.8022 171.416 14.1426L171.265 16.6341L171.505 16.6485C172.858 14.9458 173.705 13.8322 174.047 13.3079C174.224 12.8484 174.489 12.6293 174.84 12.6505C175.149 12.6692 175.46 12.8163 175.775 13.0918C176.1 13.3679 176.254 13.6497 176.237 13.9372C176.218 14.2459 175.969 14.4713 175.491 14.6134L173.314 17.4792C173.706 18.2403 174.313 19.0731 175.134 19.9776C175.239 20.0054 175.385 20.0729 175.571 20.1804C175.733 20.3291 175.807 20.5152 175.794 20.7388C175.78 20.9624 175.66 21.1849 175.433 21.4062ZM179.873 12.9869C180.576 13.0294 181.157 13.4064 181.616 14.1181C181.967 14.6736 182.209 15.3562 182.342 16.1656C182.648 16.5795 182.767 16.918 182.697 17.1809C182.594 17.6556 182.191 17.8716 181.488 17.8291C181.296 17.8176 181.133 17.781 180.998 17.7194C180.848 17.721 180.099 17.7345 178.751 17.7599C178.66 19.6138 178.892 20.5575 179.446 20.5909C179.509 20.5948 179.588 20.5301 179.682 20.3968C179.787 20.2536 179.848 20.0329 179.866 19.7347C179.867 19.7241 179.849 19.6696 179.812 19.5712C179.775 19.4728 179.759 19.3863 179.763 19.3118C179.779 19.0562 179.941 18.8523 180.249 18.7C180.558 18.5476 180.893 18.4824 181.255 18.5043C181.968 18.5474 182.286 18.8605 182.208 19.4435C182.201 19.55 182.113 19.7744 181.943 20.1168C181.695 20.8498 181.391 21.3818 181.029 21.7125C180.553 22.154 179.874 22.348 178.99 22.2945C178.138 22.243 177.502 21.6329 177.081 20.464C176.752 19.5358 176.62 18.5447 176.684 17.4906C176.762 16.2023 177.022 15.1654 177.465 14.3801C178.027 13.3882 178.83 12.9238 179.873 12.9869ZM180.356 16.1417C180.207 15.2458 180.005 14.7901 179.749 14.7746C179.313 14.7483 179.028 15.2173 178.895 16.1816L180.356 16.1417ZM194.141 22.922C193.979 23.3075 193.653 23.4855 193.163 23.4559C192.545 23.4186 192.1 23.178 191.828 22.7341C191.682 22.4902 191.651 21.6815 191.734 20.308C191.746 20.1057 191.763 19.8235 191.785 19.4615C191.819 19.0895 191.84 18.829 191.849 18.6799C191.894 17.9346 191.88 17.5491 191.806 17.5233C191.651 17.4497 191.027 18.7478 189.936 21.4175C189.935 21.4281 189.899 21.6824 189.826 22.1802C189.786 22.4877 189.667 22.6889 189.469 22.7838C189.326 22.8499 189.169 22.8779 188.999 22.8676C188.69 22.8489 188.398 22.7297 188.123 22.5101C187.847 22.2904 187.681 22.0399 187.623 21.7585C187.541 21.3582 187.53 20.7377 187.591 19.8972C187.708 18.3227 187.768 17.5089 187.771 17.4556C187.787 17.0078 187.769 16.7769 187.717 16.7631C187.447 17.1529 187.211 17.5286 187.007 17.8903C186.517 18.7583 186.202 19.8079 186.064 21.0391C186.003 21.1637 185.982 21.4136 186.002 21.7888C186.026 22.1108 185.965 22.3261 185.819 22.4349C185.674 22.5437 185.484 22.5909 185.249 22.5768C184.994 22.5613 184.737 22.4764 184.479 22.3219C184.233 22.1573 184.057 21.981 183.95 21.793C183.796 21.5165 183.767 20.414 183.862 18.4856C183.938 17.2292 184.014 15.9728 184.09 14.7165C184.085 14.6094 184.052 14.4577 183.989 14.2616C183.926 14.0654 183.897 13.9194 183.903 13.8236C183.909 13.7278 183.941 13.6389 183.999 13.5569C184.151 13.3523 184.509 13.2671 185.073 13.3012C185.765 13.3431 186.17 13.5385 186.288 13.8876C186.315 13.9641 186.327 14.0396 186.322 14.1141C186.316 14.2099 186.255 14.3451 186.137 14.5197C186.031 14.6949 185.974 14.8411 185.967 14.9582L185.856 16.7788C186.216 16.1274 186.688 15.301 187.273 14.2998C187.345 14.1652 187.412 14.0304 187.473 13.8952C187.546 13.7606 187.644 13.6436 187.767 13.5443C187.891 13.4449 188.091 13.4035 188.368 13.4203C188.794 13.446 189.214 13.5676 189.628 13.785C190.053 14.003 190.263 14.2455 190.257 14.5123C190.251 14.7898 190.196 15.0001 190.091 15.1434C189.997 15.2767 189.948 15.3912 189.942 15.487L189.701 18.9348C189.895 18.5618 190.258 17.6755 190.792 16.2758C191.209 15.211 191.512 14.6202 191.7 14.5034C191.945 14.3472 192.296 14.2829 192.754 14.3106C193.606 14.3621 194.033 14.6337 194.035 15.1254C193.946 16.4237 193.815 18.5957 193.641 21.6415C193.634 21.7586 193.732 21.9088 193.935 22.092C194.138 22.2646 194.234 22.4414 194.223 22.6224C194.218 22.7076 194.19 22.8074 194.141 22.922ZM32.8628 22.068C32.6925 22.0577 32.5345 22.1069 32.389 22.2157C32.2548 22.3144 32.134 22.4567 32.0266 22.6426C31.9192 22.8284 31.8308 23.0528 31.7615 23.3158C31.7035 23.5688 31.6654 23.8443 31.6474 24.1424C31.6165 24.6535 31.6305 25.1299 31.6893 25.5716C31.7487 26.0026 31.833 26.3764 31.9421 26.6929C32.0518 26.9987 32.176 27.2413 32.3148 27.4207C32.4642 27.6007 32.6081 27.6949 32.7465 27.7032C32.9169 27.7135 33.0758 27.6483 33.2232 27.5077C33.3813 27.3676 33.5216 27.1677 33.6442 26.908C33.7674 26.6376 33.8669 26.3177 33.9426 25.9482C34.029 25.5794 34.0858 25.1714 34.1128 24.7243C34.1347 24.3623 34.1124 24.0243 34.0459 23.7104C33.9906 23.3865 33.9009 23.1032 33.7767 22.8606C33.663 22.6186 33.5249 22.4286 33.3623 22.2905C33.1997 22.1525 33.0332 22.0783 32.8628 22.068ZM32.6403 29.46C32.1825 29.4324 31.748 29.2832 31.337 29.0126C30.9365 28.7426 30.5914 28.353 30.3016 27.844C30.0118 27.3349 29.7933 26.7072 29.646 25.961C29.5094 25.2154 29.4708 24.3528 29.53 23.3732C29.5634 22.8196 29.6176 22.2779 29.6923 21.7481C29.7671 21.2183 29.8772 20.7227 30.0227 20.2613C30.1688 19.7893 30.3605 19.3574 30.5979 18.9657C30.8466 18.5639 31.151 18.2137 31.511 17.9148C31.6007 17.8455 31.7455 17.7474 31.9455 17.6205C32.1568 17.4837 32.3788 17.3475 32.6114 17.212C32.8553 17.0664 33.0932 16.9312 33.3252 16.8063C33.5571 16.6814 33.7549 16.5918 33.9185 16.5376C33.923 16.4631 33.9441 16.3789 33.9818 16.285C34.0196 16.1911 34.073 16.1035 34.142 16.0222C34.2223 15.9308 34.312 15.8615 34.411 15.814C34.5214 15.7566 34.6457 15.732 34.7842 15.7404C34.9545 15.7507 35.1276 15.8039 35.3035 15.9C35.49 15.9968 35.6486 16.1132 35.7793 16.2494C35.9206 16.3862 36.0344 16.5373 36.1205 16.7028C36.2067 16.8683 36.2453 17.0256 36.2363 17.1746C36.2266 17.3344 36.1919 17.4658 36.1323 17.5691C36.0726 17.6723 35.9923 17.7637 35.8913 17.843C35.8016 17.9124 35.691 17.9752 35.5593 18.0314C35.4277 18.0875 35.2901 18.154 35.1465 18.2308C34.8268 18.3931 34.4582 18.5686 34.0408 18.757C33.6239 18.9349 33.2491 19.1259 32.9161 19.3302C32.217 19.7581 31.8459 20.3288 31.8028 21.0422C31.7976 21.1273 31.8323 21.1722 31.9069 21.1767C31.9601 21.1799 32.0206 21.1515 32.0883 21.0915C32.1567 21.0208 32.2361 20.9455 32.3264 20.8654C32.5861 20.6353 32.84 20.5011 33.0881 20.4627C33.3362 20.4242 33.6146 20.4143 33.9234 20.433C34.2428 20.4523 34.5571 20.5568 34.8662 20.7465C35.1753 20.9361 35.447 21.2144 35.6813 21.5812C35.9163 21.9373 36.0922 22.3861 36.2091 22.9275C36.3372 23.4589 36.3801 24.0759 36.3376 24.7786C36.2925 25.5239 36.1558 26.1942 35.9275 26.7895C35.7104 27.3748 35.4346 27.8711 35.1001 28.2783C34.7656 28.6855 34.3837 28.9937 33.9542 29.2029C33.5361 29.402 33.0982 29.4877 32.6403 29.46ZM46.7295 22.6178L46.3462 28.9582C46.4692 29.2221 46.5249 29.4499 46.5133 29.6415C46.4895 30.0355 46.1741 30.2141 45.5672 30.1774C45.2372 30.1575 44.9019 30.0464 44.5615 29.8441C44.2217 29.6312 44.0564 29.4503 44.0654 29.3012C44.075 29.1415 44.1561 28.9487 44.3087 28.7228L44.7055 22.1588C44.6019 21.9281 44.5546 21.7383 44.5637 21.5892C44.5939 21.0888 44.9604 20.8598 45.6631 20.9023C46.0358 20.9248 46.3654 21.0409 46.6519 21.2506C46.9384 21.4603 47.0743 21.6876 47.0595 21.9324C47.0518 22.0602 46.9418 22.2887 46.7295 22.6178ZM37.761 20.633C37.9416 20.4729 38.2236 20.4045 38.6069 20.4276C39.0115 20.4521 39.3574 20.5638 39.6446 20.7629C39.9317 20.9619 40.067 21.1998 40.0502 21.4766C40.0483 21.5086 40.0285 21.5715 39.9907 21.6654C39.9636 21.7599 39.9256 21.8591 39.8766 21.963C39.8382 22.0676 39.7875 22.1981 39.7247 22.3546L39.6286 24.2082C40.5513 23.7938 41.364 23.6078 42.0667 23.6503C42.2584 23.6619 42.4528 23.7164 42.6499 23.8138C42.8584 23.9012 43.0423 24.0405 43.2017 24.2318C43.3724 24.4131 43.508 24.6457 43.6083 24.9296C43.7094 25.2029 43.7483 25.5312 43.7251 25.9145C43.6833 26.6066 43.4969 27.2151 43.1659 27.7401C42.835 28.2651 42.4343 28.7057 41.964 29.062C41.5043 29.4189 41.0181 29.6833 40.5054 29.8554C39.9928 30.0274 39.5288 30.1009 39.1136 30.0758C38.9645 30.0668 38.7701 30.0123 38.5304 29.9123C38.3013 29.813 38.0785 29.698 37.862 29.5673C37.6455 29.4367 37.4556 29.3077 37.2923 29.1803C37.1403 29.0428 37.0666 28.9369 37.0711 28.8623C37.0801 28.7133 37.1609 28.5258 37.3135 28.2999L37.7113 21.7199C37.6335 21.416 37.5997 21.1789 37.61 21.0085C37.6203 20.8382 37.6706 20.713 37.761 20.633ZM39.3447 28.3746C39.5389 28.3436 39.7696 28.24 40.0367 28.0638C40.3151 27.8776 40.5792 27.6638 40.8288 27.4225C41.0792 27.1704 41.2929 26.9055 41.47 26.6277C41.6577 26.3505 41.7587 26.0948 41.7728 25.8606C41.7838 25.6796 41.7592 25.5552 41.6992 25.4875C41.6505 25.4097 41.5516 25.3663 41.4025 25.3573C41.1363 25.3412 40.8227 25.4024 40.4617 25.5409C40.1007 25.6793 39.7757 25.8414 39.4866 26.0269L39.3447 28.3746ZM58.3278 30.7405C58.1655 31.1261 57.8395 31.3041 57.3498 31.2744C56.7322 31.2371 56.2873 30.9965 56.0149 30.5526C55.8693 30.3087 55.8381 29.5 55.9211 28.1265C55.9333 27.9242 55.9504 27.642 55.9723 27.28C56.0055 26.908 56.0266 26.6475 56.0356 26.4984C56.0806 25.7531 56.0665 25.3676 55.9933 25.3418C55.8374 25.2682 55.214 26.5663 54.1229 29.236C54.1222 29.2467 54.0855 29.5009 54.0127 29.9987C53.9727 30.3062 53.8537 30.5074 53.6556 30.6023C53.5127 30.6685 53.356 30.6964 53.1857 30.6861C52.8769 30.6674 52.5849 30.5483 52.3096 30.3286C52.0344 30.1089 51.8679 29.8584 51.8101 29.5771C51.7274 29.1767 51.7168 28.5562 51.7783 27.7158C51.8949 26.1412 51.9548 25.3274 51.958 25.2741C51.9744 24.8263 51.9563 24.5955 51.9037 24.5816C51.6344 24.9714 51.3979 25.3471 51.1944 25.7089C50.7038 26.5768 50.3892 27.6264 50.2507 28.8576C50.1897 28.9822 50.1692 29.2321 50.1893 29.6073C50.2126 29.9293 50.1515 30.1447 50.006 30.2534C49.8605 30.3622 49.6706 30.4095 49.4364 30.3953C49.1808 30.3799 48.9242 30.2949 48.6664 30.1404C48.4198 29.9759 48.2435 29.7996 48.1373 29.6115C47.983 29.335 47.9535 28.2325 48.0487 26.3041C48.1247 25.0477 48.2006 23.7914 48.2766 22.535C48.2724 22.4279 48.2388 22.2762 48.1759 22.0801C48.1129 21.8839 48.0844 21.7379 48.0901 21.6421C48.0959 21.5463 48.128 21.4574 48.1864 21.3754C48.3377 21.1709 48.6955 21.0856 49.2598 21.1197C49.9519 21.1616 50.3568 21.357 50.4746 21.7061C50.5021 21.7826 50.5135 21.8581 50.509 21.9326C50.5032 22.0284 50.4416 22.1636 50.3242 22.3382C50.2174 22.5134 50.1605 22.6596 50.1534 22.7767L50.0434 24.5974C50.4033 23.9459 50.8754 23.1196 51.4595 22.1183C51.5318 21.9838 51.5987 21.8489 51.6603 21.7137C51.7326 21.5791 51.8305 21.4622 51.954 21.3628C52.0776 21.2634 52.2778 21.2221 52.5546 21.2388C52.9805 21.2645 53.4006 21.3861 53.8149 21.6035C54.2399 21.8216 54.4496 22.064 54.4442 22.3308C54.4381 22.6083 54.3826 22.8186 54.2778 22.9619C54.1842 23.0952 54.1346 23.2097 54.1288 23.3056L53.8883 26.7533C54.0818 26.3803 54.4453 25.494 54.9787 24.0943C55.3957 23.0295 55.6986 22.4387 55.8873 22.3219C56.1319 22.1657 56.4831 22.1014 56.9409 22.1291C57.7927 22.1806 58.2197 22.4522 58.2221 22.9439C58.1329 24.2422 58.0016 26.4143 57.8281 29.46C57.821 29.5771 57.9188 29.7273 58.1215 29.9105C58.3248 30.0831 58.4209 30.2599 58.41 30.4409C58.4048 30.5261 58.3774 30.6259 58.3278 30.7405ZM59.7677 21.9634C59.9483 21.8033 60.2303 21.7349 60.6136 21.7581C61.0182 21.7825 61.3641 21.8943 61.6513 22.0933C61.9384 22.2923 62.0737 22.5302 62.0569 22.8071C62.055 22.839 62.0352 22.9019 61.9974 22.9958C61.9703 23.0904 61.9323 23.1896 61.8833 23.2935C61.8449 23.398 61.7942 23.5285 61.7313 23.685L61.6353 25.5386C62.558 25.1242 63.3707 24.9382 64.0734 24.9807C64.2651 24.9923 64.4595 25.0468 64.6566 25.1442C64.8651 25.2316 65.049 25.371 65.2084 25.5623C65.3791 25.7436 65.5146 25.9762 65.615 26.2601C65.7161 26.5333 65.755 26.8616 65.7318 27.2449C65.69 27.937 65.5036 28.5455 65.1726 29.0705C64.8417 29.5955 64.441 30.0361 63.9707 30.3924C63.511 30.7493 63.0248 31.0138 62.5121 31.1858C61.9995 31.3579 61.5355 31.4313 61.1203 31.4062C60.9712 31.3972 60.7768 31.3427 60.5371 31.2427C60.308 31.1434 60.0852 31.0284 59.8687 30.8978C59.6522 30.7671 59.4623 30.6381 59.299 30.5107C59.147 30.3733 59.0733 30.2673 59.0778 30.1928C59.0868 30.0437 59.1676 29.8562 59.3202 29.6304L59.718 23.0504C59.6402 22.7465 59.6064 22.5093 59.6167 22.339C59.627 22.1686 59.6773 22.0434 59.7677 21.9634ZM61.3514 29.7051C61.5456 29.6741 61.7763 29.5705 62.0434 29.3943C62.3218 29.2081 62.5858 28.9943 62.8355 28.7529C63.0859 28.5009 63.2996 28.236 63.4767 27.9581C63.6644 27.681 63.7653 27.4253 63.7795 27.191C63.7905 27.01 63.7659 26.8856 63.7059 26.8179C63.6572 26.7401 63.5583 26.6968 63.4092 26.6877C63.143 26.6717 62.8294 26.7328 62.4684 26.8713C62.1074 27.0098 61.7824 27.1718 61.4933 27.3574L61.3514 29.7051ZM73.99 24.2979C73.5866 24.2521 73.0469 24.5187 72.3707 25.0976C72.081 25.2938 71.8457 25.3865 71.6647 25.3755C71.3027 25.3537 71.002 25.2019 70.7625 24.9203C70.5231 24.6386 70.4162 24.2849 70.442 23.859C70.4581 23.5928 70.6118 23.4365 70.9031 23.39C71.1399 23.3615 71.3821 23.3334 71.6295 23.3056C71.8383 23.2114 72.3401 22.9532 73.135 22.5311C73.7273 22.2784 74.2805 22.2317 74.7945 22.391C75.2007 22.5651 75.5276 22.8146 75.7751 23.1395C76.0339 23.4544 76.1451 23.8244 76.1087 24.2497C75.9866 25.0331 75.5682 25.7665 74.8537 26.4499C75.6142 26.7738 76.0332 27.1784 76.1107 27.664C76.0695 28.6981 75.5891 29.6628 74.6694 30.5583C73.7503 31.4431 72.9231 31.8687 72.1878 31.8349C71.7626 31.7985 71.2954 31.5725 70.7862 31.1571C70.2883 30.7316 70.044 30.3535 70.0533 30.0228C70.1145 29.3639 70.4984 29.0238 71.205 29.0024C71.3847 29.0346 71.548 29.1621 71.6948 29.3847C71.8336 29.564 71.9439 29.6829 72.0259 29.7413C72.1191 29.7897 72.2343 29.8287 72.3715 29.8584C72.6283 29.8525 72.9468 29.6207 73.3272 29.1628C73.7181 28.7055 73.9354 28.382 73.9789 28.1923C74.0244 27.9707 73.9852 27.824 73.8613 27.7524C73.7461 27.7134 73.612 27.7213 73.4591 27.7762C73.3368 27.8543 73.2534 27.908 73.2089 27.9374C72.7618 28.263 72.469 28.4216 72.3306 28.4133C71.9899 28.3927 71.6875 28.2675 71.4236 28.0378C71.1296 27.7743 70.9936 27.4615 71.0155 27.0995C71.029 26.8759 71.1887 26.7092 71.4945 26.5995C71.9639 26.4355 72.2096 26.3489 72.2315 26.3395C73.1417 25.9564 73.7331 25.4525 74.006 24.8278C74.0595 24.6494 74.0542 24.4728 73.99 24.2979ZM83.91 29.9468L84.0857 29.9574C84.288 29.9697 84.4617 30.0122 84.6069 30.0851C84.7528 30.1474 84.8657 30.2237 84.9458 30.314C85.0371 30.3943 85.1011 30.4837 85.1379 30.5821C85.1754 30.6698 85.1918 30.751 85.1873 30.8255C85.1841 30.8787 85.0791 31.1128 84.8724 31.5278L84.6529 33.0373C84.7652 33.3005 84.8152 33.5333 84.803 33.7356C84.7792 34.1296 84.4638 34.3082 83.8569 34.2715C83.7931 34.2676 83.6776 34.2339 83.5104 34.1704C83.3433 34.1069 83.1718 34.027 82.9959 33.9309C82.8301 33.8461 82.6808 33.7516 82.5482 33.6474C82.415 33.5538 82.3509 33.4645 82.3561 33.3793C82.3651 33.2302 82.4515 33.0378 82.6154 32.8019L82.8069 31.7555L78.9149 31.9691L78.8627 32.8315C78.9751 33.0948 79.0251 33.3275 79.0129 33.5298C78.9891 33.9238 78.6737 34.1024 78.0668 34.0657C77.9178 34.0567 77.7543 34.0201 77.5765 33.9559C77.3988 33.8918 77.2326 33.8122 77.078 33.7174C76.9335 33.6339 76.8109 33.541 76.7102 33.4387C76.6195 33.3477 76.5767 33.2597 76.5819 33.1745C76.5915 33.0148 76.6727 32.822 76.8252 32.5961L76.9121 31.1587C76.7979 30.9274 76.7453 30.7372 76.7543 30.5882C76.762 30.4604 76.8057 30.3562 76.8854 30.2755C76.9651 30.1948 77.0597 30.1311 77.1694 30.0843C77.2798 30.0269 77.3888 29.9907 77.4966 29.9759C77.6156 29.951 77.7177 29.9411 77.8029 29.9463L77.8828 29.9511C78.3775 28.8376 79.0101 26.947 79.7805 24.2793C79.6669 24.0373 79.6143 23.8471 79.6226 23.7087C79.6535 23.1977 80.0204 22.9634 80.7231 23.0059C80.8295 23.0123 80.9407 23.0297 81.0565 23.0581C81.1836 23.0764 81.3095 23.1161 81.434 23.1771L81.9325 23.4156C82.2281 23.4762 82.5086 23.5199 82.7742 23.5466C83.0404 23.5627 83.268 23.5978 83.4571 23.652C83.6468 23.6955 83.7917 23.7738 83.8917 23.8867C84.003 23.9896 84.0516 24.1582 84.0374 24.3924C84.0355 24.4243 83.9305 24.6584 83.7225 25.0947L83.91 29.9468ZM81.4885 24.9275C81.4821 25.034 81.4281 25.3086 81.3265 25.7513C81.2256 26.1833 81.0108 26.9077 80.6822 27.9244C80.3536 28.941 80.1062 29.6741 79.9401 30.1236L81.8532 30.0309L81.7392 25.0229L81.4885 24.9275ZM89.3681 23.5445C90.0708 23.587 90.6518 23.9641 91.111 24.6758C91.4621 25.2313 91.704 25.9138 91.8367 26.7233C92.143 27.1372 92.2615 27.4756 92.1921 27.7386C92.0886 28.2132 91.6855 28.4293 90.9828 28.3868C90.7912 28.3752 90.6277 28.3386 90.4925 28.277C90.3428 28.2786 89.594 28.2921 88.246 28.3175C88.1553 30.1714 88.3868 31.1151 88.9404 31.1486C89.0043 31.1524 89.083 31.0877 89.1766 30.9545C89.2814 30.8112 89.3428 30.5905 89.3609 30.2924C89.3615 30.2817 89.3434 30.2272 89.3066 30.1288C89.2698 30.0304 89.2537 29.944 89.2582 29.8694C89.2736 29.6139 89.4356 29.41 89.744 29.2576C90.0524 29.1053 90.3876 29.0401 90.7496 29.062C91.463 29.1051 91.7807 29.4182 91.7027 30.0012C91.6963 30.1076 91.6079 30.3321 91.4376 30.6744C91.1902 31.4075 90.8856 31.9394 90.5236 32.2702C90.0481 32.7116 89.3685 32.9056 88.4848 32.8522C87.633 32.8007 86.9967 32.1905 86.5758 31.0216C86.2472 30.0935 86.1148 29.1023 86.1785 28.0483C86.2564 26.7599 86.5167 25.7231 86.9596 24.9377C87.5218 23.9458 88.3246 23.4814 89.3681 23.5445ZM89.8506 26.6994C89.7017 25.8034 89.4995 25.3477 89.244 25.3323C88.8074 25.3059 88.5226 25.7749 88.3895 26.7393L89.8506 26.6994ZM95.8226 33.3279C94.9282 33.2738 94.268 32.8812 93.842 32.1502C93.388 31.3533 93.1437 30.3554 93.1094 29.1565C93.1054 28.8678 93.1118 28.585 93.1286 28.3081C93.1897 27.2967 93.4167 26.37 93.8096 25.5282C94.3231 24.4585 95.0292 23.9135 95.9281 23.893C96.3027 23.8836 96.6765 23.9757 97.0495 24.1692C97.4338 24.3527 97.7281 24.611 97.9324 24.9439C98.3483 25.6636 98.5704 26.4091 98.5986 27.1802C98.607 27.3944 98.5955 27.5861 98.5639 27.7551C98.5303 27.9561 98.3982 28.1084 98.1676 28.212C97.9375 28.305 97.6841 28.3431 97.4073 28.3264C97.1198 28.309 96.921 28.2382 96.811 28.114C96.6403 27.9327 96.5469 27.6225 96.5307 27.1834C96.5248 26.5739 96.5131 26.2366 96.4957 26.1714C96.4292 25.8575 96.2309 25.6906 95.9008 25.6706C95.7517 25.6616 95.6066 25.9414 95.4654 26.5099C95.3354 27.0684 95.2476 27.7256 95.2019 28.4816C95.1498 29.344 95.1705 30.0612 95.2642 30.6332C95.374 31.2917 95.562 31.629 95.8281 31.6451C96.105 31.6619 96.3734 31.4644 96.6334 31.0526C96.8695 30.6822 96.9959 30.3586 97.0126 30.0818C97.0435 29.5707 97.3624 29.3335 97.9693 29.3702C98.2461 29.3869 98.4868 29.4709 98.6914 29.6222C98.896 29.7735 99.0019 29.9669 99.009 30.2024C99.0138 30.2989 98.8956 30.575 98.6544 31.0306C97.788 32.6345 96.8441 33.4003 95.8226 33.3279ZM100.116 24.4027C100.297 24.2426 100.579 24.1742 100.962 24.1973C101.366 24.2218 101.712 24.3335 101.999 24.5326C102.287 24.7316 102.422 24.9695 102.405 25.2464C102.403 25.2783 102.383 25.3412 102.346 25.4351C102.319 25.5296 102.28 25.6289 102.231 25.7328C102.193 25.8373 102.142 25.9678 102.08 26.1243L101.984 27.9779C102.906 27.5635 103.719 27.3775 104.422 27.42C104.613 27.4316 104.808 27.4861 105.005 27.5835C105.213 27.6709 105.397 27.8103 105.557 28.0016C105.727 28.1829 105.863 28.4155 105.963 28.6994C106.064 28.9726 106.103 29.3009 106.08 29.6842C106.038 30.3763 105.852 30.9848 105.521 31.5098C105.19 32.0348 104.789 32.4754 104.319 32.8317C103.859 33.1886 103.373 33.4531 102.86 33.6251C102.348 33.7971 101.884 33.8706 101.469 33.8455C101.319 33.8365 101.125 33.782 100.885 33.682C100.656 33.5827 100.433 33.4677 100.217 33.3371C100 33.2064 99.8105 33.0774 99.6472 32.95C99.4952 32.8125 99.4215 32.7066 99.426 32.632C99.435 32.483 99.5158 32.2955 99.6684 32.0696L100.066 25.4897C99.9884 25.1857 99.9546 24.9486 99.9649 24.7782C99.9752 24.6079 100.026 24.4827 100.116 24.4027ZM101.7 32.1444C101.894 32.1133 102.124 32.0097 102.392 31.8335C102.67 31.6473 102.934 31.4336 103.184 31.1922C103.434 30.9402 103.648 30.6752 103.825 30.3974C104.013 30.1202 104.114 29.8645 104.128 29.6303C104.139 29.4493 104.114 29.3249 104.054 29.2572C104.005 29.1794 103.906 29.136 103.757 29.127C103.491 29.1109 103.178 29.1721 102.817 29.3106C102.456 29.4491 102.131 29.6111 101.842 29.7966L101.7 32.1444ZM109.678 21.6306C109.695 21.7065 109.701 21.7816 109.696 21.8562C109.69 21.9626 109.643 22.1201 109.555 22.3285C109.469 22.5263 109.421 22.6944 109.413 22.8328L109.092 28.1352C109.083 28.2949 109.107 28.5154 109.164 28.7967C109.233 29.0787 109.264 29.2782 109.256 29.3954C109.244 29.5977 109.149 29.7575 108.971 29.875C108.804 29.9825 108.593 30.0285 108.338 30.013C107.784 29.9796 107.37 29.7622 107.095 29.3608C107.007 29.2273 106.967 29.0807 106.977 28.9209C106.98 28.8677 106.997 28.7725 107.026 28.6354C107.057 28.4876 107.069 28.3655 107.064 28.269C107.049 26.9323 107.084 25.556 107.17 24.1399C107.281 22.2979 107.422 21.2912 107.593 21.1199C107.718 20.9886 107.989 20.9354 108.404 20.9605C109.171 21.0069 109.595 21.2303 109.678 21.6306ZM109.07 31.6923C109.116 31.8126 109.135 31.942 109.126 32.0804C109.12 32.1762 109.09 32.3293 109.034 32.5397C108.99 32.7507 108.964 32.9148 108.956 33.0319C108.958 33.0106 108.964 33.1713 108.975 33.5139C108.975 33.6956 108.929 33.8477 108.836 33.9703C108.707 34.1549 108.483 34.2375 108.163 34.2182C107.61 34.1847 107.201 33.973 106.936 33.5829C106.867 33.472 106.84 33.3047 106.854 33.0811C106.859 32.9959 106.881 32.8049 106.92 32.5081C106.958 32.2432 106.976 32.0252 106.976 31.8542C106.978 31.8223 106.969 31.7095 106.948 31.5159C106.924 31.3862 106.936 31.2748 106.985 31.1815C107.082 30.9844 107.328 30.8977 107.722 30.9215C108.446 30.9653 108.895 31.2222 109.07 31.6923Z" fill="#797979"/>
</svg>
