<svg width="119" height="122" viewBox="0 0 119 122" fill="none" xmlns="http://www.w3.org/2000/svg">
<path d="M37.2824 101.379L37.2227 73.8604L60.6352 87.3776L37.2824 101.379Z" fill="#C1262D"/>
<rect x="43.1641" y="5.08997" width="84.0419" height="64.0599" rx="32.0299" transform="rotate(30 43.1641 5.08997)" fill="#C1262D"/>
<rect x="46.1016" y="0.000488281" width="84.0419" height="64.0599" rx="32.0299" transform="rotate(30 46.1016 0.000488281)" fill="#E0252E"/>
<path d="M81.1073 41.9259C78.2402 40.2706 72.9927 41.616 69.9762 42.6928C69.4005 39.5421 67.942 34.3249 65.0748 32.6696C59.9997 29.7394 54.7514 32.0376 51.8149 37.1238C48.5619 42.7581 50.4625 51.8079 57.5169 64.273C71.8392 64.1497 80.5578 61.3905 83.6726 55.9955C86.6091 50.9093 86.1825 44.8561 81.1073 41.9259Z" fill="white"/>
<path d="M40.3253 94.0477L40.2656 66.5289L63.6781 80.0462L40.3253 94.0477Z" fill="#E0252E"/>
</svg>
