<svg width="274" height="199" viewBox="0 0 274 199" fill="none" xmlns="http://www.w3.org/2000/svg">
<path d="M148.419 147.439L157.479 118.676L128.572 125.159L148.419 147.439Z" fill="#C1262D"/>
<rect width="236.261" height="69.4318" rx="34.7159" transform="matrix(-0.97576 0.218841 0.218841 0.97576 242.373 31.1543)" fill="#C1262D"/>
<rect width="236.261" height="70.3961" rx="35.1981" transform="matrix(-0.97576 0.218841 0.218841 0.97576 240.896 24.5679)" fill="#E0252E"/>
<path d="M147.634 138.775L156.693 110.012L127.786 116.495L147.634 138.775Z" fill="#E0252E"/>
<path d="M68.8206 96.9062C68.9262 97.5006 69.024 98.1012 69.114 98.7083C69.2109 99.3046 69.2687 99.8912 69.2874 100.468C69.3148 101.043 69.2861 101.594 69.2013 102.12C69.1252 102.644 68.9616 103.128 68.7106 103.572C68.4684 104.014 68.126 104.4 67.6834 104.73C67.2409 105.059 66.6669 105.317 65.9614 105.503L65.3357 103.762C65.9522 103.55 66.4042 103.282 66.6915 102.96C66.9769 102.628 67.1493 102.184 67.2088 101.626C67.2846 100.936 67.2531 100.076 67.1144 99.0461C66.9825 98.0057 66.7758 96.8575 66.4941 95.6017L72.7251 94.2042L74.7726 103.333L72.7175 103.794L71.0601 96.404L68.8206 96.9062Z" fill="white"/>
<path d="M81.6693 98.9779C81.5446 99.6146 81.3841 100.153 81.1877 100.594C80.9894 101.026 80.7646 101.381 80.5133 101.658C80.262 101.936 79.9915 102.149 79.7018 102.297C79.4122 102.445 79.1093 102.554 78.7931 102.625C78.4945 102.692 78.1759 102.731 77.8371 102.743C77.5091 102.761 77.1928 102.749 76.8882 102.707L76.8877 100.977C77.3535 101.039 77.7971 101.022 78.2187 100.928C78.4909 100.867 78.7362 100.747 78.9546 100.569C79.1817 100.389 79.3641 100.071 79.5018 99.6162C79.0157 99.1349 78.5398 98.6374 78.0741 98.1239C77.6152 97.5995 77.1725 97.0854 76.7458 96.5816C76.326 96.0669 75.9297 95.5747 75.5568 95.1049C75.1908 94.6243 74.8619 94.1862 74.5702 93.7904L76.8492 93.2793C77.0665 93.5902 77.3029 93.9246 77.5584 94.2824C77.8208 94.6294 78.0958 94.9921 78.3835 95.3703C78.6693 95.7397 78.9561 96.1135 79.2438 96.4917C79.5384 96.8592 79.8222 97.2199 80.0953 97.5737C80.203 96.7378 80.2936 95.8874 80.3671 95.0223C80.4405 94.1572 80.5062 93.2985 80.5641 92.4461L82.764 91.9527C82.6874 92.6801 82.6052 93.3627 82.5177 94.0003C82.4301 94.638 82.34 95.2439 82.2474 95.8181C82.1548 96.3923 82.0563 96.9402 81.9519 97.4617C81.8562 97.9813 81.762 98.4866 81.6693 98.9779Z" fill="white"/>
<path d="M86.6119 93.9122C86.6927 94.2723 86.8026 94.5567 86.9416 94.7653C87.0787 94.9652 87.241 95.1132 87.4287 95.2095C87.6251 95.3038 87.8434 95.3517 88.0835 95.3532C88.3217 95.3459 88.5769 95.3117 88.8492 95.2507C89.0599 95.2034 89.2819 95.1444 89.5151 95.0736C89.7571 95.0009 90.0014 94.9184 90.2483 94.8262L89.2762 90.4922L91.3313 90.0313L93.3787 99.1604L91.3237 99.6213L90.6382 96.5651C90.3475 96.6672 90.0636 96.7585 89.7865 96.8391C89.5094 96.9197 89.2435 96.9886 88.9889 97.0457C88.4356 97.1698 87.9198 97.2347 87.4414 97.2406C86.9699 97.2356 86.5475 97.1413 86.1742 96.9575C85.799 96.7649 85.4752 96.4732 85.2031 96.0822C84.9377 95.6806 84.7302 95.146 84.5805 94.4785L83.9542 91.6858L86.0092 91.2249L86.6119 93.9122Z" fill="white"/>
<path d="M107.338 96.0296L96.0093 98.5704L93.9618 89.4413L96.0169 88.9804L97.6743 96.3707L100.256 95.7916L98.5989 88.4013L100.654 87.9404L102.311 95.3307L104.893 94.7516L103.236 87.3613L105.291 86.9004L107.338 96.0296Z" fill="white"/>
<path d="M116.079 94.0692C115.912 93.7747 115.729 93.4744 115.531 93.1682C115.342 92.8601 115.153 92.552 114.964 92.2439L111.408 93.0416C111.368 93.4009 111.324 93.7612 111.276 94.1225C111.237 94.4818 111.205 94.8304 111.179 95.1683L109.045 95.6469C109.167 94.5864 109.288 93.6046 109.408 92.7014C109.528 91.7981 109.651 90.9451 109.775 90.1424C109.908 89.3377 110.041 88.5746 110.175 87.8529C110.315 87.1204 110.468 86.4035 110.633 85.7023L112.596 85.2621C113.036 85.8274 113.476 86.4113 113.916 87.0138C114.353 87.6074 114.8 88.2406 115.255 88.9133C115.719 89.5841 116.198 90.3021 116.693 91.0675C117.187 91.8329 117.716 92.669 118.279 93.5758L116.079 94.0692ZM112.032 87.5607C112.018 87.7023 111.992 87.8971 111.956 88.1452C111.919 88.3932 111.877 88.6793 111.83 89.0035C111.783 89.3277 111.729 89.6856 111.67 90.0772C111.619 90.4668 111.567 90.875 111.515 91.3017L114.111 90.7197C113.881 90.356 113.661 90.0089 113.448 89.6783C113.236 89.3478 113.034 89.047 112.844 88.776C112.663 88.503 112.503 88.2622 112.364 88.0536C112.225 87.8449 112.115 87.6807 112.032 87.5607Z" fill="white"/>
<path d="M122.426 84.8146C122.162 84.8737 121.913 84.9528 121.677 85.0519C121.447 85.1402 121.251 85.2533 121.088 85.3913C120.924 85.5205 120.803 85.6813 120.726 85.8738C120.648 86.0575 120.636 86.2722 120.691 86.5181C120.795 86.9836 121.03 87.2677 121.394 87.3705C121.767 87.4713 122.279 87.4488 122.929 87.3031L123.785 87.111L123.232 84.6476C123.125 84.6624 123.01 84.6837 122.887 84.7112C122.764 84.7388 122.61 84.7733 122.426 84.8146ZM122.122 83.0287C122.491 82.946 122.926 82.8714 123.428 82.8051C123.938 82.7367 124.447 82.701 124.954 82.6981L126.957 91.6297L124.902 92.0906L124.166 88.8104L123.534 88.9522C123.419 88.9778 123.31 89.0024 123.204 89.0261C123.099 89.0497 122.97 89.0695 122.816 89.0854C122.615 89.5456 122.406 90.1137 122.189 90.7897C121.978 91.4549 121.793 92.1328 121.635 92.8233L119.461 93.3108C119.538 92.9152 119.625 92.5221 119.722 92.1314C119.828 91.7388 119.937 91.3637 120.051 91.0062C120.165 90.6487 120.28 90.3185 120.396 90.0156C120.511 89.704 120.62 89.4304 120.724 89.1949C120.511 89.1504 120.292 89.0796 120.068 88.9824C119.85 88.8745 119.643 88.7363 119.449 88.5677C119.254 88.3992 119.078 88.1897 118.92 87.9391C118.77 87.6778 118.654 87.3671 118.573 87.007C118.461 86.5064 118.459 86.0456 118.567 85.6247C118.685 85.2017 118.895 84.8225 119.198 84.4871C119.509 84.1497 119.911 83.8614 120.401 83.6222C120.899 83.3723 121.472 83.1745 122.122 83.0287Z" fill="white"/>
<path d="M136.359 89.6455C135.858 89.7578 135.353 89.8525 134.845 89.9297C134.347 90.0136 133.818 90.0586 133.256 90.0646L131.271 81.212C131.675 81.0385 132.123 80.878 132.616 80.7306C133.107 80.5744 133.567 80.448 133.997 80.3515C134.577 80.2215 135.118 80.1463 135.621 80.1258C136.13 80.0945 136.584 80.1405 136.98 80.2637C137.377 80.3869 137.709 80.5937 137.977 80.8841C138.252 81.1637 138.444 81.5451 138.552 82.0281C138.715 82.757 138.493 83.411 137.885 83.9902C138.514 84.0797 138.976 84.2897 139.272 84.62C139.567 84.9504 139.768 85.3527 139.874 85.8269C140.089 86.7842 139.899 87.5831 139.305 88.2237C138.72 88.8624 137.737 89.3363 136.359 89.6455ZM134.399 85.782L134.928 88.1401C135.081 88.1241 135.247 88.1009 135.424 88.0703C135.602 88.0397 135.796 88.0007 136.007 87.9534C136.622 87.8156 137.098 87.6165 137.436 87.3561C137.774 87.0958 137.89 86.7285 137.784 86.2542C137.69 85.8327 137.464 85.5695 137.109 85.4648C136.751 85.3513 136.278 85.3605 135.69 85.4925L134.399 85.782ZM134.047 84.2144L135.049 83.9898C135.681 83.848 136.115 83.6676 136.352 83.4484C136.587 83.2205 136.664 82.9265 136.583 82.5664C136.501 82.1976 136.302 81.97 135.988 81.8837C135.673 81.7975 135.244 81.8154 134.699 81.9375C134.523 81.9769 134.336 82.0236 134.136 82.0777C133.934 82.123 133.755 82.1722 133.601 82.2252L134.047 84.2144Z" fill="white"/>
<path d="M148.413 86.8174L146.358 87.2783L144.311 78.1491L150.542 76.7517L150.932 78.4905L146.756 79.4271L148.413 86.8174Z" fill="white"/>
<path d="M155.086 80.5198C155.186 80.9677 155.33 81.3599 155.516 81.6963C155.711 82.0308 155.939 82.3071 156.2 82.5253C156.468 82.7327 156.767 82.8732 157.097 82.9467C157.427 83.0202 157.785 83.0137 158.172 82.927C158.549 82.8423 158.872 82.6962 159.139 82.4888C159.415 82.2793 159.625 82.0246 159.77 81.7246C159.921 81.4139 160.01 81.0666 160.034 80.6829C160.068 80.2972 160.034 79.8805 159.934 79.4326C159.833 78.9847 159.686 78.5935 159.491 78.259C159.303 77.9138 159.075 77.6375 158.807 77.4301C158.546 77.2119 158.246 77.067 157.907 76.9955C157.577 76.9219 157.223 76.9275 156.845 77.0122C156.459 77.0988 156.133 77.2503 155.868 77.4666C155.601 77.6741 155.391 77.9332 155.24 78.2439C155.095 78.5439 155.007 78.8911 154.975 79.2856C154.95 79.6693 154.987 80.0807 155.086 80.5198ZM162.055 78.9569C162.23 79.7385 162.266 80.4545 162.163 81.1049C162.066 81.7445 161.862 82.3116 161.548 82.8062C161.233 83.292 160.817 83.6989 160.3 84.027C159.792 84.3531 159.217 84.588 158.576 84.7318C157.953 84.8716 157.342 84.9026 156.743 84.8247C156.145 84.7468 155.595 84.5565 155.093 84.2539C154.59 83.9425 154.154 83.5192 153.785 82.9839C153.413 82.4399 153.14 81.7771 152.965 80.9955C152.79 80.2139 152.759 79.5013 152.873 78.8577C152.985 78.2054 153.202 77.6309 153.524 77.1344C153.855 76.6358 154.27 76.2245 154.769 75.9004C155.277 75.5743 155.834 75.3433 156.44 75.2074C157.064 75.0676 157.675 75.0366 158.273 75.1145C158.872 75.1924 159.423 75.3871 159.926 75.6985C160.43 76.0099 160.867 76.4376 161.238 76.9816C161.607 77.5168 161.879 78.1753 162.055 78.9569Z" fill="white"/>
<path d="M165.989 73.1766C167.35 72.8713 168.449 72.8784 169.287 73.198C170.122 73.5087 170.662 74.2086 170.906 75.2976C171.152 76.3954 170.961 77.2729 170.334 77.9302C169.705 78.5786 168.705 79.0565 167.335 79.3638L166.689 79.5085L167.375 82.5648L165.32 83.0257L163.302 74.0283C163.73 73.84 164.191 73.6721 164.683 73.5247C165.176 73.3773 165.611 73.2613 165.989 73.1766ZM166.513 74.8991C166.364 74.9326 166.216 74.9705 166.069 75.0127C165.93 75.053 165.809 75.0894 165.706 75.1218L166.296 77.7565L166.942 77.6117C167.653 77.4522 168.167 77.2354 168.484 76.9615C168.801 76.6875 168.9 76.287 168.782 75.7601C168.725 75.5054 168.629 75.3055 168.495 75.1603C168.37 75.0131 168.209 74.9109 168.011 74.8537C167.821 74.7858 167.599 74.7618 167.345 74.7818C167.089 74.793 166.812 74.8321 166.513 74.8991Z" fill="white"/>
<path d="M175.025 76.0479C175.125 76.4958 175.269 76.888 175.455 77.2244C175.65 77.5589 175.878 77.8352 176.139 78.0534C176.407 78.2608 176.706 78.4013 177.036 78.4748C177.366 78.5484 177.724 78.5418 178.111 78.4551C178.488 78.3704 178.811 78.2243 179.078 78.0169C179.354 77.8074 179.564 77.5527 179.709 77.2527C179.861 76.942 179.949 76.5947 179.973 76.211C180.007 75.8253 179.973 75.4086 179.873 74.9607C179.772 74.5128 179.625 74.1216 179.43 73.7871C179.242 73.4419 179.014 73.1656 178.746 72.9582C178.485 72.74 178.185 72.5951 177.846 72.5236C177.516 72.45 177.162 72.4556 176.784 72.5403C176.398 72.6269 176.072 72.7784 175.807 72.9947C175.54 73.2022 175.33 73.4613 175.179 73.772C175.034 74.072 174.946 74.4192 174.914 74.8137C174.89 75.1974 174.927 75.6088 175.025 76.0479ZM181.994 74.485C182.169 75.2666 182.205 75.9826 182.102 76.633C182.006 77.2726 181.801 77.8397 181.487 78.3343C181.172 78.8201 180.756 79.227 180.239 79.5551C179.731 79.8812 179.157 80.1161 178.516 80.2599C177.892 80.3997 177.281 80.4307 176.682 80.3528C176.084 80.2749 175.534 80.0846 175.032 79.782C174.529 79.4706 174.093 79.0473 173.724 78.512C173.353 77.968 173.079 77.3052 172.904 76.5236C172.729 75.742 172.698 75.0294 172.812 74.3858C172.924 73.7335 173.141 73.159 173.463 72.6625C173.794 72.1639 174.209 71.7526 174.708 71.4285C175.216 71.1024 175.773 70.8714 176.379 70.7355C177.003 70.5957 177.614 70.5647 178.213 70.6426C178.811 70.7205 179.362 70.9152 179.866 71.2266C180.369 71.538 180.806 71.9657 181.177 72.5097C181.546 73.0449 181.818 73.7034 181.994 74.485Z" fill="white"/>
<path d="M184.079 76.9922L185.396 76.6967C185.595 76.0618 185.724 75.447 185.785 74.8523C185.845 74.2577 185.855 73.6651 185.815 73.0746C185.783 72.482 185.709 71.8808 185.59 71.2709C185.481 70.659 185.351 70.0194 185.201 69.3519L185.122 68.9962L191.155 67.6431L192.812 75.0333L194.38 74.6818L195.317 78.8577L193.341 79.3009L192.794 76.8638L186.445 78.2879L186.991 80.7249L185.015 81.1681L184.079 76.9922ZM187.448 70.3008C187.537 70.779 187.615 71.2733 187.684 71.7837C187.752 72.2942 187.798 72.8051 187.82 73.3166C187.841 73.8194 187.828 74.3202 187.784 74.8191C187.745 75.3073 187.661 75.7736 187.53 76.2181L190.81 75.4824L189.543 69.831L187.448 70.3008Z" fill="white"/>
<path d="M196.618 76.0062L194.57 66.8771L200.736 65.4944L201.123 67.2201L197.013 68.1419L197.414 69.9335L201.063 69.1151L201.442 70.8013L197.793 71.6197L198.286 73.8196L202.699 72.8299L203.086 74.5556L196.618 76.0062Z" fill="white"/>
</svg>
