<svg width="20" height="20" viewBox="0 0 20 20" fill="none" xmlns="http://www.w3.org/2000/svg">
<path d="M8.57143 11.91V18.5798C8.57143 18.9589 8.42092 19.3224 8.15301 19.5905C7.8851 19.8585 7.52174 20.0091 7.14286 20.0091H3.80952C3.17806 20.0091 2.57245 19.7581 2.12594 19.3114C1.67942 18.8647 1.42857 18.2588 1.42857 17.627V11.91C1.42857 11.5309 1.57908 11.1674 1.84699 10.8994C2.1149 10.6313 2.47826 10.4807 2.85714 10.4807H7.14286C7.52174 10.4807 7.8851 10.6313 8.15301 10.8994C8.42092 11.1674 8.57143 11.5309 8.57143 11.91ZM11.4286 11.91V18.5798C11.4286 18.9589 11.5791 19.3224 11.847 19.5905C12.1149 19.8585 12.4783 20.0091 12.8571 20.0091H16.1905C16.8219 20.0091 17.4275 19.7581 17.8741 19.3114C18.3206 18.8647 18.5714 18.2588 18.5714 17.627V11.91C18.5714 11.5309 18.4209 11.1674 18.153 10.8994C17.8851 10.6313 17.5217 10.4807 17.1429 10.4807H12.8571C12.4783 10.4807 12.1149 10.6313 11.847 10.8994C11.5791 11.1674 11.4286 11.5309 11.4286 11.91ZM18.5714 3.33447H12.381L13.6619 2.04338C13.8867 1.821 14.014 1.51838 14.0158 1.2021C14.0176 0.885813 13.8937 0.581774 13.6714 0.356864C13.4492 0.131955 13.1467 0.00459794 12.8305 0.00281103C12.5144 0.00102412 12.2105 0.124953 11.9857 0.347336L10 2.35305L8.01429 0.347336C7.79075 0.12369 7.48756 -0.00195313 7.17143 -0.00195312C6.8553 -0.00195312 6.55211 0.12369 6.32857 0.347336C6.10503 0.570982 5.97945 0.874311 5.97945 1.19059C5.97945 1.50688 6.10503 1.81021 6.32857 2.03385L7.61905 3.33447H1.42857C1.04969 3.33447 0.686328 3.48505 0.418419 3.75309C0.15051 4.02113 0 4.38466 0 4.76372L0 7.14581C0 7.52487 0.15051 7.88841 0.418419 8.15645C0.686328 8.42448 1.04969 8.57506 1.42857 8.57506H18.5714C18.9503 8.57506 19.3137 8.42448 19.5816 8.15645C19.8495 7.88841 20 7.52487 20 7.14581V4.76372C20 4.38466 19.8495 4.02113 19.5816 3.75309C19.3137 3.48505 18.9503 3.33447 18.5714 3.33447Z" fill="#F26C33"/>
</svg>
