<svg width="33" height="33" viewBox="0 0 33 33" fill="none" xmlns="http://www.w3.org/2000/svg">
<path d="M16.5 0C13.2366 0 10.0465 0.967708 7.3331 2.78075C4.61969 4.59379 2.50484 7.17074 1.256 10.1857C0.00714922 13.2007 -0.319606 16.5183 0.31705 19.719C0.953706 22.9197 2.52518 25.8597 4.83275 28.1673C7.14031 30.4748 10.0803 32.0463 13.281 32.683C16.4817 33.3196 19.7993 32.9929 22.8143 31.744C25.8293 30.4952 28.4062 28.3803 30.2193 25.6669C32.0323 22.9535 33 19.7634 33 16.5C33 12.1239 31.2616 7.92709 28.1673 4.83274C25.0729 1.73839 20.8761 0 16.5 0V0ZM24.0006 13.3444L15.7506 21.5944C15.493 21.8505 15.1445 21.9942 14.7813 21.9942C14.418 21.9942 14.0695 21.8505 13.8119 21.5944L8.99938 16.7819C8.77412 16.5188 8.65641 16.1805 8.66978 15.8344C8.68315 15.4884 8.8266 15.1601 9.07148 14.9152C9.31636 14.6703 9.64463 14.5269 9.99068 14.5135C10.3367 14.5002 10.6751 14.6179 10.9381 14.8431L14.7813 18.6794L22.0619 11.4056C22.3249 11.1804 22.6633 11.0627 23.0093 11.076C23.3554 11.0894 23.6837 11.2328 23.9285 11.4777C24.1734 11.7226 24.3169 12.0509 24.3302 12.3969C24.3436 12.743 24.2259 13.0813 24.0006 13.3444Z" fill="#F26C33"/>
</svg>
