<svg width="33" height="33" viewBox="0 0 33 33" fill="none" xmlns="http://www.w3.org/2000/svg">
<circle cx="16.5" cy="16.5" r="16.5" fill="#F26C33"/>
<path d="M20.4873 9.99867C21.0441 9.44625 21.9453 9.44479 22.5007 9.99604L22.9979 10.4895C23.1306 10.6208 23.2358 10.7771 23.3077 10.9493C23.3796 11.1215 23.4166 11.3063 23.4166 11.4929C23.4167 11.6795 23.3798 11.8643 23.308 12.0365C23.2362 12.2088 23.1311 12.3651 22.9985 12.4965L19.5023 15.9994L22.9977 19.5015C23.1304 19.6329 23.2357 19.7893 23.3077 19.9617C23.3796 20.134 23.4167 20.3189 23.4168 20.5057C23.4169 20.6925 23.38 20.8774 23.3083 21.0499C23.2366 21.2223 23.1314 21.3789 22.9988 21.5105L22.5018 22.004C21.9456 22.5558 21.0449 22.5535 20.4864 21.9993L16.9998 18.5066L13.5115 22.0013C12.955 22.5535 12.0543 22.5555 11.4981 22.004L11.0011 21.5105C10.8687 21.3791 10.7636 21.2228 10.6918 21.0506C10.6201 20.8784 10.5831 20.6937 10.583 20.5072C10.5829 20.3206 10.6198 20.1359 10.6914 19.9636C10.763 19.7914 10.8679 19.635 11.0002 19.5035L14.4973 15.9997L11.0032 12.4985C10.8703 12.3672 10.7647 12.2109 10.6926 12.0385C10.6206 11.8661 10.5834 11.6812 10.5832 11.4943C10.5831 11.3075 10.62 11.1225 10.6918 10.95C10.7637 10.7776 10.869 10.621 11.0017 10.4895L11.499 9.99604C12.0543 9.44479 12.9556 9.44625 13.5144 10.0007L16.9998 13.4928L20.4873 9.99867Z" fill="white"/>
</svg>
