<svg xmlns="http://www.w3.org/2000/svg"><defs>
<clipPath id="clip0">
<rect width="46" height="46" fill="white"/>
</clipPath>
</defs><symbol id="about-item-1" viewBox="0 0 62 62">
<path d="M46.5 10.3337H43.9167V7.75033C43.9167 7.06518 43.6445 6.4081 43.16 5.92363C42.6756 5.43916 42.0185 5.16699 41.3333 5.16699C40.6482 5.16699 39.9911 5.43916 39.5066 5.92363C39.0222 6.4081 38.75 7.06518 38.75 7.75033V10.3337H23.25V7.75033C23.25 7.06518 22.9778 6.4081 22.4934 5.92363C22.0089 5.43916 21.3518 5.16699 20.6667 5.16699C19.9815 5.16699 19.3244 5.43916 18.84 5.92363C18.3555 6.4081 18.0833 7.06518 18.0833 7.75033V10.3337H15.5C13.4446 10.3337 11.4733 11.1502 10.0199 12.6036C8.56652 14.057 7.75 16.0282 7.75 18.0837V49.0837C7.75 51.1391 8.56652 53.1103 10.0199 54.5637C11.4733 56.0171 13.4446 56.8337 15.5 56.8337H46.5C48.5554 56.8337 50.5267 56.0171 51.9801 54.5637C53.4335 53.1103 54.25 51.1391 54.25 49.0837V18.0837C54.25 16.0282 53.4335 14.057 51.9801 12.6036C50.5267 11.1502 48.5554 10.3337 46.5 10.3337ZM15.5 15.5003H18.0833V18.0837C18.0833 18.7688 18.3555 19.4259 18.84 19.9104C19.3244 20.3948 19.9815 20.667 20.6667 20.667C21.3518 20.667 22.0089 20.3948 22.4934 19.9104C22.9778 19.4259 23.25 18.7688 23.25 18.0837V15.5003H38.75V18.0837C38.75 18.7688 39.0222 19.4259 39.5066 19.9104C39.9911 20.3948 40.6482 20.667 41.3333 20.667C42.0185 20.667 42.6756 20.3948 43.16 19.9104C43.6445 19.4259 43.9167 18.7688 43.9167 18.0837V15.5003H46.5C47.1851 15.5003 47.8422 15.7725 48.3267 16.257C48.8112 16.7414 49.0833 17.3985 49.0833 18.0837V28.417H12.9167V18.0837C12.9167 17.3985 13.1888 16.7414 13.6733 16.257C14.1578 15.7725 14.8149 15.5003 15.5 15.5003ZM46.5 51.667H15.5C14.8149 51.667 14.1578 51.3948 13.6733 50.9104C13.1888 50.4259 12.9167 49.7688 12.9167 49.0837V33.5837H49.0833V49.0837C49.0833 49.7688 48.8112 50.4259 48.3267 50.9104C47.8422 51.3948 47.1851 51.667 46.5 51.667Z" fill="#EA97AD"/>
<path d="M20.6668 43.9167C22.0936 43.9167 23.2502 42.7601 23.2502 41.3333C23.2502 39.9066 22.0936 38.75 20.6668 38.75C19.2401 38.75 18.0835 39.9066 18.0835 41.3333C18.0835 42.7601 19.2401 43.9167 20.6668 43.9167Z" fill="#EA97AD"/>
<path d="M41.3332 38.75H30.9998C30.3147 38.75 29.6576 39.0222 29.1731 39.5066C28.6887 39.9911 28.4165 40.6482 28.4165 41.3333C28.4165 42.0185 28.6887 42.6756 29.1731 43.16C29.6576 43.6445 30.3147 43.9167 30.9998 43.9167H41.3332C42.0183 43.9167 42.6754 43.6445 43.1599 43.16C43.6443 42.6756 43.9165 42.0185 43.9165 41.3333C43.9165 40.6482 43.6443 39.9911 43.1599 39.5066C42.6754 39.0222 42.0183 38.75 41.3332 38.75Z" fill="#EA97AD"/>
</symbol><symbol id="about-item-2" viewBox="0 0 62 62">
<path d="M49.0829 53.6045L43.1154 30.3545C45.3217 27.6094 46.5166 24.1888 46.4995 20.667C46.4995 16.5561 44.8665 12.6137 41.9597 9.70684C39.0529 6.80002 35.1104 5.16699 30.9995 5.16699C26.8887 5.16699 22.9462 6.80002 20.0394 9.70684C17.1326 12.6137 15.4995 16.5561 15.4995 20.667C15.4925 24.216 16.7158 27.6578 18.9612 30.4062L12.9162 53.6045C12.7876 54.1003 12.8094 54.6232 12.9786 55.1066C13.1479 55.5901 13.457 56.0123 13.8668 56.3196C14.2766 56.627 14.7685 56.8056 15.28 56.8327C15.7915 56.8598 16.2996 56.7343 16.7395 56.472L30.5087 48.3862L45.182 56.4978C45.5785 56.7371 46.0369 56.8539 46.4995 56.8337C46.9007 56.8465 47.2993 56.7656 47.6637 56.5975C48.0282 56.4295 48.3484 56.1788 48.5992 55.8654C48.8499 55.552 49.0241 55.1846 49.1081 54.7921C49.192 54.3996 49.1834 53.993 49.0829 53.6045ZM30.9995 10.3337C33.0433 10.3337 35.0411 10.9397 36.7404 12.0751C38.4397 13.2106 39.7642 14.8244 40.5463 16.7126C41.3284 18.6008 41.533 20.6785 41.1343 22.6829C40.7356 24.6874 39.7515 26.5286 38.3063 27.9738C36.8612 29.4189 35.02 30.4031 33.0155 30.8018C31.011 31.2005 28.9333 30.9959 27.0452 30.2137C25.157 29.4316 23.5431 28.1072 22.4077 26.4079C21.2723 24.7086 20.6662 22.7107 20.6662 20.667C20.6662 17.9264 21.7549 15.2981 23.6928 13.3602C25.6307 11.4223 28.259 10.3337 30.9995 10.3337ZM31.8004 43.1678C31.4077 42.9411 30.9622 42.8217 30.5087 42.8217C30.0552 42.8217 29.6098 42.9411 29.217 43.1678L19.5295 48.8512L23.2495 34.1262C25.5761 35.4634 28.2127 36.1671 30.8962 36.1671C33.5797 36.1671 36.2163 35.4634 38.5429 34.1262L42.4954 49.0837L31.8004 43.1678Z" fill="#EA97AD"/>
</symbol><symbol id="about-item-3" viewBox="0 0 62 62">
<path d="M30.9998 5.16699C25.8905 5.16699 20.8959 6.68209 16.6476 9.52069C12.3993 12.3593 9.08822 16.3939 7.13296 21.1143C5.1777 25.8348 4.66611 31.029 5.6629 36.0402C6.65968 41.0513 9.12007 45.6544 12.7329 49.2673C16.3458 52.8801 20.9488 55.3405 25.96 56.3373C30.9712 57.3341 36.1654 56.8225 40.8858 54.8672C45.6063 52.912 49.6409 49.6008 52.4795 45.3526C55.3181 41.1043 56.8332 36.1097 56.8332 31.0003C56.8332 27.6078 56.165 24.2486 54.8667 21.1143C53.5685 17.9801 51.6656 15.1322 49.2668 12.7334C46.8679 10.3346 44.0201 8.43168 40.8858 7.13344C37.7516 5.83519 34.3923 5.16699 30.9998 5.16699ZM30.9998 51.667C26.9124 51.667 22.9167 50.4549 19.5181 48.184C16.1194 45.9132 13.4705 42.6855 11.9063 38.9091C10.3421 35.1328 9.93286 30.9774 10.7303 26.9685C11.5277 22.9595 13.496 19.2771 16.3863 16.3868C19.2766 13.4965 22.959 11.5282 26.968 10.7308C30.9769 9.93334 35.1323 10.3426 38.9086 11.9068C42.685 13.471 45.9127 16.1199 48.1835 19.5185C50.4544 22.9172 51.6665 26.9128 51.6665 31.0003C51.6665 36.4815 49.4891 41.7381 45.6134 45.6139C41.7376 49.4896 36.481 51.667 30.9998 51.667Z" fill="#EA97AD"/>
<path d="M40.5066 21.4941C40.1529 21.113 39.6925 20.8474 39.1855 20.7322C38.6785 20.617 38.1486 20.6574 37.6649 20.8482L26.7891 25.2399C26.4694 25.3698 26.1789 25.5625 25.9349 25.8065C25.6908 26.0505 25.4982 26.341 25.3683 26.6607L20.8474 37.6657C20.6871 38.0986 20.6456 38.5665 20.7274 39.0209C20.8092 39.4752 21.0112 39.8993 21.3124 40.2491H21.4416C21.6498 40.5469 21.9184 40.7975 22.23 40.9845C22.5416 41.1715 22.8892 41.2906 23.2499 41.3341C23.5858 41.3382 23.9192 41.2768 24.2316 41.1532L35.1074 36.7616C35.4272 36.6316 35.7176 36.439 35.9617 36.195C36.2057 35.9509 36.3984 35.6605 36.5283 35.3407L41.0491 24.3357C41.2526 23.862 41.3096 23.3382 41.2129 22.8318C41.1163 22.3254 40.8703 21.8595 40.5066 21.4941ZM27.8999 34.1266L29.7341 29.6316L34.0999 27.8749L32.2658 32.3699L27.8999 34.1266Z" fill="#EA97AD"/>
</symbol><symbol id="about-item-4" viewBox="0 0 46 46">
<g clip-path="url(#clip0)">
<path d="M38.8081 29.7813C39.3457 29.7813 39.8788 29.6868 40.4053 29.4976C44.0246 28.1969 45.8774 22.7421 45.9545 22.5106C46.0413 22.2495 46.0039 21.963 45.8528 21.7332C45.7016 21.5033 45.4535 21.3554 45.1794 21.3317C42.391 21.0912 40.1159 21.5451 38.4042 22.6822C38.5415 21.7706 38.6202 20.8946 38.6574 20.0727C38.6719 20.0728 38.6863 20.0729 38.7007 20.0729C39.9474 20.0729 41.019 19.6677 41.8944 18.8634C44.4966 16.4727 44.2625 11.3406 44.2513 11.1232C44.2366 10.8401 44.0891 10.5804 43.8534 10.4227C43.6176 10.2652 43.3212 10.2282 43.054 10.3228C40.5626 11.2056 39.0685 12.441 38.1772 13.6643C38.0574 13.0488 37.9382 12.5537 37.847 12.2065C38.5612 11.1658 38.814 10.0589 38.5985 8.90716C37.9867 5.63738 33.6505 3.32165 33.4662 3.22462C33.2219 3.09596 32.932 3.08698 32.6801 3.2C32.4282 3.31303 32.2422 3.53548 32.1757 3.80348C31.5179 6.45577 31.7286 8.66593 32.8021 10.3723C33.8652 12.0624 35.4734 12.7387 36.186 12.9663C36.4127 13.8944 36.756 15.5931 36.8583 17.6961C34.8885 15.3849 31.8531 14.0304 31.815 14.0191C31.5717 13.9466 31.3092 13.9805 31.092 14.1121C30.875 14.2439 30.7238 14.4614 30.676 14.7107C30.0596 17.9218 30.4455 20.5418 31.8228 22.4979C33.1981 24.451 35.1603 25.1345 35.9752 25.3435C35.9136 25.5489 34.8323 28.353 34.2579 29.3493C33.521 25.7312 29.7048 22.5599 29.5247 22.4121C29.3101 22.236 29.0261 22.1691 28.7554 22.2306C28.4847 22.2922 28.2576 22.4755 28.1403 22.727C26.7147 25.7853 26.439 28.5152 27.3208 30.8408C27.9878 32.6 29.176 33.7224 30.0535 34.3536C28.8461 35.3817 27.4824 36.31 25.9647 37.1367C26.2345 36.5271 26.4146 35.8509 26.4146 35.1321C26.4146 32.3236 23.6671 30.1667 23.5501 30.0764C23.2264 29.8261 22.7745 29.8261 22.4509 30.0764C22.3339 30.1667 19.5864 32.3235 19.5864 35.132C19.5864 35.8508 19.7665 36.5269 20.0363 37.1367C18.5186 36.3099 17.1548 35.3816 15.9474 34.3535C16.8249 33.7222 18.0131 32.5999 18.6801 30.8407C19.5619 28.515 19.2862 25.7851 17.8606 22.7269C17.7433 22.4752 17.5162 22.2919 17.2455 22.2304C16.9748 22.1689 16.6908 22.2359 16.4762 22.412C16.2961 22.5598 12.48 25.731 11.743 29.3491C11.1686 28.3527 10.0873 25.5488 10.0257 25.3433C10.8406 25.1343 12.8029 24.4508 14.1781 22.4978C15.5554 20.5417 15.9412 17.9216 15.3249 14.7105C15.277 14.4612 15.1259 14.2437 14.9089 14.1119C14.6919 13.9803 14.4291 13.9464 14.1859 14.0189C14.1479 14.0302 11.1125 15.3846 9.14261 17.696C9.24503 15.5927 9.58824 13.8941 9.815 12.9661C10.5276 12.7385 12.1358 12.0622 13.1989 10.3722C14.2723 8.66575 14.4831 6.45559 13.8253 3.8033C13.7588 3.53539 13.5728 3.31285 13.3209 3.19982C13.0691 3.0868 12.7791 3.09587 12.5348 3.22444C12.3506 3.32147 8.01435 5.63729 7.4026 8.90698C7.18707 10.0587 7.4398 11.1657 8.15406 12.2063C8.06287 12.5536 7.94365 13.0486 7.82388 13.6641C6.93263 12.4408 5.43853 11.2055 2.94706 10.3226C2.67987 10.2279 2.38338 10.265 2.14772 10.4226C1.91197 10.5802 1.76445 10.8399 1.7498 11.1231C1.73857 11.3404 1.50453 16.4726 4.10668 18.8632C4.98221 19.6676 6.05351 20.0727 7.30036 20.0727C7.31474 20.0727 7.3292 20.0726 7.34358 20.0725C7.38077 20.8944 7.45948 21.7703 7.59685 22.682C5.88505 21.5449 3.61038 21.0908 0.821627 21.3316C0.547513 21.3553 0.299364 21.5032 0.148247 21.7331C-0.00296082 21.963 -0.0404257 22.2494 0.0465432 22.5105C0.123629 22.742 1.97639 28.1968 5.59566 29.4975C6.12224 29.6868 6.65519 29.7812 7.19291 29.7812C7.98875 29.7812 8.79474 29.5742 9.60459 29.1611C9.84816 29.6512 11.0715 31.6609 11.4373 32.1559C9.36524 31.8597 6.67604 32.2708 3.34229 34.2952C3.10815 34.4374 2.95165 34.6786 2.91733 34.9503C2.88292 35.222 2.97438 35.4947 3.16574 35.6906C3.36116 35.8909 7.79037 40.3751 12.1661 40.3751C12.3854 40.3751 12.6049 40.3638 12.8234 40.34C14.5906 40.1489 16.0575 39.202 17.188 37.5244C18.239 38.2167 19.3712 38.8535 20.5835 39.4344C19.5628 39.7712 18.4957 40.0764 17.3827 40.3495C16.9009 40.4677 16.606 40.9543 16.7244 41.4362C16.825 41.8463 17.1921 42.1207 17.5962 42.1207C17.6671 42.1207 17.7391 42.1122 17.8111 42.0946C19.6594 41.641 21.3898 41.1015 23.0007 40.4773C24.6116 41.1015 26.3421 41.641 28.1902 42.0946C28.2622 42.1122 28.3343 42.1207 28.4051 42.1207C28.8093 42.1207 29.1764 41.8461 29.277 41.4362C29.3952 40.9543 29.1005 40.4678 28.6186 40.3495C27.5056 40.0764 26.4386 39.7712 25.4178 39.4344C26.6302 38.8535 27.7624 38.2167 28.8134 37.5244C29.9438 39.202 31.4108 40.1488 33.1779 40.34C33.3968 40.3638 33.6157 40.3751 33.8352 40.3751C38.2107 40.3751 42.6401 35.891 42.8356 35.6906C43.027 35.4946 43.1184 35.222 43.084 34.9503C43.0496 34.6786 42.8931 34.4374 42.6591 34.2952C39.3253 32.2708 36.6362 31.8597 34.564 32.1559C34.9295 31.6609 36.1529 29.6512 36.3965 29.1611C37.2064 29.5743 38.0122 29.7813 38.8081 29.7813ZM42.4359 12.5203C42.329 14.1221 41.9089 16.412 40.6766 17.5421C40.1431 18.0313 39.4938 18.2736 38.7036 18.2755C38.5576 17.0827 38.6855 14.3259 42.4359 12.5203ZM38.6205 24.8103C39.8818 23.748 41.5201 23.0653 43.767 23.0653C43.7795 23.0653 43.7918 23.0653 43.8044 23.0654C43.0616 24.7228 41.633 27.147 39.7977 27.8065C38.9676 28.105 38.1145 28.0228 37.2014 27.5544C37.2254 27.391 37.7731 25.5239 38.6205 24.8103ZM36.4126 11.1182C36.4058 11.1218 36.3989 11.1255 36.3922 11.1292C35.8327 10.8958 34.9388 10.3941 34.3231 9.41531C33.6779 8.38975 33.4634 7.06365 33.6814 5.46236C34.9221 6.31561 36.5536 7.74026 36.8327 9.24003C36.9521 9.88205 36.8145 10.5007 36.4126 11.1182ZM7.29785 18.2755C6.50758 18.2736 5.85801 18.0313 5.32442 17.5421C4.09213 16.4121 3.67202 14.1221 3.5651 12.5203C7.31842 14.3274 7.44366 17.0865 7.29785 18.2755ZM6.20579 27.8074C4.37576 27.1514 2.9441 24.7248 2.1984 23.0654C2.21016 23.0653 2.2222 23.0653 2.23397 23.0653C4.48061 23.0653 6.20858 23.6503 7.3805 24.8103C7.95568 25.3796 8.30895 26.0039 8.52206 26.5433C8.56689 26.6766 8.7756 27.3909 8.79968 27.5544C7.88767 28.0224 7.03523 28.1047 6.20579 27.8074ZM9.16831 9.24003C9.44736 7.74035 11.0789 6.31561 12.3196 5.46236C12.536 7.05206 12.3261 8.3707 11.6918 9.39321C11.0744 10.3882 10.1676 10.896 9.60396 11.1307C9.6001 11.1285 9.59632 11.1265 9.59237 11.1244C9.18735 10.5049 9.04846 9.88412 9.16831 9.24003ZM9.37908 20.9116C9.76487 18.9296 12.1515 17.212 13.7441 16.2697C13.972 18.4043 13.6305 20.1399 12.7246 21.4409C11.8348 22.7187 10.5806 23.284 9.88724 23.5118C9.59075 23.0438 9.17954 21.9369 9.37908 20.9116ZM12.6328 38.5534C9.91221 38.8482 6.8037 36.5192 5.32335 35.2387C7.93754 33.8751 10.2472 33.627 12.2951 34.1967C13.9507 34.6572 15.3805 36.4081 15.5709 36.7026C14.7657 37.8194 13.8007 38.4262 12.6328 38.5534ZM14.6011 33.0942C14.5624 33.0575 13.4658 31.9956 13.4177 30.5749C13.3402 28.2886 15.47 25.871 16.7139 24.6352C17.4965 26.7465 17.5966 28.607 17.0095 30.1782C16.4204 31.7549 15.2528 32.6795 14.6011 33.0942ZM23.002 38.2636C22.3601 37.6154 21.3833 36.4177 21.3833 35.132C21.3833 33.8371 22.3585 32.6439 23.0004 31.9988C23.6428 32.6444 24.6176 33.8372 24.6176 35.132C24.6176 36.4258 23.644 37.6181 23.002 38.2636ZM28.9915 30.1782C28.4044 28.6071 28.5045 26.7466 29.2871 24.6353C30.5311 25.871 32.616 28.2875 32.5833 30.575C32.5711 31.4275 32.2563 32.1831 31.6251 32.8663C31.5875 32.9058 31.5499 32.9454 31.5119 32.9846C31.4755 33.0214 31.4383 33.0578 31.4 33.0941C30.7468 32.6784 29.5801 31.754 28.9915 30.1782ZM40.684 35.242C38.9965 36.7011 35.9193 38.83 33.3711 38.5536C32.2019 38.4271 31.2361 37.8203 30.4302 36.7025C30.6206 36.408 32.2545 34.6684 33.7059 34.1966C35.7292 33.539 38.0672 33.8757 40.684 35.242ZM33.292 21.4632C32.3744 20.1598 32.0277 18.4165 32.2569 16.2695C33.8495 17.2119 36.1248 18.9545 36.6219 20.9115C36.8215 21.6973 36.4092 23.0463 36.1116 23.5152C35.4253 23.2933 34.1908 22.7396 33.292 21.4632Z" fill="#858585"/>
</g>

</symbol><symbol id="about-item-5" viewBox="0 0 46 46">
<path d="M23.6738 7.36719C23.2527 7.14258 22.7473 7.14258 22.3262 7.36719L2.91992 17.4297L2.21552 17.7883C1.48413 18.1606 1.48792 19.2069 2.22199 19.5739L2.875 19.9004V32.0293C2.01587 32.5291 1.4375 33.4387 1.4375 34.5C1.4375 36.0891 2.72339 37.375 4.3125 37.375C5.90161 37.375 7.1875 36.0891 7.1875 34.5C7.1875 33.4387 6.60913 32.5291 5.75 32.0293V21.3828L8.625 22.8652V30.1875C8.625 30.822 8.91699 31.3948 9.25391 31.7598C9.59082 32.1248 10.0007 32.3438 10.4219 32.5684C11.2698 33.012 12.2749 33.3264 13.5215 33.6016C16.0146 34.1575 19.3389 34.5 23 34.5C26.6611 34.5 29.9854 34.1575 32.4785 33.6016C33.7251 33.3264 34.7302 33.012 35.5781 32.5684C35.9993 32.3438 36.4092 32.1248 36.7461 31.7598C37.083 31.3948 37.375 30.822 37.375 30.1875V22.8652L43.0801 19.9453L43.8003 19.5787C44.5287 19.2078 44.5287 18.1672 43.8003 17.7963L43.0801 17.4297L23.6738 7.36719ZM21.6173 10.9603C22.4841 10.5101 23.5159 10.5101 24.3827 10.9603L37.5353 17.7909C38.2575 18.166 38.2532 19.2006 37.5279 19.5696L36.7012 19.9902C36.3755 19.6477 35.9824 19.395 35.5781 19.1816C34.7358 18.738 33.7251 18.4236 32.4785 18.1484C29.991 17.5925 26.678 17.25 23 17.25C19.322 17.25 16.009 17.5925 13.5215 18.1484C12.2749 18.4236 11.2642 18.738 10.4219 19.1816C10.0176 19.395 9.62451 19.6477 9.29883 19.9902L8.47214 19.5696C7.74683 19.2006 7.74251 18.166 8.46471 17.7909L21.6173 10.9603ZM23 20.125C26.5095 20.125 29.6653 20.4451 31.8496 20.9336C32.939 21.175 33.8149 21.4558 34.2754 21.6973C34.4214 21.7759 34.4438 21.832 34.5 21.877V27.3574C33.8992 27.1384 33.2422 26.9419 32.4785 26.7734C29.9854 26.2175 26.6611 25.875 23 25.875C19.3389 25.875 16.0146 26.2175 13.5215 26.7734C12.7578 26.9419 12.1008 27.1384 11.5 27.3574V21.877C11.5562 21.832 11.5786 21.7759 11.7246 21.6973C12.1851 21.4558 13.061 21.175 14.1504 20.9336C16.3347 20.4451 19.4905 20.125 23 20.125ZM23 28.75C26.4871 28.75 29.6597 29.0701 31.8496 29.5586C32.7593 29.7607 33.332 29.9741 33.8262 30.1875C33.332 30.4009 32.7593 30.6143 31.8496 30.8164C29.6597 31.3049 26.4871 31.625 23 31.625C19.5129 31.625 16.3403 31.3049 14.1504 30.8164C13.2407 30.6143 12.668 30.4009 12.1738 30.1875C12.668 29.9741 13.2407 29.7607 14.1504 29.5586C16.3403 29.0701 19.5129 28.75 23 28.75Z" fill="#858585"/>
</symbol><symbol id="pencil" viewBox="0 0 24 24">
<path d="M18.91 7.91025L16.09 5.09025M20.707 4.70725L19.293 3.29325C18.902 2.90225 18.269 2.90225 17.879 3.29325L7.293 13.8792C7.105 14.0662 7 14.3213 7 14.5863V17.0002H9.414C9.679 17.0002 9.934 16.8953 10.121 16.7073L20.707 6.12125C21.098 5.73125 21.098 5.09825 20.707 4.70725V4.70725Z" stroke="#323232" stroke-linecap="round" stroke-linejoin="round"/>
<path d="M21 11V19C21 20.105 20.105 21 19 21H5C3.895 21 3 20.105 3 19V5C3 3.895 3.895 3 5 3H13" stroke="#323232" stroke-linecap="round" stroke-linejoin="round"/>
</symbol><symbol id="quote" viewBox="0 0 25 25">
<path d="M14.5127 12.6096H18.1144C17.7613 15.6798 16.596 18.7865 14.6186 21.9298L18.2203 25C22.7401 20.3216 25 15.5336 25 10.636V0H14.5127V12.6096ZM0 12.6096H3.60169C3.24859 15.6798 2.08333 18.7865 0.105932 21.9298L3.70763 25C8.2274 20.3216 10.4873 15.5336 10.4873 10.636V0H0V12.6096Z"/>
</symbol><symbol id="star" viewBox="0 0 18 17">
<path d="M9 0L11.0206 6.21885H17.5595L12.2694 10.0623L14.2901 16.2812L9 12.4377L3.70993 16.2812L5.73056 10.0623L0.440492 6.21885H6.97937L9 0Z"/>
</symbol></svg>