<svg xmlns="http://www.w3.org/2000/svg"><defs>
<clipPath id="clip0">
<rect width="46" height="46" fill="white"/>
</clipPath>
</defs><symbol id="about-item-1" viewBox="0 0 62 62">
<path d="M46.5 10.3337H43.9167V7.75033C43.9167 7.06518 43.6445 6.4081 43.16 5.92363C42.6756 5.43916 42.0185 5.16699 41.3333 5.16699C40.6482 5.16699 39.9911 5.43916 39.5066 5.92363C39.0222 6.4081 38.75 7.06518 38.75 7.75033V10.3337H23.25V7.75033C23.25 7.06518 22.9778 6.4081 22.4934 5.92363C22.0089 5.43916 21.3518 5.16699 20.6667 5.16699C19.9815 5.16699 19.3244 5.43916 18.84 5.92363C18.3555 6.4081 18.0833 7.06518 18.0833 7.75033V10.3337H15.5C13.4446 10.3337 11.4733 11.1502 10.0199 12.6036C8.56652 14.057 7.75 16.0282 7.75 18.0837V49.0837C7.75 51.1391 8.56652 53.1103 10.0199 54.5637C11.4733 56.0171 13.4446 56.8337 15.5 56.8337H46.5C48.5554 56.8337 50.5267 56.0171 51.9801 54.5637C53.4335 53.1103 54.25 51.1391 54.25 49.0837V18.0837C54.25 16.0282 53.4335 14.057 51.9801 12.6036C50.5267 11.1502 48.5554 10.3337 46.5 10.3337ZM15.5 15.5003H18.0833V18.0837C18.0833 18.7688 18.3555 19.4259 18.84 19.9104C19.3244 20.3948 19.9815 20.667 20.6667 20.667C21.3518 20.667 22.0089 20.3948 22.4934 19.9104C22.9778 19.4259 23.25 18.7688 23.25 18.0837V15.5003H38.75V18.0837C38.75 18.7688 39.0222 19.4259 39.5066 19.9104C39.9911 20.3948 40.6482 20.667 41.3333 20.667C42.0185 20.667 42.6756 20.3948 43.16 19.9104C43.6445 19.4259 43.9167 18.7688 43.9167 18.0837V15.5003H46.5C47.1851 15.5003 47.8422 15.7725 48.3267 16.257C48.8112 16.7414 49.0833 17.3985 49.0833 18.0837V28.417H12.9167V18.0837C12.9167 17.3985 13.1888 16.7414 13.6733 16.257C14.1578 15.7725 14.8149 15.5003 15.5 15.5003ZM46.5 51.667H15.5C14.8149 51.667 14.1578 51.3948 13.6733 50.9104C13.1888 50.4259 12.9167 49.7688 12.9167 49.0837V33.5837H49.0833V49.0837C49.0833 49.7688 48.8112 50.4259 48.3267 50.9104C47.8422 51.3948 47.1851 51.667 46.5 51.667Z" fill="#EA97AD"/>
<path d="M20.6668 43.9167C22.0936 43.9167 23.2502 42.7601 23.2502 41.3333C23.2502 39.9066 22.0936 38.75 20.6668 38.75C19.2401 38.75 18.0835 39.9066 18.0835 41.3333C18.0835 42.7601 19.2401 43.9167 20.6668 43.9167Z" fill="#EA97AD"/>
<path d="M41.3332 38.75H30.9998C30.3147 38.75 29.6576 39.0222 29.1731 39.5066C28.6887 39.9911 28.4165 40.6482 28.4165 41.3333C28.4165 42.0185 28.6887 42.6756 29.1731 43.16C29.6576 43.6445 30.3147 43.9167 30.9998 43.9167H41.3332C42.0183 43.9167 42.6754 43.6445 43.1599 43.16C43.6443 42.6756 43.9165 42.0185 43.9165 41.3333C43.9165 40.6482 43.6443 39.9911 43.1599 39.5066C42.6754 39.0222 42.0183 38.75 41.3332 38.75Z" fill="#EA97AD"/>
</symbol><symbol id="about-item-2" viewBox="0 0 62 62">
<path d="M49.0829 53.6045L43.1154 30.3545C45.3217 27.6094 46.5166 24.1888 46.4995 20.667C46.4995 16.5561 44.8665 12.6137 41.9597 9.70684C39.0529 6.80002 35.1104 5.16699 30.9995 5.16699C26.8887 5.16699 22.9462 6.80002 20.0394 9.70684C17.1326 12.6137 15.4995 16.5561 15.4995 20.667C15.4925 24.216 16.7158 27.6578 18.9612 30.4062L12.9162 53.6045C12.7876 54.1003 12.8094 54.6232 12.9786 55.1066C13.1479 55.5901 13.457 56.0123 13.8668 56.3196C14.2766 56.627 14.7685 56.8056 15.28 56.8327C15.7915 56.8598 16.2996 56.7343 16.7395 56.472L30.5087 48.3862L45.182 56.4978C45.5785 56.7371 46.0369 56.8539 46.4995 56.8337C46.9007 56.8465 47.2993 56.7656 47.6637 56.5975C48.0282 56.4295 48.3484 56.1788 48.5992 55.8654C48.8499 55.552 49.0241 55.1846 49.1081 54.7921C49.192 54.3996 49.1834 53.993 49.0829 53.6045ZM30.9995 10.3337C33.0433 10.3337 35.0411 10.9397 36.7404 12.0751C38.4397 13.2106 39.7642 14.8244 40.5463 16.7126C41.3284 18.6008 41.533 20.6785 41.1343 22.6829C40.7356 24.6874 39.7515 26.5286 38.3063 27.9738C36.8612 29.4189 35.02 30.4031 33.0155 30.8018C31.011 31.2005 28.9333 30.9959 27.0452 30.2137C25.157 29.4316 23.5431 28.1072 22.4077 26.4079C21.2723 24.7086 20.6662 22.7107 20.6662 20.667C20.6662 17.9264 21.7549 15.2981 23.6928 13.3602C25.6307 11.4223 28.259 10.3337 30.9995 10.3337ZM31.8004 43.1678C31.4077 42.9411 30.9622 42.8217 30.5087 42.8217C30.0552 42.8217 29.6098 42.9411 29.217 43.1678L19.5295 48.8512L23.2495 34.1262C25.5761 35.4634 28.2127 36.1671 30.8962 36.1671C33.5797 36.1671 36.2163 35.4634 38.5429 34.1262L42.4954 49.0837L31.8004 43.1678Z" fill="#EA97AD"/>
</symbol><symbol id="about-item-3" viewBox="0 0 62 62">
<path d="M30.9998 5.16699C25.8905 5.16699 20.8959 6.68209 16.6476 9.52069C12.3993 12.3593 9.08822 16.3939 7.13296 21.1143C5.1777 25.8348 4.66611 31.029 5.6629 36.0402C6.65968 41.0513 9.12007 45.6544 12.7329 49.2673C16.3458 52.8801 20.9488 55.3405 25.96 56.3373C30.9712 57.3341 36.1654 56.8225 40.8858 54.8672C45.6063 52.912 49.6409 49.6008 52.4795 45.3526C55.3181 41.1043 56.8332 36.1097 56.8332 31.0003C56.8332 27.6078 56.165 24.2486 54.8667 21.1143C53.5685 17.9801 51.6656 15.1322 49.2668 12.7334C46.8679 10.3346 44.0201 8.43168 40.8858 7.13344C37.7516 5.83519 34.3923 5.16699 30.9998 5.16699ZM30.9998 51.667C26.9124 51.667 22.9167 50.4549 19.5181 48.184C16.1194 45.9132 13.4705 42.6855 11.9063 38.9091C10.3421 35.1328 9.93286 30.9774 10.7303 26.9685C11.5277 22.9595 13.496 19.2771 16.3863 16.3868C19.2766 13.4965 22.959 11.5282 26.968 10.7308C30.9769 9.93334 35.1323 10.3426 38.9086 11.9068C42.685 13.471 45.9127 16.1199 48.1835 19.5185C50.4544 22.9172 51.6665 26.9128 51.6665 31.0003C51.6665 36.4815 49.4891 41.7381 45.6134 45.6139C41.7376 49.4896 36.481 51.667 30.9998 51.667Z" fill="#EA97AD"/>
<path d="M40.5066 21.4941C40.1529 21.113 39.6925 20.8474 39.1855 20.7322C38.6785 20.617 38.1486 20.6574 37.6649 20.8482L26.7891 25.2399C26.4694 25.3698 26.1789 25.5625 25.9349 25.8065C25.6908 26.0505 25.4982 26.341 25.3683 26.6607L20.8474 37.6657C20.6871 38.0986 20.6456 38.5665 20.7274 39.0209C20.8092 39.4752 21.0112 39.8993 21.3124 40.2491H21.4416C21.6498 40.5469 21.9184 40.7975 22.23 40.9845C22.5416 41.1715 22.8892 41.2906 23.2499 41.3341C23.5858 41.3382 23.9192 41.2768 24.2316 41.1532L35.1074 36.7616C35.4272 36.6316 35.7176 36.439 35.9617 36.195C36.2057 35.9509 36.3984 35.6605 36.5283 35.3407L41.0491 24.3357C41.2526 23.862 41.3096 23.3382 41.2129 22.8318C41.1163 22.3254 40.8703 21.8595 40.5066 21.4941ZM27.8999 34.1266L29.7341 29.6316L34.0999 27.8749L32.2658 32.3699L27.8999 34.1266Z" fill="#EA97AD"/>
</symbol><symbol id="about-item-4" viewBox="0 0 46 46">
<g clip-path="url(#clip0)">
<path d="M38.8081 29.7813C39.3457 29.7813 39.8788 29.6868 40.4053 29.4976C44.0246 28.1969 45.8774 22.7421 45.9545 22.5106C46.0413 22.2495 46.0039 21.963 45.8528 21.7332C45.7016 21.5033 45.4535 21.3554 45.1794 21.3317C42.391 21.0912 40.1159 21.5451 38.4042 22.6822C38.5415 21.7706 38.6202 20.8946 38.6574 20.0727C38.6719 20.0728 38.6863 20.0729 38.7007 20.0729C39.9474 20.0729 41.019 19.6677 41.8944 18.8634C44.4966 16.4727 44.2625 11.3406 44.2513 11.1232C44.2366 10.8401 44.0891 10.5804 43.8534 10.4227C43.6176 10.2652 43.3212 10.2282 43.054 10.3228C40.5626 11.2056 39.0685 12.441 38.1772 13.6643C38.0574 13.0488 37.9382 12.5537 37.847 12.2065C38.5612 11.1658 38.814 10.0589 38.5985 8.90716C37.9867 5.63738 33.6505 3.32165 33.4662 3.22462C33.2219 3.09596 32.932 3.08698 32.6801 3.2C32.4282 3.31303 32.2422 3.53548 32.1757 3.80348C31.5179 6.45577 31.7286 8.66593 32.8021 10.3723C33.8652 12.0624 35.4734 12.7387 36.186 12.9663C36.4127 13.8944 36.756 15.5931 36.8583 17.6961C34.8885 15.3849 31.8531 14.0304 31.815 14.0191C31.5717 13.9466 31.3092 13.9805 31.092 14.1121C30.875 14.2439 30.7238 14.4614 30.676 14.7107C30.0596 17.9218 30.4455 20.5418 31.8228 22.4979C33.1981 24.451 35.1603 25.1345 35.9752 25.3435C35.9136 25.5489 34.8323 28.353 34.2579 29.3493C33.521 25.7312 29.7048 22.5599 29.5247 22.4121C29.3101 22.236 29.0261 22.1691 28.7554 22.2306C28.4847 22.2922 28.2576 22.4755 28.1403 22.727C26.7147 25.7853 26.439 28.5152 27.3208 30.8408C27.9878 32.6 29.176 33.7224 30.0535 34.3536C28.8461 35.3817 27.4824 36.31 25.9647 37.1367C26.2345 36.5271 26.4146 35.8509 26.4146 35.1321C26.4146 32.3236 23.6671 30.1667 23.5501 30.0764C23.2264 29.8261 22.7745 29.8261 22.4509 30.0764C22.3339 30.1667 19.5864 32.3235 19.5864 35.132C19.5864 35.8508 19.7665 36.5269 20.0363 37.1367C18.5186 36.3099 17.1548 35.3816 15.9474 34.3535C16.8249 33.7222 18.0131 32.5999 18.6801 30.8407C19.5619 28.515 19.2862 25.7851 17.8606 22.7269C17.7433 22.4752 17.5162 22.2919 17.2455 22.2304C16.9748 22.1689 16.6908 22.2359 16.4762 22.412C16.2961 22.5598 12.48 25.731 11.743 29.3491C11.1686 28.3527 10.0873 25.5488 10.0257 25.3433C10.8406 25.1343 12.8029 24.4508 14.1781 22.4978C15.5554 20.5417 15.9412 17.9216 15.3249 14.7105C15.277 14.4612 15.1259 14.2437 14.9089 14.1119C14.6919 13.9803 14.4291 13.9464 14.1859 14.0189C14.1479 14.0302 11.1125 15.3846 9.14261 17.696C9.24503 15.5927 9.58824 13.8941 9.815 12.9661C10.5276 12.7385 12.1358 12.0622 13.1989 10.3722C14.2723 8.66575 14.4831 6.45559 13.8253 3.8033C13.7588 3.53539 13.5728 3.31285 13.3209 3.19982C13.0691 3.0868 12.7791 3.09587 12.5348 3.22444C12.3506 3.32147 8.01435 5.63729 7.4026 8.90698C7.18707 10.0587 7.4398 11.1657 8.15406 12.2063C8.06287 12.5536 7.94365 13.0486 7.82388 13.6641C6.93263 12.4408 5.43853 11.2055 2.94706 10.3226C2.67987 10.2279 2.38338 10.265 2.14772 10.4226C1.91197 10.5802 1.76445 10.8399 1.7498 11.1231C1.73857 11.3404 1.50453 16.4726 4.10668 18.8632C4.98221 19.6676 6.05351 20.0727 7.30036 20.0727C7.31474 20.0727 7.3292 20.0726 7.34358 20.0725C7.38077 20.8944 7.45948 21.7703 7.59685 22.682C5.88505 21.5449 3.61038 21.0908 0.821627 21.3316C0.547513 21.3553 0.299364 21.5032 0.148247 21.7331C-0.00296082 21.963 -0.0404257 22.2494 0.0465432 22.5105C0.123629 22.742 1.97639 28.1968 5.59566 29.4975C6.12224 29.6868 6.65519 29.7812 7.19291 29.7812C7.98875 29.7812 8.79474 29.5742 9.60459 29.1611C9.84816 29.6512 11.0715 31.6609 11.4373 32.1559C9.36524 31.8597 6.67604 32.2708 3.34229 34.2952C3.10815 34.4374 2.95165 34.6786 2.91733 34.9503C2.88292 35.222 2.97438 35.4947 3.16574 35.6906C3.36116 35.8909 7.79037 40.3751 12.1661 40.3751C12.3854 40.3751 12.6049 40.3638 12.8234 40.34C14.5906 40.1489 16.0575 39.202 17.188 37.5244C18.239 38.2167 19.3712 38.8535 20.5835 39.4344C19.5628 39.7712 18.4957 40.0764 17.3827 40.3495C16.9009 40.4677 16.606 40.9543 16.7244 41.4362C16.825 41.8463 17.1921 42.1207 17.5962 42.1207C17.6671 42.1207 17.7391 42.1122 17.8111 42.0946C19.6594 41.641 21.3898 41.1015 23.0007 40.4773C24.6116 41.1015 26.3421 41.641 28.1902 42.0946C28.2622 42.1122 28.3343 42.1207 28.4051 42.1207C28.8093 42.1207 29.1764 41.8461 29.277 41.4362C29.3952 40.9543 29.1005 40.4678 28.6186 40.3495C27.5056 40.0764 26.4386 39.7712 25.4178 39.4344C26.6302 38.8535 27.7624 38.2167 28.8134 37.5244C29.9438 39.202 31.4108 40.1488 33.1779 40.34C33.3968 40.3638 33.6157 40.3751 33.8352 40.3751C38.2107 40.3751 42.6401 35.891 42.8356 35.6906C43.027 35.4946 43.1184 35.222 43.084 34.9503C43.0496 34.6786 42.8931 34.4374 42.6591 34.2952C39.3253 32.2708 36.6362 31.8597 34.564 32.1559C34.9295 31.6609 36.1529 29.6512 36.3965 29.1611C37.2064 29.5743 38.0122 29.7813 38.8081 29.7813ZM42.4359 12.5203C42.329 14.1221 41.9089 16.412 40.6766 17.5421C40.1431 18.0313 39.4938 18.2736 38.7036 18.2755C38.5576 17.0827 38.6855 14.3259 42.4359 12.5203ZM38.6205 24.8103C39.8818 23.748 41.5201 23.0653 43.767 23.0653C43.7795 23.0653 43.7918 23.0653 43.8044 23.0654C43.0616 24.7228 41.633 27.147 39.7977 27.8065C38.9676 28.105 38.1145 28.0228 37.2014 27.5544C37.2254 27.391 37.7731 25.5239 38.6205 24.8103ZM36.4126 11.1182C36.4058 11.1218 36.3989 11.1255 36.3922 11.1292C35.8327 10.8958 34.9388 10.3941 34.3231 9.41531C33.6779 8.38975 33.4634 7.06365 33.6814 5.46236C34.9221 6.31561 36.5536 7.74026 36.8327 9.24003C36.9521 9.88205 36.8145 10.5007 36.4126 11.1182ZM7.29785 18.2755C6.50758 18.2736 5.85801 18.0313 5.32442 17.5421C4.09213 16.4121 3.67202 14.1221 3.5651 12.5203C7.31842 14.3274 7.44366 17.0865 7.29785 18.2755ZM6.20579 27.8074C4.37576 27.1514 2.9441 24.7248 2.1984 23.0654C2.21016 23.0653 2.2222 23.0653 2.23397 23.0653C4.48061 23.0653 6.20858 23.6503 7.3805 24.8103C7.95568 25.3796 8.30895 26.0039 8.52206 26.5433C8.56689 26.6766 8.7756 27.3909 8.79968 27.5544C7.88767 28.0224 7.03523 28.1047 6.20579 27.8074ZM9.16831 9.24003C9.44736 7.74035 11.0789 6.31561 12.3196 5.46236C12.536 7.05206 12.3261 8.3707 11.6918 9.39321C11.0744 10.3882 10.1676 10.896 9.60396 11.1307C9.6001 11.1285 9.59632 11.1265 9.59237 11.1244C9.18735 10.5049 9.04846 9.88412 9.16831 9.24003ZM9.37908 20.9116C9.76487 18.9296 12.1515 17.212 13.7441 16.2697C13.972 18.4043 13.6305 20.1399 12.7246 21.4409C11.8348 22.7187 10.5806 23.284 9.88724 23.5118C9.59075 23.0438 9.17954 21.9369 9.37908 20.9116ZM12.6328 38.5534C9.91221 38.8482 6.8037 36.5192 5.32335 35.2387C7.93754 33.8751 10.2472 33.627 12.2951 34.1967C13.9507 34.6572 15.3805 36.4081 15.5709 36.7026C14.7657 37.8194 13.8007 38.4262 12.6328 38.5534ZM14.6011 33.0942C14.5624 33.0575 13.4658 31.9956 13.4177 30.5749C13.3402 28.2886 15.47 25.871 16.7139 24.6352C17.4965 26.7465 17.5966 28.607 17.0095 30.1782C16.4204 31.7549 15.2528 32.6795 14.6011 33.0942ZM23.002 38.2636C22.3601 37.6154 21.3833 36.4177 21.3833 35.132C21.3833 33.8371 22.3585 32.6439 23.0004 31.9988C23.6428 32.6444 24.6176 33.8372 24.6176 35.132C24.6176 36.4258 23.644 37.6181 23.002 38.2636ZM28.9915 30.1782C28.4044 28.6071 28.5045 26.7466 29.2871 24.6353C30.5311 25.871 32.616 28.2875 32.5833 30.575C32.5711 31.4275 32.2563 32.1831 31.6251 32.8663C31.5875 32.9058 31.5499 32.9454 31.5119 32.9846C31.4755 33.0214 31.4383 33.0578 31.4 33.0941C30.7468 32.6784 29.5801 31.754 28.9915 30.1782ZM40.684 35.242C38.9965 36.7011 35.9193 38.83 33.3711 38.5536C32.2019 38.4271 31.2361 37.8203 30.4302 36.7025C30.6206 36.408 32.2545 34.6684 33.7059 34.1966C35.7292 33.539 38.0672 33.8757 40.684 35.242ZM33.292 21.4632C32.3744 20.1598 32.0277 18.4165 32.2569 16.2695C33.8495 17.2119 36.1248 18.9545 36.6219 20.9115C36.8215 21.6973 36.4092 23.0463 36.1116 23.5152C35.4253 23.2933 34.1908 22.7396 33.292 21.4632Z" fill="#858585"/>
</g>

</symbol><symbol id="about-item-5" viewBox="0 0 46 46">
<path d="M23.6738 7.36719C23.2527 7.14258 22.7473 7.14258 22.3262 7.36719L2.91992 17.4297L2.21552 17.7883C1.48413 18.1606 1.48792 19.2069 2.22199 19.5739L2.875 19.9004V32.0293C2.01587 32.5291 1.4375 33.4387 1.4375 34.5C1.4375 36.0891 2.72339 37.375 4.3125 37.375C5.90161 37.375 7.1875 36.0891 7.1875 34.5C7.1875 33.4387 6.60913 32.5291 5.75 32.0293V21.3828L8.625 22.8652V30.1875C8.625 30.822 8.91699 31.3948 9.25391 31.7598C9.59082 32.1248 10.0007 32.3438 10.4219 32.5684C11.2698 33.012 12.2749 33.3264 13.5215 33.6016C16.0146 34.1575 19.3389 34.5 23 34.5C26.6611 34.5 29.9854 34.1575 32.4785 33.6016C33.7251 33.3264 34.7302 33.012 35.5781 32.5684C35.9993 32.3438 36.4092 32.1248 36.7461 31.7598C37.083 31.3948 37.375 30.822 37.375 30.1875V22.8652L43.0801 19.9453L43.8003 19.5787C44.5287 19.2078 44.5287 18.1672 43.8003 17.7963L43.0801 17.4297L23.6738 7.36719ZM21.6173 10.9603C22.4841 10.5101 23.5159 10.5101 24.3827 10.9603L37.5353 17.7909C38.2575 18.166 38.2532 19.2006 37.5279 19.5696L36.7012 19.9902C36.3755 19.6477 35.9824 19.395 35.5781 19.1816C34.7358 18.738 33.7251 18.4236 32.4785 18.1484C29.991 17.5925 26.678 17.25 23 17.25C19.322 17.25 16.009 17.5925 13.5215 18.1484C12.2749 18.4236 11.2642 18.738 10.4219 19.1816C10.0176 19.395 9.62451 19.6477 9.29883 19.9902L8.47214 19.5696C7.74683 19.2006 7.74251 18.166 8.46471 17.7909L21.6173 10.9603ZM23 20.125C26.5095 20.125 29.6653 20.4451 31.8496 20.9336C32.939 21.175 33.8149 21.4558 34.2754 21.6973C34.4214 21.7759 34.4438 21.832 34.5 21.877V27.3574C33.8992 27.1384 33.2422 26.9419 32.4785 26.7734C29.9854 26.2175 26.6611 25.875 23 25.875C19.3389 25.875 16.0146 26.2175 13.5215 26.7734C12.7578 26.9419 12.1008 27.1384 11.5 27.3574V21.877C11.5562 21.832 11.5786 21.7759 11.7246 21.6973C12.1851 21.4558 13.061 21.175 14.1504 20.9336C16.3347 20.4451 19.4905 20.125 23 20.125ZM23 28.75C26.4871 28.75 29.6597 29.0701 31.8496 29.5586C32.7593 29.7607 33.332 29.9741 33.8262 30.1875C33.332 30.4009 32.7593 30.6143 31.8496 30.8164C29.6597 31.3049 26.4871 31.625 23 31.625C19.5129 31.625 16.3403 31.3049 14.1504 30.8164C13.2407 30.6143 12.668 30.4009 12.1738 30.1875C12.668 29.9741 13.2407 29.7607 14.1504 29.5586C16.3403 29.0701 19.5129 28.75 23 28.75Z" fill="#858585"/>
</symbol><symbol id="pencil" viewBox="0 0 24 24">
<path d="M18.91 7.91025L16.09 5.09025M20.707 4.70725L19.293 3.29325C18.902 2.90225 18.269 2.90225 17.879 3.29325L7.293 13.8792C7.105 14.0662 7 14.3213 7 14.5863V17.0002H9.414C9.679 17.0002 9.934 16.8953 10.121 16.7073L20.707 6.12125C21.098 5.73125 21.098 5.09825 20.707 4.70725V4.70725Z" stroke="#323232" stroke-linecap="round" stroke-linejoin="round"/>
<path d="M21 11V19C21 20.105 20.105 21 19 21H5C3.895 21 3 20.105 3 19V5C3 3.895 3.895 3 5 3H13" stroke="#323232" stroke-linecap="round" stroke-linejoin="round"/>
</symbol><symbol id="quote" viewBox="0 0 25 25">
<path d="M14.5127 12.6096H18.1144C17.7613 15.6798 16.596 18.7865 14.6186 21.9298L18.2203 25C22.7401 20.3216 25 15.5336 25 10.636V0H14.5127V12.6096ZM0 12.6096H3.60169C3.24859 15.6798 2.08333 18.7865 0.105932 21.9298L3.70763 25C8.2274 20.3216 10.4873 15.5336 10.4873 10.636V0H0V12.6096Z"/>
</symbol><symbol id="star" viewBox="0 0 18 17">
<path d="M9 0L11.0206 6.21885H17.5595L12.2694 10.0623L14.2901 16.2812L9 12.4377L3.70993 16.2812L5.73056 10.0623L0.440492 6.21885H6.97937L9 0Z"/>
</symbol><symbol id="teeth-1" viewBox="0 0 150 322">
<mask id="mask0" mask-type="alpha" maskUnits="userSpaceOnUse" x="0" y="0" width="150" height="322">
<rect width="150" height="322" rx="12" fill="#EDEDED" fill-opacity="0.45"/>
</mask>
<g mask="url(#mask0)">
<path d="M81.2769 300C81.7713 300 82.271 299.939 82.7707 299.817C84.9072 299.286 86.6036 297.632 87.1942 295.504C92.7404 275.596 105.912 241.898 120.102 241.898C134.293 241.898 147.464 275.596 153.008 295.504C153.601 297.632 155.295 299.284 157.431 299.817C159.578 300.346 161.767 299.709 163.28 298.099C176.114 284.457 175.067 256.782 175.015 255.61C175.018 246.278 172.442 235.175 170.281 227.526C168.612 221.614 169.713 215.275 173.302 210.141C173.846 209.363 174.367 208.586 174.867 207.808C182.151 196.503 186 182.977 186 168.696V161.666C186 139.782 162.65 134 150.305 134C134.662 134 124.209 140.88 120.102 144.175C115.994 140.88 105.541 134 89.8987 134C77.5539 134 54.2037 139.782 54.2037 161.666V168.696C54.2037 182.977 58.0535 196.503 65.3378 207.808C65.8374 208.585 66.3591 209.362 66.9028 210.14C70.4943 215.275 71.5955 221.613 69.9234 227.526C67.7626 235.175 65.1872 246.277 65.1872 255.731C65.138 256.783 64.0918 284.457 76.9229 298.099C78.0832 299.336 79.643 300 81.2769 300ZM120.102 236.365C99.5609 236.365 85.6755 280.487 81.908 294.01C81.8258 294.309 81.5866 294.412 81.4552 294.445C81.2358 294.5 81.0545 294.448 80.9115 294.296C69.6623 282.338 70.6668 256.119 70.6778 255.854C70.6807 246.92 73.1438 236.355 75.2085 229.042C77.3339 221.514 75.9443 213.463 71.3946 206.956C70.8921 206.237 70.4092 205.518 69.9477 204.801C63.2401 194.391 59.6949 181.907 59.6949 168.697V161.667C59.6949 139.847 88.6654 139.537 89.901 139.534C107.658 139.534 118.061 149.693 118.166 149.795C119.239 150.866 120.974 150.866 122.043 149.79C122.142 149.693 132.545 139.534 150.305 139.534C151.535 139.537 180.508 139.847 180.508 161.667V168.697C180.508 181.908 176.964 194.391 170.261 204.796C169.795 205.518 169.314 206.238 168.811 206.957C164.262 213.467 162.872 221.515 164.998 229.043C167.062 236.355 169.525 246.918 169.525 255.732C169.539 256.117 170.519 282.361 159.295 294.293C159.149 294.448 158.965 294.495 158.748 294.446C158.614 294.412 158.377 294.313 158.295 294.011C154.528 280.487 140.643 236.365 120.102 236.365Z"/>
<path d="M144.814 167.2C146.33 167.2 147.56 165.96 147.56 164.433C147.56 162.906 146.329 161.667 144.814 161.667C136.876 161.667 125.808 150.401 122.211 146.06C121.239 144.887 119.509 144.73 118.345 145.709C117.18 146.689 117.024 148.429 117.993 149.605C119.481 151.405 132.889 167.2 144.814 167.2Z"/>
<path d="M109.119 226.444L121.239 214.232L109.119 202.02L96.9994 214.232L109.119 226.444ZM113.474 214.232L109.119 218.619L104.765 214.232L109.119 209.844L113.474 214.232Z"/>
<path d="M109.12 208.698C110.635 208.698 111.865 207.459 111.865 205.932V200.398C111.865 198.871 110.635 197.632 109.12 197.632C107.604 197.632 106.374 198.872 106.374 200.398V205.932C106.373 207.459 107.604 208.698 109.12 208.698Z"/>
<path d="M95.3904 216.998H100.882C102.398 216.998 103.628 215.758 103.628 214.232C103.628 212.704 102.397 211.465 100.882 211.465H95.3904C93.8746 211.465 92.6448 212.705 92.6448 214.232C92.6448 215.759 93.8746 216.998 95.3904 216.998Z"/>
<path d="M109.12 230.832C110.635 230.832 111.865 229.592 111.865 228.065V222.532C111.865 221.004 110.635 219.765 109.12 219.765C107.604 219.765 106.374 221.005 106.374 222.532V228.065C106.373 229.592 107.604 230.832 109.12 230.832Z"/>
<path d="M117.357 216.998H122.848C124.364 216.998 125.594 215.758 125.594 214.232C125.594 212.704 124.364 211.465 122.848 211.465H117.357C115.841 211.465 114.611 212.705 114.611 214.232C114.61 215.759 115.841 216.998 117.357 216.998Z"/>
<path d="M40.4753 254.11L52.5954 241.898L40.4753 229.686L28.3552 241.898L40.4753 254.11ZM44.8299 241.898L40.4753 246.286L36.1207 241.898L40.4753 237.51L44.8299 241.898Z"/>
<path d="M40.4747 236.365C41.9905 236.365 43.2203 235.125 43.2203 233.599V228.065C43.2203 226.538 41.9899 225.299 40.4747 225.299C38.9595 225.299 37.7291 226.538 37.7291 228.065V233.599C37.7291 235.125 38.9589 236.365 40.4747 236.365Z"/>
<path d="M26.7456 244.665H32.2374C33.7532 244.665 34.983 243.425 34.983 241.898C34.983 240.371 33.7526 239.132 32.2374 239.132H26.7456C25.2298 239.132 24 240.372 24 241.898C24 243.425 25.2304 244.665 26.7456 244.665Z"/>
<path d="M40.4747 258.498C41.9905 258.498 43.2203 257.258 43.2203 255.731V250.198C43.2203 248.67 41.9899 247.431 40.4747 247.431C38.9595 247.431 37.7291 248.671 37.7291 250.198V255.731C37.7291 257.259 38.9589 258.498 40.4747 258.498Z"/>
<path d="M48.7128 244.665H54.2045C55.7203 244.665 56.9501 243.425 56.9501 241.898C56.9501 240.371 55.7198 239.132 54.2045 239.132H48.7128C47.1969 239.132 45.9672 240.372 45.9672 241.898C45.9672 243.425 47.1969 244.665 48.7128 244.665Z"/>
<path d="M87.1529 200.399C88.6687 200.399 89.8985 199.159 89.8985 197.633C89.8985 185.429 97.29 175.499 106.373 175.499C107.889 175.499 109.119 174.26 109.119 172.733C109.119 171.206 107.888 169.967 106.373 169.967C97.29 169.967 89.8985 160.037 89.8985 147.834C89.8985 146.307 88.6682 145.067 87.1529 145.067C85.6377 145.067 84.4073 146.307 84.4073 147.834C84.4073 160.037 77.0159 169.967 67.9327 169.967C66.4169 169.967 65.1871 171.206 65.1871 172.733C65.1871 174.26 66.4175 175.499 67.9327 175.499C77.0159 175.499 84.4073 185.429 84.4073 197.633C84.4073 199.159 85.6371 200.399 87.1529 200.399ZM96.8019 172.732C92.7246 175.228 89.3444 179.27 87.1535 184.247C84.9597 179.27 81.5825 175.228 77.5052 172.732C81.5825 170.237 84.9626 166.195 87.1535 161.217C89.3468 166.195 92.724 170.237 96.8019 172.732Z"/>
</g>
</symbol><symbol id="teeth-2" viewBox="0 0 143 322">
<mask id="mask0" mask-type="alpha" maskUnits="userSpaceOnUse" x="0" y="0" width="143" height="322">
<rect width="143" height="322" rx="12" fill="#EDEDED" fill-opacity="0.45"/>
</mask>
<g mask="url(#mask0)">
<path d="M86.6164 167.821C84.9338 167.821 83.5687 166.447 83.5687 164.747C83.5687 163.048 84.9344 161.674 86.6164 161.674C97.9544 161.674 108.455 147.68 108.558 147.539C109.567 146.184 111.475 145.895 112.825 146.918C114.172 147.932 114.45 149.859 113.444 151.218C112.938 151.897 100.975 167.821 86.6164 167.821Z"/>
<path d="M155.829 224.954C155.594 224.954 155.36 224.926 155.125 224.871L134.682 219.987C133.043 219.597 132.031 217.94 132.418 216.29C132.804 214.636 134.454 213.616 136.087 214.009L156.53 218.893C158.169 219.283 159.182 220.94 158.795 222.59C158.459 224.001 157.206 224.954 155.829 224.954Z"/>
<path d="M135.383 220.071C134.173 220.071 133.03 219.342 132.551 218.137L126.455 202.77C125.83 201.193 126.589 199.404 128.153 198.774C129.722 198.147 131.49 198.909 132.115 200.489L138.211 215.857C138.836 217.434 138.077 219.222 136.513 219.852C136.145 220.003 135.761 220.071 135.383 220.071Z"/>
<path d="M135.383 232.365C134.652 232.365 133.917 232.1 133.331 231.562C132.088 230.419 131.997 228.473 133.13 227.219L142.268 217.108C143.401 215.86 145.331 215.761 146.574 216.908C147.818 218.051 147.909 219.997 146.776 221.251L137.638 231.363C137.035 232.026 136.209 232.365 135.383 232.365Z"/>
<path d="M62.2366 244.658C61.1183 244.658 60.0424 244.038 59.509 242.959C58.7564 241.441 59.3657 239.593 60.8715 238.835L79.1591 229.614C80.6617 228.858 82.4934 229.466 83.2492 230.988C84.0019 232.506 83.3926 234.354 81.8867 235.112L63.5992 244.333C63.1602 244.554 62.6936 244.658 62.2366 244.658Z"/>
<path d="M80.521 235.438C78.8384 235.438 77.4732 234.064 77.4732 232.365V223.144C77.4732 221.445 78.839 220.071 80.521 220.071C82.2036 220.071 83.5687 221.445 83.5687 223.144V232.365C83.5687 234.064 82.2036 235.438 80.521 235.438Z"/>
<path d="M148.136 300C147.63 300 147.121 299.935 146.608 299.809C144.374 299.256 142.604 297.52 141.991 295.273C132.789 261.655 121.204 241.584 110.999 241.584C100.795 241.584 89.2097 261.654 80.0081 295.275C79.3924 297.519 77.6249 299.258 75.3877 299.812C73.1568 300.365 70.8887 299.68 69.3225 297.986C56.6734 284.306 57.7036 256.62 57.7557 255.449C57.7525 246.136 60.2796 235.047 62.4005 227.409C64.0131 221.597 62.9494 215.373 59.4839 210.326C58.9505 209.555 58.4415 208.774 57.9479 208C50.7823 196.68 47 183.157 47 168.877V161.877C47 139.825 70.0943 134 82.307 134C97.1593 134 106.819 141.084 111 144.976C115.185 141.081 124.841 134 139.693 134C151.906 134 175 139.827 175 161.877V168.878C175 183.158 171.214 196.681 164.055 207.995C163.558 208.776 163.046 209.553 162.515 210.33C159.05 215.374 157.99 221.598 159.599 227.41C161.72 235.048 164.247 246.137 164.247 255.582C164.296 256.62 165.326 284.307 152.677 297.987C151.47 299.293 149.843 300 148.136 300ZM82.307 140.147C81.118 140.15 53.0961 140.464 53.0961 161.877V168.878C53.0961 181.984 56.5493 194.364 63.0844 204.685C63.5355 205.392 64.0047 206.108 64.4957 206.821C69.0005 213.38 70.3752 221.485 68.2723 229.06C66.2548 236.33 63.8498 246.828 63.8498 255.576C63.8376 255.969 62.8806 281.999 73.7828 293.792L77.0716 294.455L74.1331 293.638C81.3995 267.089 93.6945 235.438 111.001 235.438C128.307 235.438 140.602 267.089 147.868 293.645L148.218 293.798C159.145 281.977 158.167 255.976 158.155 255.714C158.151 246.835 155.747 236.336 153.729 229.067C151.626 221.487 153.001 213.383 157.506 206.83C157.997 206.117 158.466 205.398 158.92 204.685C165.451 194.37 168.905 181.984 168.905 168.885V161.883C168.905 153 164.138 146.666 154.738 143.051C147.283 140.184 139.767 140.153 139.694 140.153C122.531 140.153 113.46 151.208 113.369 151.319C112.211 152.761 109.788 152.761 108.63 151.319C108.266 150.864 99.3387 140.147 82.307 140.147Z"/>
<path d="M111.665 275.384C111.262 275.384 110.927 275.354 110.674 275.319C102.622 275.098 97.7172 264.968 96.0931 245.202C96.023 244.341 96.3122 243.491 96.8945 242.857C106.008 232.933 116.23 233.019 125.31 243.076C125.853 243.675 126.136 244.468 126.103 245.282C125.454 260.023 122.427 269.505 117.115 273.47C114.987 275.056 112.972 275.384 111.665 275.384ZM102.289 246.075C103.606 260.158 106.964 269.175 110.945 269.175C111.201 269.175 111.457 269.209 111.707 269.271C111.609 269.246 112.524 269.35 113.737 268.327C115.715 266.661 119.104 261.599 119.948 246.303C113.88 240.125 108.367 240.03 102.289 246.075Z"/>
<path d="M95.7602 213.923C93.7241 213.923 91.7034 213.551 89.585 212.783C88.7283 212.47 88.058 211.794 87.7469 210.93C86.9969 208.825 86.6164 206.728 86.6164 204.703C86.6164 192.48 98.4788 182.838 111.079 187.402C111.933 187.716 112.606 188.392 112.917 189.256C113.667 191.355 114.048 193.451 114.048 195.483C114.048 205.653 105.846 213.923 95.7602 213.923ZM93.0537 207.432C93.9831 207.663 94.8764 207.776 95.7602 207.776C102.484 207.776 107.952 202.262 107.952 195.482C107.952 194.588 107.839 193.687 107.61 192.753C106.681 192.522 105.788 192.409 104.904 192.409C98.1799 192.409 92.7125 197.923 92.7125 204.703C92.7125 205.594 92.8256 206.495 93.0537 207.432Z"/>
<path d="M95.7602 213.923C85.6774 213.923 77.4726 205.652 77.4726 195.482C77.4726 185.312 85.6774 177.041 95.7602 177.041C105.845 177.041 114.048 185.313 114.048 195.483C114.048 205.653 105.846 213.923 95.7602 213.923ZM95.7602 183.188C89.0362 183.188 83.5687 188.702 83.5687 195.482C83.5687 202.262 89.0368 207.776 95.7602 207.776C102.484 207.776 107.952 202.262 107.952 195.482C107.952 188.702 102.484 183.188 95.7602 183.188Z"/>
</g>
</symbol><symbol id="teeth-3" viewBox="0 0 143 322">
<mask id="mask0" mask-type="alpha" maskUnits="userSpaceOnUse" x="0" y="0" width="143" height="322">
<rect width="143" height="322" rx="12" fill="#EDEDED" fill-opacity="0.45"/>
</mask>
<!-- <g mask="url(#mask0)">
<g opacity="0.1"> -->
<path d="M94.0496 167.2C92.5499 167.2 91.3331 165.96 91.3331 164.433C91.3331 162.906 92.5505 161.667 94.0496 161.667C101.904 161.667 112.854 150.401 116.413 146.06C117.375 144.887 119.086 144.73 120.238 145.709C121.39 146.689 121.545 148.429 120.586 149.604C119.114 151.405 105.848 167.2 94.0496 167.2Z"/>
<path d="M151.101 225.298H85.9002C84.4005 225.298 83.1837 224.058 83.1837 222.532V178.266C83.1837 176.739 84.4011 175.499 85.9002 175.499H151.101C152.6 175.499 153.817 176.739 153.817 178.266V222.532C153.817 224.059 152.6 225.298 151.101 225.298ZM88.6167 219.765H148.383V181.032H88.6167V219.765Z"/>
<path d="M110.35 214.232H99.4835C97.9837 214.232 96.767 212.992 96.767 211.465V189.332C96.767 187.805 97.9843 186.566 99.4835 186.566H110.35C111.85 186.566 113.066 187.805 113.066 189.332V211.465C113.066 212.993 111.85 214.232 110.35 214.232ZM102.2 208.698H107.634V192.099H102.2V208.698Z"/>
<path d="M137.516 214.232H126.65C125.15 214.232 123.933 212.992 123.933 211.465V189.332C123.933 187.805 125.151 186.566 126.65 186.566H137.516C139.016 186.566 140.233 187.805 140.233 189.332V211.465C140.233 212.993 139.016 214.232 137.516 214.232ZM129.366 208.698H134.8V192.099H129.366V208.698Z"/>
<path d="M85.8997 208.698H39.7165C38.2167 208.698 37 207.459 37 205.932V194.866C37 193.338 38.2173 192.099 39.7165 192.099H85.8997C87.3994 192.099 88.6162 193.339 88.6162 194.866V205.932C88.6162 207.459 87.3994 208.698 85.8997 208.698ZM42.433 203.166H83.1832V197.632H42.433V203.166Z"/>
<path d="M197.284 208.698H151.1C149.601 208.698 148.384 207.459 148.384 205.932V194.866C148.384 193.338 149.601 192.099 151.1 192.099H197.284C198.783 192.099 200 193.339 200 194.866V205.932C200 207.459 198.783 208.698 197.284 208.698ZM153.817 203.166H194.567V197.632H153.817V203.166Z"/>
<path d="M99.4838 203.165H85.9002C84.4005 203.165 83.1837 201.926 83.1837 200.399C83.1837 198.872 84.4011 197.633 85.9002 197.633H99.4838C100.984 197.633 102.2 198.872 102.2 200.399C102.2 201.926 100.983 203.165 99.4838 203.165Z"/>
<path d="M126.65 203.165H110.35C108.85 203.165 107.633 201.926 107.633 200.399C107.633 198.872 108.851 197.633 110.35 197.633H126.65C128.15 197.633 129.366 198.872 129.366 200.399C129.366 201.926 128.149 203.165 126.65 203.165Z"/>
<path d="M151.1 203.165H137.516C136.017 203.165 134.8 201.926 134.8 200.399C134.8 198.872 136.017 197.633 137.516 197.633H151.1C152.6 197.633 153.817 198.872 153.817 200.399C153.817 201.926 152.599 203.165 151.1 203.165Z"/>
<path d="M156.913 300C156.424 300 155.93 299.939 155.435 299.817C153.322 299.286 151.643 297.632 151.059 295.504C145.571 275.596 132.54 241.898 118.499 241.898C104.459 241.898 91.4279 275.596 85.9427 295.504C85.3561 297.632 83.68 299.284 81.5661 299.817C79.442 300.346 77.2766 299.709 75.7797 298.099C63.0846 284.457 64.1197 256.783 64.1713 255.612C64.1662 246.277 66.7142 235.175 68.8521 227.526C70.5037 221.613 69.4147 215.275 65.8635 210.14C65.3256 209.362 64.8095 208.585 64.3151 207.808C64.2882 207.763 64.1467 207.525 64.122 207.481C63.6414 206.626 63.595 205.483 64.0814 204.631C64.5677 203.779 65.4098 203.165 66.3768 203.165L83.1832 203.166V197.632L60.8602 197.631C59.7466 197.631 58.7441 196.94 58.3339 195.883C54.9953 187.293 53.2996 178.143 53.2996 168.695V161.666C53.2996 139.782 76.4024 134 88.6163 134C104.093 134 114.436 140.88 118.499 144.175C122.564 140.88 132.906 134 148.383 134C160.597 134 183.7 139.782 183.7 161.666V168.696C183.7 178.144 182.005 187.293 178.663 195.884C178.256 196.941 177.253 197.632 176.139 197.632L153.817 197.632V203.166L170.621 203.165C171.613 203.165 172.528 203.716 173.004 204.604C173.482 205.49 173.444 206.571 172.912 207.423L172.686 207.805C172.192 208.585 171.673 209.362 171.135 210.142C167.581 215.277 166.492 221.615 168.146 227.528C170.284 235.175 172.832 246.277 172.832 255.731C172.881 256.782 173.916 284.456 161.221 298.099C160.073 299.336 158.53 300 156.913 300ZM118.5 236.365C138.823 236.365 152.561 280.487 156.289 294.01C156.37 294.309 156.607 294.412 156.737 294.445C156.954 294.5 157.133 294.448 157.275 294.296C168.405 282.338 167.411 256.119 167.4 255.854C167.397 246.92 164.96 236.355 162.918 229.042C161 222.173 161.975 214.869 165.58 208.7L151.1 208.698C149.601 208.698 148.384 207.459 148.384 205.932V194.866C148.384 193.338 149.601 192.099 151.1 192.099L174.265 192.1C176.922 184.669 178.267 176.807 178.267 168.698V161.668C178.267 139.847 149.6 139.538 148.381 139.535C130.812 139.535 120.519 149.694 120.416 149.796C119.353 150.866 117.634 150.866 116.58 149.791C116.482 149.694 106.189 139.535 88.6168 139.535C87.3995 139.538 58.7337 139.847 58.7337 161.668V168.698C58.7337 176.807 60.0782 184.669 62.7352 192.1H85.9003C87.4001 192.1 88.6168 193.34 88.6168 194.867L88.6162 205.932C88.6162 207.459 87.3994 208.698 85.8997 208.698L71.4174 208.698C75.0224 214.868 76.0002 222.172 74.0794 229.041C72.0366 236.353 69.5997 246.916 69.5997 255.731C69.586 256.115 68.6161 282.359 79.7221 294.292C79.8659 294.447 80.048 294.493 80.2629 294.444C80.3958 294.411 80.6295 294.311 80.7108 294.009C84.4384 280.487 98.1767 236.365 118.5 236.365Z"/>
<!-- </g>
</g> -->
</symbol><symbol id="teeth-4" viewBox="0 0 164 322">
<mask id="mask0" mask-type="alpha" maskUnits="userSpaceOnUse" x="0" y="0" width="164" height="322">
<rect width="164" height="322" rx="12" fill="#EDEDED" fill-opacity="0.45"/>
</mask>
<g mask="url(#mask0)">
<path d="M155.878 167.199C157.392 167.199 158.62 165.962 158.62 164.433C158.62 162.903 157.391 161.666 155.878 161.666C147.953 161.666 136.903 150.403 133.311 146.06C132.341 144.887 130.611 144.73 129.452 145.709C128.289 146.689 128.133 148.429 129.101 149.604C130.587 151.405 143.973 167.199 155.878 167.199Z"/>
<path d="M79.1197 261.262C79.6243 261.262 80.1284 261.121 80.5723 260.841L94.5645 252.019C102.904 246.76 109.669 240.161 114.673 232.409C119.412 225.067 120.147 220.637 120.216 220.156C120.232 220.026 120.24 219.893 120.24 219.763V172.732C120.24 171.426 119.339 170.3 118.072 170.026L79.6931 161.726C79.315 161.646 78.9225 161.646 78.5445 161.726L40.1655 170.026C38.9018 170.3 38 171.426 38 172.732V219.763C38 219.893 38.0081 220.026 38.0272 220.156C38.096 220.637 38.8278 225.064 43.5703 232.409C48.5734 240.161 55.3391 246.759 63.6783 252.019L77.6704 260.841C78.1109 261.121 78.6156 261.262 79.1197 261.262ZM114.758 219.509C114.601 220.228 113.697 223.777 110.075 229.385C105.511 236.459 99.3127 242.493 91.6556 247.324L79.1191 255.231L66.5825 247.327C58.926 242.496 52.7274 236.459 48.163 229.388C44.5663 223.814 43.6506 220.272 43.4807 219.504V174.97L79.1185 167.263L114.756 174.97L114.758 219.509Z"/>
<path d="M79.1198 247.429C79.5614 247.429 80.0025 247.321 80.4025 247.109L88.5828 242.734C88.6406 242.701 88.6978 242.671 88.7527 242.635C95.7294 238.23 101.357 232.761 105.483 226.37C107.725 222.892 108.729 220.422 109.127 219.26C109.223 218.966 109.275 218.665 109.275 218.355V181.031C109.275 179.712 108.354 178.578 107.071 178.32L79.6568 172.787C79.3031 172.718 78.936 172.718 78.5822 172.787L51.1685 178.32C49.8858 178.578 48.9643 179.712 48.9643 181.031V218.355C48.9643 218.662 49.0164 218.967 49.1152 219.257C49.5129 220.422 50.5136 222.89 52.7588 226.365C56.8815 232.756 62.5096 238.228 69.4892 242.632L77.8365 247.106C78.2371 247.321 78.6787 247.429 79.1198 247.429ZM85.9271 237.893L79.1204 241.531L72.2258 237.843C66.0988 233.97 61.0356 229.056 57.351 223.346C55.6514 220.712 54.815 218.825 54.4479 217.868V183.297L79.1204 178.317L103.793 183.297V217.865C103.426 218.825 102.589 220.709 100.89 223.346C97.2185 229.034 92.1853 233.926 85.9271 237.893Z"/>
<path d="M72.8333 219.764C72.1066 219.764 71.4106 219.473 70.895 218.953L62.6708 210.654C61.5991 209.572 61.5991 207.824 62.6708 206.742C63.7403 205.66 65.478 205.66 66.5474 206.742L72.6801 212.928L87.2011 195.831C88.185 194.666 89.9152 194.533 91.0667 195.532C92.2153 196.525 92.3494 198.271 91.3626 199.43L74.9143 218.796C74.4183 219.382 73.6998 219.731 72.9379 219.761C72.905 219.764 72.8691 219.764 72.8333 219.764Z"/>
<path d="M92.4432 299.997C92.9369 299.997 93.4358 299.939 93.9346 299.814C96.0677 299.283 97.7614 297.632 98.3511 295.504C103.888 275.593 117.039 241.896 131.207 241.896C145.375 241.896 158.524 275.593 164.059 295.504C164.651 297.632 166.343 299.28 168.476 299.814C170.619 300.351 172.804 299.707 174.315 298.096C187.128 284.455 186.084 256.78 186.032 255.608C186.035 246.279 183.463 235.174 181.305 227.527C179.639 221.613 180.735 215.277 184.321 210.142C184.864 209.364 185.382 208.587 185.884 207.81C193.156 196.503 197 182.977 197 168.696V161.666C196.999 139.782 173.687 134 161.362 134C145.744 134 135.307 140.88 131.207 144.175C127.105 140.88 116.669 134 101.051 134C88.7262 134 65.4134 139.782 65.4134 161.666V166.803C65.4134 167.638 65.7862 168.429 66.4302 168.953C67.0741 169.478 67.9216 169.686 68.7274 169.506L79.1199 167.259L114.758 174.967L114.758 219.509C114.601 220.228 113.697 223.777 110.075 229.385C105.511 236.459 99.3127 242.493 91.6556 247.324L78.0037 255.933C77.9268 255.966 77.8499 256.002 77.7736 256.046C76.888 256.535 76.34 257.479 76.3481 258.497C76.4192 266.716 77.7048 287.029 88.095 298.092C89.2552 299.333 90.8119 299.997 92.4432 299.997ZM131.206 236.363C110.698 236.363 96.8348 280.484 93.0733 294.008C92.9912 294.306 92.7554 294.409 92.6213 294.442C92.4074 294.498 92.2212 294.445 92.0785 294.29C83.4814 285.133 82.0698 267.335 81.864 260.026L94.5647 252.014C102.904 246.754 109.67 240.156 114.673 232.404C119.412 225.061 120.147 220.632 120.216 220.151C120.232 220.026 120.24 219.893 120.24 219.763V172.732C120.24 171.426 119.339 170.3 118.072 170.026L79.6931 161.726C79.315 161.646 78.9225 161.646 78.5445 161.726L70.8963 163.381V161.666C70.8963 139.843 99.8234 139.536 101.054 139.533C118.783 139.533 129.17 149.692 129.274 149.794C130.345 150.867 132.078 150.862 133.144 149.789C133.243 149.692 143.63 139.533 161.362 139.533C162.59 139.536 191.516 139.843 191.516 161.666V168.695C191.516 181.903 187.978 194.389 181.286 204.794C180.823 205.516 180.343 206.235 179.838 206.955C175.296 213.462 173.909 221.512 176.031 229.037C178.092 236.349 180.551 246.915 180.551 255.729C180.565 256.114 181.544 282.357 170.337 294.289C170.192 294.445 170.008 294.494 169.791 294.442C169.657 294.405 169.421 294.306 169.339 294.007C165.577 280.484 151.715 236.363 131.206 236.363Z"/>
</g>
</symbol><symbol id="teeth-5" viewBox="0 0 161 322">
<mask id="mask0" mask-type="alpha" maskUnits="userSpaceOnUse" x="0" y="0" width="161" height="322">
<rect width="161" height="322" rx="12" fill="#EDEDED" fill-opacity="0.45"/>
</mask>
<g mask="url(#mask0)">
<path d="M82.1148 300C82.61 300 83.1104 299.939 83.6109 299.817C85.7506 299.286 87.4497 297.632 88.0412 295.504C93.5959 275.596 106.788 241.898 121 241.898C135.212 241.898 148.404 275.596 153.956 295.504C154.55 297.632 156.246 299.284 158.386 299.817C160.536 300.346 162.728 299.709 164.244 298.099C177.097 284.457 176.049 256.782 175.997 255.61C176 246.278 173.42 235.175 171.256 227.526C169.584 221.614 170.687 215.275 174.281 210.141C174.826 209.363 175.348 208.586 175.849 207.808C183.144 196.504 187 182.978 187 168.697V161.667C186.999 139.782 163.613 134 151.25 134C135.583 134 125.114 140.88 121 144.175C116.886 140.88 106.417 134 90.7498 134C78.3861 134 55 139.782 55 161.666V168.696C55 182.977 58.8557 196.503 66.1512 207.808C66.6516 208.585 67.1741 209.362 67.7186 210.14C71.3156 215.275 72.4185 221.613 70.7438 227.525C68.5797 235.175 66.0004 246.277 66.0004 255.731C65.9511 256.782 64.9032 284.457 77.754 298.099C78.9167 299.336 80.4783 300 82.1148 300ZM120.999 236.365C100.427 236.365 86.5201 280.487 82.7468 294.01C82.6645 294.309 82.425 294.412 82.2934 294.445C82.0736 294.5 81.8921 294.448 81.7489 294.296C70.4823 282.338 71.4884 256.119 71.4994 255.854C71.5023 246.92 73.9691 236.355 76.037 229.042C78.1658 221.514 76.774 213.463 72.2173 206.956C71.714 206.237 71.2303 205.518 70.7682 204.801C64.0502 194.391 60.4996 181.907 60.4996 168.697V161.667C60.4996 139.847 89.5146 139.537 90.7521 139.534C108.537 139.534 118.956 149.693 119.06 149.795C120.135 150.866 121.873 150.866 122.943 149.79C123.042 149.693 133.462 139.534 151.249 139.534C152.481 139.537 181.499 139.847 181.499 161.667V168.697C181.499 181.908 177.949 194.391 171.236 204.796C170.768 205.518 170.287 206.238 169.784 206.957C165.227 213.467 163.835 221.515 165.964 229.043C168.032 236.355 170.499 246.918 170.499 255.732C170.513 256.117 171.495 282.361 160.252 294.293C160.107 294.448 159.925 294.495 159.705 294.446C159.57 294.412 159.334 294.313 159.251 294.011C155.479 280.487 141.572 236.365 120.999 236.365Z"/>
<path d="M145.749 167.2C147.268 167.2 148.499 165.96 148.499 164.433C148.499 162.906 147.267 161.667 145.749 161.667C137.799 161.667 126.714 150.401 123.111 146.06C122.138 144.887 120.406 144.73 119.239 145.709C118.073 146.689 117.917 148.429 118.887 149.605C120.378 151.405 133.806 167.2 145.749 167.2Z"/>
<path d="M104.038 192.096C106.268 192.096 108.498 191.242 110.198 189.535C113.594 186.118 113.594 180.557 110.198 177.14L89.1219 155.934C85.7232 152.52 80.1981 152.517 76.8017 155.934C73.4053 159.351 73.4053 164.911 76.8017 168.328L97.8775 189.535C99.5772 191.239 101.807 192.096 104.038 192.096ZM106.309 185.619C105.055 186.878 103.02 186.881 101.766 185.619L80.6904 164.416C79.439 163.155 79.439 161.107 80.6904 159.846C81.9418 158.587 83.9795 158.585 85.2332 159.846L106.309 181.049C107.56 182.31 107.56 184.361 106.309 185.619Z"/>
<path d="M101.931 175.499C102.66 175.499 103.361 175.209 103.876 174.689L110.197 168.328C111.919 166.596 112.846 164.198 112.741 161.75C112.637 159.304 111.501 156.991 109.629 155.409C106.208 152.52 100.914 152.88 97.578 156.236L91.5554 162.294C90.4803 163.376 90.4803 165.124 91.5554 166.207L99.9869 174.689C100.501 175.209 101.202 175.499 101.931 175.499ZM104.192 158.988C104.893 158.988 105.567 159.204 106.092 159.644C106.799 160.241 107.208 161.075 107.247 161.99C107.285 162.906 106.953 163.769 106.309 164.416L101.931 168.821L97.3884 164.251L101.467 160.148C102.225 159.386 103.235 158.988 104.192 158.988Z"/>
<path d="M82.8105 192.008C85.181 192.008 87.5957 191.069 89.4217 189.232L95.4438 183.174C96.5189 182.092 96.5189 180.344 95.4438 179.262L87.0123 170.779C85.9813 169.742 84.1552 169.742 83.1236 170.779L76.8011 177.14C75.0795 178.872 74.1528 181.27 74.2572 183.719C74.3616 186.164 75.4976 188.477 77.37 190.06C78.9189 191.366 80.8493 192.008 82.8105 192.008ZM89.6108 181.215L85.5324 185.318C84.2178 186.637 82.1442 186.864 80.9096 185.821C80.2027 185.224 79.7933 184.391 79.7545 183.476C79.7156 182.56 80.0485 181.697 80.6921 181.049L85.0703 176.645L89.6108 181.215Z"/>
</g>
</symbol><symbol id="teeth-6" viewBox="0 0 161 322">
<mask id="mask0" mask-type="alpha" maskUnits="userSpaceOnUse" x="0" y="0" width="161" height="322">
<rect width="161" height="322" rx="12" fill="#EDEDED" fill-opacity="0.45"/>
</mask>
<g mask="url(#mask0)">
<path d="M142.72 202.665C144.343 202.665 145.66 201.351 145.66 199.732C145.66 198.114 144.343 196.799 142.72 196.799C132.527 196.799 121.602 183.368 121.494 183.233C120.476 181.969 118.627 181.77 117.363 182.778C116.096 183.79 115.89 185.635 116.904 186.9C117.422 187.542 129.696 202.665 142.72 202.665Z"/>
<path d="M118.498 302.456C118.889 302.456 119.209 302.427 119.45 302.394C130.008 302.133 133.071 285.284 133.78 271.131C133.818 270.374 133.559 269.632 133.063 269.06C124.09 258.753 114.197 258.799 105.227 269.189C104.762 269.729 104.51 270.415 104.515 271.128C104.642 286.355 107.431 296.196 112.809 300.382C115.026 302.113 117.154 302.456 118.498 302.456ZM127.841 272.043C126.953 286.745 123.525 296.53 119.2 296.53C118.967 296.53 118.736 296.557 118.509 296.613C118.589 296.592 117.536 296.724 116.204 295.58C114.141 293.806 110.692 288.415 110.407 272.208C116.504 265.611 121.749 265.555 127.841 272.043Z"/>
<path d="M69.2202 220.265C90.2942 220.265 107.44 203.158 107.44 182.133C107.44 161.107 90.2942 144 69.2202 144C48.1461 144 31 161.107 31 182.133C31 203.158 48.1467 220.265 69.2202 220.265ZM69.2202 149.867C87.0513 149.867 101.56 164.342 101.56 182.133C101.56 199.923 87.0513 214.398 69.2202 214.398C51.389 214.398 36.8802 199.923 36.8802 182.133C36.8802 164.342 51.389 149.867 69.2202 149.867Z"/>
<path d="M84.855 320C85.3225 320 85.7986 319.941 86.2722 319.827C88.3627 319.32 90.018 317.706 90.5908 315.623C97.2206 291.52 108.636 267.198 119.2 267.198C129.763 267.198 141.18 291.52 147.809 315.623C148.383 317.706 150.038 319.319 152.128 319.827C154.212 320.334 156.33 319.701 157.788 318.128C169.262 305.776 168.327 280.82 168.283 279.764C168.287 271.38 165.999 261.396 164.082 254.517C162.639 249.337 163.591 243.787 166.693 239.291C167.175 238.592 167.639 237.888 168.086 237.191C174.572 226.992 178 214.801 178 201.932V195.638C178 175.674 157.014 170.4 145.916 170.4C132.406 170.4 123.207 177.181 119.197 180.878C116.548 178.443 111.641 174.671 104.732 172.374C103.738 172.042 102.642 172.268 101.857 172.958C101.072 173.65 100.716 174.709 100.922 175.733C101.345 177.847 101.56 179.997 101.56 182.133C101.56 199.923 87.0513 214.398 69.2202 214.398C68.0646 214.398 66.8299 214.32 65.448 214.158C64.4926 214.05 63.5516 214.405 62.9136 215.118C62.2757 215.83 62.0258 216.81 62.2434 217.74C63.9074 224.842 66.624 231.383 70.314 237.188C70.761 237.889 71.2253 238.594 71.7077 239.294C74.8124 243.791 75.7622 249.341 74.3183 254.521C72.3983 261.4 70.1138 271.387 70.1138 279.894C70.0728 280.823 69.138 305.78 80.6127 318.132C81.7416 319.346 83.2617 320 84.855 320ZM145.916 176.266C146.983 176.269 172.12 176.553 172.12 195.637V201.932C172.12 213.685 169.01 224.791 163.121 234.045C162.716 234.682 162.292 235.325 161.848 235.964C157.753 241.898 156.501 249.234 158.414 256.092C160.234 262.619 162.404 272.043 162.404 279.892C162.419 280.251 163.277 303.59 153.475 314.141C149.121 298.213 137.05 261.33 119.2 261.33C101.351 261.33 89.2796 298.213 84.9201 314.071C75.1242 303.59 75.9822 280.25 75.9915 280.016C75.9946 272.046 78.1645 262.618 79.984 256.092C81.8978 249.234 80.6455 241.898 76.5501 235.967C76.1062 235.324 75.6828 234.685 75.2774 234.045C72.6165 229.862 70.5142 225.24 69.0034 220.265C69.0772 220.265 69.1473 220.265 69.2179 220.265C90.292 220.265 107.438 203.158 107.438 182.133C107.438 181.358 107.415 180.584 107.367 179.809C113.491 182.889 116.896 186.893 116.94 186.94C117.499 187.607 118.328 187.996 119.198 187.996C120.094 188.09 120.909 187.609 121.468 186.934C121.553 186.835 130.587 176.266 145.916 176.266Z"/>
<path d="M63.3401 205.599H75.1C76.723 205.599 78.0398 204.285 78.0398 202.666V190.933H89.7997C91.4227 190.933 92.7395 189.618 92.7395 187.999V176.266C92.7395 174.647 91.4221 173.333 89.7997 173.333H78.0398V161.6C78.0398 159.98 76.7224 158.667 75.1 158.667H63.3401C61.717 158.667 60.4002 159.981 60.4002 161.6V173.333H48.6404C47.0173 173.333 45.7005 174.647 45.7005 176.266V187.999C45.7005 189.618 47.0179 190.932 48.6404 190.932H60.4002V202.665C60.4002 204.285 61.717 205.599 63.3401 205.599ZM72.1601 199.732H66.2799V187.999C66.2799 186.38 64.9625 185.066 63.3401 185.066H51.5802V179.2H63.3401C64.9631 179.2 66.2799 177.885 66.2799 176.266V164.533H72.1601V176.266C72.1601 177.885 73.4775 179.199 75.1 179.199H86.8599V185.066H75.1C73.4769 185.066 72.1601 186.38 72.1601 187.999V199.732Z"/>
</g>
</symbol></svg>