<svg width="8" height="17" viewBox="0 0 8 17" fill="none" xmlns="http://www.w3.org/2000/svg">
  <path d="M6.90909 4.30311V12.6667C6.90909 14.274 5.60727 15.5758 4 15.5758C2.39273 15.5758 1.09091 14.274 1.09091 12.6667V3.57584C1.09091 3.09363 1.28247 2.63117 1.62344 2.29019C1.96442 1.94922 2.42688 1.75766 2.90909 1.75766C3.3913 1.75766 3.85376 1.94922 4.19474 2.29019C4.53572 2.63117 4.72727 3.09363 4.72727 3.57584V11.2122C4.72727 11.6122 4.4 11.9395 4 11.9395C3.6 11.9395 3.27273 11.6122 3.27273 11.2122V4.30311H2.18182V11.2122C2.18182 11.6944 2.37338 12.1569 2.71435 12.4979C3.05533 12.8388 3.51779 13.0304 4 13.0304C4.48221 13.0304 4.94467 12.8388 5.28565 12.4979C5.62662 12.1569 5.81818 11.6944 5.81818 11.2122V3.57584C5.81818 1.96857 4.51636 0.666748 2.90909 0.666748C1.30182 0.666748 0 1.96857 0 3.57584V12.6667C0 14.8777 1.78909 16.6667 4 16.6667C6.21091 16.6667 8 14.8777 8 12.6667V4.30311H6.90909Z" fill="#696C74"/>
</svg>
