<svg width="53" height="53" viewBox="0 0 53 53" fill="none" xmlns="http://www.w3.org/2000/svg">
<circle cx="26.5" cy="26.5" r="26" stroke="white"/>
<path d="M39.375 15.625H14.625C14.0283 15.625 13.456 15.8621 13.034 16.284C12.6121 16.706 12.375 17.2783 12.375 17.875V38.125C12.375 38.7217 12.6121 39.294 13.034 39.716C13.456 40.1379 14.0283 40.375 14.625 40.375H39.375C39.9717 40.375 40.544 40.1379 40.966 39.716C41.3879 39.294 41.625 38.7217 41.625 38.125V17.875C41.625 17.2783 41.3879 16.706 40.966 16.284C40.544 15.8621 39.9717 15.625 39.375 15.625ZM39.375 38.125H14.625V17.875H39.375V38.125ZM33.75 22.375C33.75 24.1652 33.0388 25.8821 31.773 27.148C30.5071 28.4138 28.7902 29.125 27 29.125C25.2098 29.125 23.4929 28.4138 22.227 27.148C20.9612 25.8821 20.25 24.1652 20.25 22.375C20.25 22.0766 20.3685 21.7905 20.5795 21.5795C20.7905 21.3685 21.0766 21.25 21.375 21.25C21.6734 21.25 21.9595 21.3685 22.1705 21.5795C22.3815 21.7905 22.5 22.0766 22.5 22.375C22.5 23.5685 22.9741 24.7131 23.818 25.557C24.6619 26.4009 25.8065 26.875 27 26.875C28.1935 26.875 29.3381 26.4009 30.182 25.557C31.0259 24.7131 31.5 23.5685 31.5 22.375C31.5 22.0766 31.6185 21.7905 31.8295 21.5795C32.0405 21.3685 32.3266 21.25 32.625 21.25C32.9234 21.25 33.2095 21.3685 33.4205 21.5795C33.6315 21.7905 33.75 22.0766 33.75 22.375Z" fill="white"/>
</svg>
