<svg width="53" height="53" viewBox="0 0 53 53" fill="none" xmlns="http://www.w3.org/2000/svg">
<circle cx="26.5" cy="26.5" r="26" stroke="white"/>
<path d="M27.612 12.2135C27.4346 12.0751 27.216 12 26.991 12C26.766 12 26.5474 12.0751 26.37 12.2135L12 23.4185L13.243 24.9905L15 23.6205V35.9995C15.0011 36.5296 15.2121 37.0377 15.587 37.4125C15.9618 37.7874 16.4699 37.9984 17 37.9995H37C37.5301 37.9984 38.0382 37.7874 38.413 37.4125C38.7879 37.0377 38.9989 36.5296 39 35.9995V23.6295L40.757 24.9995L42 23.4275L27.612 12.2135ZM29 35.9995H25V27.9995H29V35.9995ZM31 35.9995V27.9995C30.9995 27.4692 30.7886 26.9608 30.4136 26.5858C30.0387 26.2109 29.5303 26 29 25.9995H25C24.4697 26 23.9613 26.2109 23.5864 26.5858C23.2114 26.9608 23.0005 27.4692 23 27.9995V35.9995H17V22.0615L27 14.2715L37 22.0715V35.9995H31Z" fill="white"/>
</svg>
