<svg width="53" height="53" viewBox="0 0 53 53" fill="none" xmlns="http://www.w3.org/2000/svg">
<circle cx="26.5" cy="26.5" r="26" stroke="white"/>
<g clip-path="url(#clip0_306_2308)">
<path d="M24.5069 35.6743C21.884 38.3143 17.4269 39.1886 14.8555 36.5486C18.284 33.0001 14.8555 31.2858 17.4269 28.7143C17.8784 28.2114 18.4278 27.8058 19.0413 27.5223C19.6549 27.2388 20.3199 27.0835 20.9955 27.0657C21.6712 27.0479 22.3434 27.1681 22.971 27.4189C23.5987 27.6697 24.1686 28.0458 24.6459 28.5244C25.1233 29.0029 25.4981 29.5737 25.7473 30.202C25.9966 30.8302 26.1151 31.5027 26.0957 32.1783C26.0763 32.8539 25.9193 33.5185 25.6343 34.1314C25.3493 34.7443 24.9424 35.2926 24.4383 35.7429L24.5069 35.6743Z" stroke="white" stroke-width="1.5" stroke-linecap="round" stroke-linejoin="round"/>
<path d="M36.1465 16.8509C35.8141 16.5206 35.4174 16.2619 34.981 16.0909C34.5446 15.9199 34.0778 15.8401 33.6094 15.8566C33.1413 15.8693 32.6808 15.9778 32.2562 16.1754C31.8316 16.3729 31.4521 16.6553 31.1408 17.0052L21.918 27.2909C22.907 27.4867 23.8112 27.9837 24.5065 28.7138C25.132 29.3366 25.5866 30.11 25.8265 30.9595L35.9923 21.8566C36.3401 21.5474 36.6213 21.1705 36.8187 20.7491C37.0162 20.3276 37.1258 19.8704 37.1408 19.4052C37.1597 18.9339 37.0811 18.4639 36.91 18.0244C36.739 17.5849 36.479 17.1854 36.1465 16.8509Z" stroke="white" stroke-width="1.5" stroke-linecap="round" stroke-linejoin="round"/>
</g>
<defs>
<clipPath id="clip0_306_2308">
<rect width="24" height="24" fill="white" transform="translate(14 15)"/>
</clipPath>
</defs>
</svg>
