<svg width="53" height="53" viewBox="0 0 53 53" fill="none" xmlns="http://www.w3.org/2000/svg">
<circle cx="26.5" cy="26.5" r="26" stroke="white"/>
<path d="M31.5 11.5312C29.7542 11.5324 28.0338 11.9499 26.4818 12.7492C24.9297 13.5485 23.5907 14.7065 22.5759 16.1271C21.5611 17.5476 20.8998 19.1898 20.6469 20.9172C20.394 22.6446 20.5569 24.4074 21.1219 26.0592L12.9038 34.2787C12.7455 34.4368 12.6564 34.6513 12.6562 34.875V40.5C12.6562 40.7238 12.7451 40.9384 12.9034 41.0966C13.0616 41.2549 13.2762 41.3438 13.5 41.3438H19.125C19.3488 41.3438 19.5634 41.2549 19.7216 41.0966C19.8799 40.9384 19.9688 40.7238 19.9688 40.5V37.9688H22.5C22.7238 37.9688 22.9384 37.8799 23.0966 37.7216C23.2549 37.5634 23.3438 37.3488 23.3438 37.125V34.5938H25.875C26.0987 34.5936 26.3132 34.5045 26.4712 34.3463L27.9408 32.8781C29.4474 33.3936 31.0482 33.5749 32.6319 33.4093C34.2157 33.2438 35.7444 32.7354 37.1118 31.9194C38.4793 31.1035 39.6527 29.9997 40.5505 28.6846C41.4483 27.3695 42.0491 25.8746 42.3109 24.3039C42.5728 22.7333 42.4896 21.1244 42.067 19.5891C41.6444 18.0539 40.8926 16.629 39.8639 15.4136C38.8351 14.1981 37.5541 13.2213 36.1097 12.5508C34.6654 11.8804 33.0924 11.5325 31.5 11.5312ZM31.5 31.7812C30.3235 31.7833 29.1574 31.5604 28.0645 31.1245C27.9091 31.0568 27.7369 31.0375 27.5703 31.0691C27.4038 31.1008 27.2506 31.1818 27.1308 31.3017L25.5248 32.9062H22.5C22.2762 32.9062 22.0616 32.9951 21.9034 33.1534C21.7451 33.3116 21.6562 33.5262 21.6562 33.75V36.2812H19.125C18.9012 36.2812 18.6866 36.3701 18.5284 36.5284C18.3701 36.6866 18.2812 36.9012 18.2812 37.125V39.6562H14.3438V35.2252L22.6983 26.8692C22.8182 26.7494 22.8992 26.5962 22.9309 26.4297C22.9625 26.2631 22.9432 26.0909 22.8755 25.9355C22.1405 24.0908 22.0164 22.0591 22.5216 20.1387C23.0268 18.2184 24.1346 16.5107 25.6821 15.2665C27.2297 14.0224 29.1355 13.3073 31.1195 13.2264C33.1036 13.1456 35.0612 13.7032 36.7049 14.8173C38.3486 15.9314 39.5916 17.5433 40.2514 19.4161C40.9112 21.289 40.9529 23.3241 40.3705 25.2224C39.788 27.1208 38.6121 28.7823 37.0155 29.9628C35.4188 31.1433 33.4857 31.7807 31.5 31.7812ZM35.7188 19.6875C35.7188 19.9656 35.6363 20.2375 35.4818 20.4688C35.3272 20.7 35.1076 20.8803 34.8506 20.9867C34.5937 21.0931 34.3109 21.121 34.0382 21.0667C33.7654 21.0125 33.5148 20.8785 33.3181 20.6819C33.1215 20.4852 32.9875 20.2346 32.9333 19.9618C32.879 19.6891 32.9069 19.4063 33.0133 19.1494C33.1197 18.8924 33.3 18.6728 33.5312 18.5182C33.7625 18.3637 34.0344 18.2812 34.3125 18.2812C34.6855 18.2812 35.0431 18.4294 35.3069 18.6931C35.5706 18.9569 35.7188 19.3145 35.7188 19.6875Z" fill="white"/>
</svg>
