<svg width="51" height="33" viewBox="0 0 51 33" fill="none" xmlns="http://www.w3.org/2000/svg">
<path d="M9.48708 26.6541H1M1 26.6541V1H16.4311V32.5372H1V26.6541Z" stroke="black" stroke-width="0.642804" stroke-linecap="round"/>
<path d="M8.80853 6.78613V20.2883" stroke="black" stroke-width="0.642804" stroke-linecap="round"/>
<path d="M14.9798 23.6646V25.0148M15.6549 24.3397H14.3047" stroke="black" stroke-width="0.321402" stroke-linecap="round"/>
<path d="M14.9848 26.2683V30.9941H10.3555" stroke="black" stroke-width="0.321402" stroke-linecap="round"/>
<path d="M9.00715 2.44678H2.73828V23.9538" stroke="black" stroke-width="0.321402" stroke-linecap="round"/>
<path d="M3.41272 24.5325C3.41272 24.9054 3.11046 25.2076 2.73761 25.2076C2.36476 25.2076 2.0625 24.9054 2.0625 24.5325C2.0625 24.1597 2.36476 23.8574 2.73761 23.8574C3.11046 23.8574 3.41272 24.1597 3.41272 24.5325ZM2.43205 24.5325C2.43205 24.7013 2.56886 24.8381 2.73761 24.8381C2.90636 24.8381 3.04316 24.7013 3.04316 24.5325C3.04316 24.3638 2.90636 24.227 2.73761 24.227C2.56886 24.227 2.43205 24.3638 2.43205 24.5325Z" fill="black"/>
<path d="M17.7773 13.5377V26.6541V32.5372H33.2084V20.1924M17.7773 13.5377V1H33.2084V20.1924M17.7773 13.5377H25.7822V6.88309M33.2084 20.1924H25.7822V26.6541" stroke="black" stroke-width="0.642804" stroke-linecap="round"/>
<path d="M22.9869 11.9947H19.515V3.12189M19.515 3.12189L18.8398 3.79699M19.515 3.12189L20.1901 2.44678" stroke="black" stroke-width="0.321402" stroke-linecap="round"/>
<path d="M24.3385 11.9947C24.3385 12.3675 24.0362 12.6698 23.6634 12.6698C23.2905 12.6698 22.9883 12.3675 22.9883 11.9947C22.9883 11.6218 23.2905 11.3196 23.6634 11.3196C24.0362 11.3196 24.3385 11.6218 24.3385 11.9947ZM23.3578 11.9947C23.3578 12.1634 23.4946 12.3002 23.6634 12.3002C23.8321 12.3002 23.9689 12.1634 23.9689 11.9947C23.9689 11.8259 23.8321 11.6891 23.6634 11.6891C23.4946 11.6891 23.3578 11.8259 23.3578 11.9947Z" fill="black"/>
<path d="M47.9701 20.4814V30.9939H41.3155M41.3155 30.9939L42.1835 30.1259M41.3155 30.9939L40.9297 31.3796" stroke="black" stroke-width="0.642804" stroke-linecap="round"/>
<path d="M34.5664 20.1924V26.6541V32.5372H49.9975V13.5377M34.5664 20.1924V1H49.9975V13.5377M34.5664 20.1924H41.7033V26.6541M41.7033 6.78665V13.5377H49.9975" stroke="black" stroke-width="0.642804" stroke-linecap="round"/>
<path d="M36.0156 18.4562V2.54297H45.0814" stroke="black" stroke-width="0.321402" stroke-linecap="round"/>
<path d="M46.1432 2.54352C46.1432 2.91637 45.8409 3.21863 45.4681 3.21863C45.0952 3.21863 44.793 2.91637 44.793 2.54352C44.793 2.17066 45.0952 1.86841 45.4681 1.86841C45.8409 1.86841 46.1432 2.17066 46.1432 2.54352ZM45.1625 2.54352C45.1625 2.71227 45.2993 2.84907 45.4681 2.84907C45.6368 2.84907 45.7736 2.71227 45.7736 2.54352C45.7736 2.37476 45.6368 2.23796 45.4681 2.23796C45.2993 2.23796 45.1625 2.37476 45.1625 2.54352Z" fill="black"/>
<path d="M45.5586 12.0911V11.6089V11.3196" stroke="black" stroke-width="0.160701" stroke-linecap="round"/>
<path d="M45.5627 7.46198V6.97976V6.69043" stroke="black" stroke-width="0.160701" stroke-linecap="round"/>
<path d="M45.5625 9.96959V9.24625V8.81226" stroke="black" stroke-width="0.160701" stroke-linecap="round"/>
<path d="M46.1417 9.39111H45.4184H44.9844" stroke="black" stroke-width="0.160701" stroke-linecap="round"/>
<path d="M48.2637 9.39062H47.7815H47.4922" stroke="black" stroke-width="0.160701" stroke-linecap="round"/>
<path d="M43.6309 9.39111H43.1487H42.8594" stroke="black" stroke-width="0.160701" stroke-linecap="round"/>
<path d="M47.1096 9.39125C47.1096 10.2435 46.4188 10.9344 45.5665 10.9344C44.7143 10.9344 44.0234 10.2435 44.0234 9.39125C44.0234 8.53902 44.7143 7.84814 45.5665 7.84814C46.4188 7.84814 47.1096 8.53902 47.1096 9.39125ZM44.3883 9.39125C44.3883 10.042 44.9158 10.5695 45.5665 10.5695C46.2173 10.5695 46.7448 10.042 46.7448 9.39125C46.7448 8.74053 46.2173 8.21302 45.5665 8.21302C44.9158 8.21302 44.3883 8.74053 44.3883 9.39125Z" fill="black"/>
</svg>
