<svg width="63" height="53" viewBox="0 0 63 53" fill="none" xmlns="http://www.w3.org/2000/svg">
<path d="M11.3936 32.4171H1M1 32.4171V1H19.8975V39.6217H1V32.4171Z" stroke="black" stroke-width="1.01575" stroke-linecap="round"/>
<path d="M10.5664 8.08594V24.6212" stroke="black" stroke-width="1.01575" stroke-linecap="round"/>
<path d="M18.1256 28.7559V30.4094M18.9524 29.5826H17.2988" stroke="black" stroke-width="0.507873" stroke-linecap="round"/>
<path d="M18.1263 31.9453V37.7327H12.457" stroke="black" stroke-width="0.507873" stroke-linecap="round"/>
<path d="M10.8021 2.77148H3.125V29.1099" stroke="black" stroke-width="0.507873" stroke-linecap="round"/>
<path d="M21.551 16.3542V32.4171V39.6217H40.4485V24.5038M21.551 16.3542V1H40.4485V24.5038M21.551 16.3542H31.354V8.20467M40.4485 24.5038H31.354V32.4171" stroke="black" stroke-width="1.01575" stroke-linecap="round"/>
<path d="M27.9285 14.4643H23.6766V3.59825M23.6766 3.59825L22.8498 4.42501M23.6766 3.59825L24.5033 2.77148" stroke="black" stroke-width="0.507873" stroke-linecap="round"/>
<path d="M58.5204 24.8574V37.7313H50.3709M50.3709 37.7313L51.4339 36.6684M50.3709 37.7313L49.8984 38.2038" stroke="black" stroke-width="1.01575" stroke-linecap="round"/>
<path d="M42.1035 24.5038V32.4171V39.6217H61.001V16.3542M42.1035 24.5038V1H61.001V16.3542M42.1035 24.5038H50.8436V32.4171M50.8436 8.08656V16.3542H61.001" stroke="black" stroke-width="1.01575" stroke-linecap="round"/>
<path d="M43.875 22.3787V2.89062H54.9773" stroke="black" stroke-width="0.507873" stroke-linecap="round"/>
<path d="M55.5664 14.5816V13.991V13.6367" stroke="black" stroke-width="0.253936" stroke-linecap="round"/>
<path d="M55.5667 8.91362V8.32308V7.96875" stroke="black" stroke-width="0.253936" stroke-linecap="round"/>
<path d="M55.5684 11.9837V11.0979V10.5664" stroke="black" stroke-width="0.253936" stroke-linecap="round"/>
<path d="M56.2767 11.2754H55.3909H54.8594" stroke="black" stroke-width="0.253936" stroke-linecap="round"/>
<path d="M58.8726 11.2754H58.2821H57.9277" stroke="black" stroke-width="0.253936" stroke-linecap="round"/>
<path d="M53.2046 11.2773H52.6141H52.2598" stroke="black" stroke-width="0.253936" stroke-linecap="round"/>
<path d="M0.679443 50V43.0114H1.19873L4.0621 49.1944L6.89635 43.0114H7.43505V49.9903H6.88664V44.2975L4.28534 50H3.82915L1.223 44.2975V50H0.679443ZM8.30801 50L10.7831 43.0114H11.4771L13.9522 50H13.3602L10.9821 43.3026H11.2636L8.90009 50H8.30801ZM9.33203 48.2432V47.7142H12.9234V48.2432H9.33203ZM17.4229 50.1456C16.7272 50.1456 16.1432 49.9919 15.6709 49.6845C15.1985 49.3739 14.8426 48.9452 14.6032 48.3985C14.3637 47.8517 14.244 47.2208 14.244 46.5057C14.244 45.7907 14.3637 45.1598 14.6032 44.613C14.8426 44.0662 15.1985 43.6391 15.6709 43.3318C16.1432 43.0212 16.7272 42.8658 17.4229 42.8658C18.235 42.8658 18.8934 43.0762 19.3981 43.4968C19.9061 43.9174 20.2506 44.4803 20.4318 45.1857L19.8543 45.3264C19.7055 44.7408 19.4272 44.2765 19.0195 43.9335C18.6151 43.5874 18.0829 43.4143 17.4229 43.4143C16.8502 43.4143 16.373 43.5453 15.9912 43.8074C15.6126 44.0694 15.3263 44.4334 15.1322 44.8993C14.9413 45.3652 14.8442 45.9007 14.841 46.5057C14.8345 47.1107 14.9267 47.6462 15.1176 48.1121C15.3117 48.5748 15.6013 48.9388 15.9863 49.2041C16.3713 49.4662 16.8502 49.5972 17.4229 49.5972C18.0829 49.5972 18.6151 49.4241 19.0195 49.0779C19.4272 48.7317 19.7055 48.2674 19.8543 47.685L20.4318 47.8258C20.2506 48.5311 19.9061 49.0941 19.3981 49.5147C18.8934 49.9353 18.235 50.1456 17.4229 50.1456ZM23.4168 50V43.555H20.9126V43.0114H26.4792V43.555H23.9749V50H23.4168ZM27.2581 50V43.0114H31.5774V43.555H27.8162V46.2097H30.995V46.7532H27.8162V49.4564H31.5774V50H27.2581ZM32.7463 50V43.0114H35.3816C35.4495 43.0114 35.5223 43.0147 35.6 43.0212C35.6809 43.0244 35.765 43.0341 35.8524 43.0503C36.2018 43.1053 36.5011 43.2315 36.7502 43.4288C37.0026 43.6229 37.1951 43.8688 37.3277 44.1665C37.4604 44.4609 37.5267 44.7861 37.5267 45.142C37.5267 45.5011 37.4604 45.8295 37.3277 46.1272C37.1951 46.4216 37.0026 46.6675 36.7502 46.8649C36.5011 47.059 36.2018 47.1835 35.8524 47.2386C35.765 47.2515 35.6809 47.2612 35.6 47.2677C35.5223 47.2741 35.4495 47.2774 35.3816 47.2774H33.3045V50H32.7463ZM33.3045 46.729H35.3719C35.4301 46.729 35.4965 46.7257 35.5709 46.7193C35.6485 46.7128 35.7262 46.7031 35.8038 46.6901C36.0562 46.6384 36.2665 46.5365 36.4347 46.3844C36.603 46.2291 36.7292 46.0431 36.8133 45.8263C36.8974 45.6095 36.9395 45.3814 36.9395 45.142C36.9395 44.9026 36.8974 44.6761 36.8133 44.4625C36.7292 44.2458 36.603 44.0613 36.4347 43.9093C36.2665 43.754 36.0562 43.6504 35.8038 43.5987C35.7262 43.5825 35.6485 43.5712 35.5709 43.5647C35.4965 43.5582 35.4301 43.555 35.3719 43.555H33.3045V46.729ZM41.2906 50.1456C40.5949 50.1456 40.0109 49.9919 39.5386 49.6845C39.0662 49.3739 38.7103 48.9452 38.4709 48.3985C38.2315 47.8517 38.1117 47.2208 38.1117 46.5057C38.1117 45.7907 38.2315 45.1598 38.4709 44.613C38.7103 44.0662 39.0662 43.6391 39.5386 43.3318C40.0109 43.0212 40.5949 42.8658 41.2906 42.8658C42.1027 42.8658 42.7611 43.0762 43.2658 43.4968C43.7738 43.9174 44.1183 44.4803 44.2995 45.1857L43.722 45.3264C43.5732 44.7408 43.2949 44.2765 42.8873 43.9335C42.4828 43.5874 41.9506 43.4143 41.2906 43.4143C40.7179 43.4143 40.2407 43.5453 39.8589 43.8074C39.4803 44.0694 39.194 44.4334 38.9999 44.8993C38.809 45.3652 38.7119 45.9007 38.7087 46.5057C38.7022 47.1107 38.7944 47.6462 38.9853 48.1121C39.1794 48.5748 39.469 48.9388 39.854 49.2041C40.239 49.4662 40.7179 49.5972 41.2906 49.5972C41.9506 49.5972 42.4828 49.4241 42.8873 49.0779C43.2949 48.7317 43.5732 48.2674 43.722 47.685L44.2995 47.8258C44.1183 48.5311 43.7738 49.0941 43.2658 49.5147C42.7611 49.9353 42.1027 50.1456 41.2906 50.1456ZM45.3627 50V43.0114H45.9208V46.331L49.2452 43.0114H49.9829L46.639 46.3698L50.2741 50H49.5267L45.9208 46.4281V50H45.3627ZM50.4699 50L52.945 43.0114H53.639L56.1141 50H55.522L53.144 43.3026H53.4254L51.062 50H50.4699ZM51.4939 48.2432V47.7142H55.0852V48.2432H51.4939ZM61.6525 50H61.0895V47.2774H58.595L58.4348 47.2143C57.943 47.1108 57.5596 46.8681 57.2846 46.4863C57.0096 46.1045 56.8721 45.6564 56.8721 45.142C56.8721 44.7861 56.9384 44.4609 57.0711 44.1665C57.2037 43.8688 57.3946 43.6229 57.6437 43.4288C57.8961 43.2315 58.197 43.1053 58.5464 43.0503C58.6338 43.0341 58.7163 43.0244 58.7939 43.0212C58.8748 43.0147 58.9492 43.0114 59.0172 43.0114H61.6525V50ZM57.3477 50H56.6925L58.2067 46.894L58.726 47.156L57.3477 50ZM61.0895 46.729V43.555H59.0269C58.9719 43.555 58.9056 43.5582 58.8279 43.5647C58.7503 43.5712 58.6726 43.5825 58.595 43.5987C58.3426 43.6504 58.1323 43.754 57.9641 43.9093C57.7958 44.0613 57.668 44.2458 57.5807 44.4625C57.4965 44.6761 57.4545 44.9026 57.4545 45.142C57.4545 45.3814 57.4965 45.6095 57.5807 45.8263C57.668 46.0431 57.7958 46.2291 57.9641 46.3844C58.1323 46.5365 58.3426 46.6384 58.595 46.6901C58.6726 46.7031 58.7503 46.7128 58.8279 46.7193C58.9056 46.7257 58.9719 46.729 59.0269 46.729H61.0895Z" fill="black"/>
</svg>
