<svg width="53" height="53" viewBox="0 0 53 53" fill="none" xmlns="http://www.w3.org/2000/svg">
<circle cx="26.5" cy="26.5" r="26" stroke="white"/>
<path d="M26.9788 18C22.1076 18 17.1107 20.8194 13.1769 26.4581C13.0647 26.6208 13.0031 26.8132 13.0001 27.0109C12.9971 27.2086 13.0528 27.4027 13.1601 27.5688C16.1826 32.3 21.1126 36 26.9788 36C32.7813 36 37.8126 32.2888 40.8407 27.5469C40.9455 27.3841 41.0012 27.1945 41.0012 27.0009C41.0012 26.8073 40.9455 26.6178 40.8407 26.455C37.8057 21.7675 32.7376 18 26.9788 18Z" stroke="white" stroke-width="2" stroke-linecap="round" stroke-linejoin="round"/>
<path d="M27 32C29.7614 32 32 29.7614 32 27C32 24.2386 29.7614 22 27 22C24.2386 22 22 24.2386 22 27C22 29.7614 24.2386 32 27 32Z" stroke="white" stroke-width="2" stroke-miterlimit="10"/>
</svg>
