<svg width="48" height="37" viewBox="0 0 48 37" fill="none" xmlns="http://www.w3.org/2000/svg">
<path d="M32.4096 29.9247C30.0514 32.7958 26.8625 34.8668 23.2806 35.8536C19.6986 36.8403 15.899 36.6945 12.4032 35.436C8.90742 34.1776 5.8867 31.8682 3.75554 28.8248C1.62439 25.7813 0.487231 22.153 0.500108 18.4376C0.512985 14.7222 1.67526 11.1019 3.82746 8.07327C5.97966 5.04469 9.01632 2.7563 12.5207 1.52212C16.0252 0.287929 19.8257 0.168419 23.4007 1.17999C26.9758 2.19155 30.1502 4.28463 32.4884 7.172" stroke="black"/>
<path d="M18 18.5H47M47 18.5L42.8571 15M47 18.5L42.8571 22" stroke="black"/>
</svg>
