<svg width="27" height="39" viewBox="0 0 27 39" fill="none" xmlns="http://www.w3.org/2000/svg">
<path fill-rule="evenodd" clip-rule="evenodd" d="M15.8191 10.6638C19.0665 8.34417 20.1811 3.47542 20.1811 3.47542L11.9415 10.583C15.0923 10.9867 14.1233 11.875 15.8191 10.6638ZM6.98723 23.6138C6.9334 19.2787 11.5425 19.3404 15.4422 21.2452C18.4775 22.7272 20.9079 25.2842 22.6052 24.6382C21.5555 23.5616 20.1811 21.1644 20.1811 21.1644C20.1811 21.1644 19.3737 18.9842 18.6469 16.3986C17.9202 13.8146 14.9308 12.2787 14.9308 12.2787C14.9308 12.2787 10.6495 9.85625 6.1259 13.7322C1.60231 17.6098 5.9644 25.3903 5.9644 25.3903C5.93431 24.6477 5.73798 23.9432 5.73165 23.4238C5.66831 18.2558 6.20665 23.2639 6.98723 23.6138ZM17.4356 19.1441C17.4356 19.1441 15.9584 19.7077 15.8207 17.1887C15.8935 17.3137 17.7602 18.4047 17.4356 19.1441ZM23.1705 25.0404C23.1705 25.0404 23.0692 28.6758 26.5636 26.4132L23.1705 25.0404ZM9.84198 31.2597C0.0664774 21.3243 2.73281 12.521 8.14623 10.9852C13.5422 9.45567 15.0939 0 15.0939 0C15.0939 0 3.2189 5.97708 0.794811 14.5397C-1.62927 23.1024 9.84198 31.2597 9.84198 31.2597ZM13.5581 23.2639C11.9969 21.4874 9.27673 22.6987 9.27673 22.6987C9.27673 22.6987 6.79881 23.7484 7.90398 26.4955C9.00756 29.2426 15.4976 32.1496 15.4976 32.1496C10.9471 29.5925 7.23106 25.8495 9.35748 24.3153C11.4855 22.781 13.8003 24.8805 13.8003 24.8805C13.8003 24.8805 17.2203 29.1887 23.4143 27.4645C18.2162 27.7337 15.1192 25.0404 13.5581 23.2639ZM0.0522275 21.3924C0.0522275 21.3924 -0.655523 26.904 3.13973 31.0238C6.86373 35.0645 13.186 34.0781 13.186 34.0781C13.186 34.0781 1.55323 34.9568 0.0522275 21.3924Z" fill="#F7F7F8"/>
</svg>
